<?xml version="1.0" encoding="UTF-8"?>
<svg width="215px" height="304px" viewBox="0 0 215 304" version="1.1" xmlns="http://www.w3.org/2000/svg" xmlns:xlink="http://www.w3.org/1999/xlink">
    <!-- Generator: Sketch 58 (84663) - https://sketch.com -->
    <title>Asset 1</title>
    <desc>Created with Sketch.</desc>
    <defs>
        <linearGradient x1="46.0070175%" y1="75.5900629%" x2="54.616885%" y2="23.5621857%" id="linearGradient-1">
            <stop stop-color="#5B5663" offset="0%"></stop>
            <stop stop-color="#3D3942" offset="100%"></stop>
        </linearGradient>
        <linearGradient x1="51.9222854%" y1="96.8713116%" x2="48.8353594%" y2="0.136851783%" id="linearGradient-2">
            <stop stop-color="#2E33A0" offset="0%"></stop>
            <stop stop-color="#0665A5" offset="100%"></stop>
        </linearGradient>
        <linearGradient x1="79.9812249%" y1="88.9627949%" x2="20.9065713%" y2="6.99216417%" id="linearGradient-3">
            <stop stop-color="#313131" offset="0%"></stop>
            <stop stop-color="#3A3A3A" offset="100%"></stop>
        </linearGradient>
        <linearGradient x1="47.5578944%" y1="100.431334%" x2="53.1288661%" y2="-0.541186266%" id="linearGradient-4">
            <stop stop-color="#3D3942" offset="0%"></stop>
            <stop stop-color="#5B5663" offset="100%"></stop>
        </linearGradient>
        <linearGradient x1="1784.99258%" y1="-22.1111111%" x2="1784.99258%" y2="-98.2962963%" id="linearGradient-5">
            <stop stop-color="#313131" offset="0%"></stop>
            <stop stop-color="#3A3A3A" offset="100%"></stop>
        </linearGradient>
        <linearGradient x1="50.0693853%" y1="100%" x2="50.0693853%" y2="0%" id="linearGradient-6">
            <stop stop-color="#836CEB" offset="0%"></stop>
            <stop stop-color="#C3A4EB" offset="100%"></stop>
        </linearGradient>
        <linearGradient x1="0%" y1="49.9452866%" x2="100%" y2="49.9452866%" id="linearGradient-7">
            <stop stop-color="#3D3942" offset="0%"></stop>
            <stop stop-color="#000000" offset="100%"></stop>
        </linearGradient>
        <linearGradient x1="50.0057344%" y1="100.01835%" x2="50.0057344%" y2="-0.000955587679%" id="linearGradient-8">
            <stop stop-color="#FFC2A9" offset="2%"></stop>
            <stop stop-color="#FF9595" offset="100%"></stop>
        </linearGradient>
        <linearGradient x1="-0.149059391%" y1="49.9648219%" x2="99.8694728%" y2="49.9648219%" id="linearGradient-9">
            <stop stop-color="#FF7C7C" offset="0%"></stop>
            <stop stop-color="#FF9E8B" offset="98%"></stop>
        </linearGradient>
        <linearGradient x1="49.9729584%" y1="99.9975117%" x2="49.9729584%" y2="-0.019838808%" id="linearGradient-10">
            <stop stop-color="#FFC2A9" offset="2%"></stop>
            <stop stop-color="#FF9595" offset="100%"></stop>
        </linearGradient>
        <linearGradient x1="50.056926%" y1="100.069735%" x2="50.056926%" y2="0.10460251%" id="linearGradient-11">
            <stop stop-color="#CBC1F7" offset="0%"></stop>
            <stop stop-color="#E8DCF7" offset="100%"></stop>
        </linearGradient>
        <linearGradient x1="49.8658792%" y1="100%" x2="49.8658792%" y2="-0.0311623559%" id="linearGradient-12">
            <stop stop-color="#CBC1F7" offset="0%"></stop>
            <stop stop-color="#E8DCF7" offset="100%"></stop>
        </linearGradient>
        <linearGradient x1="0%" y1="50%" x2="100%" y2="50%" id="linearGradient-13">
            <stop stop-color="#FF7C7C" offset="0%"></stop>
            <stop stop-color="#FF9E8B" offset="98%"></stop>
        </linearGradient>
        <linearGradient x1="0%" y1="50.146438%" x2="100%" y2="50.146438%" id="linearGradient-14">
            <stop stop-color="#FF7C7C" offset="0%"></stop>
            <stop stop-color="#FF9E8B" offset="98%"></stop>
        </linearGradient>
        <linearGradient x1="-0.086281277%" y1="49.9874498%" x2="100.086281%" y2="49.9874498%" id="linearGradient-15">
            <stop stop-color="#FF9E8B" offset="2%"></stop>
            <stop stop-color="#FF7C7C" offset="100%"></stop>
        </linearGradient>
        <linearGradient x1="0.0265619229%" y1="50%" x2="100%" y2="50%" id="linearGradient-16">
            <stop stop-color="#9D68C2" offset="0%"></stop>
            <stop stop-color="#CCEDFF" offset="100%"></stop>
        </linearGradient>
        <linearGradient x1="0.317863954%" y1="50%" x2="100%" y2="50%" id="linearGradient-17">
            <stop stop-color="#9D68C2" offset="0%"></stop>
            <stop stop-color="#CCEDFF" offset="100%"></stop>
        </linearGradient>
        <linearGradient x1="27.7562077%" y1="1.43843591%" x2="55.48059%" y2="101.166164%" id="linearGradient-18">
            <stop stop-color="#836CEB" offset="0%"></stop>
            <stop stop-color="#C3A4EB" offset="100%"></stop>
        </linearGradient>
        <linearGradient x1="-0.793650794%" y1="49.8753117%" x2="99.2063492%" y2="49.8753117%" id="linearGradient-19">
            <stop stop-color="#B31A8F" offset="0%"></stop>
            <stop stop-color="#92117E" offset="100%"></stop>
        </linearGradient>
        <linearGradient x1="-1.20392725%" y1="50.8217834%" x2="100.504468%" y2="50.8217834%" id="linearGradient-20">
            <stop stop-color="#B31A8F" offset="0%"></stop>
            <stop stop-color="#FE117E" offset="100%"></stop>
        </linearGradient>
    </defs>
    <g id="Page-1" stroke="none" stroke-width="1" fill="none" fill-rule="evenodd" opacity="0.200000003">
        <g id="Microsite_Retailer" transform="translate(-1155.000000, -1062.000000)" fill-rule="nonzero">
            <g id="Asset-1" transform="translate(1267.500000, 1233.500000) rotate(20.000000) translate(-1267.500000, -1233.500000) translate(1132.000000, 1100.000000)">
                <path d="M38.0908132,29.3073452 L29.3045201,28.243647 C24.0019972,26.5853717 19.0531597,24.0112667 14.6973079,20.6458026 C4.48324226,11.8778901 0.592169629,3.0188035 1.14131294,1.02816827 C1.69045626,-0.962466974 15.8112844,1.13453809 25.3977577,7.75985843 C34.4350877,13.9900909 37.3220125,25.1589222 38.0908132,29.3073452 Z" id="Path" fill="url(#linearGradient-1)"></path>
                <path d="M52.8022598,44.5997813 C52.8022598,44.5997813 51.7558165,38.0567343 53.4802372,34.0077428 C55.204658,29.9587514 61.6159659,25.9251553 62.4413296,26.6949256 C63.2666934,27.4646958 52.8022598,44.5997813 52.8022598,44.5997813 Z" id="Path" fill="url(#linearGradient-2)"></path>
                <path d="M0.839254098,0.880682808 C0.839254098,0.880682808 20.050698,8.71053018 25.9326828,15.0446172 C29.4861194,18.8828305 32.4843406,23.2038383 34.8392541,27.8806828 C34.8392541,27.8806828 11.5696967,27.4991113 0.839254098,0.880682808 Z" id="Path" fill="url(#linearGradient-3)" opacity="0.82" style="mix-blend-mode: color-dodge;"></path>
                <path d="M60.8345639,42.0683477 C58.0345757,45.4730063 54.8376299,48.5264238 51.3126312,51.1627893 L49.4293375,50.9202709 L50.0169251,50.3139748 C50.0169251,50.3139748 44.924499,45.766754 45.3162241,35.0504702 C45.7079492,24.3341865 57.3693036,6.43329386 60.623635,8.2976544 C63.8779665,10.1620149 66.830971,34.8382666 60.8345639,42.0683477 Z" id="Path" fill="url(#linearGradient-4)"></path>
                <path d="M51.485982,50.2474316 C51.485982,50.2474316 53.4516457,21.5170612 59.8728141,9.2474316 C59.8728141,9.2474316 72.1327318,37.6589131 51.485982,50.2474316 Z" id="Path" fill="url(#linearGradient-5)" opacity="0.82" style="mix-blend-mode: color-dodge;"></path>
                <path d="M74.6186929,222.264354 C74.6186929,222.264354 63.4625891,228.38362 65.2043808,245.264354 C65.2043808,245.264354 77.3537376,238.707997 74.6186929,222.264354 Z" id="Path" fill="url(#linearGradient-6)"></path>
                <path d="M65.8299235,209.542726 C65.8299235,209.542726 77.8123821,203.147647 80.1785385,191.281896 C82.5446949,179.416144 68.1354092,155.790721 68.1354092,155.790721 L48.6449545,124.542726 C48.6449545,124.542726 37.072023,134.968827 34.7210343,145.758629 C32.3700455,156.548432 45.596253,185.265672 45.596253,185.265672 L65.8299235,209.542726 Z" id="Path" fill="#FE8883"></path>
                <path d="M38.8058814,145.315666 C38.8058814,145.315666 50.1895292,146.833693 57.7681456,154.241663 L58.8058814,150.917184 L52.3907871,138.241663 L46.9819821,145.831795 C44.316361,145.153675 41.540266,144.97843 38.8058814,145.315666 L38.8058814,145.315666 Z" id="Path" fill="#EC6A6B"></path>
                <path d="M20.6066281,51.4482358 C20.6066281,51.4482358 17.9035614,54.7057495 18.9878424,62.6668695 C18.9878424,62.6668695 50.6916071,139.294552 67.2917961,170.088712 C69.1825152,173.668623 73.4195888,175.326863 77.2488551,173.985551 L188.731265,134.941053 L187.738613,132.109756 L74.0570985,170.119156 L20.6066281,51.4482358 Z" id="Path" fill="#5B5663"></path>
                <path d="M190.33245,130.590146 L76.1072528,171.036062 C73.1000057,172.112195 69.7698391,170.695816 68.4637037,167.785126 L18.9640799,57.0091035 C18.217915,55.4567705 18.1777881,53.6587347 18.8539598,52.0747609 C19.5301314,50.490787 20.8570435,49.274449 22.4953996,48.736769 C54.1396927,39.5792031 78.1404368,32.8331295 102.523358,26.8349238 L102.767952,26.8349238 C117.47414,23.2176853 132.302626,19.8904363 149.011424,16.4716117 C151.264656,16.0994845 153.52227,17.1092754 154.744086,19.0357302 L154.744086,19.0357302 C154.992274,19.3865286 155.19756,19.7656977 155.35557,20.1651633 C160.415599,32.5431399 175.427529,69.6923323 186.296656,99.9428251 L186.296656,100.080189 C189.354076,108.489887 191.998744,116.380656 194.077789,122.974103 C195.088889,126.105649 193.432501,129.473867 190.33245,130.590146 L190.33245,130.590146 Z" id="Path" fill="#3D3942"></path>
                <path d="M23.5091935,55.1260533 L70.6905528,162.489834 L193.509193,123.045743 L150.940237,19.4898343 C107.817416,28.9760148 65.2722025,40.8738263 23.5091935,55.1260533 Z" id="Path" fill="#CBC8CE"></path>
                <path d="M105.360257,114.416808 L139.823403,103.793536 C143.796276,102.581024 148.064045,104.463785 149.799576,108.194606 L149.799576,108.194606 C150.768577,110.288619 150.798935,112.688832 149.883197,114.80608 C148.967459,116.923328 147.190414,118.561575 144.988263,119.31869 L111.017009,130.973937 C106.985308,132.356252 102.550343,130.482545 100.779518,126.648747 L100.287626,125.571244 C99.3076698,123.440991 99.3023371,120.997669 100.272986,118.863266 C101.243634,116.728863 103.096628,115.10928 105.360257,114.416808 Z" id="Path" fill="#DBD8FF"></path>
                <path d="M105.01928,113.444761 L139.493593,102.85438 C143.462657,101.640262 147.726756,103.525167 149.458703,107.259364 L149.458703,107.259364 C150.42682,109.354805 150.456543,111.756755 149.54057,113.874992 C148.624597,115.993229 146.847838,117.631391 144.64689,118.386939 L110.66928,130.036358 C106.641129,131.414632 102.213245,129.541038 100.440297,125.708115 L99.9591152,124.649077 C98.9682389,122.513655 98.9556194,120.059666 99.9244824,117.91439 C100.893345,115.769114 102.749791,114.140468 105.01928,113.444761 Z" id="Path" fill="#FFFFFF"></path>
                <polygon id="Path" fill="#3A3A3A" points="53.5962035 69.216486 140.788719 43.2981651 160.596203 88.6740956 74.6673475 116.298165"></polygon>
                <path d="M112.446077,116.78879 C112.20688,116.21698 112.20688,115.575096 112.446077,115.003287 C113.093167,113.975739 114.396075,113.555814 115.533895,114.008088 C116.076413,114.333213 116.462066,114.861266 116.602755,115.471615 L118.087282,119.862198 C118.326479,120.434008 118.326479,121.075892 118.087282,121.647701 C117.444225,122.6803 116.137057,123.101598 114.999465,122.6429 C114.464837,122.309441 114.081813,121.784988 113.930605,121.179373 L112.446077,116.78879 Z M115.326061,120.901302 C115.375902,121.144981 115.526543,121.357139 115.741728,121.486713 C115.926021,121.567489 116.136402,121.567489 116.320694,121.486713 C116.514704,121.433308 116.679856,121.307257 116.780898,121.135467 C116.868273,120.89915 116.868273,120.640019 116.780898,120.403703 L115.29637,115.764321 C115.246529,115.520642 115.095888,115.308485 114.880702,115.17891 C114.696821,115.096248 114.485618,115.096248 114.301737,115.17891 C114.110974,115.231344 113.950143,115.358189 113.856378,115.530157 C113.759031,115.764638 113.759031,116.027439 113.856378,116.26192 L115.326061,120.901302 Z" id="Shape" fill="#1C1B1A"></path>
                <path d="M122.566215,121.122372 L122.449305,120.98234 C122.403066,120.92431 122.363858,120.861693 122.332395,120.795632 L122.198783,120.50001 C122.198783,120.391096 122.098575,120.235506 122.031769,120.048797 L121.530725,118.617363 C121.455632,118.287207 121.2537,117.993962 120.962875,117.792733 C120.695426,117.6653 120.37855,117.6653 120.111101,117.792733 L119.576654,117.948324 L120.879368,121.604703 L119.342833,122.087034 L116.136153,112.938306 L118.457656,112.269267 C119.071315,112.026289 119.764665,112.026289 120.378324,112.269267 C120.930102,112.589044 121.325721,113.097208 121.48062,113.685141 L121.731142,114.400858 C122.10654,115.119825 121.967044,115.980001 121.380412,116.563567 C121.788302,116.579501 122.170181,116.754557 122.432604,117.045898 C122.73196,117.384151 122.953649,117.776019 123.083961,118.197269 L123.585005,119.613143 C123.644315,119.811164 123.722568,120.003831 123.818825,120.188828 C123.89596,120.364509 124.003123,120.527394 124.136153,120.671159 L122.566215,121.122372 Z M118.15703,113.825173 L119.142416,116.625804 L119.76037,116.454654 C120.008766,116.387043 120.2224,116.237778 120.361623,116.034559 C120.480407,115.765427 120.480407,115.463502 120.361623,115.19437 L120.044295,114.291945 C119.976068,114.033503 119.81741,113.803583 119.593355,113.638464 C119.382323,113.543546 119.136329,113.543546 118.925297,113.638464 L118.15703,113.825173 Z" id="Shape" fill="#1C1B1A"></path>
                <path d="M121.804462,111.132588 L124.115384,110.394418 C124.694563,110.143091 125.356453,110.143091 125.935631,110.394418 C126.497206,110.747068 126.894786,111.298902 127.043607,111.932272 L128.62643,116.545832 C128.863806,117.134048 128.863806,117.787661 128.62643,118.375877 C128.32515,118.926298 127.794613,119.324101 127.170233,119.467753 L124.859311,120.205923 L121.804462,111.132588 Z M123.70385,111.94765 L125.872318,118.406634 L126.695386,118.145199 C126.900557,118.093512 127.073295,117.959249 127.170233,117.776115 C127.273119,117.534877 127.273119,117.263804 127.170233,117.022566 L125.58741,112.332113 C125.533031,112.08074 125.379662,111.859981 125.160048,111.716972 C124.967719,111.638364 124.750903,111.638364 124.558575,111.716972 L123.70385,111.94765 Z" id="Shape" fill="#1C1B1A"></path>
                <polygon id="Path" fill="#1C1B1A" points="130.512116 113.511405 132.514368 112.91439 132.955809 114.168122 130.953557 114.794987 131.83644 117.392002 134.358962 116.600957 134.784638 117.854689 130.827431 119.093495 127.784638 110.332301 131.757611 109.093495 132.183287 110.347226 129.67653 111.123345"></polygon>
                <path d="M137.601297,115.60651 L137.484387,115.466913 L137.367477,115.280783 L137.233865,114.986078 L137.066851,114.536265 L136.565807,113.109272 C136.484569,112.782028 136.291164,112.48811 136.014659,112.271689 C135.739154,112.153497 135.421688,112.153497 135.146183,112.271689 L134.611736,112.426797 L135.931151,116.133877 L134.377915,116.614711 L131.171235,107.494365 L133.492738,106.796379 C134.106397,106.554155 134.799747,106.554155 135.413406,106.796379 C135.965183,107.115164 136.360803,107.621752 136.515702,108.207861 L136.766224,108.921358 C137.141622,109.638094 137.002126,110.495603 136.415494,111.077358 C136.824447,111.089328 137.207954,111.264585 137.467686,111.558193 C137.767042,111.895396 137.988731,112.286048 138.119043,112.705991 L138.620087,114.117474 C138.68686,114.312538 138.764914,114.504116 138.853907,114.691373 C138.937382,114.863459 139.044008,115.025025 139.171235,115.172208 L137.601297,115.60651 Z M133.17541,108.316437 L134.160796,111.10838 L134.762049,110.937761 C135.010445,110.87036 135.224079,110.721558 135.363302,110.51897 C135.489813,110.252136 135.489813,109.94822 135.363302,109.681387 L135.062675,108.781761 C134.994448,108.524121 134.83579,108.294914 134.611736,108.130307 C134.401288,108.03334 134.154125,108.03334 133.943677,108.130307 L133.17541,108.316437 Z" id="Shape" fill="#1C1B1A"></path>
                <path d="M187.991629,99.1704791 L24.9916288,48.2077032 L104.598402,26.5265697 L104.841708,26.5265697 C119.470498,22.9382816 134.220941,19.6376621 150.841801,16.2461999 C153.083175,15.8770509 155.328907,16.8787601 156.544292,18.7897966 L156.544292,18.7897966 L187.930802,99.034215 L187.991629,99.1704791 Z" id="Path" fill="url(#linearGradient-7)" opacity="0.82" style="mix-blend-mode: color-dodge;"></path>
                <path d="M153.554615,146.150993 L155.680873,142.393941 C155.680873,142.393941 147.920806,94.2614239 138.500085,77.1509931 L171.635571,99.9498123 L175.500085,110.225124 L170.844044,127.954186 L167.584816,141.367919 L153.554615,146.150993 Z" id="Path" fill="#A19BAA" opacity="0.5" style="mix-blend-mode: multiply;"></path>
                <path d="M175.929083,112.611654 C175.929083,112.611654 176.87181,119.389892 178.046356,125.22546 C179.220901,131.061029 184.104537,137.973934 187.41181,138.557491 C190.719083,139.141048 192.929083,134.816741 192.929083,134.816741 L183.007265,112.611654 L175.929083,112.611654 Z" id="Path" fill="#FE9083"></path>
                <path d="M262.766751,202.114896 C249.772435,192.88497 230.318867,175.247587 229.970128,173.176185 C228.923911,167.464597 235.261862,116.821852 233.00264,110.105025 L233.00264,110.105025 C232.944112,109.921661 232.851501,109.751109 232.729714,109.602405 C229.697201,105.977451 219.765723,100.189709 215.262442,99.8241669 C212.111599,99.6802026 208.956407,99.9879125 205.891978,100.738021 C202.473701,100.297108 199.022152,100.174739 195.581435,100.372479 C195.581435,100.372479 191.836282,99.7023197 188.606656,99.3672399 C186.261987,99.2340252 183.910829,99.2696552 181.571227,99.4738562 C181.571227,99.4738562 173.444094,90.2286995 172.200763,88.9645348 C170.957433,87.70037 166.969679,83.725105 161.586969,79.0035257 C156.20426,74.2819465 147.121885,61.6707608 144.771687,60.574136 C142.42149,59.4775111 136.113864,63.1938509 135.947076,66.240031 C135.825775,68.3114335 137.463332,74.4037938 143.695145,82.5370947 C149.926959,90.6703957 160.995629,96.7018323 163.148713,98.9407747 C164.331393,100.113554 168.743699,104.332514 173.504744,109.709021 C171.78142,112.773456 170.354661,115.996857 169.244064,119.334951 C166.605778,126.721938 164.437531,135.129395 164.771108,136.393559 C165.31696,138.388807 170.729995,144.35932 175.582015,151.974771 C180.434035,159.590221 183.875937,168.820147 189.091858,175.140971 C194.30778,181.461794 209.697781,180.745942 209.697781,180.745942 C211.214037,182.269032 213.442934,184.690745 216.172195,187.554155 L218.006866,189.458017 L219.68991,191.224802 L222.343359,193.996826 L228.969398,200.896424 L232.456788,204.490916 L232.684226,204.734611 L232.851015,204.917381 C232.851015,204.917381 232.851015,204.917381 232.851015,204.917381 L232.972315,205.05446 C244.344237,216.843177 254.078602,226.377721 254.078602,226.377721 C268.649825,216.447173 262.766751,202.114896 262.766751,202.114896 Z M177.856399,134.672468 C178.205138,133.956615 178.538715,133.149378 178.841966,132.50968 C180.428376,128.776071 181.622578,124.886357 182.405168,120.903733 C183.208784,122.091744 183.921424,123.294985 184.618902,124.467764 C189.51641,132.997069 191.912095,145.440714 192.730873,150.649682 C192.973474,152.172773 193.094775,153.071396 193.094775,153.071396 C183.921424,149.903368 177.932212,134.672468 177.932212,134.672468 L177.856399,134.672468 Z" id="Shape" fill="url(#linearGradient-8)"></path>
                <path d="M135.213837,65.840064 C135.213837,65.840064 136.317818,72.4654535 144.413677,81.1766138 C152.509536,89.8877741 163.288681,95.4702782 166.845953,96.0684036 C170.403224,96.6665291 173.347173,93.5378729 173.209175,92.1422469 C173.071177,90.7466209 153.812846,74.3825222 148.798934,66.898286 C148.798934,66.898286 142.037052,56.9448652 135.213837,65.840064 Z" id="Path" fill="#FEB1A8" opacity="0.8"></path>
                <path d="M231.794872,205.786702 L228.294775,202.185454 L221.64459,195.272889 L218.981473,192.495656 L217.292295,190.725551 L215.45094,188.81811 C212.711733,185.94932 210.444279,183.584093 208.952933,181.997103 C208.952933,181.997103 193.598159,182.72956 188.332795,176.381598 C192.745961,165.699931 187.11537,155.735461 182.245669,148.136218 C177.375969,140.536975 164.48648,139.560365 163.984292,137.561367 C163.649501,136.294827 165.825648,127.871569 168.473548,120.4707 L168.549637,120.4707 L178.182513,133.746486 C177.356165,134.725782 177.075988,136.055968 177.43684,137.286702 C177.43684,137.286702 186.993627,158.65003 196.185187,161.85453 C196.185187,161.85453 206.837657,154.346844 194.435139,125.033297 C193.598159,117.89184 196.352583,114.870454 201.267937,114.977271 C205.528925,115.084087 206.898528,114.137997 211.783447,112.230556 C216.668365,110.323116 222.085907,112.535747 224.657718,111.589656 C227.106936,110.962819 229.63478,110.700601 232.1601,110.811421 L232.434021,111.314985 L232.434021,111.314985 C234.762346,118.105473 228.4013,168.782355 229.390458,174.504676 C229.390458,174.504676 219.164087,178.838381 218.266236,184.698039 C217.444474,189.840499 229.02523,202.811095 231.794872,205.786702 Z" id="Path" fill="url(#linearGradient-9)" opacity="0.5"></path>
                <path d="M104.002085,251.000274 C97.8726458,256.881489 72.0217354,251.45855 72.0217354,251.45855 C72.0217354,251.45855 62.306574,237.542222 52.8212666,221.456718 C48.9750435,214.91864 45.1594675,208.029217 42.0947478,201.598071 C31.368229,179.23418 19.0020851,125.707489 19.0020851,125.707489 C20.6263865,118.069547 33.9119463,100.853628 34.7394206,99.7384889 L34.7394206,99.7384889 L41.3132443,114.800509 L41.0067723,115.717062 L41.0067723,115.717062 C39.0606753,120.712275 32.548146,131.45122 32.2876449,133.253774 C32.0271437,135.056328 35.2297757,156.075942 40.1180036,165.546989 C45.0062315,175.018036 48.7298659,176.698383 48.7298659,176.698383 C53.3269454,169.518719 55.7940447,152.730524 57.6022293,146.849309 C59.4104139,140.968095 72.5274141,122.560657 75.622781,121.964897 C78.7181478,121.369138 82.5490474,124.409039 83.2845801,125.432523 C83.989393,126.590449 84.265849,127.957617 84.0660837,129.297321 L84.0660837,129.297321 L84.0660837,129.297321 C84.0736054,129.399022 84.0736054,129.501137 84.0660837,129.602838 C83.7709586,132.201147 83.0838634,134.740118 82.0280451,137.133848 C80.1892133,141.716613 75.8986057,146.77293 72.4814433,150.530797 L72.4814433,150.530797 L72.3741781,150.622452 C70.7760017,152.241128 69.2960499,153.971721 67.9456582,155.800976 C66.9343007,157.86322 66.9343007,162.980641 66.9343007,162.980641 C66.9343007,162.980641 72.5733849,178.088488 72.0677062,193.196336 C71.5620274,208.304183 64.099435,210.870532 64.099435,210.870532 C65.1720869,212.688362 66.3826512,214.506192 67.7004806,216.308746 C81.3231596,234.975874 104.002085,251.000274 104.002085,251.000274 Z" id="Path" fill="url(#linearGradient-10)"></path>
                <path d="M104.375976,250.766069 C99.2217977,254.733405 93.8273519,258.371363 88.2241737,261.658677 C86.7061471,262.502471 85.1881206,263.192847 83.670094,263.944591 C82.1520674,264.696334 80.3759763,265.340685 78.5543445,265.969695 L78.5543445,265.969695 C74.0251522,260.313171 69.8233285,254.396744 65.9699042,248.25003 L65.0894488,246.71586 C64.8313843,246.255609 64.5885001,245.810699 64.3759763,245.381132 C64.3759763,245.381132 72.072371,240.41042 74.3038701,221.969695 C74.3494109,222.01572 92.2165836,241.392289 104.375976,250.766069 Z" id="Path" fill="url(#linearGradient-11)"></path>
                <path d="M270.819175,206.503633 C267.058183,214.336454 261.900466,221.433388 255.593828,227.453462 C253.963533,228.930165 252.214647,230.273221 250.364454,231.469355 C243.964766,224.886887 238.19643,217.73037 233.133742,210.091979 C232.869465,207.954662 232.77148,205.800404 232.84065,203.648227 C232.994909,197.845796 234.213554,189.233767 239.504632,182.469355 C239.442928,182.469355 260.823203,200.960785 270.819175,206.503633 Z" id="Path" fill="url(#linearGradient-12)"></path>
                <path d="M58.7851667,146.614674 C58.7851667,146.614674 59.5678156,149.994616 68.0715962,148.312025 C76.5753768,146.629434 85.0641064,132.327411 84.7781386,129.685448 C84.4921708,127.043485 75.7475751,123.78162 75.7475751,123.78162 C75.7475751,123.78162 60.7869416,138.098403 58.7851667,146.614674 Z" id="Path" fill="#FEB1A8" opacity="0.8"></path>
                <path d="M193.029083,158.628637 C193.029083,158.628637 177.911134,141.988042 177.161484,134.628637 C177.161484,134.628637 183.40857,149.526217 192.7792,152.624913 C193.183425,154.602239 193.267697,156.626966 193.029083,158.628637 L193.029083,158.628637 Z" id="Path" fill="#EC6A6B"></path>
                <path d="M171.48613,112.19381 C172.961275,118.602901 174.819957,123.148355 180.056721,130.633204 L183.464305,122.421083 C180.143316,117.639104 176.58345,113.036981 172.799009,108.633204 C172.799009,108.633204 171.264858,111.269567 171.48613,112.19381 Z" id="Path" fill="#FE9083"></path>
                <path d="M195.693424,101.247474 C195.693424,101.247474 205.381519,105.886649 208.693424,107.247474 C208.693424,107.247474 202.348186,102.994897 198.943424,101.247474 L195.693424,101.247474 Z" id="Path" fill="url(#linearGradient-13)"></path>
                <path d="M205.176718,101.005943 C205.176718,101.005943 214.326544,103.914981 218.176718,106.988371 C218.176718,106.988371 212.167426,100.611497 205.176718,101.005943 Z" id="Path" fill="url(#linearGradient-14)"></path>
                <path d="M168.932759,121.255635 C168.932759,121.255635 176.61172,126.737868 178.084398,134.961219 L179.932759,130.621117 C179.932759,130.621117 172.79478,119.275939 171.682759,113.961219 L168.932759,121.255635 Z" id="Path" fill="#EC6A6B"></path>
                <path d="M181.939293,119.933433 L180.104186,124.140005 C180.104186,124.140005 184.588229,123.597752 186.104186,126.933433 C186.040356,126.933433 182.928654,121.313714 181.939293,119.933433 Z" id="Path" fill="#EC6A6B"></path>
                <path d="M184.341074,99.2491995 C184.341074,99.2491995 191.240346,107.943332 193.979548,108.935597 C196.718749,109.927862 208.012462,108.305587 208.334721,107.659827 C208.65698,107.014068 196.616212,100.58797 195.664083,100.414717 C191.913503,99.7943788 188.132992,99.4052372 184.341074,99.2491995 L184.341074,99.2491995 Z" id="Path" fill="#FEB1A8"></path>
                <path d="M199.955312,100.734103 C199.955312,100.734103 209.951296,106.443368 211.32479,106.696782 C213.870262,106.783285 216.418784,106.713583 218.955312,106.488088 C218.955312,106.488088 209.56977,101.389997 206.746477,101.047143 C204.490152,100.823759 202.223146,100.719261 199.955312,100.734103 L199.955312,100.734103 Z" id="Path" fill="#FEB1A8"></path>
                <path d="M209.734147,182.252353 C211.488008,181.578087 213.51032,182.040365 214.72656,183.393564 C216.714407,186.073162 218.392856,188.939643 219.734147,191.945601 C219.734147,191.945601 213.011841,185.690075 209.734147,182.252353 Z" id="Path" fill="#FE9083"></path>
                <path d="M136.014624,68.7810668 C137.767085,72.9048597 141.020897,76.2201825 145.126267,78.0649582 C152.259827,81.4690517 153.646043,74.6299184 152.789392,72.6493549 C151.932742,70.6687914 144.518824,63.9998628 144.518824,63.9998628 L136.014624,68.7810668 Z" id="Path" fill="#FF909A"></path>
                <path d="M148.637384,76.77307 C148.106848,76.7953677 147.575647,76.7483839 147.057687,76.6333488 L147.057687,76.6333488 C142.923997,75.3359287 139.309904,72.7942932 136.726469,69.3678479 C136.380338,68.9684074 136.219961,68.4449107 136.284153,67.9240624 C137.389941,63.9031976 144.387999,61.1553479 145.399005,61.9005275 C145.689763,62.1365465 145.954498,62.4019195 146.188854,62.6922808 C148.116084,64.8812458 152.507642,70.5632401 153.028942,71.2463214 C153.135539,71.3998399 153.205717,71.5749124 153.234303,71.7586324 C153.40007,73.0446312 152.987738,74.3378186 152.104857,75.3008883 C151.221976,76.2639581 149.95609,76.8014141 148.637384,76.77307 L148.637384,76.77307 Z" id="Path" fill="#FEB8B0"></path>
                <path d="M148.975586,77.1539276 C148.464345,77.1758953 147.952463,77.1296068 147.453341,77.016274 L147.453341,77.016274 C147.453341,77.016274 149.173478,71.479543 153.42054,72.22899 C153.575905,73.4962133 153.174431,74.7686068 152.32079,75.7144263 C151.46715,76.6602459 150.24595,77.1857502 148.975586,77.1539276 L148.975586,77.1539276 Z" id="Path" fill="#FFFFFF" opacity="0.5" style="mix-blend-mode: soft-light;"></path>
                <path d="M145.710944,62.8494954 C138.448392,62.6633492 136.346074,68.9350446 136.346074,68.9350446 L136.170881,68.9350446 C135.82191,68.5666246 135.660216,68.0837825 135.724935,67.6033833 C136.8398,63.894778 143.895306,61.3603257 144.914611,62.0476348 C145.212072,62.2877569 145.479134,62.5566731 145.710944,62.8494954 L145.710944,62.8494954 Z" id="Path" fill="#FFFFFF" opacity="0.5" style="mix-blend-mode: soft-light;"></path>
                <path d="M70.1382216,128.876174 C70.1382216,128.876174 67.1311079,131.812042 66.9285562,134.175415 C66.7260045,136.538788 70.231707,138.872802 74.8280725,137.434227 C79.4244379,135.995652 80.9202043,130.623015 80.9202043,130.623015 L70.1382216,128.876174 Z" id="Path" fill="#FF909A"></path>
                <path d="M82.7371461,126.122245 C82.6450553,126.519611 82.5299157,126.911588 82.3922797,127.296297 C81.5457895,129.751133 79.1160491,134.920011 75.322519,135.911093 L75.2127888,135.911093 C70.9960135,136.993661 67.8451889,134.843773 67.7668102,132.937845 C67.7355639,132.786885 67.7355639,132.631382 67.7668102,132.480422 C68.2527582,130.208555 71.4662858,126.381451 74.1781896,124.353543 L74.1781896,124.353543 C74.5069689,124.107289 74.8526379,123.883139 75.2127888,123.682656 C78.0971257,122.066429 82.9409307,124.948193 82.7371461,126.122245 Z" id="Path" fill="#FEB8B0"></path>
                <path d="M74.9301164,135.673413 C70.3995901,136.637 67.0143269,134.723398 66.9301164,133.026942 C68.2861374,132.114524 70.081567,131.745344 71.8143269,132.022641 C74.2395901,132.389075 74.7953795,134.506252 74.9301164,135.673413 Z" id="Path" fill="#FFFFFF" opacity="0.5" style="mix-blend-mode: soft-light;"></path>
                <path d="M82.6110911,126.664596 C82.5246021,127.053526 82.4164665,127.437182 82.2872029,127.813724 C80.480817,125.45108 77.5038001,124.338964 74.6169419,124.948366 C74.9257215,124.707339 75.2503635,124.487948 75.5886064,124.291721 C78.2533228,122.694881 82.8024795,125.515468 82.6110911,126.664596 Z" id="Path" fill="#FFFFFF" opacity="0.5" style="mix-blend-mode: soft-light;"></path>
                <path d="M67.1678936,163.028248 C67.1678936,163.028248 72.777327,178.046947 72.2743071,193.065647 C71.7712873,208.084347 64.3479338,210.635552 64.3479338,210.635552 C65.4149456,212.442655 66.6191446,214.249759 67.9300448,216.041676 C61.1621415,214.523102 55.2783336,219.154754 53.1747961,221.052971 C49.3487966,214.553473 45.5532833,207.704703 42.5046782,201.311506 C31.8345602,179.079578 19.5334386,125.868734 19.5334386,125.868734 C21.1491993,118.275863 34.3649025,101.161531 35.1880259,100.052971 L35.1880259,100.052971 L35.1880259,100.174457 L41.6815548,115.026114 L41.3766943,115.937259 L41.3766943,115.937259 C39.4865591,120.902997 33.0082732,131.578574 32.7491418,133.370492 C32.7916642,135.224892 32.9802408,137.073106 33.3131337,138.898102 L33.3131337,138.898102 C34.4258746,146.187259 37.062918,158.715497 40.5230848,165.457966 C45.38561,174.873127 49.0896652,176.543559 49.0896652,176.543559 C48.2656744,178.68437 47.6182419,180.888541 47.153801,183.134171 C47.7025499,196.664668 60.2018309,199.246245 64.8052246,191.182615 C67.991017,185.609447 66.5886586,155.116475 66.5886586,155.116475 C68.7071392,153.858763 70.6980688,152.399149 72.5334386,150.758167 C70.9436655,152.367291 69.4714954,154.087672 68.1282042,155.906134 C67.1678936,157.941024 67.1678936,163.028248 67.1678936,163.028248 Z" id="Path" fill="url(#linearGradient-15)" opacity="0.5"></path>
                <path d="M41.2510836,166.808066 C41.2510836,166.808066 45.0479586,178.709907 47.8135836,181.808066 L51.2510836,174.308066 C51.2510836,174.308066 45.1573336,174.308066 41.2510836,166.808066 Z" id="Path" fill="#F67C82"></path>
                <path d="M64.7488293,211.239829 C64.7488293,211.239829 57.3156264,209.056223 56.3614678,211.239829 C55.4073093,213.423436 71.3202116,220.269337 71.3202116,220.269337 C71.3202116,220.269337 65.3336361,212.597206 64.7488293,211.239829 Z" id="Path" fill="#FB7D7C"></path>
                <path d="M74.7445402,174.639457 L73.2263216,171.680136 C73.2263216,171.680136 77.7809774,148.02114 82.8366454,137.772543 L68.8386697,156.836803 L67.8366454,164.15723 L70.6149855,173.331126 C71.6414069,174.530401 73.2376919,175.036139 74.7445402,174.639457 L74.7445402,174.639457 Z" id="Path" fill="#A19BAA" opacity="0.5" style="mix-blend-mode: multiply;"></path>
                <path d="M241.858298,221.769772 C241.858298,221.769772 240.597439,202.584979 250.808846,192.410773 C244.880175,201.697499 242.232751,212.568302 243.259253,223.410773 L241.858298,221.769772 Z" id="Path" fill="#B396C7" opacity="0.2" style="mix-blend-mode: multiply;"></path>
                <path d="M256.017554,227.566549 C254.371127,229.052746 252.604936,230.404436 250.736436,231.608261 C244.273426,224.983473 238.448015,217.780944 233.335233,210.093442 C233.068341,207.942384 232.969386,205.774276 233.039241,203.608261 C238.063931,211.983994 244.719162,219.296049 252.621437,225.12308 C253.898875,225.99904 255.036107,226.859633 256.017554,227.566549 Z" id="Path" fill="url(#linearGradient-16)" opacity="0.3" style="mix-blend-mode: multiply;"></path>
                <path d="M73.4763495,256.538939 C78.0133541,255.912157 81.8855867,253.021976 83.6898148,248.915751 C85.8617654,244.084767 86.6874153,238.780567 86.0833634,233.538939 C86.0833634,233.538939 87.5700396,243.611403 84.7602216,249.814302 C81.9504037,256.0172 73.4763495,256.538939 73.4763495,256.538939 Z" id="Path" fill="#B396C7" opacity="0.2" style="mix-blend-mode: multiply;"></path>
                <path d="M88.9465287,261.822136 C87.4207818,262.682791 85.8950348,263.386964 84.3692878,264.15373 C82.8435408,264.920496 81.0584169,265.577724 79.2275205,266.219304 C76.4048886,262.495012 70.0730386,253.951048 66.5485631,248.145534 L65.6636298,246.580705 C65.4042528,246.111256 65.1601333,245.657456 64.9465287,245.219304 C65.0228161,245.234952 77.6407436,257.972657 88.9465287,261.822136 Z" id="Path" fill="url(#linearGradient-17)" opacity="0.3" style="mix-blend-mode: multiply;"></path>
                <path d="M82.5500839,229.816348 C82.5500839,229.816348 79.8090997,226.784589 79.8090997,232.939059 C79.8776243,232.939059 86.5073798,234.045651 82.5500839,229.816348 Z" id="Path" fill="url(#linearGradient-18)"></path>
                <path d="M81.0431934,228.667323 C80.6578176,228.74823 80.3182611,228.961617 80.0908125,229.265827 C80.0908125,229.265827 82.0273204,233.290765 85.1860506,234.667323 C85.1860506,234.667323 86.0273204,233.919194 86.0908125,233.440391 L81.0431934,228.667323 Z" id="Path" fill="url(#linearGradient-19)"></path>
                <path d="M84.0461335,230.374115 C85.3940761,231.730177 86.1752701,233.147878 85.7923319,233.456074 C85.4093937,233.76427 84.0154985,233.04001 82.728826,231.683948 C81.4421535,230.327886 80.5996894,228.925595 80.9826277,228.601989 C81.3655659,228.278383 82.7135085,229.018053 84.0461335,230.374115 Z" id="Path" fill="url(#linearGradient-20)"></path>
                <path d="M41.5349476,114.573351 L41.2426002,115.466069 L41.2426002,115.466069 C39.3861944,120.361135 33.1738126,130.820806 32.9253173,132.576484 C32.9660944,134.39338 33.1469308,136.204216 33.46616,137.992302 L31.3027894,133.751895 C28.6711211,131.690613 26.3854744,129.208345 24.5349476,126.401856 C26.8737266,128.574135 32.0775099,129.942968 32.0775099,129.942968 C32.0775099,129.942968 37.8075185,121.194338 38.0706312,116.686116 C38.3337438,112.177893 35.1471574,99.9923021 35.1471574,99.9923021 L35.2348616,99.9923021 L41.5349476,114.573351 Z" id="Path" fill="#EC6A6B" opacity="0.2" style="mix-blend-mode: multiply;"></path>
                <path d="M181.652523,99.2776705 L195.652523,114.015514 C195.652523,114.015514 190.756434,102.812868 184.014534,99.0419907 C183.219438,98.9684518 182.417677,99.048451 181.652523,99.2776705 Z" id="Path" fill="#EC6A6B"></path>
                <path d="M204.510575,124.279715 C204.510575,124.279715 208.773898,156.232819 214.510575,168.279715 C214.510575,168.279715 212.2065,137.100405 204.510575,124.279715 Z" id="Path" fill="#ECC1C9" opacity="0.2" style="mix-blend-mode: multiply;"></path>
                <path d="M219.724854,117.481104 L223.713882,154.481104 C223.713882,154.481104 224.137207,128.369898 219.724854,117.481104 Z" id="Path" fill="#ECC1C9" opacity="0.2" style="mix-blend-mode: multiply;"></path>
                <path d="M80.300409,140.111531 C83.7063066,134.568739 84.3845373,131.049746 84.5172346,129.947229 C84.2332695,132.516127 83.5721564,135.02636 82.5562633,137.392995 C80.7869658,141.923888 76.658605,146.922973 73.3706605,150.638304 L73.3706605,150.638304 L73.2674515,150.728922 C71.7297091,152.329276 70.3057208,154.04028 69.0063934,155.848831 C68.0332797,157.887732 68.0332797,162.947229 68.0332797,162.947229 L67.5172346,155.063476 C67.5172346,155.063476 76.0835833,146.922973 80.300409,140.111531 Z" id="Path" fill="#EC6A6B"></path>
                <path d="M141.627578,81.1889158 C147.958379,88.2975868 155.344995,94.3918619 163.528752,99.2583256 C163.528752,99.2583256 174.93337,110.11535 179.627578,118.188916 C179.627578,118.188916 170.39307,106.286173 163.12859,100.503962 C163.12859,100.442449 147.691571,90.938708 141.627578,81.1889158 Z" id="Path" fill="#FE9083"></path>
                <path d="M98.6821152,77.0847223 L97.2826115,82.763055 L110.81611,92.1771329 C111.570477,79.4343398 113.061824,66.7462961 115.282611,54.1771329 C115.282611,54.1771329 111.471197,59.5566059 106.349609,81.7917612 L98.6821152,77.0847223 Z" id="Path" fill="#FFFFFF"></path>
                <path d="M231.497204,203.124498 C231.497204,203.124498 234.192856,187.942246 239.497204,183.286955 C239.497204,183.286955 234.018943,190.044635 233.511697,205.286955 L231.497204,203.124498 Z" id="Path" fill="#EC6A6B"></path>
                <path d="M64.0800654,238.136446 C64.0800654,238.136446 65.6911766,240.315275 68.2467321,238.136446 C70.8022877,235.957617 74.0800654,224.606374 74.0800654,224.606374 C74.0800654,224.606374 72.8717321,237.085123 67.135621,243.606374 L64.0800654,238.136446 Z" id="Path" fill="#EC6A6B"></path>
            </g>
        </g>
    </g>
</svg>