<?xml version="1.0" encoding="UTF-8"?>
<svg width="158px" height="259px" viewBox="0 0 158 259" version="1.1" xmlns="http://www.w3.org/2000/svg" xmlns:xlink="http://www.w3.org/1999/xlink">
    <!-- Generator: Sketch 58 (84663) - https://sketch.com -->
    <title>Asset 2</title>
    <desc>Created with Sketch.</desc>
    <defs>
        <linearGradient x1="42.9794935%" y1="3.41240596%" x2="56.9038193%" y2="99.6429532%" id="linearGradient-1">
            <stop stop-color="#FFC2A9" offset="2%"></stop>
            <stop stop-color="#FFA9A2" offset="100%"></stop>
        </linearGradient>
        <linearGradient x1="43.7761985%" y1="8.73445216%" x2="60.4313421%" y2="94.6767481%" id="linearGradient-2">
            <stop stop-color="#CBC1F7" offset="0%"></stop>
            <stop stop-color="#E8DCF7" offset="100%"></stop>
        </linearGradient>
        <linearGradient x1="63.813459%" y1="43.0160669%" x2="37.8025863%" y2="60.9211713%" id="linearGradient-3">
            <stop stop-color="#FF9E8B" offset="2%"></stop>
            <stop stop-color="#FF7C7C" offset="100%"></stop>
        </linearGradient>
        <linearGradient x1="19272.7685%" y1="3436.00209%" x2="19272.7685%" y2="3319.15228%" id="linearGradient-4">
            <stop stop-color="#FF9E8B" offset="2%"></stop>
            <stop stop-color="#FF7C7C" offset="100%"></stop>
        </linearGradient>
        <linearGradient x1="42.2177281%" y1="3.03906087%" x2="57.6299324%" y2="101.761344%" id="linearGradient-5">
            <stop stop-color="#9D68C2" offset="0%"></stop>
            <stop stop-color="#CCEDFF" offset="100%"></stop>
        </linearGradient>
        <linearGradient x1="25459.8022%" y1="2937.06193%" x2="25616.9486%" y2="2937.06193%" id="linearGradient-6">
            <stop stop-color="#FF9E8B" offset="2%"></stop>
            <stop stop-color="#FF7C7C" offset="100%"></stop>
        </linearGradient>
    </defs>
    <g id="Page-1" stroke="none" stroke-width="1" fill="none" fill-rule="evenodd" opacity="0.200000003">
        <g id="Microsite_Retailer" transform="translate(-67.000000, -922.000000)" fill-rule="nonzero">
            <g id="Asset-2" transform="translate(67.000000, 922.000000)">
                <path d="M36.3771643,20.9259974 C37.5574052,26.279983 37.0520482,31.870637 34.9311616,36.9228073 C32.5522194,42.6287922 28.5791756,47.5186229 23.4932803,51 C23.4932803,51 17.6225094,35.0031901 23.8981611,26.9902426 C30.1738127,18.9772951 34.8010213,19.3117739 36.3771643,20.9259974 Z" id="Path" fill="#3A3A3A"></path>
                <path d="M56.0478088,95.6332795 C56.0478088,95.6332795 42.2561184,102.103393 38.1718839,110.042003 C38.1718839,110.042003 39.651679,109.547658 38.3346614,110.928918 C38.3346614,110.928918 46.5179283,99.2972536 51.8599886,96.1712439 C57.2020489,93.0452342 71.5560615,97.9596123 72,98.8465267 C72,98.8465267 60.0432555,128.390953 54.5976096,133 C54.5976096,133 34.3244166,130.92084 20,116.03231 C22.8415053,108.69749 27.7480879,102.308266 34.1468412,97.6106624 C39.47683,93.7181114 45.2774856,90.4899298 51.4160501,88 L56.0478088,95.6332795 Z" id="Path" fill="#FE9083"></path>
                <path d="M52.4139572,148 C52.4139572,148 41.5804917,126.926522 37,110.908328 L51.8413957,106 L56,117.976907 L52.4139572,148 Z" id="Path" fill="#545454"></path>
                <path d="M17.3825541,109.802225 C16.7756819,107.530673 35.9143588,78.045035 36.0919799,69.7160103 L33.5312753,65.4401473 L6,20.8999081 C6,20.8999081 21.3790296,9.02251104 29.5940069,2 C32.6443702,17.147895 37.1044294,31.9754408 42.9155917,46.2878445 L42.9155917,46.2878445 C44.8908138,51.1385688 47.1597116,55.8636911 49.7095999,60.4367938 C49.7095999,60.4367938 66.420788,72.655666 69.4995542,81.7864151 C72.5783205,90.9171641 60.4260748,111.479908 60.8997312,121.204527 C61.3733875,130.929146 65.9915369,147.750509 65.3402594,149.012483 C64.6889819,150.274456 58.8570882,152.085759 55.2306567,150.155682 C51.6042253,148.225605 47.8297763,134.032116 48.1258115,129.028762 C48.4218467,124.025409 50.819732,123.090063 52.2110975,118.339105 C53.602463,113.588146 52.4627274,100.359695 50.5977056,94.8218584 C50.5977056,94.8218584 31.2518041,106.803183 26.8260776,113.929621 L20.2540957,116.156633 C19.1035145,114.131895 18.1422341,112.004686 17.3825541,109.802225 Z" id="Path" fill="url(#linearGradient-1)"></path>
                <path d="M6,21.7002328 C8.11287988,19.2857974 10.3174144,16.9307334 12.6136035,14.6350407 C17.8423969,9.3764229 23.412295,4.48689688 29.2850941,0 L36,20.3643772 C36,20.3643772 34.3212735,16.4161816 28.4457308,28.201397 C24.9223433,35.2568725 23.0916002,43.0729224 23.105644,51 L6,21.7002328 Z" id="Path" fill="url(#linearGradient-2)"></path>
                <path d="M51.1729958,100 C45.786373,102.034872 41.1944287,105.520749 38,110 L52,105.638587 C52,105.638587 51.4683544,101.086957 51.1729958,100 Z" id="Path" fill="#EC6A6B"></path>
                <path d="M18.0140852,109.715571 C17.4092547,107.43842 36.4835419,77.8801106 36.6605654,69.5305578 L34.108476,65.2441564 C36.5730833,64.2049133 38.6667994,62.4350964 40.1125246,60.168938 C42.5734362,55.8746034 43.7516975,50.9541935 43.5054759,46 L43.5054759,46 C45.4740526,50.8626796 47.735317,55.5994477 50.2766265,60.1838214 C50.2766265,60.1838214 66.9315919,72.4328088 70,81.5860618 C70,81.5860618 57.4608321,87.8072972 55.2480378,96.4694001 C53.0352435,105.131503 53.625322,119.657641 61.3848541,121.131092 C61.8421649,130.820145 66.4595291,147.7425 65.8104427,149.007584 C65.1613564,150.272668 59.3490833,152.088435 55.7348525,150.153601 C52.1206218,148.218767 48.3588714,133.990296 48.6539107,128.974611 C48.9489499,123.958926 51.3387678,123.021276 52.7254523,118.258607 C54.1121367,113.495939 52.9762356,100.234885 51.1174884,94.6833995 C51.1174884,94.6833995 31.8366738,106.694253 27.4258371,113.838256 L20.8759659,116.08564 C19.7292556,114.055911 18.7712093,111.92346 18.0140852,109.715571 Z" id="Path" fill="url(#linearGradient-3)" opacity="0.2" style="mix-blend-mode: color-burn;"></path>
                <path d="M64,145.588266 C64,145.588266 62.2419544,137.290236 61.1294412,135.700021 C60.016928,134.109806 55.2372416,135.237413 54.2620757,138.996103 C53.2869098,142.754792 55.3471195,149 55.3471195,149 L64,145.588266 Z" id="Path" fill="#FF909A"></path>
                <path d="M55.6001939,148.512196 C55.1054672,146.180526 54.4976602,141.326546 55.6991392,138.950882 C55.8303562,138.711341 55.9767395,138.481091 56.1373256,138.261647 C57.8052612,135.900647 60.7877561,135.46071 61.7913444,136.604548 C61.8533406,136.646619 61.9062782,136.70154 61.9468299,136.765858 C63.4100466,140.145156 64.4366469,143.710149 65,147.368358 C65,148.116252 65,148.658842 64.7738393,148.834817 C63.2048491,149.729357 56.2928112,150.301276 55.9818401,149.832009 C55.8007877,149.410797 55.672527,148.967245 55.6001939,148.512196 Z" id="Path" fill="#FEC0B9"></path>
                <path d="M56,137.725123 C57.77,135.924217 60.935,135.588644 62,136.461133 C60.6184196,137.851198 58.1527184,138.370635 56,137.725123 Z" id="Path" fill="#FFFFFF" style="mix-blend-mode: soft-light;"></path>
                <path d="M55,148.869296 C58.0857143,149.760882 62.362406,148.534951 64,148 C64,148.568386 64,148.980744 63.7834586,149.114482 C62.281203,149.794316 55.6631579,150.228964 55.3654135,149.87233 C55.1920618,149.552217 55.0692565,149.215125 55,148.869296 Z" id="Path" fill="#FFFFFF" style="mix-blend-mode: soft-light;"></path>
                <path d="M52,103 C52,103 49.053407,97.7555809 44,99.2370552 C44,99.2370552 48.8766114,94.9852239 50.4088398,95 C51.9410681,95.0148534 52,103 52,103 Z" id="Path" fill="#EC6A6B"></path>
                <path d="M61,70 C61,70 53.1633888,64.6959707 47.0514372,63.3186813 L41,42 C41,42 48.3373676,57.2087912 50.0771558,61.047619 L61,70 Z" id="Path" fill="url(#linearGradient-4)"></path>
                <path d="M39,109 C34.8040152,110.784073 30.3530736,111.937369 25.8,112.42029 C18.3423729,113.173913 17,109.797101 17,109.797101 C17.6838163,111.977834 18.6564862,114.062939 19.8935593,116 L38.2989831,109.956522 L39,109 Z" id="Path" fill="#EC6A6B"></path>
                <path d="M6,21.9971417 C8.0998308,19.6059616 10.2907501,17.2735811 12.572758,15 C16.9737733,32.404655 23,51 23,51 L6,21.9971417 Z" id="Path" fill="url(#linearGradient-5)" opacity="0.3" style="mix-blend-mode: multiply;"></path>
                <path d="M35.4281811,70 C35.4281811,70 36.8086553,78.2448392 35.2797431,82.3226116 C33.7508309,86.4003841 21,101 21,101 C21,101 34.7008346,75.387422 35.4281811,70 Z" id="Path" fill="url(#linearGradient-6)" opacity="0.2" style="mix-blend-mode: color-burn;"></path>
                <path d="M36,27.3543467 C36,27.3543467 34.4299517,25.5114387 28.9975845,32.3080834 C23.5652174,39.104728 23,50 23,50 C23,50 23.7222222,30.0965938 33.9903382,21 L36,27.3543467 Z" id="Path" fill="#5B5663"></path>
                <path d="M95,259 L94.7362739,259 L0,259 C0.644663788,251.328416 1.29421139,243.661749 1.94864281,236 L92.3041333,236 C93.1832202,243.686337 94.0916101,251.29891 95,259 Z" id="Path" fill="#5B5663"></path>
                <polygon id="Path" fill="#CBC8CE" points="93 236 2 236 10.3291139 155 79.7679325 155"></polygon>
                <path d="M39.365976,109.017804 C32.5582693,110.851262 27.4524893,116.351635 24.3273998,122.453383 C20.6007672,129.757879 19.4563683,138.045108 19.074902,146.185661 C18.8988406,150.952651 19.074902,155.734309 19.1776044,160.501299 C19.1776044,160.776724 19.400943,161 19.676445,161 C19.951947,161 20.1752856,160.776724 20.1752856,160.501299 C19.9258653,152.331411 19.6911168,144.05885 21.084936,135.9623 C22.3320375,128.716475 24.9436146,121.382644 30.0640664,115.940941 C32.6350589,113.103188 35.9484335,111.040531 39.630068,109.98587 C39.897467,109.912963 40.0551177,109.637152 39.9821907,109.369828 C39.9092637,109.102504 39.633375,108.944898 39.365976,109.017804 Z" id="Path" fill="#FFFFFF"></path>
                <path d="M22.8376926,164.193356 L19.3926628,161.261281 L22.34977,158.806194 C22.8524782,158.399351 22.1279869,157.725956 21.6400642,158.11877 L18.6386005,160.615944 L15.8884908,158.25906 C15.4005681,157.852217 14.6760769,158.525613 15.1639995,158.932456 L17.8697526,161.233223 L15.1639995,163.421758 C14.6760769,163.828601 15.3857826,164.501996 15.8737053,164.109182 L18.6386005,161.87856 L22.1427725,164.866752 C22.6011241,165.287624 23.3256153,164.614228 22.8376926,164.193356 Z" id="Path" fill="#FFFFFF"></path>
                <path d="M71.7380567,160.539796 L68.1034993,158.531964 C68.6730941,157.988176 69.2426889,157.444388 69.8529691,156.914544 C70.0581297,156.70243 70.0581297,156.359777 69.8529691,156.147663 C69.6412095,155.950779 69.3188307,155.950779 69.1070711,156.147663 C68.428982,156.751872 67.7644547,157.365376 67.1134892,157.988176 L63.7908528,156.161607 C63.1941344,155.826968 62.6652249,156.761168 63.2619433,157.095806 L66.2997823,158.769 C65.5403226,159.507993 64.8079864,160.274874 64.089212,161.055697 C63.6281114,161.571598 64.3740094,162.338479 64.8351099,161.836521 C65.6216933,160.958094 66.4218384,160.121497 67.2626688,159.298844 L71.2091472,161.473995 C71.8058656,161.808634 72.3347751,160.860491 71.7380567,160.539796 Z" id="Path" fill="#47485E"></path>
                <path d="M158,216.91792 L157.764804,217.050937 L57.2331161,254 C55.488744,247.102842 53.744372,240.161344 52,233.175508 L147.813063,198 C151.223409,204.286267 154.619054,210.592241 158,216.91792 Z" id="Path" fill="#3A3A3A"></path>
                <path d="M149,198.06096 L52.5798817,233 C45.6765286,205.939371 38.8027613,178.898316 31.9585799,151.876835 C31.0710059,148.441652 30.1982249,144.991789 29,141.600647 L102.535503,115 C118.28501,142.549971 133.773176,170.236958 149,198.06096 Z" id="Path" fill="#BAB8BC"></path>
                <path d="M51.7709723,145.90116 C47.7436286,142.815094 44.3425714,138.937933 41.7619165,134.490967 C38.784166,129.728215 37.157085,124.195573 37.0657909,118.522503 C37.1196366,115.410994 38.0502683,112.383584 39.7432834,109.812432 C40.1357954,109.217244 39.1965703,108.665606 38.79004,109.246278 C35.4536881,114.167468 35.4396698,120.52582 37.0237361,126.100265 C38.5625638,131.445027 41.1757651,136.392246 44.6917382,140.61705 C46.6327351,142.961347 48.8242507,145.070082 51.2242592,146.902818 C51.7849906,147.309288 52.3176854,146.336664 51.7709723,145.90116 Z" id="Path" fill="#FFFFFF"></path>
                <path d="M92.2935954,130.606984 L88.3897581,131.308627 L88.7235435,129.621699 C88.8686675,128.8902 87.7802371,128.591628 87.635113,129.323128 L87.3303525,130.815984 C80.5530587,124.754988 77.7086271,115.529137 71.9326894,108.572427 C70.3076979,106.454283 68.1195949,104.86728 65.634305,104.004287 C65.3515699,103.968965 65.0873613,104.155269 65.0174183,104.439277 C64.9474752,104.723285 65.093588,105.016517 65.3585693,105.123929 C69.8138781,106.4675 72.6147725,111.095354 74.9367575,114.917066 C77.2587425,118.738778 79.421091,122.993418 82.1929606,126.725558 C83.4750325,128.508785 84.9341422,130.149825 86.5466825,131.622126 L84.3988464,132.010269 C83.6877385,132.144626 83.992499,133.264268 84.6890945,133.129911 L86.9675423,132.711911 C86.7353438,133.906196 86.4886329,135.100481 86.2564344,136.279838 C86.1113103,137.011337 87.1997408,137.309908 87.3448649,136.578409 C87.6206006,135.21991 87.8818239,133.861411 88.1575596,132.502912 L92.6128684,131.801269 C93.2949514,131.592269 93.0047033,130.472627 92.2935954,130.606984 Z" id="Path" fill="#FFFFFF"></path>
                <path d="M57.241889,146.425803 C56.0618749,146.759415 54.8527246,147.035008 53.6435743,147.252581 L54.168025,144.699723 C54.3137058,143.988985 53.2211,143.698887 53.0754193,144.409626 L52.448992,147.455649 C51.4583628,147.615203 50.4677337,147.745747 49.5353768,147.832776 C48.8215411,147.832776 48.8215411,149.022175 49.5353768,148.964156 C50.2492125,148.906136 51.3563863,148.761088 52.2741751,148.630544 L51.5312032,152.300277 C51.3855225,153.011015 52.4781282,153.301113 52.6238089,152.590374 C52.9006024,151.139887 53.1773958,149.834448 53.4687573,148.441981 C54.925565,148.195398 56.2366918,147.890795 57.606091,147.513669 C57.9078057,147.413533 58.0708644,147.088831 57.9702929,146.788425 C57.8697213,146.488019 57.5436038,146.325668 57.241889,146.425803 L57.241889,146.425803 Z" id="Path" fill="#FFFFFF"></path>
            </g>
        </g>
    </g>
</svg>