<?xml version="1.0" encoding="UTF-8"?>
<svg width="17px" height="24px" viewBox="0 0 17 24" version="1.1" xmlns="http://www.w3.org/2000/svg" xmlns:xlink="http://www.w3.org/1999/xlink">
    <!-- Generator: Sketch 58 (84663) - https://sketch.com -->
    <title>Fill 1</title>
    <desc>Created with Sketch.</desc>
    <g id="Page-1" stroke="none" stroke-width="1" fill="none" fill-rule="evenodd">
        <g id="Microsite_Retailer" transform="translate(-147.000000, -1624.000000)" fill="#FFFFFF">
            <path d="M163.616386,1644.19456 L161.325032,1641.21058 C160.512058,1640.14849 158.984652,1639.97147 157.97484,1640.83126 L156.816722,1641.8175 C156.570366,1642.01955 156.176443,1641.99451 155.954477,1641.76667 C153.786793,1639.2887 152.259141,1636.38058 151.421778,1633.16901 C151.347871,1632.84026 151.520074,1632.48623 151.840582,1632.38508 L153.244564,1631.90461 C154.501224,1631.47471 155.166385,1630.08387 154.74758,1628.79419 L153.515801,1625.25387 C153.146268,1624.16649 151.914489,1623.68602 150.929066,1624.21706 C147.208848,1626.29068 144.942622,1630.79194 149.672406,1639.69331 C154.402682,1648.59442 159.329796,1649.04986 163.049522,1646.97624 C164.034944,1646.44494 164.306182,1645.10493 163.616386,1644.19456" id="Fill-1"></path>
        </g>
    </g>
</svg>