<?xml version="1.0" encoding="UTF-8"?>
<svg width="11px" height="16px" viewBox="0 0 11 16" version="1.1" xmlns="http://www.w3.org/2000/svg" xmlns:xlink="http://www.w3.org/1999/xlink">
    <!-- Generator: Sketch 58 (84663) - https://sketch.com -->
    <title>Group 3</title>
    <desc>Created with Sketch.</desc>
    <defs>
        <polygon id="path-1" points="0 0.000109577029 22.7718989 0.000109577029 22.7718989 31.31931 0 31.31931"></polygon>
    </defs>
    <g id="Page-1" stroke="none" stroke-width="1" fill="none" fill-rule="evenodd">
        <g id="Microsite_healthcare" transform="translate(-262.000000, -1371.000000)">
            <g id="Group-3" transform="translate(251.000000, 1356.000000)">
                <mask id="mask-2" fill="white">
                    <use xlink:href="#path-1"></use>
                </mask>
                <g id="Clip-2"></g>
                <path d="M21.7517792,28.3581792 L20.269138,26.4434579 C19.7430961,25.761947 18.7547749,25.6483618 18.101367,26.2000611 L17.3519964,26.8328927 C17.1925898,26.9625421 16.9376985,26.9464779 16.7940731,26.8002776 C15.3914541,25.2102476 14.4029735,23.3442057 13.8611503,21.2834464 C13.8133283,21.0725025 13.9247535,20.8453322 14.1321416,20.7804264 L15.0406,20.4721238 C15.8537333,20.1962742 16.2841313,19.3038194 16.01314,18.4762703 L15.2161068,16.2045672 C14.9769968,15.5068298 14.1799636,15.1985272 13.542337,15.5392827 C11.1351372,16.8698517 9.66875547,19.75816 12.7292037,25.4698708 C15.7899707,31.1814194 18.9781036,31.4736578 21.3849846,30.1430888 C22.0226111,29.8021711 22.1981179,28.9423314 21.7517792,28.3581792" id="Fill-1" fill="#000000" mask="url(#mask-2)"></path>
            </g>
        </g>
    </g>
</svg>