<?xml version="1.0" encoding="UTF-8"?>
<svg width="21px" height="15px" viewBox="0 0 21 15" version="1.1" xmlns="http://www.w3.org/2000/svg" xmlns:xlink="http://www.w3.org/1999/xlink">
    <!-- Generator: Sketch 58 (84663) - https://sketch.com -->
    <title>Group 4</title>
    <desc>Created with Sketch.</desc>
    <defs>
        <polygon id="path-1" points="0.057487716 0 19.1270354 0 19.1270354 9.13446234 0.057487716 9.13446234"></polygon>
        <polygon id="path-3" points="0.057621564 0.209048268 19.1271692 0.209048268 19.1271692 6.6924 0.057621564 6.6924"></polygon>
    </defs>
    <g id="Page-1" stroke="none" stroke-width="1" fill="none" fill-rule="evenodd">
        <g id="Microsite_Retailer" transform="translate(-147.000000, -1696.000000)">
            <g id="Group-4" transform="translate(147.000000, 1696.000000)">
                <path d="M20.0507873,1.9076017 L14.3939247,7.25014462 L20.0505642,12.5931337 C20.0661798,12.4873938 20.0771108,12.3796461 20.0771108,12.2694446 L20.0771108,2.23084462 C20.0771108,2.1206431 20.0664029,2.01334162 20.0507873,1.9076017" id="Fill-1" fill="#FFFFFF"></path>
                <g id="Group-5" transform="translate(0.446115, 0.000000)">
                    <mask id="mask-2" fill="white">
                        <use xlink:href="#path-1"></use>
                    </mask>
                    <g id="Clip-4"></g>
                    <path d="M10.8311363,8.65860481 L19.1270354,0.823589052 C18.7174605,0.321882132 18.0948442,-2.2308e-05 17.4001731,-2.2308e-05 L1.78457308,-2.2308e-05 C1.09012504,-2.2308e-05 0.467508756,0.321882132 0.057487716,0.823365972 L8.35360984,8.65882789 C9.02508064,9.29304433 10.1598886,9.29304433 10.8311363,8.65860481" id="Fill-3" fill="#FFFFFF" mask="url(#mask-2)"></path>
                </g>
                <path d="M0.02632344,1.90715554 C0.01093092,2.01289546 5.89306381e-13,2.1206431 5.89306381e-13,2.23084462 L5.89306381e-13,12.2694446 C5.89306381e-13,12.3796461 0.01093092,12.4873938 0.02632344,12.5931337 L5.68318608,7.24969846 L0.02632344,1.90715554 Z" id="Fill-6" fill="#FFFFFF"></path>
                <g id="Group-10" transform="translate(0.446115, 8.000000)">
                    <mask id="mask-4" fill="white">
                        <use xlink:href="#path-3"></use>
                    </mask>
                    <g id="Clip-9"></g>
                    <path d="M11.5971038,1.66196831 C11.0440885,2.18442167 10.3184092,2.44542527 9.59250692,2.44542527 C8.86638152,2.44542527 8.1404792,2.18442167 7.58791004,1.66196831 L6.04955036,0.209048268 L0.057621564,5.86903403 C0.467642604,6.37029479 1.09025888,6.69242231 1.78470692,6.69242231 L17.4003069,6.69242231 C18.094755,6.69242231 18.7173712,6.37029479 19.1271692,5.86903403 L13.1354635,0.209271348 L11.5971038,1.66196831 Z" id="Fill-8" fill="#FFFFFF" mask="url(#mask-4)"></path>
                </g>
            </g>
        </g>
    </g>
</svg>