<?xml version="1.0" encoding="UTF-8"?>
<svg width="76px" height="46px" viewBox="0 0 76 46" version="1.1" xmlns="http://www.w3.org/2000/svg" xmlns:xlink="http://www.w3.org/1999/xlink">
    <!-- Generator: Sketch 56.3 (81716) - https://sketch.com -->
    <title>Qfixedu_logo</title>
    <desc>Created with Sketch.</desc>
    <defs>
        <linearGradient x1="25.0513547%" y1="6.70219392%" x2="74.2114354%" y2="91.8663164%" id="linearGradient-1">
            <stop stop-color="#F89922" offset="1%"></stop>
            <stop stop-color="#F79326" offset="17%"></stop>
            <stop stop-color="#F58233" offset="40%"></stop>
            <stop stop-color="#F26548" offset="67%"></stop>
            <stop stop-color="#EE3E64" offset="96%"></stop>
            <stop stop-color="#ED3769" offset="100%"></stop>
        </linearGradient>
    </defs>
    <g id="Page-1" stroke="none" stroke-width="1" fill="none" fill-rule="evenodd">
        <g id="Artboard" transform="translate(-166.000000, -37.000000)" fill-rule="nonzero">
            <g id="Qfixedu_logo" transform="translate(166.000000, 37.000000)">
                <g id="logo">
                    <polygon id="Path" fill="#F06B51" points="25.15629 20 21 20 30.879496 33 35 33"></polygon>
                    <polygon id="Path" fill="#F06B51" points="22.2160908 25 18 25 23.8200103 33 28 33"></polygon>
                    <path d="M17.8409846,28.1369918 L16.5041187,28.1369918 C11.7980464,28.1369918 7.55536434,25.302132 5.75442846,20.954303 C3.95349257,16.606474 4.94896636,11.6019064 8.27666198,8.27422209 C11.6043576,4.94653785 16.6089423,3.95106745 20.9567862,5.75199719 C25.30463,7.55292692 28.1394995,11.7955945 28.1394995,16.5016507 C28.1388498,17.2851408 28.0582385,18.066519 27.8989184,18.8336399 L27.5899903,19.927187 L30.9663285,23.9295694 C31.4080838,23.3482791 31.7694749,22.7100995 32.0407421,22.0322651 L32.0407421,22.0322651 C32.0483473,22.0135589 32.0547396,21.9943821 32.0598793,21.9748539 C32.2279703,21.5603515 32.3605834,21.1323325 32.4562915,20.6954038 L32.4562915,20.6954038 C34.2523532,13.8662706 31.5033347,6.65125486 25.6183489,2.74868438 C19.7333632,-1.15388608 12.0172641,-0.878710293 6.42522817,3.43316006 C0.833192336,7.7450304 -1.39488083,15.1375419 0.883091363,21.8213848 C3.16106356,28.5052275 9.43999561,32.9984206 16.5013848,32.9978087 C17.2998203,33.0125313 18.0978968,32.9530419 18.8853256,32.8201073 C18.9919469,32.8037041 19.1259068,32.7790993 19.2735362,32.7490267 L19.2735362,32.7490267 L20.0198846,32.5849947 L20.4846437,32.4729061 L20.7771685,32.4018255 L20.7771685,32.4018255 L20.9329995,32.3608176 L17.8409846,28.1369918 Z" id="Path" fill="url(#linearGradient-1)"></path>
                    <rect id="Rectangle" fill="#FFFFFF" x="50" y="8" width="5" height="5"></rect>
                    <polygon id="Path" fill="#FFFFFF" points="69.0060548 23.5174951 75.5694378 15 70.2815954 15 66.6271985 20.203484 62.9378183 15 48 15 48 18.5140412 50.518789 18.5140412 50.518789 33 55.131187 33 55.131187 18.5275567 60.4540125 18.5275567 64.2510331 23.5174951 57.2247958 33 62.3700144 33 66.6271985 26.8639435 70.8870735 32.9945938 76 32.9945938"></polygon>
                    <path d="M45.853855,15.2368747 L42.5811278,15.2368747 L42.5811278,12.4942354 C42.5556562,11.6704734 42.7456329,10.8538077 43.1334868,10.1197713 C43.5017262,9.4510084 44.4913694,9.11662696 46.1024166,9.11662696 L46.7238205,9.11662696 L46.7238205,5 L46.1438435,5 C43.1574223,5 41.0271577,5.68565984 39.7530495,7.05697951 C38.4789413,8.4282992 37.8418872,10.2282674 37.8418872,12.4568842 L37.8418872,15.2368747 L35,15.2368747 L35,18.745212 L37.8418872,18.745212 L37.8418872,32.5784659 C37.8375495,32.6201586 37.8375495,32.6621663 37.8418872,32.703859 L37.8418872,33 L42.5811278,33 L42.5811278,18.745212 L47,18.745212 L47,15.2368747 L45.8731876,15.2368747 L45.853855,15.2368747 Z" id="Path" fill="#FFFFFF"></path>
                </g>
                <path d="M27.08,45 L27.08,37.128 L31.616,37.128 L31.616,37.968 L28.076,37.968 L28.076,40.44 L31.064,40.44 L31.064,41.292 L28.076,41.292 L28.076,44.148 L31.736,44.148 L31.736,45 L27.08,45 Z M35.18,45.144 C33.716,45.144 32.768,44.04 32.768,42.096 C32.768,40.2 33.968,39.024 35.3,39.024 C35.972,39.024 36.416,39.276 36.932,39.696 L36.884,38.7 L36.884,36.456 L37.88,36.456 L37.88,45 L37.064,45 L36.98,44.316 L36.944,44.316 C36.488,44.76 35.864,45.144 35.18,45.144 Z M35.396,44.316 C35.936,44.316 36.404,44.052 36.884,43.512 L36.884,40.464 C36.392,40.02 35.948,39.852 35.468,39.852 C34.532,39.852 33.788,40.752 33.788,42.084 C33.788,43.476 34.376,44.316 35.396,44.316 Z M41.552,45.144 C40.316,45.144 39.764,44.352 39.764,42.864 L39.764,39.168 L40.76,39.168 L40.76,42.732 C40.76,43.824 41.084,44.292 41.852,44.292 C42.452,44.292 42.872,43.992 43.424,43.308 L43.424,39.168 L44.408,39.168 L44.408,45 L43.592,45 L43.508,44.088 L43.472,44.088 C42.932,44.724 42.356,45.144 41.552,45.144 Z M48.68,45.144 C47.132,45.144 45.944,44.028 45.944,42.096 C45.944,40.14 47.252,39.024 48.752,39.024 C49.52,39.024 50.048,39.336 50.456,39.708 L49.952,40.356 C49.616,40.056 49.256,39.84 48.788,39.84 C47.732,39.84 46.964,40.752 46.964,42.096 C46.964,43.428 47.696,44.328 48.764,44.328 C49.304,44.328 49.772,44.064 50.132,43.74 L50.564,44.4 C50.036,44.868 49.376,45.144 48.68,45.144 Z M53.072,45.144 C52.1,45.144 51.368,44.532 51.368,43.488 C51.368,42.216 52.46,41.58 54.944,41.304 C54.944,40.56 54.704,39.84 53.744,39.84 C53.072,39.84 52.46,40.152 52.004,40.464 L51.62,39.78 C52.16,39.432 52.976,39.024 53.912,39.024 C55.34,39.024 55.94,39.972 55.94,41.424 L55.94,45 L55.124,45 L55.04,44.304 L55.004,44.304 C54.452,44.76 53.804,45.144 53.072,45.144 Z M53.36,44.352 C53.924,44.352 54.38,44.076 54.944,43.572 L54.944,41.952 C53,42.192 52.328,42.672 52.328,43.416 C52.328,44.076 52.784,44.352 53.36,44.352 Z M59.444,45.144 C58.196,45.144 57.776,44.352 57.776,43.2 L57.776,39.972 L56.912,39.972 L56.912,39.228 L57.824,39.168 L57.944,37.536 L58.772,37.536 L58.772,39.168 L60.344,39.168 L60.344,39.972 L58.772,39.972 L58.772,43.212 C58.772,43.932 59,44.34 59.672,44.34 C59.876,44.34 60.14,44.256 60.332,44.184 L60.524,44.928 C60.2,45.036 59.804,45.144 59.444,45.144 Z M61.664,45 L61.664,39.168 L62.648,39.168 L62.648,45 L61.664,45 Z M62.168,37.968 C61.784,37.968 61.484,37.704 61.484,37.332 C61.484,36.948 61.784,36.696 62.168,36.696 C62.552,36.696 62.852,36.948 62.852,37.332 C62.852,37.704 62.552,37.968 62.168,37.968 Z M66.884,45.144 C65.456,45.144 64.184,44.028 64.184,42.096 C64.184,40.14 65.456,39.024 66.884,39.024 C68.312,39.024 69.584,40.14 69.584,42.096 C69.584,44.028 68.312,45.144 66.884,45.144 Z M66.884,44.328 C67.892,44.328 68.564,43.428 68.564,42.096 C68.564,40.752 67.892,39.84 66.884,39.84 C65.888,39.84 65.204,40.752 65.204,42.096 C65.204,43.428 65.888,44.328 66.884,44.328 Z M71.12,45 L71.12,39.168 L71.936,39.168 L72.02,40.008 L72.056,40.008 C72.608,39.456 73.208,39.024 74.012,39.024 C75.236,39.024 75.788,39.816 75.788,41.304 L75.788,45 L74.804,45 L74.804,41.436 C74.804,40.344 74.468,39.876 73.7,39.876 C73.1,39.876 72.692,40.188 72.104,40.776 L72.104,45 L71.12,45 Z" id="Education" fill="#FFFFFF"></path>
            </g>
        </g>
    </g>
</svg>