<?xml version="1.0" encoding="UTF-8"?>
<svg width="95px" height="41px" viewBox="0 0 95 41" version="1.1" xmlns="http://www.w3.org/2000/svg" xmlns:xlink="http://www.w3.org/1999/xlink">
    <!-- Generator: Sketch 57.1 (83088) - https://sketch.com -->
    <title>logo</title>
    <desc>Created with Sketch.</desc>
    <defs>
        <linearGradient x1="25.0513547%" y1="6.70219392%" x2="74.2114354%" y2="91.8663164%" id="linearGradient-1">
            <stop stop-color="#F89922" offset="1%"></stop>
            <stop stop-color="#F79326" offset="17%"></stop>
            <stop stop-color="#F58233" offset="40%"></stop>
            <stop stop-color="#F26548" offset="67%"></stop>
            <stop stop-color="#EE3E64" offset="96%"></stop>
            <stop stop-color="#ED3769" offset="100%"></stop>
        </linearGradient>
    </defs>
    <g id="Page-1" stroke="none" stroke-width="1" fill="none" fill-rule="evenodd">
        <g id="final_artboard" transform="translate(-30.000000, -36.000000)" fill-rule="nonzero">
            <g id="logo" transform="translate(30.000000, 36.000000)">
                <polygon id="Path" fill="#F06B51" points="31.3438014 25 26 25 38.7022092 41 44 41"></polygon>
                <polygon id="Path" fill="#F06B51" points="27.480918 31 22 31 29.5660134 41 35 41"></polygon>
                <path d="M22.1660718,34.9580807 L20.5051172,34.9580807 C14.6581789,34.9580807 9.38696782,31.4359821 7.14944142,26.034134 C4.91191501,20.6322859 6.14871579,14.4144897 10.2831255,10.2800941 C14.4175352,6.14569853 20.6353526,4.90890198 26.0372192,7.14642074 C31.4390858,9.3839395 34.9611964,14.6551326 34.9611964,20.5020509 C34.9603892,21.475478 34.8602357,22.4462812 34.6622926,23.3993708 L34.2784728,24.7580202 L38.4733172,29.7306771 C39.0221647,29.008468 39.4711658,28.2155782 39.8081948,27.3734203 L39.8081948,27.3734203 C39.8176437,27.3501792 39.8255856,27.3263535 39.8319713,27.3020912 C40.0408116,26.7871034 40.2055734,26.2553222 40.3244834,25.7124714 L40.3244834,25.7124714 C42.555954,17.2277907 39.1405068,8.26368027 31.8288578,3.41503211 C24.5172089,-1.43361604 14.9305402,-1.09173097 7.98285925,4.26544128 C1.03517836,9.62261352 -1.73303376,18.807249 1.09717412,27.1114174 C3.927382,35.4155857 11.7284794,40.9980377 20.5017205,40.9972774 C21.4937161,41.0155692 22.4852657,40.9416581 23.4635864,40.7764969 C23.5960552,40.7561172 23.7624903,40.7255476 23.9459086,40.6881847 L23.9459086,40.6881847 L24.87319,40.4843873 L25.450618,40.3451257 L25.8140579,40.2568135 L25.8140579,40.2568135 L26.0076661,40.2058642 L22.1660718,34.9580807 Z" id="Path" fill="url(#linearGradient-1)"></path>
                <rect id="Rectangle" fill="#FFFFFF" x="63" y="10" width="6" height="6"></rect>
                <polygon id="Path" fill="#FFFFFF" points="86.2575685 29.4102718 94.4617972 19 87.8519942 19 83.2839981 25.3598138 78.6722729 19 60 19 60 23.2949392 63.1484863 23.2949392 63.1484863 41 68.9139837 41 68.9139837 23.3114582 75.5675156 23.3114582 80.3137914 29.4102718 71.5309947 41 77.962518 41 83.2839981 33.5003754 88.6088419 40.9933924 95 40.9933924"></polygon>
                <path d="M57.5673188,18.7960934 L53.4764097,18.7960934 L53.4764097,15.3677942 C53.4445703,14.3380918 53.6820411,13.3172596 54.1668585,12.3997141 C54.6271577,11.5637605 55.8642117,11.1457837 57.8780207,11.1457837 L58.6547756,11.1457837 L58.6547756,6 L57.9298044,6 C54.1967779,6 51.5339471,6.8570748 49.9413119,8.57122439 C48.3486766,10.285374 47.552359,12.5353343 47.552359,15.3211053 L47.552359,18.7960934 L44,18.7960934 L44,23.181515 L47.552359,23.181515 L47.552359,40.4730824 C47.5469369,40.5251982 47.5469369,40.5777079 47.552359,40.6298237 L47.552359,41 L53.4764097,41 L53.4764097,23.181515 L59,23.181515 L59,18.7960934 L57.5914845,18.7960934 L57.5673188,18.7960934 Z" id="Path" fill="#FFFFFF"></path>
            </g>
        </g>
    </g>
</svg>