<?xml version="1.0" encoding="UTF-8"?>
<svg width="13px" height="10px" viewBox="0 0 13 10" version="1.1" xmlns="http://www.w3.org/2000/svg" xmlns:xlink="http://www.w3.org/1999/xlink">
    <!-- Generator: Sketch 58 (84663) - https://sketch.com -->
    <title>Group 11</title>
    <desc>Created with Sketch.</desc>
    <defs>
        <polygon id="path-1" points="0.0368511 0 12.2609201 0 12.2609201 5.85542458 0.0368511 5.85542458"></polygon>
        <polygon id="path-3" points="0.0369369 0.1340053 12.2610059 0.1340053 12.2610059 4.29 0.0369369 4.29"></polygon>
    </defs>
    <g id="Page-1" stroke="none" stroke-width="1" fill="none" fill-rule="evenodd">
        <g id="Microsite_healthcare" transform="translate(-262.000000, -1429.000000)">
            <g id="Group-11" transform="translate(262.000000, 1429.000000)">
                <path d="M12.8530974,1.2228216 L9.2269034,4.6475286 L12.8529544,8.0725216 C12.8629644,8.0047396 12.8699714,7.9356706 12.8699714,7.8650286 L12.8699714,1.4300286 C12.8699714,1.3593866 12.8631074,1.2906036 12.8530974,1.2228216" id="Fill-1" fill="#3F3F3F"></path>
                <g id="Group-5" transform="translate(0.286000, 0.000000)">
                    <mask id="mask-2" fill="white">
                        <use xlink:href="#path-1"></use>
                    </mask>
                    <g id="Clip-4"></g>
                    <path d="M6.9430361,5.5503877 L12.2609201,0.5279417 C11.9983721,0.2063347 11.5992591,-1.43e-05 11.1539571,-1.43e-05 L1.1439571,-1.43e-05 C0.6987981,-1.43e-05 0.2996851,0.2063347 0.0368511,0.5277987 L5.3548781,5.5505307 C5.7853081,5.9570797 6.5127491,5.9570797 6.9430361,5.5503877" id="Fill-3" fill="#3F3F3F" mask="url(#mask-2)"></path>
                </g>
                <path d="M0.0169026,1.2225356 C0.0070356,1.2903176 2.86e-05,1.3593866 2.86e-05,1.4300286 L2.86e-05,7.8650286 C2.86e-05,7.9356706 0.0070356,8.0047396 0.0169026,8.0725216 L3.6430966,4.6472426 L0.0169026,1.2225356 Z" id="Fill-6" fill="#3F3F3F"></path>
                <g id="Group-10" transform="translate(0.286000, 5.005000)">
                    <mask id="mask-4" fill="white">
                        <use xlink:href="#path-3"></use>
                    </mask>
                    <g id="Clip-9"></g>
                    <path d="M7.4340409,1.0653643 C7.0795439,1.4002703 6.6143649,1.5675803 6.1490429,1.5675803 C5.6835779,1.5675803 5.2182559,1.4002703 4.8640449,1.0653643 L3.8779169,0.1340053 L0.0369369,3.7622013 C0.2997709,4.0835223 0.6988839,4.2900143 1.1440429,4.2900143 L11.1540429,4.2900143 C11.5992019,4.2900143 11.9983149,4.0835223 12.2610059,3.7622013 L8.4201689,0.1341483 L7.4340409,1.0653643 Z" id="Fill-8" fill="#3F3F3F" mask="url(#mask-4)"></path>
                </g>
            </g>
        </g>
    </g>
</svg>