<svg xmlns="http://www.w3.org/2000/svg" viewBox="0 0 465 439"><defs><style>.cls-1{fill:none;}.cls-2{fill:#e1e8f6;}.cls-3{fill:#f16c51;}.cls-4{fill:#2c357e;}.cls-5{fill:#fff;}</style></defs><title>forbidden</title><g id="Layer_2" data-name="Layer 2"><g id="Layer_1-2" data-name="Layer 1"><path class="cls-1" d="M108,266.94c0-12.11-6.83-22.38-16-25.32v50.65C101.18,289.32,108,279.06,108,266.94Z"/><path class="cls-1" d="M45.91,293.12H64V225.34a32.55,32.55,0,0,1,0-23.58V182a4,4,0,0,1,8,0v8.71a19.41,19.41,0,0,1,11.31-4.35,36.91,36.91,0,0,0-6.83-16c-4.61-6-10.63-9.33-17-9.33C46,161,35,175.88,35,194.16V294.61a33.48,33.48,0,0,1,9.85-1.49Z"/><path class="cls-1" d="M72,293.12H84V240.77a19.37,19.37,0,0,1-12-4.37Z"/><path class="cls-1" d="M176.7,159c7-25.29,12.59-38,52.38-38h29.47c8.12,0,14.77-8.13,14.77-18.06h0c0-9.93-6.65-18.06-14.77-18.06h-9.79c-5.61,0-10.2-5.61-10.2-12.46h0c0-6.85,4.59-12.46,10.2-12.46h57.05A134.54,134.54,0,0,0,254.5,50a4,4,0,0,1,0-8,141,141,0,0,1,67.12,16.69,32.93,32.93,0,0,0,12.65-6.14,152.63,152.63,0,0,0-167.66,5.35,20.37,20.37,0,0,1,2.65,2.76,21.94,21.94,0,1,1,6.8,42.8H124A150.62,150.62,0,0,0,102,179h13a4,4,0,0,1,2.2,7.34h16.34s1.22-.07,3.25-.34H133a4,4,0,0,1,0-8h28.31C168.16,173.94,174.25,167.92,176.7,159ZM251,94a11,11,0,1,1-11,11A11,11,0,0,1,251,94ZM226,42h8a4,4,0,0,1,0,8h-8a4,4,0,0,1,0-8Z"/><path class="cls-1" d="M405.8,162.88h-7.95c-9.87,0-18.58,6.34-23.56,15.85A4,4,0,0,1,376,182v36.34c5.14,7.86,13,12.92,21.85,12.92h0a54.42,54.42,0,0,1,9.15.8V182A152.76,152.76,0,0,0,405.8,162.88Z"/><path class="cls-2" d="M249.77,156.11a16,16,0,0,0-21.88-21.88Z"/><path class="cls-2" d="M222.23,139.89a16,16,0,0,0,21.88,21.88Z"/><path class="cls-2" d="M397.85,162.88h7.95a150.08,150.08,0,0,0-6.11-27.39h-18A102.77,102.77,0,0,1,384,157a4,4,0,0,1-8,0,95.22,95.22,0,0,0-2.46-21.51h-7.16a19.76,19.76,0,0,1-19.74-19.74v-.16a19.9,19.9,0,0,1,9.62-17C343.91,81.92,326.43,68.47,305.81,60H248.76c-5.61,0-10.2,5.61-10.2,12.46h0c0,6.85,4.59,12.46,10.2,12.46h9.79c8.12,0,14.77,8.13,14.77,18.06h0c0,9.93-6.65,18.06-14.77,18.06H229.08c-39.79,0-45.41,12.71-52.38,38-2.45,8.9-8.54,14.92-15.39,19H372a4,4,0,0,1,2.29.73C379.27,169.22,388,162.88,397.85,162.88ZM236,172a24,24,0,1,1,24-24A24,24,0,0,1,236,172Z"/><path class="cls-2" d="M4,343.06c0,19.65,9.41,36.75,23,44.88V298.18C13.41,306.32,4,323.41,4,343.06Z"/><path class="cls-2" d="M418.37,64.1c4.32,0,7.82-4.27,7.82-9.55S422.69,45,418.37,45s-7.81,4.28-7.81,9.55S414.06,64.1,418.37,64.1Z"/><path class="cls-2" d="M449.88,106.81v.25c0,.26,0,.52,0,.78a25.77,25.77,0,0,1,.14,2.6A25.08,25.08,0,0,1,425,135.49c-.56,0-1.12,0-1.72-.06s-1.23.06-1.79.06H408.08a159.16,159.16,0,0,1,5.77,27.39h17.66c16,0,29.08-16,29.08-35.55,0-13.31-6.07-25-15-31.06a24.77,24.77,0,0,1,3.77,8.6A4,4,0,0,1,449.88,106.81Z"/><path class="cls-2" d="M364.15,95.85a18.81,18.81,0,0,1,2.39-.16,19.51,19.51,0,0,1,4.7.57,29.32,29.32,0,0,1,3.39-7.79,153.65,153.65,0,0,0-40.36-36,32.93,32.93,0,0,1-12.65,6.14A124.69,124.69,0,0,1,364.15,95.85Z"/><rect class="cls-2" x="72" y="293.12" width="12" height="95.88"/><polygon class="cls-2" points="368 223 368 189.66 334.66 223 368 223"/><path class="cls-2" d="M72,205a4,4,0,0,1-8,0v-3.24a32.55,32.55,0,0,0,0,23.58V221a4,4,0,0,1,8,0v15.4a19.37,19.37,0,0,0,12,4.37V194.16a44.37,44.37,0,0,0-.69-7.8A19.41,19.41,0,0,0,72,190.71Z"/><path class="cls-2" d="M64,389V293.12H44.85A33.48,33.48,0,0,0,35,294.61V389Z"/><path class="cls-2" d="M377.71,79.59c0-.54-.08-1.09-.08-1.65,0-7.61,5.09-13.84,11.32-13.84h7.5c4.3,0,7.81-4.3,7.81-9.55S400.75,45,396.45,45H347.21a10.71,10.71,0,0,0-6.35,2.19A161.3,161.3,0,0,1,377.71,79.59Z"/><polygon class="cls-2" points="204.34 223 241.34 186 197.66 186 160.66 223 204.34 223"/><path class="cls-2" d="M241.75,303.42h10.6a34.69,34.69,0,0,1,21.4,7.37V284.32A23.34,23.34,0,0,0,250.44,261h-6.78a23.34,23.34,0,0,0-23.31,23.32v26.47A34.69,34.69,0,0,1,241.75,303.42Zm-3.56-38h17.72a4,4,0,1,1,0,8H238.19a4,4,0,0,1,0-8Z"/><polygon class="cls-2" points="115.4 326.78 165.22 326.78 165.22 268.74 115.4 326.78"/><polygon class="cls-2" points="245.66 223 293.34 223 330.34 186 282.66 186 245.66 223"/><path class="cls-2" d="M387,389h24a4,4,0,0,1,3.11,1.51c28.58-8.92,49.89-40.75,49.89-78.38,0-37.23-20.86-68.78-49-78.07V368a4,4,0,0,1-8,0V232.06a54.42,54.42,0,0,0-9.15-.8h0c-8.82,0-16.71-5.06-21.85-12.92V227a4,4,0,0,1-4,4H92v10.62c9.18,2.94,16,13.21,16,25.32s-6.83,22.38-16,25.33V389H372a4,4,0,0,1,4,4h7A4,4,0,0,1,387,389ZM193.51,334.78H173.23v44.57a4,4,0,0,1-8,0V334.78H106.7a3.67,3.67,0,0,1-.75-.07l-.26-.07a3.5,3.5,0,0,1-.46-.14l-.28-.14a2.75,2.75,0,0,1-.38-.2l-.28-.2-.2-.14a1.09,1.09,0,0,1-.1-.11,4.11,4.11,0,0,1-.29-.3c-.08-.1-.17-.19-.24-.29s-.14-.22-.2-.33a2.27,2.27,0,0,1-.19-.34c0-.12-.09-.23-.13-.35a3.3,3.3,0,0,1-.12-.38c0-.12,0-.24-.07-.37s0-.28,0-.42,0-.1,0-.15a1.49,1.49,0,0,1,0-.21c0-.14,0-.28,0-.43s0-.24.08-.36a2.4,2.4,0,0,1,.12-.38,2,2,0,0,1,.16-.36,2.55,2.55,0,0,1,.17-.33,3.12,3.12,0,0,1,.25-.35,1.88,1.88,0,0,1,.12-.18l62.53-72.85a1.09,1.09,0,0,1,.11-.1,4.11,4.11,0,0,1,.3-.29c.1-.08.19-.17.29-.24l.33-.21a3.65,3.65,0,0,1,.34-.18l.36-.14.37-.11.37-.07.42,0h.15l.21,0,.42,0,.37.08a2.78,2.78,0,0,1,.38.12,3,3,0,0,1,.37.16l.32.17c.12.08.24.16.35.25a1.88,1.88,0,0,1,.18.12.52.52,0,0,1,.1.11,2.72,2.72,0,0,1,.29.3c.08.1.17.19.24.29s.14.22.21.33a3.65,3.65,0,0,1,.18.34c.05.12.1.24.14.36s.08.25.11.38a3.29,3.29,0,0,1,.07.36,3,3,0,0,1,0,.42s0,.1,0,.15v68.84h20.28a4,4,0,0,1,0,8Zm93.72,14a34.92,34.92,0,0,1-34.88,34.88h-10.6a34.92,34.92,0,0,1-34.88-34.88V338.3a34.66,34.66,0,0,1,5.62-18.95,4.17,4.17,0,0,1-.14-1v-34A31.35,31.35,0,0,1,243.66,253h6.78a31.35,31.35,0,0,1,31.31,31.32v34a4.17,4.17,0,0,1-.14,1,34.66,34.66,0,0,1,5.62,18.95ZM366,306.67a15.94,15.94,0,0,1-5.21,11.83A16,16,0,0,1,366,330.34v32.53a15.65,15.65,0,0,1-15.41,15.83H297.73a4,4,0,0,1,0-8h52.82a7.64,7.64,0,0,0,7.41-7.83V330.34a7.65,7.65,0,0,0-7.41-7.84H314.36a4,4,0,0,1,0-8h36.19a7.64,7.64,0,0,0,7.41-7.83V274.14a7.64,7.64,0,0,0-7.41-7.83H297.73a4,4,0,0,1,0-8h52.82A15.65,15.65,0,0,1,366,274.14Z"/><path class="cls-2" d="M92,223h27.34l37-37H136.79c-2,.27-3.25.34-3.25.34H117.2a4,4,0,0,1-2.2.66H98a4,4,0,0,1-2.2-.66H91.42a53.12,53.12,0,0,1,.58,7.82Z"/><path class="cls-3" d="M68,209a4,4,0,0,0,4-4V182a4,4,0,0,0-8,0v23A4,4,0,0,0,68,209Z"/><polygon class="cls-3" points="304.66 223 323.34 223 360.34 186 341.66 186 304.66 223"/><polygon class="cls-3" points="215.66 223 234.34 223 271.34 186 252.66 186 215.66 223"/><polygon class="cls-3" points="149.34 223 186.34 186 167.66 186 130.66 223 149.34 223"/><path class="cls-4" d="M372,389H92V231H372a4,4,0,0,0,4-4V182a4,4,0,0,0-4-4H133a4,4,0,0,0,0,8h23.34l-37,37H92V194.16a53.12,53.12,0,0,0-.58-7.82,45.26,45.26,0,0,0-8.59-20.88C76.68,157.42,68.39,153,59.5,153,41.58,153,27,171.46,27,194.16V389H4a4,4,0,0,0,0,8H372a4,4,0,0,0,0-8ZM167.66,186h18.68l-37,37H130.66Zm66.68,37H215.66l37-37h18.68Zm89,0H304.66l37-37h18.68ZM368,223H334.66L368,189.66Zm-74.66,0H245.66l37-37h47.68Zm-95.68-37h43.68l-37,37H160.66ZM35,194.16C35,175.88,46,161,59.5,161c6.35,0,12.37,3.31,17,9.33a36.91,36.91,0,0,1,6.83,16,44.37,44.37,0,0,1,.69,7.8V389H72V221a4,4,0,0,0-8,0V389H35V194.16Z"/><path class="cls-4" d="M193.51,326.78H173.23V257.94c0-.05,0-.1,0-.15a3,3,0,0,0,0-.42,3.29,3.29,0,0,0-.07-.36c0-.13-.07-.26-.11-.38s-.09-.24-.14-.36a3.65,3.65,0,0,0-.18-.34c-.07-.11-.13-.22-.21-.33s-.16-.19-.24-.29a2.72,2.72,0,0,0-.29-.3.52.52,0,0,0-.1-.11,1.88,1.88,0,0,0-.18-.12c-.11-.09-.23-.17-.35-.25l-.32-.17a3,3,0,0,0-.37-.16,2.78,2.78,0,0,0-.38-.12l-.37-.08-.42,0-.21,0h-.15l-.42,0-.37.07-.37.11-.36.14a3.65,3.65,0,0,0-.34.18l-.33.21c-.1.07-.19.16-.29.24a4.11,4.11,0,0,0-.3.29,1.09,1.09,0,0,0-.11.1l-62.53,72.85a1.88,1.88,0,0,0-.12.18,3.12,3.12,0,0,0-.25.35,2.55,2.55,0,0,0-.17.33,2,2,0,0,0-.16.36,2.4,2.4,0,0,0-.12.38c0,.12-.06.24-.08.36s0,.29,0,.43a1.49,1.49,0,0,0,0,.21c0,.05,0,.1,0,.15s0,.28,0,.42,0,.25.07.37a3.3,3.3,0,0,0,.12.38c0,.12.08.23.13.35a2.27,2.27,0,0,0,.19.34c.06.11.13.22.2.33s.16.19.24.29a4.11,4.11,0,0,0,.29.3,1.09,1.09,0,0,0,.1.11l.2.14.28.2a2.75,2.75,0,0,0,.38.2l.28.14a3.5,3.5,0,0,0,.46.14l.26.07a3.67,3.67,0,0,0,.75.07h58.53v44.57a4,4,0,0,0,8,0V334.78h20.28a4,4,0,0,0,0-8Zm-78.11,0,49.83-58v58Z"/><path class="cls-4" d="M281.75,318.34v-34A31.35,31.35,0,0,0,250.44,253h-6.78a31.35,31.35,0,0,0-31.31,31.32v34a4.17,4.17,0,0,0,.14,1,34.66,34.66,0,0,0-5.62,18.95v10.45a34.92,34.92,0,0,0,34.88,34.88h10.6a34.92,34.92,0,0,0,34.88-34.88V338.3a34.66,34.66,0,0,0-5.62-18.95A4.17,4.17,0,0,0,281.75,318.34Zm-2.52,30.41a26.91,26.91,0,0,1-26.88,26.88h-10.6a26.91,26.91,0,0,1-26.88-26.88V338.3a26.91,26.91,0,0,1,26.88-26.88h10.6a26.91,26.91,0,0,1,26.88,26.88ZM243.66,261h6.78a23.34,23.34,0,0,1,23.31,23.32v26.47a34.69,34.69,0,0,0-21.4-7.37h-10.6a34.69,34.69,0,0,0-21.4,7.37V284.32A23.34,23.34,0,0,1,243.66,261Z"/><path class="cls-3" d="M238.19,273.38h17.72a4,4,0,1,0,0-8H238.19a4,4,0,0,0,0,8Z"/><path class="cls-3" d="M252.35,311.42h-10.6a26.91,26.91,0,0,0-26.88,26.88v10.45a26.91,26.91,0,0,0,26.88,26.88h10.6a26.91,26.91,0,0,0,26.88-26.88V338.3A26.91,26.91,0,0,0,252.35,311.42Zm-1,34.94v12.37a4,4,0,0,1-8,0V346.36a9.73,9.73,0,1,1,8,0Z"/><path class="cls-4" d="M350.55,258.31H297.73a4,4,0,0,0,0,8h52.82a7.64,7.64,0,0,1,7.41,7.83v32.53a7.64,7.64,0,0,1-7.41,7.83H314.36a4,4,0,0,0,0,8h36.19a7.65,7.65,0,0,1,7.41,7.84v32.53a7.64,7.64,0,0,1-7.41,7.83H297.73a4,4,0,0,0,0,8h52.82A15.65,15.65,0,0,0,366,362.87V330.34a16,16,0,0,0-5.21-11.84A15.94,15.94,0,0,0,366,306.67V274.14A15.65,15.65,0,0,0,350.55,258.31Z"/><path class="cls-4" d="M247.31,327.77a9.72,9.72,0,0,0-4,18.59v12.37a4,4,0,0,0,8,0V346.36a9.72,9.72,0,0,0-4-18.59Z"/><path class="cls-3" d="M415,393a3.94,3.94,0,0,0-.89-2.49A4,4,0,0,0,411,389H387a4,4,0,0,0,0,8h24A4,4,0,0,0,415,393Z"/><path class="cls-4" d="M115,187a4,4,0,0,0,0-8H102a150.62,150.62,0,0,1,22-75.59h52.05a21.94,21.94,0,1,0-6.8-42.8,20.37,20.37,0,0,0-2.65-2.76A152.63,152.63,0,0,1,334.27,52.5a153.65,153.65,0,0,1,40.36,36,29.32,29.32,0,0,0-3.39,7.79,19.51,19.51,0,0,0-4.7-.57,18.81,18.81,0,0,0-2.39.16,124.69,124.69,0,0,0-42.53-37.21A141,141,0,0,0,254.5,42a4,4,0,0,0,0,8,134.54,134.54,0,0,1,51.31,10c20.62,8.49,38.1,21.94,50.45,38.6a19.9,19.9,0,0,0-9.62,17v.16a19.76,19.76,0,0,0,19.74,19.74h7.16A95.22,95.22,0,0,1,376,157a4,4,0,0,0,8,0,102.77,102.77,0,0,0-2.28-21.51h18a150.08,150.08,0,0,1,6.11,27.39A152.76,152.76,0,0,1,407,182V368a4,4,0,0,0,8,0V182a160.92,160.92,0,0,0-1.15-19.12,159.16,159.16,0,0,0-5.77-27.39h13.36c.56,0,1.13,0,1.79-.06s1.16.06,1.72.06A25.08,25.08,0,0,0,450,110.44a25.77,25.77,0,0,0-.14-2.6c0-.26,0-.52,0-.78v-.25a4,4,0,0,0-.51-1.94A25.07,25.07,0,0,0,425,85.39c-.8,0-1.6,0-2.4.11a29.25,29.25,0,0,0-42.72-3.33c-.7-.87-1.4-1.73-2.12-2.58a160.59,160.59,0,0,0-218.84-26,20.81,20.81,0,0,0-6-.87,21.22,21.22,0,0,0-4.52.49,28.59,28.59,0,0,0-52.75,3.42,23.52,23.52,0,1,0-3.48,46.79h22.58A158.67,158.67,0,0,0,94,182a2.53,2.53,0,0,1,0,1,4,4,0,0,0,4,4ZM417.41,92a4,4,0,0,0,4.13,1.71,17.07,17.07,0,0,1,20.2,13.78c0,.16.07.31.11.46a3.87,3.87,0,0,0,0,.48,17.38,17.38,0,0,1,.12,2,17.07,17.07,0,0,1-17.05,17c-.44,0-.89,0-1.39-.06H423c-.5,0-1,.06-1.51.06H366.38a11.75,11.75,0,0,1-11.74-11.74v-.16a11.9,11.9,0,0,1,17.74-10.37,4,4,0,0,0,5.95-3.16,21.34,21.34,0,0,1,39.08-10ZM97.22,65.21a4,4,0,0,0,5.24-3.08,20.58,20.58,0,0,1,39.82-2.74,4,4,0,0,0,5.43,2.42,12.71,12.71,0,0,1,5.2-1.1,12.85,12.85,0,0,1,11.32,6.76,4,4,0,0,0,5.38,1.64,13.76,13.76,0,0,1,6.45-1.58,13.94,13.94,0,0,1,0,27.88H92.16a15.53,15.53,0,1,1,5.06-30.2Z"/><path class="cls-5" d="M76.64,79.88A15.54,15.54,0,0,0,92.16,95.41h83.9a13.94,13.94,0,0,0,0-27.88,13.76,13.76,0,0,0-6.45,1.58,4,4,0,0,1-5.38-1.64,12.85,12.85,0,0,0-11.32-6.76,12.71,12.71,0,0,0-5.2,1.1,4,4,0,0,1-5.43-2.42,20.58,20.58,0,0,0-39.82,2.74,4,4,0,0,1-5.24,3.08A15.52,15.52,0,0,0,76.64,79.88Z"/><path class="cls-5" d="M378.33,102.06a4,4,0,0,1-5.95,3.16,11.9,11.9,0,0,0-17.74,10.37v.16a11.75,11.75,0,0,0,11.74,11.74h55.06c.51,0,1,0,1.51-.06h.61c.5,0,.95.06,1.39.06a17.07,17.07,0,0,0,17.05-17,17.38,17.38,0,0,0-.12-2,3.87,3.87,0,0,1,0-.48c0-.15-.08-.3-.11-.46a17.07,17.07,0,0,0-20.2-13.78A4,4,0,0,1,417.41,92a21.34,21.34,0,0,0-39.08,10Z"/><path class="cls-3" d="M226,50h8a4,4,0,0,0,0-8h-8a4,4,0,0,0,0,8Z"/><path class="cls-4" d="M236,124a24,24,0,1,0,24,24A24,24,0,0,0,236,124Zm16,24a15.86,15.86,0,0,1-2.23,8.11l-21.88-21.88A16,16,0,0,1,252,148Zm-32,0a15.86,15.86,0,0,1,2.23-8.11l21.88,21.88A16,16,0,0,1,220,148Z"/><circle class="cls-2" cx="36" cy="26" r="15"/><circle class="cls-2" cx="51" cy="64" r="8"/><circle class="cls-2" cx="151" cy="11" r="11"/><circle class="cls-2" cx="446" cy="221" r="11"/><circle class="cls-2" cx="426" cy="423" r="16"/><circle class="cls-2" cx="15" cy="148" r="11"/><circle class="cls-2" cx="251" cy="105" r="11"/><circle class="cls-2" cx="458" cy="384" r="7"/></g></g></svg>