<svg xmlns="http://www.w3.org/2000/svg" viewBox="0 0 478.83 474.95"><defs><style>.cls-1{fill:none;}.cls-2{fill:#e1e8f6;}.cls-3{fill:#c0cdea;}.cls-4{fill:#2c357e;}.cls-5{fill:#f16c51;}.cls-6{fill:#fff;}</style></defs><title>not_found</title><g id="Layer_2" data-name="Layer 2"><g id="Layer_1-2" data-name="Layer 1"><path class="cls-1" d="M397.73,251.73h-2.41c-11.16,0-20.29,10-20.29,22.12S384.16,296,395.32,296h3.24V251.71Z"/><path class="cls-1" d="M298.91,430.43a6.28,6.28,0,1,0,4.45,1.84A6.26,6.26,0,0,0,298.91,430.43Z"/><path class="cls-1" d="M327.73,149l.12-.14h-.46Z"/><path class="cls-1" d="M293.83,156.57c6.53,3.8,10.09,9.39,13,16.77l14.39-16.77Z"/><path class="cls-1" d="M329,175.94a4,4,0,0,1,0,8H310.42c4.89,13,20.31,18.3,30.63,20.42h7.65V136.8l-33.59,39.14Z"/><path class="cls-1" d="M334.41,141.18h-1a3.77,3.77,0,0,1,.65.37Z"/><path class="cls-1" d="M138.53,416.72a4,4,0,1,0,2.85,1.18A4,4,0,0,0,138.53,416.72Z"/><path class="cls-1" d="M30.67,439a4,4,0,0,0-2.85,6.88,4,4,0,0,0,5.7,0A4,4,0,0,0,30.67,439Z"/><path class="cls-1" d="M439.7,167.05a6.3,6.3,0,1,0-4.45-1.85A6.27,6.27,0,0,0,439.7,167.05Z"/><path class="cls-1" d="M385.67,102.22a4,4,0,0,0,2.83-6.83,4,4,0,1,0-2.83,6.83Z"/><path class="cls-1" d="M333.17,15.22A4.47,4.47,0,1,0,330,13.91,4.42,4.42,0,0,0,333.17,15.22Z"/><path class="cls-1" d="M135.67,47.05a6.3,6.3,0,1,0-4.45-1.85A6.27,6.27,0,0,0,135.67,47.05Z"/><path class="cls-1" d="M125.12,204.36c-3.86-10.77-13.49-18.46-24.69-18.46H83.87L68,204.36Z"/><path class="cls-1" d="M469.7,461.22a4,4,0,0,0-2.85,6.88,4,4,0,0,0,5.7,0,4,4,0,0,0-2.85-6.88Z"/><path class="cls-2" d="M297.7,183.94h-2.23a3.89,3.89,0,0,1,1.83.47Z"/><path class="cls-2" d="M75,183.94H72.78a3.89,3.89,0,0,1,1.83.47Z"/><path class="cls-2" d="M473.58,338.18c0-23.21-17.42-42.2-38.71-42.2H406.56v50.08c0,15-11.92,27.23-26.57,27.23h-53.7a4,4,0,0,1,0-8H380c10.24,0,18.57-8.63,18.57-19.23V296h-3.24C384.16,296,375,286,375,273.85s9.13-22.12,20.29-22.12h2.41l.83,0v-15.9a4,4,0,0,1,8,0V249.6c7.23-3.66,12.27-11.65,12.27-20.87s-5-17.11-12.12-20.8a12.73,12.73,0,0,1,.55,5c0,.48,0,1,0,1.62v6.18a4,4,0,1,1-8,0v-6.18c0-.63,0-1.21,0-1.72,0-.15,0-.3,0-.45h-1.51a4,4,0,0,1-4-4,3.94,3.94,0,0,1,1-2.63H383.15a3.94,3.94,0,0,1,1,2.63,4,4,0,0,1-4,4H356.7v50.9a4,4,0,0,1-8,0v-50.9H282a3.67,3.67,0,0,1-.75-.08l-.26-.07a3.5,3.5,0,0,1-.46-.14l-.28-.13-.38-.21-.28-.2c-.06-.05-.13-.08-.2-.14a1.09,1.09,0,0,1-.1-.11,2.76,2.76,0,0,1-.29-.3l-.24-.29a3.62,3.62,0,0,1-.2-.33,3.72,3.72,0,0,1-.19-.34c-.05-.11-.09-.24-.14-.36s-.08-.24-.11-.37-.05-.25-.07-.37,0-.28,0-.42,0-.09,0-.14,0-.15,0-.22,0-.28,0-.42.05-.25.08-.37.07-.25.12-.38a2.83,2.83,0,0,1,.16-.36,3.41,3.41,0,0,1,.17-.33c.08-.12.16-.24.25-.35a1.88,1.88,0,0,1,.12-.18l11.85-13.81H279.5a4,4,0,0,1,0-8H289a4,4,0,0,1,0-8h15.6l2.23-2.6c-2.88-7.38-6.44-13-13-16.77h-1a4,4,0,0,1-3.54-2.17c-5.74-2.21-13.33-3.48-23.64-3.79a34.52,34.52,0,0,1,.26,4.22v76.86A34.93,34.93,0,0,1,235,266.34V309a11.36,11.36,0,1,1-22.71,0V266.57H211a34.92,34.92,0,0,1-34.88-34.88V154.83A34.93,34.93,0,0,1,211,119.94h20c.65,0,1.29,0,1.93.06h8.75c5.31,0,9.66-4.74,9.66-10.53h0c0-5.79-4.35-10.53-9.66-10.53H184.14c-24.81,0-25.91-12.66-35.73-12.66H101.76c-4.07,0-7.4,3.64-7.4,8.08s3.33,8.07,7.4,8.07h7.11c5.9,0,10.72,5.26,10.72,11.7s-4.82,11.69-10.72,11.69H68.54C53.39,125.81,41,139.33,41,155.86c0,12.79,7.42,23.77,17.8,28.08h7.49a4,4,0,0,1,0-8h15.6l16.63-19.37H70.12a4,4,0,0,1,0-8h4.4a4,4,0,0,1,1.35-7.75H93a4,4,0,0,1,1.64-7.64h21.61a4,4,0,0,1,1.88.49L127,123.4a.52.52,0,0,1,.11-.1,2.72,2.72,0,0,1,.3-.29,3.07,3.07,0,0,1,.29-.24l.33-.21a2.21,2.21,0,0,1,.34-.18,2.67,2.67,0,0,1,.36-.14l.37-.12c.12,0,.25,0,.38-.06a2.71,2.71,0,0,1,.41,0l.15,0,.22,0a2.85,2.85,0,0,1,.41,0l.38.08.37.11.37.16a3.3,3.3,0,0,1,.32.18,3.07,3.07,0,0,1,.35.24c.06,0,.13.08.18.13l.1.1a2.81,2.81,0,0,1,.29.31,2.17,2.17,0,0,1,.24.29,2.66,2.66,0,0,1,.21.33,3.65,3.65,0,0,1,.18.34,2.13,2.13,0,0,1,.14.35l.12.38.06.36a3.28,3.28,0,0,1,0,.43s0,.09,0,.14v78.36h23.45a4,4,0,1,1,0,8H134v50.9a4,4,0,1,1-8,0v-41c-3,12.29-13.39,21.41-25.59,21.41h0c-34.47,0-62.67,30.75-62.67,68.35s28.2,68.34,62.67,68.34h53.91a21.12,21.12,0,0,1,18-32.26h17.16a4,4,0,0,1,4,4v28.26h33.6a3.59,3.59,0,0,1-.08-.81,4,4,0,0,1,4-4h9.72v-11.9H231a4,4,0,0,1,0-8h9.72v-3.55a4,4,0,0,1,4-4h17.16A21.19,21.19,0,0,1,283,369.29a21,21,0,0,1-3.19,11.1h155C456.16,380.39,473.58,361.4,473.58,338.18ZM126,278.27a4,4,0,1,1,8,0v6.66a4,4,0,1,1-8,0ZM142.37,373c-13.46,0-16.35-.95-16.35-11.08v-62a4,4,0,1,1,8,0v62c0,1,0,2.11,0,2.78a65.15,65.15,0,0,0,8.3.3,4,4,0,0,1,0,8Zm164.92.28H295a4,4,0,0,1,0-8h12.26a4,4,0,0,1,0,8Z"/><path class="cls-2" d="M125.12,204.36h.9V136.8l-33.6,39.14h13.86a4,4,0,1,1,0,8H85.55l-1.68,2h16.56C111.63,185.9,121.26,193.59,125.12,204.36Z"/><path class="cls-2" d="M105,149l.12-.14h-.46Z"/><path class="cls-2" d="M220.28,266.57V309a3.36,3.36,0,1,0,6.71,0V266.57Z"/><path class="cls-2" d="M310.42,183.94h-2.18l-17.52,20.42h50.33C330.73,202.24,315.31,196.94,310.42,183.94Z"/><path class="cls-2" d="M81,102.42c4.09,0,7.41-3.61,7.41-8.07S85.07,86.27,81,86.27s-7.4,3.62-7.4,8.08S76.9,102.42,81,102.42Z"/><path class="cls-2" d="M111.72,141.18h-1a4.28,4.28,0,0,1,.66.37Z"/><circle class="cls-2" cx="305.67" cy="125.69" r="7.79"/><circle class="cls-2" cx="236.69" cy="43.19" r="5.51"/><circle class="cls-2" cx="42.88" cy="244.4" r="7.79"/><circle class="cls-2" cx="30.99" cy="20.75" r="7.79"/><circle class="cls-2" cx="156.85" cy="457.46" r="7.79"/><circle class="cls-2" cx="211.48" cy="418.63" r="5.51" transform="translate(-90.53 59.79) rotate(-13.28)"/><circle class="cls-2" cx="431.98" cy="420.75" r="7.79"/><circle class="cls-2" cx="444.41" cy="252.19" r="6.97"/><circle class="cls-2" cx="402.39" cy="50.75" r="4.93"/><path class="cls-3" d="M323.31,14.16h0a.49.49,0,0,0-.24.31.53.53,0,0,0,.05.39l1.47,2.54h0a.51.51,0,0,0,.7.19h0l2.06-1.19a.27.27,0,0,1,.32,0,7.59,7.59,0,0,0,1.54,1.16,7.47,7.47,0,0,0,1.76.75.27.27,0,0,1,.2.26V21a.56.56,0,0,0,.15.37.51.51,0,0,0,.36.15h2.94a.53.53,0,0,0,.36-.15.56.56,0,0,0,.15-.37V18.6a.28.28,0,0,1,.21-.27,8,8,0,0,0,1.75-.74,7.52,7.52,0,0,0,1.53-1.16.29.29,0,0,1,.35,0l2.06,1.19a.51.51,0,0,0,.38.05.55.55,0,0,0,.32-.24h0l1.46-2.53h0a.49.49,0,0,0,.06-.39.53.53,0,0,0-.24-.31L341,13a.27.27,0,0,1-.13-.3,9.4,9.4,0,0,0,.17-.95,7.5,7.5,0,0,0,.06-1,7.73,7.73,0,0,0-.06-1,9.2,9.2,0,0,0-.17-.94.26.26,0,0,1,.14-.31L343,7.35a.53.53,0,0,0,.24-.31.49.49,0,0,0-.06-.39v0L341.75,4.1h0a.48.48,0,0,0-.32-.24.47.47,0,0,0-.38,0h0L339,5.11a.26.26,0,0,1-.33,0,7.94,7.94,0,0,0-3.29-1.9.27.27,0,0,1-.2-.26V.51A.51.51,0,0,0,335,.15a.53.53,0,0,0-.36-.15H331.7a.51.51,0,0,0-.51.51v2.4a.27.27,0,0,1-.21.26,7.57,7.57,0,0,0-1.75.75,7.92,7.92,0,0,0-1.54,1.15.26.26,0,0,1-.32,0l-2.08-1.19h0a.5.5,0,0,0-.38,0,.46.46,0,0,0-.31.24h0l-1.46,2.53a.53.53,0,0,0-.05.39.52.52,0,0,0,.24.31h0l2.06,1.19a.26.26,0,0,1,.13.3h0a7.09,7.09,0,0,0-.17.94,7.73,7.73,0,0,0-.06,1,7.5,7.5,0,0,0,.06,1,7.24,7.24,0,0,0,.17.95.28.28,0,0,1-.14.31ZM330,7.6a4.45,4.45,0,1,1-1.31,3.15A4.46,4.46,0,0,1,330,7.6Z"/><path class="cls-3" d="M425.8,165.55h0a.73.73,0,0,0-.33.44.71.71,0,0,0,.07.55l2.07,3.59h0a.73.73,0,0,0,.44.33.71.71,0,0,0,.55-.07h0l2.9-1.68a.39.39,0,0,1,.46.06,11.29,11.29,0,0,0,4.65,2.69.38.38,0,0,1,.28.37v3.37a.72.72,0,0,0,.21.51.75.75,0,0,0,.51.21h4.15a.71.71,0,0,0,.5-.21.69.69,0,0,0,.22-.51v-3.37a.39.39,0,0,1,.3-.38,11.22,11.22,0,0,0,4.63-2.68.38.38,0,0,1,.48,0l2.9,1.67a.71.71,0,0,0,.55.07.73.73,0,0,0,.44-.33v0l2.06-3.57h0a.71.71,0,0,0,.07-.55.73.73,0,0,0-.33-.44l-2.93-1.69a.38.38,0,0,1-.18-.42,11.56,11.56,0,0,0,.25-1.33,12.12,12.12,0,0,0,.08-1.36,11.94,11.94,0,0,0-.08-1.35,11.17,11.17,0,0,0-.25-1.33.4.4,0,0,1,.2-.44l2.91-1.68a.68.68,0,0,0,.33-.44.72.72,0,0,0-.07-.55v0l-2.06-3.56h0a.74.74,0,0,0-.44-.34.76.76,0,0,0-.55.07h0l-2.92,1.69a.39.39,0,0,1-.47-.06,11.09,11.09,0,0,0-2.16-1.62,10.72,10.72,0,0,0-2.48-1.06.38.38,0,0,1-.28-.37v-3.37a.75.75,0,0,0-.72-.73h-4.15a.73.73,0,0,0-.72.73v3.37a.4.4,0,0,1-.3.38,10.54,10.54,0,0,0-2.46,1.05,10.81,10.81,0,0,0-2.17,1.63.38.38,0,0,1-.46.05l-2.92-1.69h0a.76.76,0,0,0-.53-.06.74.74,0,0,0-.44.34v0L425.54,155a.72.72,0,0,0-.07.55.7.7,0,0,0,.33.44l0,0,2.9,1.67a.4.4,0,0,1,.18.43h0a11.17,11.17,0,0,0-.25,1.33,11.94,11.94,0,0,0-.08,1.35,12.12,12.12,0,0,0,.08,1.36,11.56,11.56,0,0,0,.25,1.33.4.4,0,0,1-.21.44Zm9.45-9.25a6.3,6.3,0,1,1-1.84,4.45A6.28,6.28,0,0,1,435.25,156.3Z"/><path class="cls-3" d="M39.57,439.94a.48.48,0,0,0,.22-.28.48.48,0,0,0,0-.35h0L38.41,437h0a.43.43,0,0,0-.28-.21.48.48,0,0,0-.35,0h0l-1.87,1.08a.24.24,0,0,1-.3,0,7.34,7.34,0,0,0-1.38-1,7.44,7.44,0,0,0-1.59-.67.25.25,0,0,1-.18-.24v-2.16a.45.45,0,0,0-.14-.33.47.47,0,0,0-.33-.13H29.34a.46.46,0,0,0-.32.13.45.45,0,0,0-.14.33v2.16a.24.24,0,0,1-.19.24,7.15,7.15,0,0,0-1.58.67,7.57,7.57,0,0,0-1.39,1.05.23.23,0,0,1-.29,0l-1.87-1.08h0a.47.47,0,0,0-.35,0,.48.48,0,0,0-.28.21v0l-1.31,2.28a.45.45,0,0,0,.17.63h0L23.64,441a.26.26,0,0,1,.11.28h0a7.53,7.53,0,0,0-.15.85,7.51,7.51,0,0,0,0,1.73,8.13,8.13,0,0,0,.15.86.24.24,0,0,1-.13.28l-1.85,1.07h0a.47.47,0,0,0-.22.28.43.43,0,0,0,.05.35l1.32,2.3h0a.48.48,0,0,0,.28.21.5.5,0,0,0,.36,0h0l1.86-1.07a.24.24,0,0,1,.29,0,7.15,7.15,0,0,0,1.39,1.05,7.23,7.23,0,0,0,1.59.67.25.25,0,0,1,.18.24v2.16a.45.45,0,0,0,.14.33.46.46,0,0,0,.32.13H32a.47.47,0,0,0,.33-.13.45.45,0,0,0,.14-.33V450.1a.25.25,0,0,1,.19-.24,6.94,6.94,0,0,0,3-1.72.24.24,0,0,1,.31,0l1.86,1.07a.48.48,0,0,0,.35,0,.43.43,0,0,0,.28-.21h0l1.32-2.29h0a.48.48,0,0,0,0-.35.51.51,0,0,0-.22-.28L37.7,445a.25.25,0,0,1-.12-.27,7.7,7.7,0,0,0,.16-.86,7.51,7.51,0,0,0,0-1.73,7.52,7.52,0,0,0-.16-.85.24.24,0,0,1,.13-.28Zm-6,5.93a4,4,0,0,1-5.7,0,4,4,0,1,1,5.7,0Z"/><path class="cls-3" d="M147.43,417.68a.47.47,0,0,0,.22-.28.43.43,0,0,0-.05-.35v0l-1.32-2.28h0a.48.48,0,0,0-.28-.21.45.45,0,0,0-.36,0h0l-1.87,1.08a.24.24,0,0,1-.3,0,7,7,0,0,0-1.38-1,6.78,6.78,0,0,0-1.59-.67.25.25,0,0,1-.18-.24v-2.16a.44.44,0,0,0-.14-.33.47.47,0,0,0-.32-.14h-2.65a.48.48,0,0,0-.47.47v2.16a.26.26,0,0,1-.19.24,7.15,7.15,0,0,0-1.58.67,6.71,6.71,0,0,0-1.38,1.05.26.26,0,0,1-.3,0l-1.87-1.08h0a.5.5,0,0,0-.34,0,.43.43,0,0,0-.28.21h0l-1.32,2.29a.48.48,0,0,0-.05.35.51.51,0,0,0,.22.28h0l1.86,1.07a.25.25,0,0,1,.12.27h0a8,8,0,0,0-.16.85,8.46,8.46,0,0,0-.05.87,8.14,8.14,0,0,0,.05.87,7.52,7.52,0,0,0,.16.85.24.24,0,0,1-.13.28l-1.86,1.08h0a.48.48,0,0,0-.22.28.48.48,0,0,0,.05.35l1.33,2.3h0a.43.43,0,0,0,.28.21.48.48,0,0,0,.35,0h0l1.86-1.08a.27.27,0,0,1,.3,0,7.17,7.17,0,0,0,3,1.72.25.25,0,0,1,.18.24V430a.5.5,0,0,0,.14.33.47.47,0,0,0,.33.13h2.65a.46.46,0,0,0,.32-.13.45.45,0,0,0,.14-.33v-2.16a.24.24,0,0,1,.19-.24,6.73,6.73,0,0,0,1.58-.68,7.41,7.41,0,0,0,1.39-1,.24.24,0,0,1,.3,0l1.86,1.08a.5.5,0,0,0,.36,0,.48.48,0,0,0,.28-.21v0l1.31-2.28h0a.45.45,0,0,0-.17-.63l-1.87-1.08a.26.26,0,0,1-.11-.28,7.53,7.53,0,0,0,.15-.85,6.17,6.17,0,0,0,.05-.87,6.35,6.35,0,0,0-.05-.87,7.94,7.94,0,0,0-.15-.85.24.24,0,0,1,.13-.28Zm-6.05,5.92a4,4,0,1,1,1.18-2.85A4,4,0,0,1,141.38,423.6Z"/><path class="cls-3" d="M478.82,468.6a.51.51,0,0,0-.22-.28l-1.87-1.08a.25.25,0,0,1-.12-.27,7.7,7.7,0,0,0,.16-.86,7.51,7.51,0,0,0,0-1.73,7.52,7.52,0,0,0-.16-.85.24.24,0,0,1,.13-.28l1.86-1.08a.48.48,0,0,0,.22-.28.48.48,0,0,0-.05-.35h0l-1.32-2.29h0a.43.43,0,0,0-.28-.21.48.48,0,0,0-.35,0h0l-1.87,1.08a.24.24,0,0,1-.3,0,7.34,7.34,0,0,0-1.38-1,7.44,7.44,0,0,0-1.59-.67.25.25,0,0,1-.18-.24V456a.45.45,0,0,0-.14-.33.47.47,0,0,0-.33-.13h-2.65a.46.46,0,0,0-.32.13.45.45,0,0,0-.14.33v2.16a.24.24,0,0,1-.19.24,7.15,7.15,0,0,0-1.58.67,7.57,7.57,0,0,0-1.39,1.05.23.23,0,0,1-.29,0l-1.87-1.08h0a.47.47,0,0,0-.35,0,.48.48,0,0,0-.28.21v0l-1.31,2.28a.45.45,0,0,0,.17.63h0l1.86,1.07a.26.26,0,0,1,.11.28h0a7.53,7.53,0,0,0-.15.85,7.51,7.51,0,0,0,0,1.73,8.13,8.13,0,0,0,.15.86.24.24,0,0,1-.13.28l-1.85,1.07h0a.47.47,0,0,0-.22.28.43.43,0,0,0,.05.35l1.32,2.3h0a.48.48,0,0,0,.28.21.5.5,0,0,0,.36,0h0l1.86-1.07a.24.24,0,0,1,.29,0,7.15,7.15,0,0,0,1.39,1.05,7.23,7.23,0,0,0,1.59.67.25.25,0,0,1,.18.24v2.16a.45.45,0,0,0,.14.33.46.46,0,0,0,.32.13H471a.47.47,0,0,0,.33-.13.45.45,0,0,0,.14-.33v-2.16a.25.25,0,0,1,.19-.24,6.94,6.94,0,0,0,3-1.72.24.24,0,0,1,.31,0l1.86,1.07a.48.48,0,0,0,.35,0,.43.43,0,0,0,.28-.21h0l1.32-2.29h0A.48.48,0,0,0,478.82,468.6Zm-6.27-.5a4,4,0,0,1-5.7,0,4,4,0,1,1,5.7,0Z"/><path class="cls-3" d="M312.81,431.92a.7.7,0,0,0,.33-.44.72.72,0,0,0-.07-.55v0L311,427.35h0a.74.74,0,0,0-.44-.34.76.76,0,0,0-.55.07h0l-2.92,1.69a.39.39,0,0,1-.47-.06,11.09,11.09,0,0,0-2.16-1.62A10.72,10.72,0,0,0,302,426a.38.38,0,0,1-.28-.37v-3.37a.72.72,0,0,0-.21-.51.7.7,0,0,0-.51-.22h-4.14a.69.69,0,0,0-.51.22.73.73,0,0,0-.22.51v3.37a.39.39,0,0,1-.29.38,10.62,10.62,0,0,0-2.47,1,10.75,10.75,0,0,0-2.16,1.63.38.38,0,0,1-.46,0l-2.93-1.69h0a.78.78,0,0,0-.54-.06.74.74,0,0,0-.44.34v0l-2.06,3.56a.72.72,0,0,0-.07.55.68.68,0,0,0,.34.44l0,0,2.9,1.67a.4.4,0,0,1,.18.43h0a9.47,9.47,0,0,0-.24,1.33,10,10,0,0,0-.08,1.35,10.14,10.14,0,0,0,.08,1.36,9.74,9.74,0,0,0,.24,1.33.39.39,0,0,1-.2.44l-2.9,1.67h0a.73.73,0,0,0-.27,1l2.07,3.59h0a.73.73,0,0,0,.44.33.71.71,0,0,0,.55-.07h0l2.91-1.68a.39.39,0,0,1,.46.06,10.84,10.84,0,0,0,2.16,1.63,10.69,10.69,0,0,0,2.48,1.05.4.4,0,0,1,.28.38v3.37a.73.73,0,0,0,.22.51.72.72,0,0,0,.51.21H301a.74.74,0,0,0,.51-.21.72.72,0,0,0,.21-.51v-3.37a.39.39,0,0,1,.3-.38,11,11,0,0,0,2.46-1.05,11.2,11.2,0,0,0,2.17-1.63.38.38,0,0,1,.48,0l2.9,1.67a.71.71,0,0,0,.55.07.73.73,0,0,0,.44-.33l0,0,2.05-3.57h0a.71.71,0,0,0,.07-.55.73.73,0,0,0-.33-.44l-2.92-1.69a.38.38,0,0,1-.19-.42,11.56,11.56,0,0,0,.25-1.33,12.12,12.12,0,0,0,.08-1.36,11.94,11.94,0,0,0-.08-1.35,11.17,11.17,0,0,0-.25-1.33.4.4,0,0,1,.21-.44Zm-9.45,9.25a6.3,6.3,0,1,1,1.84-4.45A6.27,6.27,0,0,1,303.36,441.17Z"/><path class="cls-3" d="M121.77,45.55h0a.74.74,0,0,0-.34.44.71.71,0,0,0,.07.55l2.07,3.59h0a.73.73,0,0,0,.44.33.71.71,0,0,0,.55-.07h0l2.91-1.68a.39.39,0,0,1,.46.06,11.13,11.13,0,0,0,2.16,1.63,11.37,11.37,0,0,0,2.48,1.06.38.38,0,0,1,.28.37v3.37a.73.73,0,0,0,.22.51.72.72,0,0,0,.51.21h4.14a.72.72,0,0,0,.72-.72V51.82a.39.39,0,0,1,.3-.38,11.26,11.26,0,0,0,2.47-1,11.45,11.45,0,0,0,2.16-1.63.38.38,0,0,1,.48,0l2.9,1.67a.71.71,0,0,0,.55.07.73.73,0,0,0,.44-.33l0,0,2.05-3.57h0a.71.71,0,0,0,.07-.55.69.69,0,0,0-.33-.44l-2.92-1.69a.38.38,0,0,1-.18-.42c.1-.43.18-.88.24-1.33a12.12,12.12,0,0,0,.08-1.36,11.94,11.94,0,0,0-.08-1.35c-.06-.46-.14-.9-.24-1.33a.38.38,0,0,1,.2-.44l2.9-1.68a.65.65,0,0,0,.33-.44.72.72,0,0,0-.07-.55v0l-2.06-3.56h0a.74.74,0,0,0-.44-.34.76.76,0,0,0-.55.07h0l-2.92,1.69a.39.39,0,0,1-.47-.06,11.09,11.09,0,0,0-2.16-1.62,10.72,10.72,0,0,0-2.48-1.06.38.38,0,0,1-.28-.37V26.32a.72.72,0,0,0-.21-.51.69.69,0,0,0-.51-.22H133.6a.69.69,0,0,0-.51.22.73.73,0,0,0-.22.51v3.37a.39.39,0,0,1-.29.38A11,11,0,0,0,128,32.75a.38.38,0,0,1-.46,0l-2.93-1.69h0A.78.78,0,0,0,124,31a.74.74,0,0,0-.44.34v0L121.5,35a.73.73,0,0,0,.27,1l0,0,2.9,1.67a.4.4,0,0,1,.18.43h0a11.17,11.17,0,0,0-.24,1.33,10,10,0,0,0-.08,1.35,10.14,10.14,0,0,0,.08,1.36,11.55,11.55,0,0,0,.24,1.33.38.38,0,0,1-.2.44Zm9.45-9.25a6.3,6.3,0,1,1-1.84,4.45A6.26,6.26,0,0,1,131.22,36.3Z"/><path class="cls-3" d="M376.83,101.27h0a.43.43,0,0,0-.21.28.48.48,0,0,0,0,.35l1.32,2.28h0a.43.43,0,0,0,.28.21.48.48,0,0,0,.35,0h0l1.85-1.07a.24.24,0,0,1,.29,0,7,7,0,0,0,1.37,1,7.36,7.36,0,0,0,1.58.67.24.24,0,0,1,.18.23v2.15a.48.48,0,0,0,.46.46H387a.45.45,0,0,0,.33-.14.46.46,0,0,0,.13-.32v-2.15a.27.27,0,0,1,.19-.24,7,7,0,0,0,1.57-.66,7.34,7.34,0,0,0,1.38-1,.24.24,0,0,1,.3,0l1.85,1.07a.47.47,0,0,0,.35,0,.45.45,0,0,0,.28-.21v0l1.3-2.26h0a.44.44,0,0,0,.05-.35.43.43,0,0,0-.21-.28l-1.86-1.07a.25.25,0,0,1-.12-.27,8,8,0,0,0,.16-.85,8.11,8.11,0,0,0,.05-.86,8,8,0,0,0-.05-.86,7.52,7.52,0,0,0-.16-.85.25.25,0,0,1,.13-.28l1.85-1.06a.48.48,0,0,0,.21-.28.43.43,0,0,0-.05-.35v0l-1.31-2.26h0a.51.51,0,0,0-.28-.22.48.48,0,0,0-.35,0h0l-1.86,1.07a.24.24,0,0,1-.3,0,7.33,7.33,0,0,0-1.37-1,7.15,7.15,0,0,0-1.58-.67.25.25,0,0,1-.18-.24V89a.44.44,0,0,0-.46-.46h-2.63a.46.46,0,0,0-.32.13.45.45,0,0,0-.14.33v2.14a.24.24,0,0,1-.19.24,7.28,7.28,0,0,0-1.57.67,7,7,0,0,0-1.37,1,.24.24,0,0,1-.29,0l-1.86-1.07h0a.51.51,0,0,0-.34,0,.48.48,0,0,0-.28.22h0l-1.31,2.27a.47.47,0,0,0,0,.35.48.48,0,0,0,.21.28h0l1.85,1.07a.24.24,0,0,1,.11.27h0a7.53,7.53,0,0,0-.15.85,6,6,0,0,0,0,.86,6.11,6.11,0,0,0,0,.86,7.94,7.94,0,0,0,.15.85.23.23,0,0,1-.13.27Zm6-5.88a4,4,0,0,1,5.66,0,4,4,0,1,1-6.83,2.83A4,4,0,0,1,382.84,95.39Z"/><circle class="cls-2" cx="5.67" cy="355.45" r="5.67"/><path class="cls-4" d="M130,267.26a4,4,0,0,0,4-4v-50.9h23.45a4,4,0,1,0,0-8H134V126s0-.09,0-.14a3.28,3.28,0,0,0,0-.43l-.06-.36-.12-.38a2.13,2.13,0,0,0-.14-.35,3.65,3.65,0,0,0-.18-.34,2.66,2.66,0,0,0-.21-.33,2.17,2.17,0,0,0-.24-.29,2.81,2.81,0,0,0-.29-.31l-.1-.1c-.05,0-.12-.08-.18-.13a3.07,3.07,0,0,0-.35-.24,3.3,3.3,0,0,0-.32-.18l-.37-.16-.37-.11-.38-.08a2.85,2.85,0,0,0-.41,0l-.22,0-.15,0a2.71,2.71,0,0,0-.41,0c-.13,0-.26,0-.38.06l-.37.12a2.67,2.67,0,0,0-.36.14,2.21,2.21,0,0,0-.34.18l-.33.21a3.07,3.07,0,0,0-.29.24,2.72,2.72,0,0,0-.3.29.52.52,0,0,0-.11.1l-8.82,10.27a4,4,0,0,0-1.88-.49H94.67A4,4,0,0,0,93,140.82H109.1a3.93,3.93,0,0,1,1.64.36h1l-.32.37a4,4,0,0,1-2.3,7.27h-3.94L105,149l-.34-.14H75.87a4.09,4.09,0,0,1-1.35-.25h-4.4a4,4,0,0,0,0,8H98.51L81.88,175.94H66.28a4,4,0,0,0,0,8H75l-.4.47a4,4,0,0,1-1.83,7.53H68.15l-3.06,3.56-8.8,10.25-.12.18a2.71,2.71,0,0,0-.24.35,2.68,2.68,0,0,0-.18.33c-.06.12-.11.24-.16.36s-.08.25-.12.38-.06.24-.08.37,0,.28,0,.42,0,.14,0,.22,0,.09,0,.14,0,.28,0,.42a2.2,2.2,0,0,0,.06.37,2.78,2.78,0,0,0,.12.38,3.62,3.62,0,0,0,.13.35,3.72,3.72,0,0,0,.19.34,3.62,3.62,0,0,0,.2.33l.24.29c.1.11.19.21.29.3l.1.11c.07.06.14.09.21.14a2.83,2.83,0,0,0,.28.2c.12.08.24.14.37.21l.28.13a4,4,0,0,0,.46.14l.26.07a3.82,3.82,0,0,0,.75.08H126v50.9A4,4,0,0,0,130,267.26ZM83.87,185.9l1.68-2h20.73a4,4,0,1,0,0-8H92.42L126,136.8v67.56H68Z"/><path class="cls-5" d="M257.89,200.28a14.83,14.83,0,0,1-7.55-10.61,20.14,20.14,0,0,0-.83-4.24,3.68,3.68,0,0,0-3.2-2.52c-2.61.07-3.38,3.51-4.95,5.59-2.15,2.83-6.58,3.18-9.64,1.39-6.86-4-7-16.78-9.62-23.57-2-5.32-6.53-10.71-12.22-10.21-1.58.14-3.14.74-4.73.59-3.06-.31-5.12-3.26-6.3-6.1-1.31-3.14-2.27-6-4.77-8.35-1-.91-3.81-1.59-5.27-2.61a26.72,26.72,0,0,0-4.71,15.19v76.86A26.91,26.91,0,0,0,211,258.57h20a26.91,26.91,0,0,0,26.88-26.88Zm-55.31-30.06a4,4,0,0,1,8,0v13.72a4,4,0,0,1-8,0Zm42.87,62.59a4,4,0,0,1-5.65,0,26,26,0,0,0-18.47-7.4h0a26.23,26.23,0,0,0-18.66,7.51,4,4,0,1,1-5.69-5.62,34.27,34.27,0,0,1,24.35-9.89h0a34,34,0,0,1,24.16,9.79A4,4,0,0,1,245.45,232.81Z"/><path class="cls-4" d="M402.56,231.81a4,4,0,0,0-4,4V346.06c0,10.6-8.33,19.23-18.57,19.23h-53.7a4,4,0,0,0,0,8H380c14.65,0,26.57-12.22,26.57-27.23V235.81A4,4,0,0,0,402.56,231.81Z"/><path class="cls-5" d="M397.76,212.36h1.51c0,.15,0,.3,0,.45,0,.51,0,1.09,0,1.72v6.18a4,4,0,1,0,8,0v-6.18c0-.6,0-1.14,0-1.62a12.73,12.73,0,0,0-.55-5,5.46,5.46,0,0,0-1.14-1.73c-1.83-1.84-4.08-1.84-7.81-1.84a4,4,0,0,0-4,4A4,4,0,0,0,397.76,212.36Z"/><path class="cls-5" d="M275,369.29a13.18,13.18,0,0,0-13.16-13.16H248.72v26.31h13.16A13.17,13.17,0,0,0,275,369.29Z"/><path class="cls-4" d="M261.88,348.13H244.72a4,4,0,0,0-4,4v3.55H231a4,4,0,0,0,0,8h9.72v11.9H231a4,4,0,0,0-4,4,3.59,3.59,0,0,0,.08.81,4,4,0,0,0,3.92,3.19h9.72v2.86a4,4,0,0,0,4,4h17.16a21.16,21.16,0,1,0,0-42.31Zm-13.16,34.31V356.13h13.16a13.16,13.16,0,1,1,0,26.31Z"/><path class="cls-5" d="M185.48,382.44V356.13H172.32a13.16,13.16,0,1,0,0,26.31Z"/><path class="cls-4" d="M189.48,348.13H172.32a21.16,21.16,0,0,0,0,42.31h17.16a4,4,0,0,0,4-4V352.13A4,4,0,0,0,189.48,348.13Zm-30.32,21.16a13.17,13.17,0,0,1,13.16-13.16h13.16v26.31H172.32A13.17,13.17,0,0,1,159.16,369.29Z"/><path class="cls-4" d="M142.37,365a65.15,65.15,0,0,1-8.3-.3c0-.67,0-1.78,0-2.78v-62a4,4,0,1,0-8,0v62c0,10.13,2.89,11.08,16.35,11.08a4,4,0,0,0,0-8Z"/><path class="cls-5" d="M130,288.93a4,4,0,0,0,4-4v-6.66a4,4,0,1,0-8,0v6.66A4,4,0,0,0,130,288.93Z"/><path class="cls-5" d="M307.29,365.29H295a4,4,0,0,0,0,8h12.26a4,4,0,0,0,0-8Z"/><path class="cls-4" d="M221.33,217.37h0A34.27,34.27,0,0,0,197,227.26a4,4,0,1,0,5.69,5.62,26.23,26.23,0,0,1,18.66-7.51h0a26,26,0,0,1,18.47,7.4,4,4,0,0,0,5.69-5.61A34,34,0,0,0,221.33,217.37Z"/><path class="cls-6" d="M198.85,150.6c1.18,2.84,3.24,5.79,6.3,6.1,1.59.15,3.15-.45,4.73-.59,5.69-.5,10.18,4.89,12.22,10.21,2.6,6.79,2.76,19.57,9.62,23.57,3.06,1.79,7.49,1.44,9.64-1.39,1.57-2.08,2.34-5.52,4.95-5.59a3.68,3.68,0,0,1,3.2,2.52,20.14,20.14,0,0,1,.83,4.24,14.83,14.83,0,0,0,7.55,10.61V154.83A26.91,26.91,0,0,0,231,127.94H211a26.87,26.87,0,0,0-22.17,11.7c1.46,1,4.32,1.7,5.27,2.61C196.58,144.63,197.54,147.46,198.85,150.6Zm39.87,33.34a4,4,0,0,1-8,0v-6.86a4,4,0,0,1,8,0Z"/><path class="cls-4" d="M234.72,173.08a4,4,0,0,0-4,4v6.86a4,4,0,0,0,8,0v-6.86A4,4,0,0,0,234.72,173.08Z"/><path class="cls-4" d="M206.58,187.94a4,4,0,0,0,4-4V170.22a4,4,0,0,0-8,0v13.72A4,4,0,0,0,206.58,187.94Z"/><path class="cls-4" d="M211,119.94a34.93,34.93,0,0,0-34.88,34.89v76.86A34.92,34.92,0,0,0,211,266.57h1.3V309A11.36,11.36,0,1,0,235,309V266.34a34.93,34.93,0,0,0,30.9-34.65V154.83a34.52,34.52,0,0,0-.26-4.22A34.92,34.92,0,0,0,232.94,120c-.64,0-1.28-.06-1.93-.06Zm20,138.63H211a26.91,26.91,0,0,1-26.88-26.88V154.83A26.91,26.91,0,0,1,211,127.94h20a26.91,26.91,0,0,1,26.88,26.89v76.86A26.91,26.91,0,0,1,231,258.57Zm-7.36,53.81a3.36,3.36,0,0,1-3.37-3.36V266.57H227V309A3.35,3.35,0,0,1,223.65,312.38Z"/><path class="cls-6" d="M104.7,148.82h4.4a4,4,0,0,0,2.3-7.27,4.28,4.28,0,0,0-.66-.37,3.93,3.93,0,0,0-1.64-.36H75.87a4,4,0,0,0-1.35,7.75,4.09,4.09,0,0,0,1.35.25Z"/><path class="cls-6" d="M72.78,191.94a4,4,0,0,0,1.83-7.53,3.89,3.89,0,0,0-1.83-.47h-16a4,4,0,0,0-3.15,1.56h-23a5,5,0,0,0,0,10H65.09l3.06-3.56Z"/><path class="cls-4" d="M292.81,156.57h28.38L306.8,173.34l-2.23,2.6H289a4,4,0,0,0,0,8h8.73l-.4.47a4,4,0,0,1-1.83,7.53h-4.64L279,205.75a1.88,1.88,0,0,0-.12.18c-.09.11-.17.23-.25.35a3.41,3.41,0,0,0-.17.33,2.83,2.83,0,0,0-.16.36c0,.13-.08.25-.12.38s-.06.24-.08.37,0,.28,0,.42,0,.14,0,.22,0,.09,0,.14,0,.28,0,.42,0,.25.07.37.07.25.11.37.09.25.14.36a3.72,3.72,0,0,0,.19.34,3.62,3.62,0,0,0,.2.33l.24.29a2.76,2.76,0,0,0,.29.3,1.09,1.09,0,0,0,.1.11c.07.06.14.09.2.14l.28.2.38.21.28.13a3.5,3.5,0,0,0,.46.14l.26.07a3.67,3.67,0,0,0,.75.08H348.7v50.9a4,4,0,0,0,8,0v-50.9h23.46a4,4,0,0,0,4-4,4,4,0,0,0-4-4H356.7V126s0-.09,0-.14,0-.28,0-.42,0-.25-.07-.37-.07-.25-.11-.37a3,3,0,0,0-.14-.36,3.65,3.65,0,0,0-.18-.34,3.7,3.7,0,0,0-.21-.33,3.36,3.36,0,0,0-.24-.29c-.09-.11-.19-.21-.29-.31s-.06-.07-.1-.1l-.18-.13c-.11-.08-.23-.17-.35-.24s-.22-.12-.33-.18l-.36-.16-.38-.11a2.33,2.33,0,0,0-.36-.08,3.29,3.29,0,0,0-.44,0l-.21,0-.14,0a3.13,3.13,0,0,0-.43,0c-.12,0-.24,0-.35.06s-.26.08-.39.12l-.35.13-.35.19a3.53,3.53,0,0,0-.32.21,2.17,2.17,0,0,0-.29.24,2.06,2.06,0,0,0-.3.29.52.52,0,0,0-.11.1l-8.82,10.27a4,4,0,0,0-1.88-.49H317.36a4,4,0,0,0-1.64,7.64h16.07a4,4,0,0,1,1.64.36h1l-.33.37a4,4,0,0,1-2.29,7.27h-3.94l-.12.14-.34-.14H298.56a4.09,4.09,0,0,1-1.35-.25h-4.4a4,4,0,0,0,0,8ZM348.7,136.8v67.56h-58l17.52-20.42H329a4,4,0,0,0,0-8H315.11Z"/><path class="cls-6" d="M327.39,148.82h4.4a4,4,0,0,0,2.29-7.27,3.77,3.77,0,0,0-.65-.37,4,4,0,0,0-1.64-.36H298.56a4,4,0,0,0-1.35,7.75,4.09,4.09,0,0,0,1.35.25Z"/><path class="cls-6" d="M299.47,187.94a4,4,0,0,0-2.17-3.53,3.89,3.89,0,0,0-1.83-.47h-16a4,4,0,0,0,0,8h16A4,4,0,0,0,299.47,187.94Z"/></g></g></svg>