<svg xmlns="http://www.w3.org/2000/svg" viewBox="0 0 431 426.54"><defs><style>.cls-1,.cls-2{fill:#e1e8f6;}.cls-1{fill-rule:evenodd;}.cls-3,.cls-6{fill:#f16c51;}.cls-4{fill:#2c357e;}.cls-5{fill:none;}.cls-5,.cls-6{stroke:#2c357e;stroke-linecap:round;stroke-linejoin:round;stroke-width:8px;}.cls-7{fill:#fff;}</style></defs><title>internal_server_error</title><g id="Layer_2" data-name="Layer 2"><g id="Layer_1-2" data-name="Layer 1"><path class="cls-1" d="M70.55,163.49a13.66,13.66,0,0,0-6.61-6.25C50,151.19,38.72,161,25.09,149.88,14.28,141.06,9,126.55,9,112.88c0-24.6,16.46-44.72,36.59-44.72H361.75c32.59,0,59.25,32.59,59.25,72.42S394.34,213,361.75,213C348,213,336.7,226.8,336.7,243.64s11.27,30.62,25.05,30.62H391.9c14.33,0,26.05,14.33,26.05,31.84s-11.72,31.84-26.05,31.84H353.78c-5.58,0-10.14,5.58-10.14,12.4s4.56,12.39,10.14,12.39h6.72c3.85,0,7,3.85,7,8.56s-3.15,8.55-7,8.55H316.4c-9.29,0-10.32-13.41-33.78-13.41h-54.4c-5,0-9.13-5-9.13-11.16s4.11-11.17,9.13-11.17H237c7.27,0,13.23-7.27,13.23-16.17s-6-16.18-13.23-16.18h-26.4c-35.63,0-40.67-11.38-46.91-34S125,253.25,125,253.25H80.7c-15.67,0-21.31-20.59-25-32.66-4.52-14.76-.82-32.13,10.15-43.16,2-2,4.22-3.88,5.25-6.48A9.07,9.07,0,0,0,70.55,163.49ZM380.14,362.73c-3.87,0-7,3.83-7,8.56s3.13,8.55,7,8.55,7-3.83,7-8.55S384,362.73,380.14,362.73Z"/><circle class="cls-2" cx="112" cy="289" r="14"/><circle class="cls-2" cx="129" cy="323" r="10"/><circle class="cls-2" cx="49" cy="35" r="14"/><circle class="cls-2" cx="191" cy="7" r="7"/><circle class="cls-2" cx="238" cy="35" r="10"/><circle class="cls-2" cx="421" cy="202" r="10"/><circle class="cls-2" cx="344" cy="411" r="12"/><circle class="cls-2" cx="411" cy="56" r="7"/><circle class="cls-2" cx="14" cy="206" r="14"/><circle class="cls-2" cx="35" cy="247" r="7"/><path class="cls-3" d="M418.37,247.82l-.66,5.68a30.8,30.8,0,0,1-2.57,9.24,4.79,4.79,0,0,1-2.92.59l-13.72-1.58a43.76,43.76,0,0,1-7.5,13.49l3.51,4.43a30.37,30.37,0,0,1-10.59.63l-20.86-2.41a30.5,30.5,0,0,1-26.81-33.79l3.1-26.82c.35-3.06,1.32-9.88,4.09-11.79,1.26-.87,3.44-.65,4.89-1.55a8.82,8.82,0,0,0,3.38-3.7c.89-1.89,1.08-4,1.84-6a11.12,11.12,0,0,1,8.19-6.75,11,11,0,0,1,5.94.61c1,.39,4,1.56,4.61,2.28,1,1.12.41,3,.24,4.46L371.25,206a43.76,43.76,0,0,1,13.49,7.5l10.82-8.58a4.84,4.84,0,0,1,6.78.78l5.68,7.17a4.81,4.81,0,0,1-.78,6.77l-10.82,8.59a43.66,43.66,0,0,1,4.23,14.84l13.72,1.58A4.84,4.84,0,0,1,418.37,247.82Z"/><path class="cls-4" d="M90,240a4,4,0,0,1,0-8l58.55-.31c4.1,0,7.43-3.89,7.43-8.67V188.18c0-4.78-3.33-8.68-7.41-8.68H96a4,4,0,0,1,0-8h52.55C157,171.5,164,179,164,188.18V223c0,9.2-6.92,16.67-15.41,16.67L90,240Z"/><path class="cls-4" d="M96,179a4,4,0,0,1-4-4V124a4,4,0,0,1,8,0v51A4,4,0,0,1,96,179Z"/><path class="cls-4" d="M160,127H96a4,4,0,0,1,0-8h64a4,4,0,0,1,0,8Z"/><path class="cls-5" d="M418.37,247.82a4.84,4.84,0,0,0-4-3.17l-13.72-1.58a43.66,43.66,0,0,0-4.23-14.84l10.82-8.59a4.81,4.81,0,0,0,.78-6.77l-5.68-7.17a4.84,4.84,0,0,0-6.78-.78l-10.82,8.58a43.76,43.76,0,0,0-13.49-7.5l1.58-13.72a4.84,4.84,0,0,0-4.23-5.35l-9.1-1.05a4.83,4.83,0,0,0-5.35,4.25l-1.58,13.72a43.73,43.73,0,0,0-9.57,2.06,45.6,45.6,0,0,0-5.27,2.17l-8.59-10.82a4.81,4.81,0,0,0-6.77-.78l-7.17,5.68a4.84,4.84,0,0,0-.78,6.78L323,219.76a43.76,43.76,0,0,0-7.5,13.49l-13.72-1.58a4.82,4.82,0,0,0-5.35,4.23l-1.05,9.1a4.83,4.83,0,0,0,4.25,5.35l13.72,1.58a43.66,43.66,0,0,0,4.23,14.84l-10.82,8.59a4.81,4.81,0,0,0-.78,6.77l5.68,7.17a4.84,4.84,0,0,0,6.78.78l10.82-8.58a43.76,43.76,0,0,0,13.49,7.5l-1.58,13.72a4.82,4.82,0,0,0,4.23,5.35l9.1,1.05a4.83,4.83,0,0,0,5.35-4.25l1.58-13.72a43.66,43.66,0,0,0,14.84-4.23l8.59,10.82a4.81,4.81,0,0,0,6.77.78l7.17-5.68a4.84,4.84,0,0,0,.78-6.78l-5.07-6.39L391,275.24a43.76,43.76,0,0,0,7.5-13.49l13.72,1.58a4.84,4.84,0,0,0,5.35-4.23l1.05-9.1A4.83,4.83,0,0,0,418.37,247.82ZM336,245.08a21.39,21.39,0,0,1,.43-2.46,21.13,21.13,0,1,1,0,9.91h0A21,21,0,0,1,336,245.08Z"/><path class="cls-6" d="M294.14,195.4l-13.32-3.65a43.81,43.81,0,0,0-1.93-15.31l12-6.85a4.83,4.83,0,0,0,1.8-6.58l-4.53-7.95a4.84,4.84,0,0,0-6.58-1.8l-12,6.85a43.72,43.72,0,0,0-12.2-9.47L261,137.32a4.83,4.83,0,0,0-3.38-5.93L248.82,129a4.82,4.82,0,0,0-5.92,3.39l-3.65,13.32a43.81,43.81,0,0,0-15.31,1.93l-6.85-12a4.83,4.83,0,0,0-6.58-1.8l-7.95,4.53a4.85,4.85,0,0,0-1.8,6.58l6.85,12a43.72,43.72,0,0,0-9.47,12.2l-13.32-3.65a4.83,4.83,0,0,0-5.93,3.38l-2.42,8.83a4.82,4.82,0,0,0,3.39,5.92l13.32,3.65a43.81,43.81,0,0,0,1.93,15.31l-12,6.85a4.83,4.83,0,0,0-1.8,6.58l4.53,7.95a4.85,4.85,0,0,0,6.58,1.8l12-6.85a43.72,43.72,0,0,0,12.2,9.47L213,241.68a4.83,4.83,0,0,0,3.38,5.93l8.83,2.42a4.82,4.82,0,0,0,5.92-3.39l3.65-13.32a43.81,43.81,0,0,0,15.31-1.93l6.85,12a4.83,4.83,0,0,0,6.58,1.8l7.95-4.53a4.84,4.84,0,0,0,1.8-6.58l-6.85-12a43.72,43.72,0,0,0,9.47-12.2l13.32,3.65a4.83,4.83,0,0,0,5.93-3.38l2.42-8.83A4.82,4.82,0,0,0,294.14,195.4Zm-62.72,14.5a21.15,21.15,0,1,1,26-14.82A21.15,21.15,0,0,1,231.42,209.9Z"/><path class="cls-4" d="M314.67,165.49h-.05a4,4,0,0,1-3.95-4.05l.36-28.29a4,4,0,0,1,8,.1l-.36,28.29A4,4,0,0,1,314.67,165.49Z"/><path class="cls-3" d="M327.18,162.7a4,4,0,0,1-3.11-6.5l27.15-33.88a4,4,0,1,1,6.25,5L330.31,161.2A4,4,0,0,1,327.18,162.7Z"/><path class="cls-4" d="M334.38,172a4,4,0,0,1-.47-8l20.73-2.51a4,4,0,0,1,1,7.94L334.87,172A4,4,0,0,1,334.38,172Z"/><path class="cls-4" d="M244.5,193.5h-15a4,4,0,0,1,0-8h15a4,4,0,0,1,0,8Z"/><path class="cls-4" d="M362,258a4,4,0,0,1-3.17-1.56l-10-13a4,4,0,0,1,6.34-4.88l10,13A4,4,0,0,1,362,258Z"/><path class="cls-4" d="M352,258a4,4,0,0,1-3.17-6.44l10-13a4,4,0,1,1,6.34,4.88l-10,13A4,4,0,0,1,352,258Z"/><path class="cls-4" d="M343.4,347.84c-44-44.83-114.63-61.38-174-40.79Z"/><path class="cls-4" d="M343.41,351.84a4.12,4.12,0,0,1-.92-.1l-174-40.8a4,4,0,0,1-.4-7.67c29.86-10.35,62.7-11.82,95-4.25s61.05,23.48,83.2,46a4,4,0,0,1-2.85,6.8ZM185.08,306.62l144.46,33.86a168.66,168.66,0,0,0-144.46-33.86Z"/><path class="cls-3" d="M248,353.19c-1.55,13.89-3.86,27.68-5,42-1.31,16.74,7.48,24.73,23.6,26.74a57.61,57.61,0,0,0,17.49,0c17.1-3.12,23.34-17.35,27.07-32.66,5.77-23.65,4.38-58.44-17-74.95-5.38-4.16-12.44-5.37-19.23-5.85-7.91-.55-27-3.89-26,7.47C250.11,328.64,249.32,341,248,353.19Z"/><path class="cls-4" d="M275.89,426.54a78.5,78.5,0,0,1-9.81-.67c-13.33-1.67-28.85-8.4-27.09-31,.7-9,1.88-17.86,3-26.43.69-5.14,1.4-10.46,2-15.68,1.1-9.87,2.22-22.93,1-36.53a10.25,10.25,0,0,1,2.88-8.55c5.38-5.34,16.28-4.3,24.23-3.53,1.16.11,2.22.21,3.12.27,6.54.47,14.89,1.64,21.4,6.68,10.45,8.08,17.42,21,20.15,37.3A107.92,107.92,0,0,1,315,390.14c-3.58,14.68-10.26,32-30.24,35.64A49,49,0,0,1,275.89,426.54Zm-13.83-115c-3.68,0-7.14.41-8.56,1.82-.2.2-.68.67-.54,2.16,1.27,14.31.12,27.89-1,38.13h0c-.59,5.3-1.31,10.66-2,15.84-1.13,8.47-2.29,17.23-3,26-1.06,13.66,5.14,20.59,20.11,22.46a53.41,53.41,0,0,0,16.29,0c12.38-2.26,19.31-10.85,23.9-29.67,5.81-23.83,3.43-56.17-15.53-70.83-4.82-3.73-11.65-4.64-17.07-5-1-.06-2.09-.17-3.32-.29C269,311.87,265.43,311.52,262.06,311.52ZM248,353.19h0Z"/><path class="cls-7" d="M290.44,403a4,4,0,0,1-3.66-5.6,81.62,81.62,0,0,0,2-60,4,4,0,1,1,7.52-2.73,89.65,89.65,0,0,1-2.16,66A4,4,0,0,1,290.44,403Z"/><path class="cls-7" d="M279.68,415a16.38,16.38,0,0,1-9.36-2.81,4,4,0,0,1,4.56-6.58,9.58,9.58,0,0,0,8.74.67,4,4,0,1,1,2.76,7.5A19.31,19.31,0,0,1,279.68,415Z"/></g></g></svg>