<?xml version="1.0" encoding="UTF-8"?>
<svg width="15px" height="24px" viewBox="0 0 15 24" version="1.1" xmlns="http://www.w3.org/2000/svg" xmlns:xlink="http://www.w3.org/1999/xlink">
    <!-- Generator: Sketch 56.3 (81716) - https://sketch.com -->
    <title>Group</title>
    <desc>Created with Sketch.</desc>
    <g id="UI-screen-(SP)" stroke="none" stroke-width="1" fill="none" fill-rule="evenodd">
        <g id="01.-dashboard" transform="translate(-33.000000, -708.000000)" fill="#F79923" fill-rule="nonzero">
            <g id="Group" transform="translate(33.000000, 708.000000)">
                <path d="M11.91696,3.63 L12.80796,3.63 C14.01444,3.63 14.99784,4.6134 14.99784,5.81988 L14.99784,21.38928 C14.99784,22.59576 14.01444,23.57916 12.80796,23.57916 L2.18988,23.57916 C0.9834,23.57916 -5.68434189e-14,22.59576 -5.68434189e-14,21.38928 L-5.68434189e-14,5.81988 C-5.68434189e-14,4.6134 0.9834,3.63 2.18988,3.63 L3.07956,3.63 L3.07956,3.42936 C3.07956,2.75484 3.63396,2.20044 4.30848,2.20044 L5.47668,2.20044 L5.47668,2.02224 C5.47668,0.9108 6.3888,2.33058017e-12 7.49892,2.33058017e-12 C8.61036,2.33058017e-12 9.52116,0.9108 9.52116,2.02224 L9.52116,2.20044 L10.68804,2.20044 C11.36256,2.20044 11.91696,2.75484 11.91696,3.42936 L11.91696,3.63 Z M3.07956,4.5474 L2.18988,4.5474 C1.49028,4.5474 0.9174,5.1216 0.9174,5.81988 L0.9174,21.38928 C0.9174,22.08888 1.4916,22.66176 2.18988,22.66176 L12.80796,22.66176 C13.50756,22.66176 14.08044,22.08756 14.08044,21.38928 L14.08044,5.81988 C14.08044,5.12028 13.50624,4.5474 12.80796,4.5474 L11.91696,4.5474 L11.91696,4.74936 C11.91696,5.42652 11.36652,5.97828 10.68804,5.97828 L4.30848,5.97828 C3.63132,5.97828 3.07956,5.42784 3.07956,4.74936 L3.07956,4.5474 Z M4.30848,3.11784 C4.13556,3.11784 3.99696,3.25644 3.99696,3.42936 L3.99696,4.74936 C3.99696,4.91964 4.1382,5.06088 4.30848,5.06088 L10.68804,5.06088 C10.85832,5.06088 10.99956,4.91964 10.99956,4.74936 L10.99956,3.42936 C10.99956,3.25644 10.86096,3.11784 10.68804,3.11784 L8.60376,3.11784 L8.60376,2.02224 C8.60376,1.41372 8.10744,0.9174 7.49892,0.9174 C6.88908,0.9174 6.39276,1.41372 6.39276,2.02224 L6.39276,3.11784 L4.30848,3.11784 Z" id="Shape"></path>
                <path d="M7.49892,9.8274 C7.24548,9.8274 7.04088,9.62148 7.04088,9.36936 C7.04088,9.11592 7.2468,8.91132 7.49892,8.91132 L12.11892,8.91132 C12.37236,8.91132 12.57696,9.11724 12.57696,9.36936 C12.57696,9.6228 12.37104,9.8274 12.11892,9.8274 L7.49892,9.8274 Z" id="Path"></path>
                <path d="M7.49892,14.39328 C7.24548,14.39328 7.04088,14.18736 7.04088,13.93524 C7.04088,13.6818 7.2468,13.4772 7.49892,13.4772 L12.11892,13.4772 C12.37236,13.4772 12.57696,13.68312 12.57696,13.93524 C12.57696,14.18868 12.37104,14.39328 12.11892,14.39328 L7.49892,14.39328 Z" id="Path"></path>
                <path d="M7.49892,18.95784 C7.24548,18.95784 7.04088,18.75192 7.04088,18.4998 C7.04088,18.24636 7.2468,18.04176 7.49892,18.04176 L12.11892,18.04176 C12.37236,18.04176 12.57696,18.24768 12.57696,18.4998 C12.57696,18.75324 12.37104,18.95784 12.11892,18.95784 L7.49892,18.95784 Z" id="Path"></path>
                <path d="M2.5542,14.25732 C2.376,14.07912 2.37732,13.78872 2.55684,13.61052 C2.73504,13.43232 3.02544,13.43364 3.20364,13.61316 L3.57456,13.9854 L4.64508,12.91488 C4.82328,12.73668 5.115,12.73668 5.2932,12.91488 C5.4714,13.09308 5.4714,13.3848 5.2932,13.563 L3.89928,14.95692 C3.71844,15.13512 3.42804,15.1338 3.25116,14.95428 L2.5542,14.25732 L2.5542,14.25732 Z" id="Path"></path>
                <path d="M2.5542,9.69144 C2.376,9.51324 2.37732,9.22284 2.55684,9.04464 C2.73504,8.86644 3.02544,8.86776 3.20364,9.04728 L3.57456,9.41952 L4.64508,8.349 C4.82328,8.1708 5.115,8.1708 5.2932,8.349 C5.4714,8.5272 5.4714,8.81892 5.2932,8.99712 L3.89928,10.39104 C3.71844,10.56924 3.42804,10.56792 3.25116,10.3884 L2.5542,9.69144 L2.5542,9.69144 Z" id="Path"></path>
                <path d="M2.55288,18.8232 C2.37468,18.645 2.376,18.3546 2.55552,18.1764 C2.73372,17.9982 3.02412,17.99952 3.20232,18.17904 L3.57324,18.55128 L4.64376,17.48076 C4.82196,17.30256 5.11368,17.30256 5.29188,17.48076 C5.47008,17.65896 5.47008,17.95068 5.29188,18.12888 L3.89796,19.5228 C3.71712,19.701 3.42672,19.69968 3.24984,19.52016 L2.55288,18.8232 L2.55288,18.8232 Z" id="Path"></path>
            </g>
        </g>
    </g>
</svg>