<?xml version="1.0" encoding="UTF-8"?>
<svg width="99px" height="88px" viewBox="0 0 99 88" version="1.1" xmlns="http://www.w3.org/2000/svg" xmlns:xlink="http://www.w3.org/1999/xlink">
    <!-- Generator: Sketch 56.3 (81716) - https://sketch.com -->
    <title>Group 6</title>
    <desc>Created with Sketch.</desc>
    <g id="UI-screen-(SP)" stroke="none" stroke-width="1" fill="none" fill-rule="evenodd">
        <g id="04.-Bus-tracking-1.2" transform="translate(-132.000000, -230.000000)">
            <g id="Group-6" transform="translate(132.000000, 230.000000)">
                <g id="Group-24">
                    <g id="Group-12">
                        <polygon id="Path-3" fill="#F16C51" points="69.8973514 56.7085255 59.7573503 56.7085255 59.7573503 64.6556829 69.8973514 64.6556829"></polygon>
                        <polygon id="Path-3" fill="#F16C51" points="32.1100035 52.6592851 25.3500028 52.6592851 25.3500028 60.6064424 32.1100035 60.6064424"></polygon>
                        <polygon id="Path-3" fill="#F16C51" points="18.590002 52.6592851 13.5200015 52.6592851 13.5200015 60.6064424 18.590002 60.6064424"></polygon>
                        <polygon id="Path-3" fill="#F16C51" points="6.76000074 52.6592851 1.69000019 52.6592851 1.69000019 60.6064424 6.76000074 60.6064424"></polygon>
                        <path d="M36.335004,39.1392836 C36.335004,39.1392836 21.9700024,22.834058 21.9700024,14.8057738 C21.9700024,6.77748957 28.4014327,0.26927929 36.335004,0.26927929 C44.2685753,0.26927929 50.7000056,6.77748957 50.7000056,14.8057738 C50.7000056,22.834058 36.335004,39.1392836 36.335004,39.1392836 Z M36.335004,20.7241091 C39.735106,20.7241091 42.4914332,18.0236911 42.4914332,14.6925567 C42.4914332,11.3614223 39.735106,8.66100435 36.335004,8.66100435 C32.934902,8.66100435 30.1785747,11.3614223 30.1785747,14.6925567 C30.1785747,18.0236911 32.934902,20.7241091 36.335004,20.7241091 Z" id="Combined-Shape" fill="#F16C51"></path>
                        <path d="M21.7864261,74.2801882 C18.4229165,74.2801882 15.6865817,76.984828 15.6865817,80.3093781 C15.6865817,83.6339282 18.4229165,86.338568 21.7864261,86.338568 C25.1499358,86.338568 27.8862706,83.6339282 27.8862706,80.3093781 C27.8862706,76.984828 25.1499358,74.2801882 21.7864261,74.2801882 Z M21.7864261,83.5980271 C19.9518979,83.5980271 18.4592383,82.1226569 18.4592383,80.3093781 C18.4592383,78.4960992 19.9518979,77.0207291 21.7864261,77.0207291 C23.6209544,77.0207291 25.113614,78.4960992 25.113614,80.3093781 C25.113614,82.1226569 23.6209544,83.5980271 21.7864261,83.5980271 Z" id="Shape" fill="#2C357E" fill-rule="nonzero"></path>
                        <path d="M63.3899991,46.0204162 L56.2849281,46.0204162 C55.519259,46.0204162 54.8985998,46.6338863 54.8985998,47.3906866 C54.8985998,48.147487 55.519259,48.7609571 56.2849281,48.7609571 L63.3899991,48.7609571 C65.6068767,48.7609571 67.4774494,50.2490707 68.0362783,52.2674791 L56.2849281,52.2674791 C55.519259,52.2674791 54.8985998,52.8809491 54.8985998,53.6377495 L54.8985998,65.958536 C54.8985998,66.7153363 55.519259,67.3288064 56.2849281,67.3288064 L68.2073513,67.3288064 L68.2073513,78.9643207 L64.1395868,78.9643207 C63.5193436,76.285579 61.0902191,74.2803253 58.1947339,74.2803253 C55.2992487,74.2803253 52.8701243,76.285442 52.249881,78.9643207 L52.1259432,78.9643207 L52.1259432,53.6498079 C52.1259432,52.8930075 51.5052841,52.2795374 50.739615,52.2795374 L39.6489887,52.2795374 C38.8833196,52.2795374 38.2626605,52.8930075 38.2626605,53.6498079 L38.2626605,64.6560939 L12.5231192,64.6560939 C11.7574501,64.6560939 11.136791,65.269564 11.136791,66.0263644 C11.136791,66.7831647 11.7574501,67.3966348 12.5231192,67.3966348 L38.2626605,67.3966348 L38.2626605,78.9640466 L31.1923862,78.9640466 C30.4267171,78.9640466 29.806058,79.5775167 29.806058,80.334317 C29.806058,81.0911174 30.4267171,81.7045874 31.1923862,81.7045874 L52.2615261,81.7045874 C52.9003462,84.3582531 55.3171323,86.3384309 58.1947339,86.3384309 C61.0723355,86.3384309 63.4891216,84.3582531 64.1279417,81.7045874 L69.5936795,81.7045874 C70.3593486,81.7045874 70.9800078,81.0911174 70.9800078,80.334317 L70.9800078,53.5225097 C70.9800078,49.3858004 67.5751856,46.0204162 63.3899991,46.0204162 Z M49.3532867,65.6274786 L48.4769886,65.6274786 C47.7113195,65.6274786 47.0906603,66.2409487 47.0906603,66.9977491 C47.0906603,67.7545494 47.7113195,68.3680195 48.4769886,68.3680195 L49.3532867,68.3680195 L49.3532867,78.9640466 L41.035317,78.9640466 L41.035317,55.0200783 L49.3532867,55.0200783 L49.3532867,65.6274786 Z M58.1945953,83.5980271 C56.3600671,83.5980271 54.8674074,82.1226569 54.8674074,80.3093781 C54.8674074,78.4960992 56.3600671,77.0207291 58.1945953,77.0207291 C60.0291235,77.0207291 61.5217831,78.4960992 61.5217831,80.3093781 C61.5217831,82.1226569 60.0292621,83.5980271 58.1945953,83.5980271 Z M68.2073513,64.5881285 L57.6712563,64.5881285 L57.6712563,55.0078829 L68.2073513,55.0078829 L68.2073513,64.5881285 Z" id="Shape" fill="#2C357E" fill-rule="nonzero"></path>
                        <path d="M51.7197491,46.4214944 C51.461892,46.1666241 51.1042193,46.0200051 50.739615,46.0200051 C50.3750106,46.0200051 50.0173379,46.1666241 49.7594809,46.4214944 C49.5016238,46.6763647 49.3532867,47.0298944 49.3532867,47.3902756 C49.3532867,47.7506567 49.5016238,48.1041864 49.7594809,48.3590567 C50.0173379,48.613927 50.3750106,48.760546 50.739615,48.760546 C51.1042193,48.760546 51.461892,48.613927 51.7197491,48.3590567 C51.9776061,48.1041864 52.1259432,47.7506567 52.1259432,47.3902756 C52.1259432,47.0298944 51.9776061,46.6763647 51.7197491,46.4214944 Z" id="Path" fill="#383838" fill-rule="nonzero"></path>
                        <path d="M45.1943018,46.0204162 L7.59000869,46.0204162 C3.78952835,46.0204162 0.632997492,48.795899 0.0848432906,52.403821 C0.0309151206,52.5500288 0,52.7071988 0,52.8717683 L0,80.334317 C0,81.0911174 0.62065917,81.7045874 1.38632828,81.7045874 L11.8223303,81.7045874 C12.5879994,81.7045874 13.2086586,81.0911174 13.2086586,80.334317 C13.2086586,79.5775167 12.5879994,78.9641836 11.8223303,78.9641836 L2.77265656,78.9641836 L2.77265656,61.9155531 L7.4861727,61.9155531 C8.25184181,61.9155531 8.87250098,61.302083 8.87250098,60.5452827 L8.87250098,52.8717683 C8.87250098,52.114968 8.25184181,51.5014979 7.4861727,51.5014979 L3.22931309,51.5014979 C3.99983435,49.8837566 5.66426008,48.7609571 7.58987005,48.7609571 L45.1943018,48.7609571 C45.959971,48.7609571 46.5806301,48.147487 46.5806301,47.3906866 C46.5806301,46.6338863 45.959971,46.0204162 45.1943018,46.0204162 Z M6.09984442,54.2420387 L6.09984442,59.1750123 L2.77265656,59.1750123 L2.77265656,54.2420387 L6.09984442,54.2420387 Z" id="Shape" fill="#2C357E" fill-rule="nonzero"></path>
                        <path d="M8.46630679,65.0571721 C8.20844973,64.8023018 7.85077704,64.6556829 7.4861727,64.6556829 C7.12156836,64.6556829 6.76389567,64.8023018 6.50603861,65.0571721 C6.24818155,65.3120424 6.09984442,65.6655722 6.09984442,66.0259533 C6.09984442,66.3877047 6.24818155,66.7398642 6.50603861,66.9947345 C6.76389567,67.250975 7.12156836,67.3962237 7.4861727,67.3962237 C7.85077704,67.3962237 8.20844973,67.250975 8.46630679,66.9947345 C8.72416385,66.7398642 8.87250098,66.3863344 8.87250098,66.0259533 C8.87250098,65.6655722 8.72416385,65.3120424 8.46630679,65.0571721 Z" id="Path" fill="#2C357E" fill-rule="nonzero"></path>
                        <path d="M34.1036756,51.5014979 L26.3402373,51.5014979 C25.5745682,51.5014979 24.953909,52.114968 24.953909,52.8717683 L24.953909,60.5452827 C24.953909,61.302083 25.5745682,61.9155531 26.3402373,61.9155531 L34.1036756,61.9155531 C34.8693447,61.9155531 35.4900039,61.302083 35.4900039,60.5452827 L35.4900039,52.8717683 C35.4900039,52.114968 34.8693447,51.5014979 34.1036756,51.5014979 Z M32.7173474,59.1750123 L27.7265656,59.1750123 L27.7265656,54.2420387 L32.7173474,54.2420387 L32.7173474,59.1750123 Z" id="Shape" fill="#2C357E" fill-rule="nonzero"></path>
                        <path d="M20.7949242,51.5014979 L13.0314858,51.5014979 C12.2658167,51.5014979 11.6451575,52.114968 11.6451575,52.8717683 L11.6451575,60.5452827 C11.6451575,61.302083 12.2658167,61.9155531 13.0314858,61.9155531 L20.7949242,61.9155531 C21.5605933,61.9155531 22.1812524,61.302083 22.1812524,60.5452827 L22.1812524,52.8717683 C22.1812524,52.114968 21.5605933,51.5014979 20.7949242,51.5014979 Z M19.4085959,59.1750123 L14.4178141,59.1750123 L14.4178141,54.2420387 L19.4085959,54.2420387 L19.4085959,59.1750123 Z" id="Shape" fill="#2C357E" fill-rule="nonzero"></path>
                    </g>
                    <g id="bus" transform="translate(0.000000, 46.020005)"></g>
                </g>
                <g id="Group-Copy-2" transform="translate(63.000000, 52.000000)">
                    <circle id="Oval" stroke="#2C357E" stroke-width="2.2768" fill="#F8F8FA" cx="17" cy="17" r="17"></circle>
                    <g id="Group-5" transform="translate(12.000000, 11.000000)" stroke="#ED3567" stroke-linecap="round" stroke-linejoin="round" stroke-width="2.43000001">
                        <path d="M0.405000001,0.405000001 L10.53,10.53" id="Line"></path>
                        <path d="M0.405000001,0.405000001 L10.53,10.53" id="Line-Copy" transform="translate(5.265000, 5.265000) scale(-1, 1) translate(-5.265000, -5.265000) "></path>
                    </g>
                </g>
            </g>
        </g>
    </g>
</svg>