<?xml version="1.0" encoding="UTF-8"?>
<svg width="20px" height="19px" viewBox="0 0 20 19" version="1.1" xmlns="http://www.w3.org/2000/svg" xmlns:xlink="http://www.w3.org/1999/xlink">
    <!-- Generator: Sketch 56.3 (81716) - https://sketch.com -->
    <title>Shape</title>
    <desc>Created with Sketch.</desc>
    <g id="UI-screen-(SP)" stroke="none" stroke-width="1" fill="none" fill-rule="evenodd">
        <g id="03.-Bus-tracking-1.2" transform="translate(-21.000000, -345.000000)" fill="#F79923" fill-rule="nonzero" stroke="#F79923" stroke-width="0.5">
            <path d="M39.5366233,350.957865 C39.4231842,350.957865 39.3143913,351.002643 39.2341778,351.082349 C39.1539643,351.162055 39.1089008,351.27016 39.1089008,351.382881 L39.1089008,351.666226 L38.4316734,351.666226 L38.4316734,348.903619 C38.4316734,347.770241 37.6118719,347.345225 36.7920705,347.026462 L35.4376158,346.636864 C32.540913,345.787712 29.4590764,345.787712 26.5623735,346.636864 L25.1722754,347.026462 C25.1722754,347.046023 25.1563172,347.06188 25.1366318,347.06188 C24.2098997,347.451479 23.5683159,347.841077 23.5683159,348.903619 L23.5683159,351.666226 L22.8910886,351.666226 L22.8910886,351.382881 C22.8915057,351.263746 22.8415831,351.149907 22.7534843,351.069099 C22.6653856,350.988292 22.5471998,350.947936 22.4277225,350.957865 C22.1914979,350.957865 22,351.148151 22,351.382881 L22,353.93298 C22,354.167711 22.1914979,354.357997 22.4277225,354.357997 C22.5471998,354.367926 22.6653856,354.32757 22.7534843,354.246763 C22.8415831,354.165955 22.8915057,354.052116 22.8910886,353.93298 L22.8910886,352.551677 L23.5683159,352.551677 L23.5683159,359.564449 C23.5446979,360.436387 24.1398681,361.205214 24.9940576,361.406187 L24.9940576,362.149966 C24.9843295,362.372084 25.0663873,362.588503 25.2211969,362.749021 C25.3760065,362.90954 25.5901153,363.00021 25.8138591,363 L27.8455411,363 C28.0692849,363.00021 28.2833938,362.90954 28.4382033,362.749021 C28.5930129,362.588503 28.6750707,362.372084 28.6653426,362.149966 L28.6653426,361.441605 L33.3702903,361.441605 L33.3702903,362.149966 C33.3698918,362.605936 33.7316176,362.981001 34.1900918,363 L36.2574173,363 C36.7158915,362.981001 37.0776173,362.605936 37.0772188,362.149966 L37.0772188,361.370769 C37.8975064,361.156389 38.4595708,360.406812 38.4316734,359.564449 L38.4316734,352.551677 L39.1089008,352.551677 L39.1089008,353.93298 C39.1089008,354.045702 39.1539643,354.153806 39.2341778,354.233513 C39.3143913,354.313219 39.4231842,354.357997 39.5366233,354.357997 C39.6561005,354.367926 39.7742863,354.32757 39.8623851,354.246763 C39.9504839,354.165955 40.0004064,354.052116 40,353.93298 L40,351.382881 C40.0004064,351.263746 39.9504839,351.149907 39.8623851,351.069099 C39.7742863,350.988292 39.6561005,350.947936 39.5366233,350.957865 Z M24.4237609,348.903619 C24.4237609,348.407766 24.6019787,348.266094 25.4574237,347.876495 L26.8118783,347.486897 C29.5438385,346.672685 32.4561508,346.672685 35.188111,347.486897 L36.5425657,347.876495 C37.3980107,348.195258 37.5405849,348.478602 37.5405849,348.903619 L37.5405849,349.186963 L24.4237609,349.186963 L24.4237609,348.903619 Z M25.3148495,360.556154 C24.7973291,360.518366 24.4031465,360.079675 24.4237609,359.564449 L24.4237609,358.82067 C25.7069285,358.926924 26.3485123,359.529031 26.3841558,360.556154 L25.3148495,360.556154 Z M27.8098976,362.114548 L25.8495027,362.114548 L25.8495027,361.441605 L27.8098976,361.441605 L27.8098976,362.114548 Z M36.1861302,362.114548 L34.2613789,362.114548 L34.2613789,361.441605 L36.1861302,361.441605 L36.1861302,362.114548 Z M37.5405849,359.564449 C37.5602363,359.808844 37.4809972,360.050937 37.3204243,360.237086 C37.1598513,360.423236 36.9312029,360.538074 36.6851398,360.556154 L35.6158335,360.556154 C35.6158335,359.529031 36.2930608,358.926924 37.5405849,358.82067 L37.5405849,359.564449 Z M37.5405849,357.970637 C35.0811804,358.147728 34.7247449,359.776957 34.7247449,360.556154 L27.2752444,360.556154 C27.2396009,359.776957 26.918809,358.147728 24.4237609,357.970637 L24.4237609,356.83726 L37.5405849,356.83726 L37.5405849,357.970637 Z M37.5405849,355.987227 L24.4237609,355.987227 L24.4237609,350.072414 L37.5405849,350.072414 L37.5405849,355.987227 Z" id="Shape"></path>
        </g>
    </g>
</svg>