<?xml version="1.0" encoding="UTF-8"?>
<svg width="16px" height="16px" viewBox="0 0 16 16" version="1.1" xmlns="http://www.w3.org/2000/svg" xmlns:xlink="http://www.w3.org/1999/xlink">
    <!-- Generator: Sketch 56.3 (81716) - https://sketch.com -->
    <title>Path</title>
    <desc>Created with Sketch.</desc>
    <g id="UI-screen-(SP)" stroke="none" stroke-width="1" fill="none" fill-rule="evenodd">
        <g id="03.-Bus-tracking-1.2" transform="translate(-297.000000, -435.000000)" fill="#F16C51" fill-rule="nonzero">
            <g id="Group-10-Copy" transform="translate(297.000000, 434.000000)">
                <g id="noun_call_1975558" transform="translate(0.000000, 1.000000)">
                    <path d="M15.4828804,12.2279526 C15.4828804,12.4258885 15.4462296,12.6843044 15.3729127,13.0032004 C15.2996109,13.3220812 15.2226199,13.573179 15.142,13.7564485 C14.9880482,14.1230027 14.540859,14.5115414 13.8004326,14.9220645 C13.1113386,15.2959368 12.4295627,15.4828804 11.7551199,15.4828804 C11.557184,15.4828804 11.3647366,15.4700587 11.1778081,15.4444 C10.9908644,15.4187414 10.7801067,15.3729127 10.5455199,15.3069441 C10.310918,15.2409604 10.1368263,15.1877985 10.0231844,15.1474886 C9.90955756,15.1071787 9.70611795,15.0320323 9.41288066,14.9220645 C9.1196585,14.8120967 8.94004801,14.7461282 8.87406433,14.7241437 C8.15563751,14.4675573 7.51417149,14.1633126 6.94969652,13.81144 C6.01134929,13.2322986 5.04183974,12.4423844 4.04116787,11.4417126 C3.04049601,10.4410407 2.25058182,9.47153115 1.67144045,8.53318392 C1.3195678,7.96869382 1.01533827,7.32724293 0.758751861,6.60880099 C0.736752261,6.5428173 0.670783699,6.36320682 0.560815936,6.06998465 C0.450848173,5.77674736 0.375701771,5.57330776 0.335376729,5.45968095 C0.295066808,5.34605415 0.241920007,5.17194735 0.175936325,4.93734542 C0.109967763,4.70275861 0.0641390418,4.49200093 0.0384955211,4.30505724 C0.0128066404,4.1181438 0,3.92571155 0,3.7277605 C0,3.05331777 0.186943685,2.37154183 0.560800816,1.68244781 C0.971339067,0.942021387 1.35989284,0.494832254 1.72643189,0.34088041 C1.90970141,0.260245447 2.16078414,0.183269525 2.47968007,0.109967763 C2.79856088,0.036650881 3.05699193,0 3.25492785,0 C3.35756241,0 3.43453834,0.0109922403 3.4858405,0.0329918409 C3.61780786,0.0769759222 3.81206963,0.35554681 4.06865603,0.868719624 C4.149291,1.00800507 4.25925876,1.20594099 4.3985442,1.46251228 C4.53782965,1.71909869 4.66612285,1.95185597 4.78342381,2.16078414 C4.90070966,2.36971231 5.01433646,2.56581871 5.12430422,2.74910336 C5.14630382,2.77842104 5.21044287,2.87006336 5.31673647,3.02400009 C5.42303007,3.17795193 5.50185063,3.30807465 5.55316792,3.41436826 C5.6044852,3.52066186 5.63012872,3.62514106 5.63012872,3.7277605 C5.63012872,3.87437915 5.52567976,4.05766379 5.31673647,4.2775842 C5.1078083,4.49751973 4.8805547,4.69911469 4.63497565,4.88238422 C4.38938148,5.06565374 4.16212788,5.25993063 3.95319971,5.46519975 C3.74425643,5.67045376 3.63979234,5.839072 3.63979234,5.97102425 C3.63979234,6.03700793 3.65811778,6.11947241 3.69478378,6.21844794 C3.73143467,6.31740834 3.76258187,6.39255474 3.78824051,6.44387202 C3.81389915,6.4951893 3.86521643,6.58315747 3.94219235,6.70777651 C4.01916827,6.83241067 4.06133795,6.90205339 4.06865603,6.91671979 C4.62579781,7.9210507 5.26358967,8.78242201 5.98201649,9.50086395 C6.70045843,10.2192908 7.56182973,10.8570826 8.56617576,11.4142244 C8.58084216,11.4215576 8.65046976,11.4637122 8.77510393,11.5406881 C8.89972297,11.6176489 8.98769113,11.6689813 9.03900841,11.6946399 C9.0903257,11.7202986 9.1654721,11.7514458 9.26444762,11.7880967 C9.36340802,11.8247627 9.44588763,11.8430881 9.51185619,11.8430881 C9.64380843,11.8430881 9.81242668,11.7386089 10.0176807,11.5296807 C10.2229498,11.3207526 10.4172267,11.093499 10.6004962,10.8479199 C10.7837657,10.6023257 10.9853607,10.3750721 11.2052962,10.166144 C11.4252166,9.95720068 11.6085013,9.8527366 11.7551199,9.8527366 C11.8577394,9.8527366 11.9622186,9.87839524 12.0685122,9.92971252 C12.1748058,9.9810298 12.3049285,10.0598352 12.4588804,10.166144 C12.6128322,10.2724376 12.7044594,10.3365766 12.7337922,10.3585762 C12.9170617,10.468544 13.113153,10.5821708 13.3220963,10.6994566 C13.5310245,10.8167576 13.7637817,10.9450508 14.0203682,11.0843362 C14.2769546,11.2236217 14.4748754,11.3335894 14.6141608,11.4142244 C15.1273336,11.6708108 15.4059045,11.8650726 15.4498886,11.9970399 C15.4718882,12.0483421 15.4828804,12.125318 15.4828804,12.2279526 Z" id="Path"></path>
                </g>
            </g>
        </g>
    </g>
</svg>