<?xml version="1.0" encoding="UTF-8"?>
<svg width="20px" height="21px" viewBox="0 0 20 21" version="1.1" xmlns="http://www.w3.org/2000/svg" xmlns:xlink="http://www.w3.org/1999/xlink">
    <!-- Generator: Sketch 56.3 (81716) - https://sketch.com -->
    <title>Shape Copy</title>
    <desc>Created with Sketch.</desc>
    <g id="UI-screen-(SP)" stroke="none" stroke-width="1" fill="none" fill-rule="evenodd">
        <g id="03.-Bus-tracking-1.2" transform="translate(-20.000000, -478.000000)" fill="#F79923" fill-rule="nonzero" stroke="#F79923" stroke-width="0.4">
            <path d="M33.937925,490.421042 C34.4678021,489.858086 34.8802507,489.204605 35.153325,488.495369 C35.92,488.400725 36.5,487.604269 36.5,486.60475 C36.5,485.655225 35.976575,484.889383 35.2675,484.733511 C35.264075,484.694371 35.256325,484.655754 35.251825,484.616733 C35.72845,484.183485 36,483.71219 36,483.275 C36,481.573075 33.606925,479 30,479 C26.393075,479 24,481.573075 24,483.275 C24,483.71219 24.27155,484.183485 24.7481,484.616614 C24.7436,484.655635 24.73585,484.694253 24.732425,484.733392 C24.02345,484.889264 23.5,485.655106 23.5,486.60475 C23.5,487.604387 24.08,488.400844 24.846675,488.495488 C25.1197671,489.204726 25.5322325,489.858207 26.062125,490.421161 C23.206233,490.639723 21.0044776,492.903117 21,495.625 L21,496.575 C21.0009094,497.361648 21.6719498,497.999136 22.5,498 L37.5,498 C38.3280502,497.999136 38.9990906,497.361648 39,496.575 L39,495.625 C38.9956135,492.903079 36.7938563,490.63961 33.937925,490.421042 L33.937925,490.421042 Z M25.192075,483.672884 C27.8975,483.091365 32.2547,483.090843 34.81,483.669749 C34.6438276,483.873821 34.4461652,484.05288 34.2237,484.20087 C33.481025,484.709286 32.61385,484.914771 31.9615,484.703705 C31.3297512,484.429995 30.6557805,484.254578 29.9654,484.184174 C29.2805472,484.26721 28.6131339,484.449462 27.9864,484.724581 C27.387275,484.915246 26.51815,484.708811 25.7764,484.20087 C25.5549968,484.053545 25.3580417,483.875579 25.192075,483.672884 Z M30,479.95 C32.7725,479.95 34.41175,481.593999 34.86565,482.70975 C32.1803,482.141959 27.94815,482.143479 25.13215,482.71526 C25.58295,481.599461 27.22285,479.95 30,479.95 Z M25.4165,487.587121 C25.2869284,487.52683 25.138164,487.515268 25,487.55475 C24.800775,487.55475 24.5,487.175771 24.5,486.60475 C24.5,486.024918 24.812,485.673322 25.059575,485.666364 C25.2010807,485.713936 25.3578221,485.696339 25.4837573,485.618742 C25.6096924,485.541145 25.690521,485.412359 25.7025,485.270214 C26.4608,485.658526 27.4275,485.90384 28.302825,485.625419 C28.3121,485.62264 28.4005,485.589794 28.409275,485.585994 C28.904265,485.369258 29.4276637,485.216685 29.965425,485.132369 C30.5277927,485.206811 31.075523,485.359665 31.590925,485.585994 C31.5997,485.589699 31.6881,485.62264 31.697375,485.625419 C31.9563709,485.706165 32.2274186,485.746548 32.5,485.745 C33.1325302,485.728481 33.7512924,485.565761 34.302725,485.270926 C34.3279458,485.399221 34.4035161,485.513628 34.51415,485.591005 C34.6570668,485.682344 34.836373,485.705869 35,485.65475 C35.2041,485.65475 35.5,486.024918 35.5,486.60475 C35.5,487.168813 35.20655,487.545487 34.951175,487.545487 L34.9419,487.545487 C34.8128366,487.507459 34.6730619,487.520724 34.554468,487.582256 C34.4358741,487.643788 34.3485787,487.748338 34.3125,487.87205 C33.742675,489.822495 31.84815,491.35 30,491.35 C28.15185,491.35 26.257325,489.822495 25.6875,487.871931 C25.6395817,487.747133 25.5423767,487.644974 25.4165,487.587121 L25.4165,487.587121 Z M38,496.575 C37.999807,496.837259 37.7760624,497.049817 37.5,497.05 L22.5,497.05 C22.2239376,497.049817 22.000193,496.837259 22,496.575 L22,495.625 C22.0027556,493.265068 24.0158609,491.352618 26.5,491.35 L27.141,491.35 C27.9677475,491.939759 28.9665535,492.271646 30,492.3 C31.0334465,492.271646 32.0322525,491.939759 32.859,491.35 L33.5,491.35 C35.9841391,491.352618 37.9972444,493.265068 38,495.625 L38,496.575 Z" id="Shape-Copy"></path>
        </g>
    </g>
</svg>