<?xml version="1.0" encoding="UTF-8"?>
<svg width="287px" height="296px" viewBox="0 0 287 296" version="1.1" xmlns="http://www.w3.org/2000/svg" xmlns:xlink="http://www.w3.org/1999/xlink">
    <!-- Generator: Sketch 56.3 (81716) - https://sketch.com -->
    <title>Group 5</title>
    <desc>Created with Sketch.</desc>
    <defs>
        <path d="M4,5 L283,5 C287.418278,5 291,8.581722 291,13 L291,283 C291,287.418278 287.418278,291 283,291 L4,291 C-0.418277999,291 -4,287.418278 -4,283 L-4,13 C-4,8.581722 -0.418277999,5 4,5 Z" id="path-1"></path>
        <linearGradient x1="-79.6846106%" y1="46.2030017%" x2="44.8126156%" y2="101.269983%" id="linearGradient-3">
            <stop stop-color="#F89922" offset="0%"></stop>
            <stop stop-color="#F79326" offset="17%"></stop>
            <stop stop-color="#F58233" offset="40%"></stop>
            <stop stop-color="#F26548" offset="67%"></stop>
            <stop stop-color="#EE3E64" offset="96%"></stop>
            <stop stop-color="#ED3769" offset="100%"></stop>
        </linearGradient>
        <linearGradient x1="-79.6846106%" y1="43.1055765%" x2="44.8126156%" y2="143.093792%" id="linearGradient-4">
            <stop stop-color="#F89922" offset="0%"></stop>
            <stop stop-color="#F79326" offset="17%"></stop>
            <stop stop-color="#F58233" offset="40%"></stop>
            <stop stop-color="#F26548" offset="67%"></stop>
            <stop stop-color="#EE3E64" offset="96%"></stop>
            <stop stop-color="#ED3769" offset="100%"></stop>
        </linearGradient>
    </defs>
    <g id="UI-screen-(SP)" stroke="none" stroke-width="1" fill="none" fill-rule="evenodd">
        <g id="02.-SP-Certificates-1-Copy" transform="translate(-28.000000, -183.000000)">
            <g id="Group-5" transform="translate(28.000000, 183.000000)">
                <mask id="mask-2" fill="white">
                    <use xlink:href="#path-1"></use>
                </mask>
                <use id="Mask-Copy" fill="#FFFFFF" transform="translate(143.500000, 148.000000) rotate(90.000000) translate(-143.500000, -148.000000) " xlink:href="#path-1"></use>
                <g id="Group" mask="url(#mask-2)" fill-rule="nonzero">
                    <g transform="translate(93.000000, 12.000000)" id="Path">
                        <path d="M97.8185453,17.3333333 L92.8371423,23.6923077 C92.6378862,23.8974359 92.6378862,24.2051282 92.8371423,24.4102564 L97.8185453,30.6666667 C98.2170576,31.1794872 97.9181734,32 97.220777,32 L76.4981403,32 C76.3985122,31.4871795 76.2988842,30.974359 76.0996281,30.5641026 L76,30.4615385 L76.0996281,30.3589744 C77.7933051,28.8205128 78.8892138,26.5641026 78.8892138,24.1025641 C78.8892138,21.7435897 77.8929332,19.4871795 76.1992561,17.8461538 L76.0996281,17.7435897 L76.1992561,17.6410256 C76.3985122,17.1282051 76.5977684,16.6153846 76.6973964,16 L97.320405,16 C97.9181734,16 98.2170576,16.8205128 97.8185453,17.3333333 Z" stroke="none" fill="url(#linearGradient-3)"></path>
                        <path d="M21.4060316,16 L0.815127299,16 C0.122164174,16 -0.273814755,16.8205128 0.221158906,17.3333333 L5.17089552,23.5897436 C5.36888498,23.7948718 5.36888498,24.1025641 5.17089552,24.3076923 L0.221158906,30.6666667 C-0.174820023,31.1794872 0.221158906,32 0.815127299,32 L21.3070369,32 C21.4060316,31.4871795 21.6040211,30.8717949 21.8020105,30.3589744 L21.9010053,30.2564103 L21.8020105,30.1538462 C20.1191001,28.6153846 19.1291528,26.2564103 19.1291528,23.8974359 C19.1291528,21.5384615 20.1191001,19.2820513 21.9010053,17.6410256 L22,17.5384615 L21.9010053,17.4358974 C21.6040211,17.025641 21.5050263,16.5128205 21.4060316,16 Z" stroke="none" fill="url(#linearGradient-3)"></path>
                        <path d="M25.1216351,26.692431 C23.6261216,25.3969036 23.6261216,23.1048167 25.1216351,21.8092893 L26.1186441,21.0120416 C27.2153539,20.115138 27.5144566,18.6202987 27.0159521,17.3247714 L26.5174477,16.1288999 C25.7198405,14.3350928 26.7168495,12.2423177 28.6111665,11.744038 L29.8075773,11.4450701 C31.1036889,11.0464463 32.1006979,9.85057485 32.2003988,8.4553915 L32.3000997,7.1598641 C32.3998006,5.16674504 34.1944167,3.77156169 36.0887338,4.1701855 L37.3848455,4.36949741 C38.780658,4.56880931 40.1764706,3.97087359 40.774676,2.77500215 L41.3728814,1.67878667 C42.2701894,-0.0153645431 44.5633101,-0.51364431 46.1585244,0.582571177 L47.1555334,1.3798188 C48.2522433,2.17706643 49.8474576,2.17706643 50.9441675,1.3798188 L51.9411765,0.682227131 C53.5363908,-0.413988357 55.7298106,0.0842914103 56.7268195,1.77844262 L57.3250249,2.87465811 C58.0229312,4.07052955 59.3190429,4.76812122 60.7148554,4.56880931 L62.0109671,4.36949741 C63.9052841,4.07052955 65.6999003,5.4657129 65.7996012,7.45883196 L65.8993021,8.75435936 C65.999003,10.1495427 66.8963111,11.3454141 68.2921236,11.744038 L69.4885344,12.1426618 C71.3828514,12.6409415 72.3798604,14.7337166 71.5822532,16.5275237 L71.0837488,17.7233952 C70.5852443,19.0189226 70.884347,20.5137619 71.8813559,21.4106654 L72.8783649,22.307569 C74.3738784,23.6030964 74.3738784,25.8951833 72.8783649,27.1907107 L71.8813559,27.9879584 C70.7846461,28.884862 70.4855434,30.3797013 70.9840479,31.6752286 L71.4825523,32.8711001 C72.2801595,34.6649072 71.2831505,36.7576823 69.3888335,37.255962 L68.1924227,37.5549299 C66.8963111,37.9535537 65.8993021,39.1494252 65.7996012,40.5446085 L65.6999003,41.8401359 C65.6001994,43.833255 63.8055833,45.2284383 61.9112662,44.8298145 L60.6151545,44.6305026 C59.219342,44.4311907 57.8235294,45.0291264 57.225324,46.2249978 L56.6271186,47.3212133 C55.7298106,49.0153645 53.4366899,49.5136443 51.8414756,48.4174288 L50.8444666,47.6201812 C49.7477567,46.8229336 48.1525424,46.8229336 47.0558325,47.6201812 L46.0588235,48.3177729 C44.4636092,49.4139884 42.2701894,48.9157086 41.2731805,47.2215574 L40.6749751,46.1253419 C39.9770688,44.9294705 38.6809571,44.2318788 37.2851446,44.4311907 L35.9890329,44.6305026 C34.0947159,44.9294705 32.3000997,43.5342871 32.2003988,41.541168 L32.1006979,40.2456406 C32.000997,38.8504573 31.1036889,37.6545859 29.7078764,37.255962 L28.6111665,36.7576823 C26.7168495,36.2594025 25.7198405,34.1666275 26.5174477,32.3728203 L27.0159521,31.1769489 C27.5144566,29.8814215 27.2153539,28.3865822 26.218345,27.4896786 L25.1216351,26.692431 Z" stroke="none" fill="url(#linearGradient-4)"></path>
                        <path d="M49.5,36 C55.8,36 61,30.8 61,24.5 C61,18.1 55.8,13 49.5,13 C43.2,13 38,18.2 38,24.5 C38,30.8 43.2,36 49.5,36 Z" stroke="#FFFFFF" stroke-width="4" fill="none"></path>
                    </g>
                </g>
                <path d="M113.298269,71.3743307 L109.603427,71.0709089 L108.24217,67.5309881 C107.950471,66.823004 107.075377,66.823004 106.783679,67.5309881 L105.422422,71.0709089 L101.72758,71.3743307 C101.046951,71.4754712 100.755253,72.284596 101.241416,72.790299 L104.061164,75.3188138 L103.18607,78.9598751 C102.991605,79.6678593 103.769466,80.1735623 104.352862,79.8701405 L107.464308,77.8473286 L110.575754,79.8701405 C111.15915,80.2747028 111.937011,79.6678593 111.742546,78.9598751 L110.867452,75.2176732 L113.6872,72.6891584 C114.270596,72.284596 113.978898,71.3743307 113.298269,71.3743307 Z" id="Path" fill="#F79923" fill-rule="nonzero" mask="url(#mask-2)"></path>
                <path d="M131.298269,71.3743307 L127.603427,71.0709089 L126.24217,67.5309881 C125.950471,66.823004 125.075377,66.823004 124.783679,67.5309881 L123.422422,71.0709089 L119.72758,71.3743307 C119.046951,71.4754712 118.755253,72.284596 119.241416,72.790299 L122.061164,75.3188138 L121.18607,78.9598751 C120.991605,79.6678593 121.769466,80.1735623 122.352862,79.8701405 L125.464308,77.8473286 L128.575754,79.8701405 C129.15915,80.2747028 129.937011,79.6678593 129.742546,78.9598751 L128.867452,75.2176732 L131.6872,72.6891584 C132.270596,72.284596 131.978898,71.3743307 131.298269,71.3743307 Z" id="Path" fill="#F79923" fill-rule="nonzero" mask="url(#mask-2)"></path>
                <path d="M148.303479,71.3743307 L144.636067,71.0709089 L143.284915,67.5309881 C142.995383,66.823004 142.126785,66.823004 141.837253,67.5309881 L140.486101,71.0709089 L136.722178,71.3743307 C136.046602,71.4754712 135.75707,72.284596 136.239624,72.790299 L139.038438,75.3188138 L138.266352,78.9598751 C138.07333,79.6678593 138.845417,80.1735623 139.424482,79.8701405 L142.512828,77.8473286 L145.601175,79.8701405 C146.18024,80.2747028 146.952327,79.6678593 146.759305,78.9598751 L145.890708,75.2176732 L148.689522,72.6891584 C149.268587,72.284596 148.979054,71.3743307 148.303479,71.3743307 Z" id="Path" fill="#F79923" fill-rule="nonzero" mask="url(#mask-2)"></path>
                <path d="M165.298269,71.3743307 L161.603427,71.0709089 L160.24217,67.5309881 C159.950471,66.823004 159.075377,66.823004 158.783679,67.5309881 L157.422422,71.0709089 L153.72758,71.3743307 C153.046951,71.4754712 152.755253,72.284596 153.241416,72.790299 L156.061164,75.3188138 L155.18607,78.9598751 C154.991605,79.6678593 155.769466,80.1735623 156.352862,79.8701405 L159.464308,77.8473286 L162.575754,79.8701405 C163.15915,80.2747028 163.937011,79.6678593 163.742546,78.9598751 L162.867452,75.2176732 L165.6872,72.6891584 C166.270596,72.284596 165.978898,71.3743307 165.298269,71.3743307 Z" id="Path" fill="#F79923" fill-rule="nonzero" mask="url(#mask-2)"></path>
                <path d="M182.251633,71.3743307 L178.570802,71.0709089 L177.214706,67.5309881 C176.924114,66.823004 176.052339,66.823004 175.761747,67.5309881 L174.405651,71.0709089 L170.724821,71.3743307 C170.046773,71.4754712 169.756181,72.284596 170.240501,72.790299 L173.049556,75.3188138 L172.274644,78.9598751 C172.080916,79.6678593 172.855828,80.1735623 173.437012,79.8701405 L176.536659,77.8473286 L179.636306,79.8701405 C180.217489,80.2747028 180.992401,79.6678593 180.798673,78.9598751 L179.926897,75.2176732 L182.735952,72.6891584 C183.220272,72.284596 183.026544,71.3743307 182.251633,71.3743307 Z" id="Path" fill="#F79923" fill-rule="nonzero" mask="url(#mask-2)"></path>
                <text id="Certificate-of-Achie" mask="url(#mask-2)" font-family="SourceSansPro-Regular, Source Sans Pro" font-size="18" font-weight="normal" letter-spacing="0.5" fill="#424242">
                    <tspan x="39" y="110">Certificate of Achievement</tspan>
                </text>
                <text id="This-certifies-that" mask="url(#mask-2)" font-family="SourceSansPro-Regular, Source Sans Pro" font-size="12" font-weight="normal" letter-spacing="0.5" fill="#424242">
                    <tspan x="95" y="152">This certifies that</tspan>
                </text>
                <text id="Mr.-Amit-Sharma" mask="url(#mask-2)" font-family="SourceSansPro-Bold, Source Sans Pro" font-size="18" font-weight="bold" letter-spacing="0.5" fill="#2C357E">
                    <tspan x="77" y="199">Mr. Amit Sharma</tspan>
                </text>
                <path d="M29.8945312,207.664604 L260,207.664604" id="Line-13" stroke="#D1D6FF" stroke-linecap="square" mask="url(#mask-2)"></path>
                <text id="has-participated-and-copy" mask="url(#mask-2)" font-family="SourceSansPro-Regular, Source Sans Pro" font-size="12" font-weight="normal" letter-spacing="0.5" fill="#424242">
                    <tspan x="39.514" y="232">has participated and won the 1st prize </tspan>
                    <tspan x="55.094" y="247">in the Annual Preschool Drawing </tspan>
                    <tspan x="45.23" y="262">competetion held on 25th May, 2019</tspan>
                </text>
            </g>
        </g>
    </g>
</svg>