<?xml version="1.0" encoding="UTF-8"?>
<svg width="16px" height="21px" viewBox="0 0 16 21" version="1.1" xmlns="http://www.w3.org/2000/svg" xmlns:xlink="http://www.w3.org/1999/xlink">
    <!-- Generator: Sketch 56.3 (81716) - https://sketch.com -->
    <title>Group 48</title>
    <desc>Created with Sketch.</desc>
    <g id="UI-screen-(SP)" stroke="none" stroke-width="1" fill="none" fill-rule="evenodd">
        <g id="01.-dashboard" transform="translate(-34.000000, -479.000000)" fill="#F79923" fill-rule="nonzero">
            <g id="Group-48" transform="translate(34.000000, 479.000000)">
                <g id="Group-47">
                    <path d="M15.2768005,5.58580028 C15.2768005,5.47068236 15.2318822,5.36010958 15.1514003,5.27780028 L10.1046002,0.132000165 C10.0217541,0.0474801245 9.90835184,-1.12976295e-12 9.79000021,-1.12976295e-12 L2.20000005,-1.12976295e-12 C0.984973572,-1.12976295e-12 -7.10542736e-15,0.984973733 -7.10542736e-15,2.20000021 L-7.10542736e-15,17.8706005 C-7.10542736e-15,19.085627 0.984973572,20.0706006 2.20000005,20.0706006 L13.0768003,20.0706006 C14.2918268,20.0706006 15.2768005,19.085627 15.2768005,17.8706005 L15.2768005,5.58580028 Z M10.1948002,1.47620019 L13.9986003,5.35700028 L10.8548002,5.35700028 C10.4902923,5.35700028 10.1948002,5.06150821 10.1948002,4.69700026 L10.1948002,1.47620019 Z M13.0768003,19.1906006 L2.20000005,19.1906006 C1.47098416,19.1906006 0.880000019,18.5996164 0.880000019,17.8706005 L0.880000019,2.19340021 C0.880000019,1.46438432 1.47098416,0.873400181 2.20000005,0.873400181 L9.3148002,0.873400181 L9.3148002,4.69700026 C9.3148002,5.5475188 10.0042817,6.2370003 10.8548002,6.2370003 L14.3968003,6.2370003 L14.3968003,17.8706005 C14.3968003,18.5996164 13.8058162,19.1906006 13.0768003,19.1906006 Z" id="Shape"></path>
                    <path d="M11.9284003,9.64920037 L5.99940013,9.64920037 C5.75639483,9.64920037 5.55940012,9.84619509 5.55940012,10.0892004 C5.55940012,10.3322057 5.75639483,10.5292004 5.99940013,10.5292004 L11.9284003,10.5292004 C12.1714056,10.5292004 12.3684003,10.3322057 12.3684003,10.0892004 C12.3684003,9.84619509 12.1714056,9.64920037 11.9284003,9.64920037 Z" id="Path"></path>
                    <path d="M3.34840007,9.42920037 C2.98389214,9.42920038 2.68840009,9.72469245 2.68840009,10.0892004 C2.68840009,10.4537083 2.98389214,10.7492004 3.34840007,10.7492004 L3.35940007,10.7492004 C3.72390802,10.7492004 4.01940009,10.4537083 4.01940009,10.0892004 C4.01942467,9.91223484 3.9483812,9.74267248 3.82221781,9.61857734 C3.69605443,9.49448221 3.52534103,9.42625094 3.34840007,9.42920037 L3.34840007,9.42920037 Z" id="Path"></path>
                    <path d="M11.9284003,12.5092004 L5.99940013,12.5092004 C5.75639485,12.5092004 5.55940015,12.7061952 5.55940015,12.9492004 C5.55940015,13.1922057 5.75639485,13.3892005 5.99940013,13.3892005 L11.9284003,13.3892005 C12.1714056,13.3892005 12.3684003,13.1922057 12.3684003,12.9492004 C12.3684003,12.7061951 12.1714056,12.5092004 11.9284003,12.5092004 L11.9284003,12.5092004 Z" id="Path"></path>
                    <path d="M3.34840007,12.2892004 C2.98389215,12.2892004 2.6884001,12.5846925 2.6884001,12.9492004 C2.6884001,13.3137084 2.98389215,13.6092005 3.34840007,13.6092005 L3.35940007,13.6092005 C3.72390802,13.6092005 4.01940009,13.3137084 4.01940009,12.9492004 C4.01942467,12.7722349 3.9483812,12.6026725 3.82221781,12.4785774 C3.69605443,12.3544823 3.52534103,12.286251 3.34840007,12.2892004 Z" id="Path"></path>
                    <path d="M11.9284003,15.3692005 L5.99940013,15.3692005 C5.75639483,15.3692005 5.55940012,15.5661952 5.55940012,15.8092005 C5.55940012,16.0522058 5.75639483,16.2492005 5.99940013,16.2492005 L11.9284003,16.2492005 C12.1714056,16.2492005 12.3684003,16.0522058 12.3684003,15.8092005 C12.3684003,15.5661952 12.1714056,15.3692005 11.9284003,15.3692005 Z" id="Path"></path>
                    <path d="M3.34840007,15.1492005 C2.98389213,15.1492005 2.68840006,15.4446926 2.68840006,15.8092005 C2.68840006,16.1737084 2.98389213,16.4692005 3.34840007,16.4692005 L3.35940007,16.4692005 C3.72390802,16.4692005 4.01940009,16.1737084 4.01940009,15.8092005 C4.01942467,15.632235 3.9483812,15.4626726 3.82221781,15.3385775 C3.69605443,15.2144823 3.52534103,15.1462511 3.34840007,15.1492005 Z" id="Path"></path>
                </g>
            </g>
        </g>
    </g>
</svg>