<?xml version="1.0" encoding="UTF-8"?>
<svg width="40px" height="38px" viewBox="0 0 40 38" version="1.1" xmlns="http://www.w3.org/2000/svg" xmlns:xlink="http://www.w3.org/1999/xlink">
    <!-- Generator: Sketch 58 (84663) - https://sketch.com -->
    <title>circulars</title>
    <desc>Created with Sketch.</desc>
    <g id="UI-screen-(SP)" stroke="none" stroke-width="1" fill="none" fill-rule="evenodd">
        <g id="3.-Q-engage-menu-Copy" transform="translate(-48.000000, -154.000000)">
            <g id="circulars" transform="translate(48.000000, 154.000000)">
                <path d="M4,3.27 L36.25,3.27 C37.9068542,3.27 39.25,4.61314575 39.25,6.27 L39.25,11.66 L1,11.66 L1,6.27 C1,4.61314575 2.34314575,3.27 4,3.27 Z" id="Path" fill="#F16C51" fill-rule="nonzero"></path>
                <rect id="Rectangle" stroke="#2C357E" stroke-width="1.5" stroke-linecap="round" stroke-linejoin="round" x="0.75" y="3.27" width="38.5" height="33.33" rx="3"></rect>
                <path d="M13.34,0.82 L13.34,7.4" id="Path" stroke="#2C357E" stroke-width="1.5" stroke-linecap="round" stroke-linejoin="round"></path>
                <path d="M26.68,0.75 L26.68,7.4" id="Path" stroke="#2C357E" stroke-width="1.5" stroke-linecap="round" stroke-linejoin="round"></path>
                <path d="M1.68,12.17 L39.25,12.17" id="Path" stroke="#2C357E" stroke-width="1.5" stroke-linecap="round" stroke-linejoin="round"></path>
                <path d="M19.73,22.49 C18.7176348,22.7342185 18.0032154,23.6385992 18,24.68 L18,26.2 C18,26.3380712 17.8880712,26.45 17.75,26.45 C17.5475256,26.4093031 17.3404945,26.4947342 17.2256412,26.6663758 C17.1107879,26.8380175 17.1107879,27.0619825 17.2256412,27.2336242 C17.3404945,27.4052658 17.5475256,27.4906969 17.75,27.45 L22.75,27.45 C22.8843592,27.4500269 23.0130754,27.395978 23.1071364,27.3000357 C23.2011975,27.2040935 23.2526872,27.0743323 23.25,26.94 C23.25,26.6638576 23.0261424,26.44 22.75,26.44 C22.6119288,26.44 22.5,26.3280712 22.5,26.19 L22.5,24.68 C22.4955134,23.6456686 21.7923751,22.7451581 20.79,22.49 L20.79,22.22 C20.7522431,21.9368202 20.5106858,21.7253326 20.225,21.7253326 C19.9393142,21.7253326 19.6977569,21.9368202 19.66,22.22 L19.73,22.49 Z M19.41,27.71 L21.18,27.71 C21.1318309,28.1625095 20.7500661,28.5057928 20.295,28.5057928 C19.8399339,28.5057928 19.4581691,28.1625095 19.41,27.71 L19.41,27.71 Z" id="Shape" fill="#F16C51"></path>
                <circle id="Oval" stroke="#2C357E" stroke-width="1.5" stroke-linecap="round" stroke-linejoin="round" cx="20.3" cy="25.12" r="7.04"></circle>
            </g>
        </g>
    </g>
</svg>