<!-- Generated by IcoMoon.io -->
<svg version="1.1" xmlns="http://www.w3.org/2000/svg" width="32" height="32" viewBox="0 0 32 32">
<title>circulars</title>
<path d="M21.696 5.28c-0.179-0.178-0.426-0.288-0.699-0.288-0.002 0-0.004 0-0.005 0h-12c-0.548 0-0.992 0.444-0.992 0.992v0 20c-0 0.010-0.001 0.021-0.001 0.032 0 0.548 0.444 0.992 0.992 0.992 0 0 0 0 0.001 0h14.016c0 0 0 0 0.001 0 0.548 0 0.992-0.444 0.992-0.992 0-0.011-0-0.022-0.001-0.034l0 0.002v-17.984c0-0.002 0-0.003 0-0.005 0-0.273-0.11-0.52-0.288-0.699l0 0zM22.016 24.992h-12v-17.984h10.56l1.44 1.44zM12 8.992c-0.557 0-1.008 0.451-1.008 1.008s0.451 1.008 1.008 1.008v0h8c0.557 0 1.008-0.451 1.008-1.008s-0.451-1.008-1.008-1.008v0zM20 12.992h-8c-0.557 0-1.008 0.451-1.008 1.008s0.451 1.008 1.008 1.008v0h8c0.557 0 1.008-0.451 1.008-1.008s-0.451-1.008-1.008-1.008v0zM20 16.992h-8c-0.557 0-1.008 0.451-1.008 1.008s0.451 1.008 1.008 1.008v0h8c0.557 0 1.008-0.451 1.008-1.008s-0.451-1.008-1.008-1.008v0zM20 20.992h-8c-0.557 0-1.008 0.451-1.008 1.008s0.451 1.008 1.008 1.008v0h8c0.557 0 1.008-0.451 1.008-1.008s-0.451-1.008-1.008-1.008v0zM16 0c-8.837 0-16 7.163-16 16s7.163 16 16 16c8.837 0 16-7.163 16-16v0c0-8.837-7.163-16-16-16v0zM16 30.016c-7.741 0-14.016-6.275-14.016-14.016s6.275-14.016 14.016-14.016c7.741 0 14.016 6.275 14.016 14.016v0c0 7.741-6.275 14.016-14.016 14.016v0z"></path>
</svg>
