<svg xmlns="http://www.w3.org/2000/svg" viewBox="0 0 31.03 27.81"><defs><style>.cls-1{fill:#f16c51;}</style></defs><title>comment</title><g id="Layer_2" data-name="Layer 2"><g id="Layer_4" data-name="Layer 4"><path class="cls-1" d="M27.93,6A16.79,16.79,0,0,0,17.81.27a16.8,16.8,0,0,0-11.45,2A12.54,12.54,0,0,0,.17,10.89,13,13,0,0,0,4.52,22.6l-.74,4a1,1,0,0,0,1,1.24,1.06,1.06,0,0,0,.38-.07L9.93,25.9a17.77,17.77,0,0,0,3.29.91,16.81,16.81,0,0,0,11.45-2,12.54,12.54,0,0,0,6.19-8.65A12.54,12.54,0,0,0,27.93,6Zm.87,9.87A10.49,10.49,0,0,1,23.6,23a14.7,14.7,0,0,1-10,1.71,16.06,16.06,0,0,1-3.26-.94,1,1,0,0,0-.77,0L6.17,25.12l.51-2.72a1,1,0,0,0-.34-1l-.09-.07a11,11,0,0,1-4-10.1A10.48,10.48,0,0,1,7.43,4a14.27,14.27,0,0,1,7.31-1.95,16,16,0,0,1,2.72.23,14.71,14.71,0,0,1,8.87,5A10.49,10.49,0,0,1,28.8,15.83Zm-3.88-5.58a1,1,0,0,1-1,1H7.16a1,1,0,0,1,0-2.09H23.87A1,1,0,0,1,24.92,10.25Zm-.78,3.66a1,1,0,0,1-1,1H8.47a1,1,0,1,1,0-2.09H23.09A1,1,0,0,1,24.13,13.91Z"/></g></g></svg>