<?xml version="1.0" encoding="UTF-8"?>
<svg width="20px" height="21px" viewBox="0 0 20 21" version="1.1" xmlns="http://www.w3.org/2000/svg" xmlns:xlink="http://www.w3.org/1999/xlink">
    <!-- Generator: Sketch 56.3 (81716) - https://sketch.com -->
    <title>Group 11</title>
    <desc>Created with Sketch.</desc>
    <g id="UI-screen-(SP)" stroke="none" stroke-width="1" fill="none" fill-rule="evenodd">
        <g id="03.-Bus-tracking-1.2" transform="translate(-20.000000, -433.000000)" stroke="#F79923">
            <g id="Group-11" transform="translate(21.000000, 434.000000)">
                <path d="M12.937925,11.4210425 C13.4678021,10.8580862 13.8802507,10.2046046 14.153325,9.49536875 C14.92,9.400725 15.5,8.60426875 15.5,7.60475 C15.5,6.655225 14.976575,5.8893825 14.2675,5.73351125 C14.264075,5.69437125 14.256325,5.65575375 14.251825,5.6167325 C14.72845,5.183485 15,4.71219 15,4.275 C15,2.573075 12.606925,0 9,0 C5.393075,0 3,2.573075 3,4.275 C3,4.71219 3.27155,5.183485 3.7481,5.61661375 C3.7436,5.655635 3.73585,5.6942525 3.732425,5.7333925 C3.02345,5.88926375 2.5,6.65510625 2.5,7.60475 C2.5,8.6043875 3.08,9.40084375 3.846675,9.4954875 C4.11976705,10.2047258 4.53223251,10.8582071 5.062125,11.4211613 C2.20623295,11.6397233 0.00447759999,13.9031166 0,16.625 L0,17.575 C0.000909355568,18.3616477 0.671949835,18.9991361 1.5,19 L16.5,19 C17.3280502,18.9991361 17.9990906,18.3616477 18,17.575 L18,16.625 C17.9956135,13.9030789 15.7938563,11.6396097 12.937925,11.4210425 L12.937925,11.4210425 Z M4.192075,4.67288375 C6.8975,4.091365 11.2547,4.0908425 13.81,4.66974875 C13.6438276,4.87382071 13.4461652,5.05288037 13.2237,5.20087 C12.481025,5.70928625 11.61385,5.91477125 10.9615,5.703705 C10.3297512,5.42999458 9.6557805,5.25457809 8.9654,5.18417375 C8.28054722,5.26721032 7.61313386,5.44946156 6.9864,5.72458125 C6.387275,5.91524625 5.51815,5.70881125 4.7764,5.20087 C4.55499678,5.0535446 4.35804166,4.87557926 4.192075,4.67288375 Z M9,0.95 C11.7725,0.95 13.41175,2.59399875 13.86565,3.70975 C11.1803,3.14195875 6.94815,3.14347875 4.13215,3.71526 C4.58295,2.59946125 6.22285,0.95 9,0.95 Z M4.4165,8.58712125 C4.28692838,8.52683018 4.13816396,8.51526789 4,8.55475 C3.800775,8.55475 3.5,8.17577125 3.5,7.60475 C3.5,7.0249175 3.812,6.6733225 4.059575,6.66636375 C4.20108074,6.71393624 4.35782207,6.69633936 4.48375726,6.6187421 C4.60969244,6.54114483 4.69052097,6.41235869 4.7025,6.27021375 C5.4608,6.65852625 6.4275,6.90384 7.302825,6.62541875 C7.3121,6.62264 7.4005,6.58979375 7.409275,6.58599375 C7.90426497,6.36925778 8.42766374,6.21668459 8.965425,6.13236875 C9.52779268,6.20681117 10.075523,6.35966517 10.590925,6.58599375 C10.5997,6.58969875 10.6881,6.62264 10.697375,6.62541875 C10.9563709,6.70616529 11.2274186,6.74654806 11.5,6.745 C12.1325302,6.72848115 12.7512924,6.56576143 13.302725,6.27092625 C13.3279458,6.39922124 13.4035161,6.51362801 13.51415,6.591005 C13.6570668,6.68234371 13.836373,6.70586923 14,6.65475 C14.2041,6.65475 14.5,7.0249175 14.5,7.60475 C14.5,8.1688125 14.20655,8.5454875 13.951175,8.5454875 L13.9419,8.5454875 C13.8128366,8.50745901 13.6730619,8.52072418 13.554468,8.5822563 C13.4358741,8.64378843 13.3485787,8.74833798 13.3125,8.87205 C12.742675,10.822495 10.84815,12.35 9,12.35 C7.15185,12.35 5.257325,10.822495 4.6875,8.87193125 C4.63958173,8.74713254 4.5423767,8.644974 4.4165,8.58712125 L4.4165,8.58712125 Z M17,17.575 C16.999807,17.8372593 16.7760624,18.0498166 16.5,18.05 L1.5,18.05 C1.22393762,18.0498166 1.00019304,17.8372593 1,17.575 L1,16.625 C1.00275556,14.2650679 3.01586091,12.3526178 5.5,12.35 L6.141,12.35 C6.96774751,12.9397588 7.96655349,13.271646 9,13.3 C10.0334465,13.271646 11.0322525,12.9397588 11.859,12.35 L12.5,12.35 C14.9841391,12.3526178 16.9972444,14.2650679 17,16.625 L17,17.575 Z" id="Shape" stroke-width="0.4" fill="#F79923" fill-rule="nonzero"></path>
                <path d="M1,16.2 L17,16.2" id="Line" stroke-width="1.3" stroke-linecap="square"></path>
            </g>
        </g>
    </g>
</svg>