<!-- Generated by IcoMoon.io -->
<svg version="1.1" xmlns="http://www.w3.org/2000/svg" width="32" height="32" viewBox="0 0 32 32">
<title>connect</title>
<path d="M30.816 3.936l-2.752-2.72c-0.748-0.752-1.784-1.218-2.928-1.218s-2.18 0.466-2.928 1.218l-0 0-7.168 7.2c-0.752 0.748-1.218 1.784-1.218 2.928s0.466 2.18 1.218 2.928l0 0 0.288 0.256-0.8 0.768-0.256-0.288c-0.748-0.752-1.784-1.218-2.928-1.218s-2.18 0.466-2.928 1.218l-0 0-7.2 7.2c-0.752 0.748-1.218 1.784-1.218 2.928s0.466 2.18 1.218 2.928l0 0 2.72 2.752c0.748 0.752 1.784 1.218 2.928 1.218s2.18-0.466 2.928-1.218l0-0 7.2-7.168c0.752-0.748 1.218-1.784 1.218-2.928s-0.466-2.18-1.218-2.928l-0-0-0.288-0.32 0.768-0.8 0.256 0.288c0.748 0.752 1.784 1.218 2.928 1.218s2.18-0.466 2.928-1.218l0-0 7.232-7.168c0.752-0.748 1.218-1.784 1.218-2.928s-0.466-2.18-1.218-2.928l-0-0zM14.816 21.44l-7.2 7.2c-0.2 0.189-0.47 0.305-0.768 0.305s-0.568-0.116-0.769-0.305l0.001 0-2.72-2.72c-0.196-0.197-0.317-0.468-0.317-0.768s0.121-0.571 0.317-0.768l7.2-7.2c0.192-0.198 0.46-0.32 0.757-0.32 0.004 0 0.008 0 0.011 0h-0.001c0.007-0 0.016-0 0.024-0 0.293 0 0.557 0.123 0.743 0.32l0 0 0.224 0.288-1.376 1.376 2.048 2.144 1.408-1.376 0.288 0.288c0.23 0.206 0.374 0.504 0.374 0.835 0 0.266-0.093 0.511-0.248 0.703l0.002-0.002zM28.64 7.616l-7.2 7.2c-0.2 0.189-0.47 0.305-0.768 0.305s-0.568-0.116-0.769-0.305l0.001 0.001-0.288-0.288 2.080-2.048-2.112-2.208-2.048 2.048-0.288-0.256c-0.196-0.197-0.317-0.468-0.317-0.768s0.121-0.571 0.317-0.768l7.2-7.2c0.187-0.193 0.447-0.314 0.735-0.32l0.001-0c0.005-0 0.010-0 0.016-0 0.305 0 0.582 0.122 0.784 0.32l-0-0 2.656 2.848c0.163 0.193 0.262 0.445 0.262 0.72s-0.099 0.527-0.263 0.722l0.001-0.002z"></path>
</svg>
