<!-- Generated by IcoMoon.io -->
<svg version="1.1" xmlns="http://www.w3.org/2000/svg" width="37" height="32" viewBox="0 0 37 32">
<title>dashboard</title>
<path d="M24.384 32h-12.192c-0.848 0-1.536-0.688-1.536-1.536s0.688-1.536 1.536-1.536v0h12.192c0.848 0 1.536 0.688 1.536 1.536s-0.688 1.536-1.536 1.536v0zM35.040 0h-33.504c-0.848 0-1.536 0.688-1.536 1.536v0 24.416c0 0.848 0.688 1.536 1.536 1.536v0h33.504c0.834-0.018 1.504-0.699 1.504-1.536 0-0 0-0 0-0v0-24.416c0-0 0-0 0-0 0-0.837-0.67-1.518-1.502-1.536l-0.002-0zM10.656 19.808c0.010 0.066 0.016 0.143 0.016 0.221 0 0.848-0.688 1.536-1.536 1.536s-1.536-0.688-1.536-1.536c0-0.078 0.006-0.155 0.017-0.23l-0.001 0.008v-4.576c-0.010-0.066-0.016-0.143-0.016-0.221 0-0.848 0.688-1.536 1.536-1.536s1.536 0.688 1.536 1.536c0 0.078-0.006 0.155-0.017 0.23l0.001-0.008zM19.808 19.808c0.010 0.066 0.016 0.143 0.016 0.221 0 0.848-0.688 1.536-1.536 1.536s-1.536-0.688-1.536-1.536c0-0.078 0.006-0.155 0.017-0.23l-0.001 0.008v-7.648c0.112-0.748 0.75-1.315 1.52-1.315s1.408 0.567 1.519 1.306l0.001 0.008zM28.928 19.808c0 0.010 0 0.021 0 0.032 0 0.831-0.673 1.504-1.504 1.504-0 0-0 0-0 0h0c-0.82-0.035-1.472-0.709-1.472-1.535 0-0 0-0.001 0-0.001v0-12.192c0-0.848 0.688-1.536 1.536-1.536v0c0 0 0 0 0 0 0.831 0 1.504 0.673 1.504 1.504 0 0.011-0 0.022-0 0.034l0-0.002z"></path>
</svg>
