<!-- Generated by IcoMoon.io -->
<svg version="1.1" xmlns="http://www.w3.org/2000/svg" width="32" height="32" viewBox="0 0 32 32">
<title>profile</title>
<path d="M32 16c0-0.004 0-0.008 0-0.013 0-8.837-7.163-16-16-16s-16 7.163-16 16c0 6.109 3.424 11.419 8.458 14.115l0.086 0.042c0.037 0.024 0.079 0.046 0.123 0.062l0.005 0.002c2.127 1.13 4.65 1.793 7.328 1.793s5.201-0.663 7.414-1.835l-0.086 0.042c0.049-0.018 0.091-0.040 0.131-0.066l-0.003 0.002c5.116-2.735 8.539-8.039 8.544-14.143v-0.001zM2.016 16c-0-0.022-0-0.048-0-0.075 0-7.741 6.275-14.016 14.016-14.016s14.016 6.275 14.016 14.016c0 4.761-2.374 8.967-6.002 11.501l-0.046 0.030v-2.464c0-4.418-3.582-8-8-8s-8 3.582-8 8v0 2.464c-3.629-2.561-5.973-6.734-5.984-11.454v-0.002zM10.016 28.64v-3.648c0.018-3.298 2.686-5.966 5.982-5.984h0.002c0 0 0 0 0 0 3.311 0 5.998 2.675 6.016 5.982v3.65c-1.754 0.864-3.818 1.37-6 1.37s-4.246-0.506-6.081-1.406l0.081 0.036zM16 15.008c2.757-0 4.992-2.235 4.992-4.992s-2.235-4.992-4.992-4.992c-2.746 0-4.974 2.217-4.992 4.958v0.002c-0 0.009-0 0.021-0 0.032 0 2.757 2.235 4.992 4.992 4.992 0 0 0 0 0 0v0zM16 7.008c1.661 0 3.008 1.347 3.008 3.008s-1.347 3.008-3.008 3.008-3.008-1.347-3.008-3.008c0-0.011 0-0.023 0-0.034v0.002c0.018-1.647 1.358-2.976 3.008-2.976 0 0 0 0 0 0v0z"></path>
</svg>
