<?xml version="1.0" encoding="UTF-8"?>
<svg width="18px" height="18px" viewBox="0 0 18 18" version="1.1" xmlns="http://www.w3.org/2000/svg" xmlns:xlink="http://www.w3.org/1999/xlink">
    <!-- Generator: Sketch 56.3 (81716) - https://sketch.com -->
    <title>Group</title>
    <desc>Created with Sketch.</desc>
    <g id="UI-screen" stroke="none" stroke-width="1" fill="none" fill-rule="evenodd">
        <g id="05.-SP-Leave-1.1-Copy" transform="translate(-313.000000, -173.000000)" fill="#F16C51">
            <g id="Group" transform="translate(313.000000, 173.000000)">
                <path d="M4.91860384,0.0695340062 C4.7125162,0.0921623991 4.55787627,0.268506179 4.56235381,0.475784043 L4.56235381,1.64453415 L2.43735362,1.64453415 C1.21111951,1.64453415 0.199853498,2.65349224 0.199853498,3.88203435 L0.199853498,6.23203656 L0.199853498,6.28203656 C0.199548402,6.29244592 0.199548402,6.3028672 0.199853498,6.31327656 L0.199853498,15.4382814 C0.199853498,16.6668215 1.21058751,17.6757816 2.43735362,17.6757816 L15.5686046,17.6757816 C16.7953687,17.6757816 17.7998548,16.6668215 17.7998548,15.4382814 L17.7998548,6.33827657 C17.8001153,6.32994527 17.8001153,6.32160786 17.7998548,6.31327656 C17.8006525,6.29870748 17.8006525,6.28410565 17.7998548,6.26953656 L17.7998548,3.88203435 C17.7998548,2.65349224 16.7948367,1.64453415 15.5686046,1.64453415 L13.3748544,1.64453415 L13.3748544,0.475784043 C13.3765593,0.367526179 13.3343058,0.263201353 13.2577464,0.186641991 C13.181187,0.11008263 13.0768622,0.0678291073 12.9686044,0.0695340062 C12.8625137,0.0711789744 12.7614231,0.114907465 12.687578,0.191096921 C12.6137328,0.267286376 12.573184,0.369693744 12.5748543,0.475784043 L12.5748543,1.64453415 L5.36235388,1.64453415 L5.36235388,0.475784043 C5.36405878,0.367526179 5.32180526,0.263201353 5.24524589,0.186641991 C5.16868653,0.11008263 5.06436171,0.0678291073 4.95610384,0.0695340062 C4.94361072,0.0690943124 4.93109697,0.0690943124 4.91860384,0.0695340062 L4.91860384,0.0695340062 Z M2.43735362,2.44453422 L4.56235381,2.44453422 L4.56235381,3.61328432 C4.56204026,3.75639932 4.63821119,3.88877739 4.76210042,3.96042555 C4.88598965,4.03207372 5.03871804,4.03207372 5.16260727,3.96042555 C5.2864965,3.88877739 5.36266743,3.75639932 5.36235388,3.61328432 L5.36235388,2.44453422 L12.5748543,2.44453422 L12.5748543,3.61328432 C12.5745408,3.75639932 12.6507117,3.88877739 12.7746009,3.96042555 C12.8984902,4.03207372 13.0512186,4.03207372 13.1751078,3.96042555 C13.298997,3.88877739 13.3751679,3.75639932 13.3748544,3.61328432 L13.3748544,2.44453422 L15.5686046,2.44453422 C16.3577367,2.44453422 16.9998536,3.08894028 16.9998536,3.88203435 L16.9998536,5.91327653 L0.999853569,5.91327653 L0.999853569,3.88203435 C0.999853569,3.08894028 1.64821955,2.44453422 2.43735362,2.44453422 Z M0.999853569,6.7132766 L16.9998536,6.7132766 L16.9998536,15.4382814 C16.9998536,16.2313815 16.3572047,16.8757815 15.5686046,16.8757815 L2.43735362,16.8757815 C1.64875155,16.8757815 0.999853569,16.2313815 0.999853569,15.4382814 L0.999853569,6.7132766 Z" id="Shape"></path>
            </g>
        </g>
    </g>
</svg>