<?xml version="1.0" encoding="UTF-8"?>
<svg width="12px" height="16px" viewBox="0 0 12 16" version="1.1" xmlns="http://www.w3.org/2000/svg" xmlns:xlink="http://www.w3.org/1999/xlink">
    <!-- Generator: Sketch 56.3 (81716) - https://sketch.com -->
    <title>Shape</title>
    <desc>Created with Sketch.</desc>
    <g id="UI-screen" stroke="none" stroke-width="1" fill="none" fill-rule="evenodd">
        <g id="06.-SP-facilty-1.5-Copy-2" transform="translate(-317.000000, -646.000000)" fill="#F16C51" fill-rule="nonzero">
            <path d="M328.479451,649.227293 L328.479451,660.526368 C328.479451,661.340232 327.825256,662 327.018264,662 L318.981735,662 C318.174744,662 317.520548,661.340232 317.520548,660.526368 L317.520548,649.227293 C317.520548,649.125559 317.602322,649.043088 317.703196,649.043088 L328.296803,649.043088 C328.397677,649.043088 328.479451,649.125559 328.479451,649.227293 Z M328.817351,647.18447 L325.284931,647.18447 C325.196756,647.186263 325.119903,647.124258 325.102283,647.037107 L324.919634,646.147401 C324.902013,646.06025 324.825161,645.998245 324.736986,646.000038 L321.250228,646.000038 C321.162053,645.998245 321.0852,646.06025 321.06758,646.147401 L320.884931,647.037107 C320.867311,647.124258 320.790458,647.186263 320.702283,647.18447 L317.182648,647.18447 C317.081774,647.18447 317,647.266941 317,647.368674 L317,648.30443 C317,648.406163 317.081774,648.488634 317.182648,648.488634 L328.817351,648.488634 C328.918225,648.488634 329,648.406163 329,648.30443 L329,647.368674 C329,647.266941 328.918225,647.18447 328.817351,647.18447 Z" id="Shape"></path>
        </g>
    </g>
</svg>