<?xml version="1.0" encoding="UTF-8"?>
<svg width="32px" height="38px" viewBox="0 0 32 38" version="1.1" xmlns="http://www.w3.org/2000/svg" xmlns:xlink="http://www.w3.org/1999/xlink">
    <!-- Generator: Sketch 58 (84663) - https://sketch.com -->
    <title>diary</title>
    <desc>Created with Sketch.</desc>
    <g id="UI-screen-(SP)" stroke="none" stroke-width="1" fill="none" fill-rule="evenodd">
        <g id="2.-Q-engage-menu" transform="translate(-164.000000, -284.000000)">
            <g id="diary" transform="translate(164.000000, 284.000000)">
                <g id="Group-16">
                    <rect id="Rectangle" fill="#F16C51" x="9" y="7" width="14" height="7"></rect>
                    <rect id="Rectangle-Copy-9" fill="#F16C51" x="8" y="33" width="4" height="4"></rect>
                    <rect id="Rectangle-Copy-3" fill="#F16C51" x="29" y="2" width="2" height="4"></rect>
                    <rect id="Rectangle-Copy-4" fill="#F16C51" x="29" y="8" width="2" height="4"></rect>
                    <rect id="Rectangle-Copy-6" fill="#F16C51" x="29" y="15" width="2" height="4"></rect>
                    <rect id="Rectangle-Copy-7" fill="#F16C51" x="29" y="22" width="2" height="4"></rect>
                    <rect id="Rectangle-Copy-8" fill="#F16C51" x="29" y="29" width="2" height="4"></rect>
                    <path d="M31.2727273,6.30859375 C31.6744319,6.30859375 32,5.97634891 32,5.56640625 L32,1.85546875 C32,1.44552609 31.6744319,1.11328125 31.2727273,1.11328125 L29.0909091,1.11328125 L29.0909091,0.779296875 C29.0909091,0.369934082 28.7659091,0.0376891719 28.3647727,0.037109375 C28.3647727,0.037109375 3.6375,-1.42108547e-14 3.63636364,-1.42108547e-14 C1.63125004,-1.42108547e-14 0,1.66470341 0,3.7109375 L0,30.3554687 C0,32.4008331 1.6301136,34.0649567 3.63522727,34.0664062 L7.2,34.0716247 L7.2,37.2578125 C7.2,37.507431 7.32301135,37.7405243 7.5275568,37.877655 C7.73210225,38.0150757 7.99034095,38.038269 8.2150568,37.9394074 L10.1090909,37.1064759 C10.1090909,37.1064759 11.9917614,37.9341888 12.003125,37.9394074 C12.2034091,38.0275421 12.4897727,38.0127563 12.690625,37.877655 C12.8951705,37.7405243 13.0181818,37.507431 13.0181818,37.2575226 L13.0181818,34.0803223 C13.0181818,34.0803223 28.3625,34.1035156 28.3636364,34.1035156 C28.55625,34.1035156 28.7411932,34.025238 28.8775568,33.8863678 C29.0142045,33.7472077 29.0909091,33.5581818 29.0909091,33.3613281 L29.0909091,33.0273438 L31.2727273,33.0273438 C31.6744319,33.0273438 32,32.6948089 32,32.2851563 L32,28.5742188 C32,28.1642761 31.6744319,27.8320312 31.2727273,27.8320312 L29.0909091,27.8320312 L29.0909091,26.3476562 L31.2727273,26.3476562 C31.6744319,26.3476562 32,26.0151214 32,25.6054688 L32,21.8945312 C32,21.4845886 31.6744319,21.1523438 31.2727273,21.1523438 L29.0909091,21.1523438 L29.0909091,19.6679688 L31.2727273,19.6679688 C31.6744319,19.6679688 32,19.3357239 32,18.9257812 L32,15.2148438 C32,14.8049011 31.6744319,14.4726562 31.2727273,14.4726562 L29.0909091,14.4726562 L29.0909091,12.9882812 L31.2727273,12.9882812 C31.6744319,12.9882812 32,12.6560364 32,12.2460937 L32,8.53515625 C32,8.12521359 31.6744319,7.79296875 31.2727273,7.79296875 L29.0909091,7.79296875 L29.0909091,6.30859375 L31.2727273,6.30859375 Z M30.5454545,2.59765625 L30.5454545,4.82421875 L29.0909091,4.82421875 L29.0909091,2.59765625 L30.5454545,2.59765625 Z M1.45454545,30.3554687 L1.45454545,3.7109375 C1.45454545,2.74348452 2.0625,1.91780092 2.90909091,1.61164858 L2.90909091,32.4547577 C2.0625,32.1483154 1.45454545,31.3229217 1.45454545,30.3554687 Z M11.5636364,36.1297455 C11.5636364,36.1297455 10.3997159,35.6177521 10.396875,35.6165924 C10.2309659,35.5435333 10.0036932,35.5365753 9.82130684,35.6165924 L8.65454545,36.1297455 L8.65454545,34.0739441 L11.5636364,34.0782928 L11.5636364,36.1297455 Z M27.6363636,32.617981 L4.36363636,32.582901 L4.36363636,1.48553467 L27.6363636,1.52032471 L27.6363636,32.617981 Z M30.5454545,29.3164062 L30.5454545,31.5429687 L29.0909091,31.5429687 L29.0909091,29.3164062 L30.5454545,29.3164062 Z M30.5454545,22.6367187 L30.5454545,24.8632812 L29.0909091,24.8632812 L29.0909091,22.6367187 L30.5454545,22.6367187 Z M30.5454545,15.9570312 L30.5454545,18.1835937 L29.0909091,18.1835937 L29.0909091,15.9570312 L30.5454545,15.9570312 Z M30.5454545,9.27734375 L30.5454545,11.5039062 L29.0909091,11.5039062 L29.0909091,9.27734375 L30.5454545,9.27734375 Z" id="Shape" fill="#2C357E" fill-rule="nonzero"></path>
                    <path d="M23.2727273,5.9375 C23.2727273,5.9375 8.79545455,5.9375 8.7275568,5.9375 C8.35,5.9375 8,6.27264404 8,6.6796875 L8,15.5856476 C8,15.9825439 8.34034095,16.328125 8.72727273,16.328125 L13.0909091,16.328125 C13.4917614,16.328125 13.8181818,15.9947204 13.8181818,15.5859375 C13.8181818,15.1768646 13.4917614,14.84375 13.0909091,14.84375 L9.45454545,14.84375 L9.45454545,7.421875 L22.5454545,7.421875 L22.5454545,14.84375 L18.9090909,14.84375 C18.5082386,14.84375 18.1818182,15.1768646 18.1818182,15.5859375 C18.1818182,15.9947204 18.5082386,16.328125 18.9090909,16.328125 L23.2727273,16.328125 C23.6454545,16.328125 24,15.9871826 24,15.5859375 C24,15.5859375 24,6.71592711 24,6.6796875 C24,6.29641727 23.6693182,5.9375 23.2727273,5.9375 Z" id="Path" fill="#2C357E" fill-rule="nonzero"></path>
                    <path d="M16,14.84375 C15.5991477,14.84375 15.2727273,15.1768646 15.2727273,15.5859375 C15.2727273,15.9947204 15.5991477,16.328125 16,16.328125 C16.4014204,16.328125 16.7272727,15.9947204 16.7272727,15.5859375 C16.7272727,15.1768646 16.4014204,14.84375 16,14.84375 Z" id="Path" fill="#2C357E" fill-rule="nonzero"></path>
                </g>
            </g>
        </g>
    </g>
</svg>