<?xml version="1.0" encoding="UTF-8"?>
<svg width="20px" height="18px" viewBox="0 0 20 18" version="1.1" xmlns="http://www.w3.org/2000/svg" xmlns:xlink="http://www.w3.org/1999/xlink">
    <!-- Generator: Sketch 56.3 (81716) - https://sketch.com -->
    <title>download (5)</title>
    <desc>Created with Sketch.</desc>
    <g id="Student-Parent" stroke="none" stroke-width="1" fill="none" fill-rule="evenodd">
        <g id="Payment-Summary" transform="translate(-31.000000, -391.000000)" fill="#F79923" fill-rule="nonzero">
            <g id="download-(5)" transform="translate(31.000000, 391.000000)">
                <path d="M18.8526316,8.77963387 C18.5437071,8.77963387 18.2965675,9.02677346 18.2965675,9.33569794 L18.2965675,14.3938215 C18.2965675,15.7695652 17.1762014,16.8858124 15.8045767,16.8858124 L3.60411899,16.8858124 C2.22837529,16.8858124 1.11212815,15.7654462 1.11212815,14.3938215 L1.11212815,9.25331808 C1.11212815,8.94439359 0.864988558,8.697254 0.556064073,8.697254 C0.247139588,8.697254 0,8.94439359 0,9.25331808 L0,14.3938215 C0,16.3832952 1.6187643,17.9979405 3.60411899,17.9979405 L15.8045767,17.9979405 C17.7940503,17.9979405 19.4086957,16.3791762 19.4086957,14.3938215 L19.4086957,9.33569794 C19.4086957,9.03089245 19.1615561,8.77963387 18.8526316,8.77963387 Z" id="Path"></path>
                <path d="M9.31304348,13.5823799 C9.4201373,13.6894737 9.56430206,13.7471396 9.70434783,13.7471396 C9.84439359,13.7471396 9.98855835,13.6935927 10.0956522,13.5823799 L13.6297483,10.0482838 C13.8480549,9.82997712 13.8480549,9.4798627 13.6297483,9.26155606 C13.4114416,9.04324943 13.0613272,9.04324943 12.8430206,9.26155606 L10.2604119,11.8482838 L10.2604119,0.566361556 C10.2604119,0.257437071 10.0132723,0.0102974828 9.70434783,0.0102974828 C9.39542334,0.0102974828 9.14828375,0.257437071 9.14828375,0.566361556 L9.14828375,11.8482838 L6.56155606,9.26155606 C6.34324943,9.04324943 5.99313501,9.04324943 5.77482838,9.26155606 C5.55652174,9.4798627 5.55652174,9.82997712 5.77482838,10.0482838 L9.31304348,13.5823799 Z" id="Path"></path>
            </g>
        </g>
    </g>
</svg>