<?xml version="1.0" encoding="UTF-8"?>
<svg width="18px" height="19px" viewBox="0 0 18 19" version="1.1" xmlns="http://www.w3.org/2000/svg" xmlns:xlink="http://www.w3.org/1999/xlink">
    <!-- Generator: Sketch 56.3 (81716) - https://sketch.com -->
    <title>Group</title>
    <desc>Created with Sketch.</desc>
    <g id="UI-screen-(SP)" stroke="none" stroke-width="1" fill="none" fill-rule="evenodd">
        <g id="03.-Bus-tracking-1.2" transform="translate(-22.000000, -389.000000)" fill="#F79923" fill-rule="nonzero" stroke="#F79923" stroke-width="0.5">
            <g id="Group" transform="translate(22.000000, 390.000000)">
                <path d="M13.4945996,8.87759976 C14.4341996,9.02663976 15.2733596,9.47699975 15.9181196,10.1185197 C16.7183996,10.9220397 17.2173595,12.0236397 17.2173595,13.2386396 L17.2173595,17.6515195 L0.346679991,17.6515195 L0.346679991,13.2386396 C0.346679991,12.0236397 0.842399978,10.9220397 1.64591996,10.1185197 C2.29067994,9.47375975 3.12983992,9.02663976 4.06943989,8.87759976 C3.6190799,8.09027979 3.36311991,7.17659981 3.36311991,6.20459984 C3.36311991,5.72183985 3.42467991,5.24879986 3.54455991,4.80167987 C3.6255599,4.51007988 3.7259999,4.22495989 3.8523599,3.9560399 C3.6935999,3.8815199 3.55103991,3.7810799 3.43115991,3.6611999 C3.16871992,3.39875991 3.00347992,3.03263992 3.00347992,2.63411993 C3.00347992,1.43207996 3.8037599,0.76139998 4.98635987,0.398519989 C6.05231984,0.0680399982 7.4357998,2.22044605e-16 8.78363977,2.22044605e-16 C10.1314797,2.22044605e-16 11.5117197,0.0680399982 12.5776797,0.398519989 C13.7602796,0.76139998 14.5605596,1.43207996 14.5605596,2.63411993 C14.5605596,3.03263992 14.3985596,3.39551991 14.1328796,3.6611999 L14.1328796,3.6611999 C14.0129996,3.7843199 13.8704396,3.8815199 13.7116796,3.9560399 C13.8380396,4.23143989 13.9417196,4.51979988 14.0227196,4.81787987 C14.1393596,5.26175986 14.2009196,5.72831985 14.2009196,6.20459984 C14.2009196,7.17659981 13.9449596,8.09027979 13.4945996,8.87759976 Z M4.78223987,4.08887989 C4.84379987,4.69475988 5.19371986,5.49827985 5.98427984,6.09119984 C6.61283982,6.56099983 7.5167998,6.89471982 8.78363977,6.89471982 C10.0277997,6.89471982 10.9252797,6.57071983 11.5505997,6.11387984 C12.3638397,5.52095985 12.7234797,4.70447988 12.7850397,4.08887989 L8.78363977,4.08887989 L4.78223987,4.08887989 L4.78223987,4.08887989 Z M4.45823988,3.29831991 L13.1057997,3.29831991 C13.2904796,3.29831991 13.4557196,3.22379991 13.5755996,3.10391992 C13.6954796,2.98403992 13.7699996,2.81879993 13.7699996,2.63411993 C13.7699996,1.86299995 13.1965197,1.41263996 12.3476397,1.15019997 C11.3821197,0.852119977 10.0699197,0.790559979 8.78363977,0.790559979 C7.4941198,0.790559979 6.18191984,0.852119977 5.21639986,1.15019997 C4.36751988,1.41263996 3.7940399,1.86299995 3.7940399,2.63411993 C3.7940399,2.81879993 3.8685599,2.98403992 3.98519989,3.10391992 C4.10831989,3.22379991 4.27355989,3.29831991 4.45823988,3.29831991 L4.45823988,3.29831991 Z M4.27031989,5.16131986 C4.19255989,5.49503985 4.15043989,5.84495985 4.15043989,6.20459984 C4.15043989,7.4843998 4.66883988,8.64107977 5.50475985,9.47699975 C6.34391983,10.3161597 7.5038398,10.8345597 8.78363977,10.8345597 C10.0634397,10.8345597 11.2201197,10.3161597 12.0592797,9.47699975 C12.8951997,8.64107977 13.4135996,7.4843998 13.4135996,6.20459984 C13.4135996,5.84819985 13.3714796,5.50151985 13.2969596,5.17103986 C13.0539597,5.72507985 12.6424797,6.29531983 12.0171597,6.74891982 C11.2687197,7.29647981 10.2157197,7.6852798 8.78363977,7.6852798 C7.32887981,7.6852798 6.26615983,7.28351981 5.51447985,6.71975982 C4.90859987,6.26615983 4.50683988,5.70563985 4.27031989,5.16131986 L4.27031989,5.16131986 Z M4.57487988,9.61955975 C3.6514799,9.66491974 2.81555993,10.0634397 2.19995994,10.6790397 C1.54223996,11.3335197 1.13723997,12.2407197 1.13723997,13.2386396 L1.13723997,16.8609596 L16.4267996,16.8609596 L16.4267996,13.2386396 C16.4267996,12.2407197 16.0185596,11.3335197 15.3640796,10.6790397 C14.7484796,10.0634397 13.9125596,9.66491974 12.9891597,9.61955975 C12.8725197,9.76535974 12.7461597,9.90467974 12.6133197,10.0342797 C11.6315997,11.0159997 10.2772797,11.6218797 8.78363977,11.6218797 C7.28675981,11.6218797 5.93243984,11.0159997 4.95071987,10.0342797 C4.81787987,9.90143974 4.69151988,9.76211974 4.57487988,9.61955975 Z" id="Shape"></path>
            </g>
        </g>
    </g>
</svg>