<?xml version="1.0" encoding="UTF-8"?>
<svg width="15px" height="9px" viewBox="0 0 15 9" version="1.1" xmlns="http://www.w3.org/2000/svg" xmlns:xlink="http://www.w3.org/1999/xlink">
    <!-- Generator: Sketch 56.3 (81716) - https://sketch.com -->
    <title>envelope copy</title>
    <desc>Created with Sketch.</desc>
    <g id="UI-screen" stroke="none" stroke-width="1" fill="none" fill-rule="evenodd">
        <g id="16.-SP-fee-payments-with-filter-1-Copy-4" transform="translate(-38.000000, -169.000000)" fill="#F79923" fill-rule="nonzero">
            <g id="envelope-copy" transform="translate(38.000000, 169.000000)">
                <path d="M14.6913637,0.742534191 C14.6907607,0.332863087 14.3530563,0 13.9382837,0 C13.9379392,0 13.9375946,0 13.9373074,0 L0.752018245,0.0178906821 C0.550877224,0.0181458583 0.361853479,0.0957477552 0.219805709,0.236378157 C0.0777866532,0.377036911 -0.000257785563,0.563910898 1.05700614e-13,0.762466282 L0.0101940819,8.07833763 C0.0104525072,8.27694972 0.0890425104,8.46359688 0.231463561,8.60385869 C0.373626187,8.74386533 0.562420221,8.82090017 0.763216674,8.82090017 C0.763561241,8.82090017 0.763934522,8.82090017 0.764221662,8.82090017 L13.9494821,8.80300949 C14.364628,8.80244243 14.7019879,8.46847358 14.7015003,8.05843389 L14.6913637,0.742534191 Z M13.1110931,0.744689011 L7.35133883,4.69833129 L1.58041488,0.760339814 L13.1110931,0.744689011 Z M9.78702594,5.44449465 L13.2031499,8.0604753 L1.4886739,8.07635292 L4.92561545,5.44449465 C5.08991651,5.31863611 5.11983642,5.0851216 4.99240404,4.92282958 C4.86494294,4.76059427 4.62845508,4.73105054 4.46409659,4.85688073 L0.76267111,7.69129214 L0.753482655,1.09995089 L7.13785083,5.45657299 C7.20228487,5.50054834 7.27708463,5.52249349 7.35191311,5.52249349 C7.42705744,5.52249349 7.5022592,5.50029317 7.56683681,5.45597758 L13.9388006,1.08214527 L13.9484484,7.69024308 L10.2484874,4.85690908 C10.0842725,4.73110725 9.84766974,4.76062262 9.72023736,4.92285793 C9.59277626,5.08509325 9.62266745,5.31866447 9.78702594,5.44449465 Z" id="Shape"></path>
            </g>
        </g>
    </g>
</svg>