<svg xmlns="http://www.w3.org/2000/svg" viewBox="0 0 435.82 433"><defs><style>.cls-1{fill:#e1e8f6;}.cls-2{fill:#9b9b9b;}</style></defs><title>empty_state</title><g id="Layer_2" data-name="Layer 2"><g id="Layer_1-2" data-name="Layer 1"><path class="cls-1" d="M324.91,142.1l-54.39,38.15,1.67,145.93,53-36.72a4.28,4.28,0,0,0,1.84-3.61h0l-1.89-142.26A5,5,0,0,0,324.91,142.1Z"/><ellipse class="cls-1" cx="188.91" cy="281" rx="4" ry="9"/><path class="cls-1" d="M43.23,81.67c4.08,0,7.4-3.62,7.4-8.08s-3.32-8.07-7.4-8.07-7.41,3.62-7.41,8.07S39.14,81.67,43.23,81.67Z"/><path class="cls-1" d="M435.82,317.43c0-23.21-17.42-42.21-38.71-42.21H357.56c-11.15,0-20.29-10-20.29-22.12S346.41,231,357.56,231H360c11.6,0,21.09-10.35,21.09-23s-9.49-23-21.09-23H338.76a61.63,61.63,0,0,0,10.15-34V140a62,62,0,0,0-62-62H265.58l-5.21,9a4,4,0,0,1-3.46,2,3.93,3.93,0,0,1-2-.54A4,4,0,0,1,253.45,83l2.89-5H232.91v50.72l23.27.52c.48-1.51,1-3.05,1.64-4.61,5.3-13.18,17.32-29.7,44.52-33.59A4,4,0,0,1,303.48,99c-18.81,2.69-31.67,12.33-38.23,28.66-.25.6-.47,1.21-.69,1.81l55.85,1.25a12.94,12.94,0,0,1,7.79,2.81h0a12.92,12.92,0,0,1,5,10l1.89,142.27a12.29,12.29,0,0,1-5.28,10.3L273,335.37a12.4,12.4,0,0,1-3.56,1.69h-.06a12.63,12.63,0,0,1-3.52.5h-.28l-145.15-3.26a13.12,13.12,0,0,1-12.76-12.79l-1.89-142.27a12.32,12.32,0,0,1,1.37-5.79,3.54,3.54,0,0,1,.23-.48h0a12.29,12.29,0,0,1,3.67-4l56.8-39.33a12.4,12.4,0,0,1,7.42-2.21l20.47.46c-4.93-12.41-15.57-25.66-38.42-28.92A4,4,0,1,1,158.44,91c27.2,3.89,39.22,20.41,44.52,33.59.47,1.16.88,2.31,1.26,3.44l20.69.47V78h-42c-1.51,0-3,.07-4.48.18H146.38c-24.81,0-25.91-12.66-35.73-12.66H64c-4.07,0-7.4,3.63-7.4,8.07s3.33,8.08,7.4,8.08h7.11c5.9,0,10.72,5.26,10.72,11.69s-4.82,11.7-10.72,11.7H30.78c-15.15,0-27.55,13.52-27.55,30s12.4,30.05,27.55,30.05H62.67c14.58,0,26.5,13,26.5,28.9S77.25,223,62.67,223h0C28.2,223,0,253.7,0,291.29s28.2,68.35,62.67,68.35H397.11C418.4,359.64,435.82,340.64,435.82,317.43ZM200.46,80.15l12,23a4,4,0,0,1-1.7,5.4,4.07,4.07,0,0,1-1.85.45,4,4,0,0,1-3.55-2.15l-12-23a4,4,0,0,1,7.1-3.7ZM47.28,295.74H25.13a4.13,4.13,0,0,1-.78-.08,2.19,2.19,0,0,1-.34-.1l-.41-.12c-.13-.06-.25-.14-.37-.2l-.32-.17a4.16,4.16,0,0,1-.61-.5h0a3.56,3.56,0,0,1-.49-.6,3.3,3.3,0,0,1-.18-.32c-.06-.12-.14-.24-.19-.37a2.92,2.92,0,0,1-.13-.42c0-.11-.08-.21-.1-.32a4.15,4.15,0,0,1,0-1.57,3.18,3.18,0,0,1,.1-.33,3.38,3.38,0,0,1,.13-.42c0-.13.13-.25.19-.37s.11-.22.18-.32a4,4,0,0,1,.49-.6h0L34.22,277H23.43a4,4,0,0,1,0-8H43.87a4.15,4.15,0,0,1,.79.08c.11,0,.22.07.34.1a3.1,3.1,0,0,1,.4.13,2.28,2.28,0,0,1,.38.2l.31.16a4.28,4.28,0,0,1,.61.5h0a4.13,4.13,0,0,1,.49.6,3.24,3.24,0,0,1,.17.32c.07.12.14.24.2.37s.09.28.13.42a3.18,3.18,0,0,1,.09.33,3.73,3.73,0,0,1,0,1.56,3.18,3.18,0,0,1-.09.33c0,.14-.08.28-.13.42s-.13.25-.2.37a3.24,3.24,0,0,1-.17.32,4.13,4.13,0,0,1-.49.6h0L34.79,287.74H47.28a4,4,0,0,1,0,8Zm10.26,30.7a4,4,0,0,1-.78-.07l-.34-.1-.41-.13-.38-.2c-.1-.06-.21-.1-.31-.17a4.16,4.16,0,0,1-.61-.5h0a4.16,4.16,0,0,1-.5-.61,3.24,3.24,0,0,1-.17-.32,3.13,3.13,0,0,1-.19-.36,3.38,3.38,0,0,1-.13-.42,2.07,2.07,0,0,1-.1-.33,4.15,4.15,0,0,1,0-1.57c0-.12.07-.22.1-.34a3.84,3.84,0,0,1,.13-.41,3.48,3.48,0,0,1,.2-.38,2.85,2.85,0,0,1,.16-.3,5,5,0,0,1,.5-.62L66.62,307.7H55.84a4,4,0,1,1,0-8h20.5a4.28,4.28,0,0,1,.72.07l.36.11.39.12a2.93,2.93,0,0,1,.39.21,2.19,2.19,0,0,1,.3.16,3.61,3.61,0,0,1,.61.5h0a4.16,4.16,0,0,1,.5.61l.17.31a3.24,3.24,0,0,1,.19.37,3.38,3.38,0,0,1,.13.42,2.07,2.07,0,0,1,.1.33,4.15,4.15,0,0,1,0,1.57c0,.12-.07.22-.1.34a3.1,3.1,0,0,1-.13.4,24.16,24.16,0,0,1-.36.69,4.28,4.28,0,0,1-.5.61L67.2,318.44H79.69a4,4,0,0,1,0,8ZM107.39,358H85.24a4.13,4.13,0,0,1-.78-.08c-.12,0-.22-.07-.34-.1a3.84,3.84,0,0,1-.41-.13c-.13-.05-.25-.13-.37-.19l-.32-.17a5.79,5.79,0,0,1-.61-.5h0a3.56,3.56,0,0,1-.49-.6,3.3,3.3,0,0,1-.18-.32c-.06-.12-.14-.24-.19-.37a3.38,3.38,0,0,1-.13-.42c0-.11-.07-.21-.1-.33a4.09,4.09,0,0,1,0-1.56c0-.12.07-.22.1-.33a3.38,3.38,0,0,1,.13-.42c0-.13.13-.25.19-.37a3.3,3.3,0,0,1,.18-.32,3.56,3.56,0,0,1,.49-.6h0l11.92-11.91H83.54a4,4,0,0,1,0-8H104a4.15,4.15,0,0,1,.79.08c.12,0,.22.07.34.1s.27.07.4.12.26.14.39.21l.3.16a3.69,3.69,0,0,1,.61.5h0a3.56,3.56,0,0,1,.49.6,2,2,0,0,1,.17.32c.07.12.14.24.2.37s.09.28.13.42.07.21.1.32a4.15,4.15,0,0,1,0,1.57c0,.12-.07.22-.1.33s-.08.28-.13.42-.13.25-.2.37a2.48,2.48,0,0,1-.17.32,4,4,0,0,1-.49.6h0L94.9,350h12.49a4,4,0,0,1,0,8Zm17.52,1a5,5,0,1,1,5-5A5,5,0,0,1,124.91,359Zm13,0a5,5,0,1,1,5-5A5,5,0,0,1,137.91,359Zm13,0a5,5,0,1,1,5-5A5,5,0,0,1,150.91,359Z"/><path class="cls-1" d="M262.54,182.08l-109.75-2.26-39-.8v.14l1.89,142.26a5,5,0,0,0,4.93,4.9l143.65,3.23ZM157.41,249a15.51,15.51,0,0,1-15.5-15.5,4,4,0,0,1,8,0,7.5,7.5,0,0,0,15,0,4,4,0,0,1,8,0A15.51,15.51,0,0,1,157.41,249Zm31.5,49c-6.73,0-12-7.47-12-17s5.27-17,12-17,12,7.47,12,17S195.64,298,188.91,298Zm34.5-49a15.51,15.51,0,0,1-15.5-15.5,4,4,0,0,1,8,0,7.5,7.5,0,0,0,15,0,4,4,0,0,1,8,0A15.51,15.51,0,0,1,223.41,249Z"/><path class="cls-1" d="M260.9,151.76a4,4,0,0,1-3.75,4.23h-.24a4,4,0,0,1-4-3.76,65.79,65.79,0,0,1,1.25-15l-21.26-.48V152a4,4,0,0,1-8,0V136.54l-18.51-.42a67.13,67.13,0,0,1,1.47,16.12,4,4,0,0,1-4,3.76h-.25a4,4,0,0,1-3.75-4.22,60,60,0,0,0-1.63-15.83l-23.17-.52a4.56,4.56,0,0,0-2.68.79l-50.52,35,68,1.39,75.4,1.55,42.28-29.65,8.4-5.9-53.69-1.2A60.78,60.78,0,0,0,260.9,151.76Z"/><path class="cls-2" d="M234.91,229.5a4,4,0,0,0-4,4,7.5,7.5,0,0,1-15,0,4,4,0,0,0-8,0,15.5,15.5,0,0,0,31,0A4,4,0,0,0,234.91,229.5Z"/><path class="cls-2" d="M168.91,229.5a4,4,0,0,0-4,4,7.5,7.5,0,0,1-15,0,4,4,0,0,0-8,0,15.5,15.5,0,0,0,31,0A4,4,0,0,0,168.91,229.5Z"/><path class="cls-2" d="M188.91,264c-6.73,0-12,7.47-12,17s5.27,17,12,17,12-7.47,12-17S195.64,264,188.91,264Zm0,26c-1.41,0-4-3.42-4-9s2.59-9,4-9,4,3.42,4,9S190.32,290,188.91,290Z"/><circle class="cls-1" cx="152.91" cy="56" r="10"/><circle class="cls-1" cx="45.91" cy="196" r="10"/><circle class="cls-1" cx="27.91" cy="388" r="20"/><circle class="cls-1" cx="55.91" cy="425" r="8"/><circle class="cls-1" cx="15.91" cy="218" r="5"/><circle class="cls-1" cx="376.91" cy="254" r="15"/><circle class="cls-1" cx="351.91" cy="46" r="15"/><circle class="cls-1" cx="132.91" cy="417" r="8"/><circle class="cls-1" cx="359.91" cy="391" r="8"/><circle class="cls-1" cx="413.91" cy="409" r="19"/><circle class="cls-1" cx="407.91" cy="219" r="6"/><circle class="cls-1" cx="88.91" cy="7" r="7"/><path class="cls-2" d="M224.91,128.54l-20.69-.47c-.38-1.13-.79-2.28-1.26-3.44-5.3-13.18-17.32-29.7-44.52-33.59A4,4,0,1,0,157.31,99c22.85,3.26,33.49,16.51,38.42,28.92l-20.47-.46a12.4,12.4,0,0,0-7.42,2.21L111,169a12.29,12.29,0,0,0-3.67,4h0a3.54,3.54,0,0,0-.23.48,12.32,12.32,0,0,0-1.37,5.79l1.89,142.27a13.12,13.12,0,0,0,12.76,12.79l145.15,3.26h.28a12.63,12.63,0,0,0,3.52-.5h.06a12.4,12.4,0,0,0,3.56-1.69L329.78,296a12.29,12.29,0,0,0,5.28-10.3l-1.89-142.27a12.92,12.92,0,0,0-5-10h0a12.94,12.94,0,0,0-7.79-2.81l-55.85-1.25c.22-.6.44-1.21.69-1.81,6.56-16.33,19.42-26,38.23-28.66A4,4,0,0,0,302.34,91c-27.2,3.89-39.22,20.41-44.52,33.59-.62,1.56-1.16,3.1-1.64,4.61l-23.27-.52V56a4,4,0,1,0-8,0v72.54ZM115.65,321.42l-1.89-142.26V179l39,.8,109.75,2.26,1.69,147.47-143.65-3.23A5,5,0,0,1,115.65,321.42Zm211.41-35.58h0a4.28,4.28,0,0,1-1.84,3.61l-53,36.72-1.67-145.93,54.39-38.15a5,5,0,0,1,.26,1.48ZM316,138.58l-8.4,5.9-42.28,29.65-75.4-1.55-68-1.39,50.52-35a4.56,4.56,0,0,1,2.68-.79l23.17.52a60,60,0,0,1,1.63,15.83,4,4,0,0,0,3.75,4.22h.25a4,4,0,0,0,4-3.76,67.13,67.13,0,0,0-1.47-16.12l18.51.42V152a4,4,0,0,0,8,0V136.72l21.26.48a65.79,65.79,0,0,0-1.25,15,4,4,0,0,0,4,3.76h.24a4,4,0,0,0,3.75-4.23,60.78,60.78,0,0,1,1.4-14.38Z"/><path class="cls-2" d="M254.91,88.46a3.93,3.93,0,0,0,2,.54,4,4,0,0,0,3.46-2l5.21-9,5.79-10a4,4,0,1,0-6.92-4l-8.11,14-2.89,5A4,4,0,0,0,254.91,88.46Z"/><path class="cls-2" d="M193.36,83.85l12,23a4,4,0,0,0,3.55,2.15,4.07,4.07,0,0,0,1.85-.45,4,4,0,0,0,1.7-5.4l-12-23a4,4,0,0,0-7.1,3.7Z"/><path class="cls-2" d="M83.69,322.44a4,4,0,0,0-4-4H67.2l11.91-11.91a4.28,4.28,0,0,0,.5-.61,24.16,24.16,0,0,0,.36-.69,3.1,3.1,0,0,0,.13-.4c0-.12.08-.22.1-.34a4.15,4.15,0,0,0,0-1.57,2.07,2.07,0,0,0-.1-.33,3.38,3.38,0,0,0-.13-.42,3.24,3.24,0,0,0-.19-.37l-.17-.31a4.16,4.16,0,0,0-.5-.61h0a3.61,3.61,0,0,0-.61-.5,2.19,2.19,0,0,0-.3-.16,2.93,2.93,0,0,0-.39-.21l-.39-.12-.36-.11a4.28,4.28,0,0,0-.72-.07H55.84a4,4,0,1,0,0,8H66.62L54.71,319.61a5,5,0,0,0-.5.62,2.85,2.85,0,0,0-.16.3,3.48,3.48,0,0,0-.2.38,3.84,3.84,0,0,0-.13.41c0,.12-.08.22-.1.34a4.15,4.15,0,0,0,0,1.57,2.07,2.07,0,0,0,.1.33,3.38,3.38,0,0,0,.13.42,3.13,3.13,0,0,0,.19.36,3.24,3.24,0,0,0,.17.32,4.16,4.16,0,0,0,.5.61h0a4.16,4.16,0,0,0,.61.5c.1.07.21.11.31.17l.38.2.41.13.34.1a4,4,0,0,0,.78.07H79.69A4,4,0,0,0,83.69,322.44Z"/><path class="cls-2" d="M47.28,287.74H34.79L46.7,275.83h0a4.13,4.13,0,0,0,.49-.6,3.24,3.24,0,0,0,.17-.32c.07-.12.14-.24.2-.37s.09-.28.13-.42a3.18,3.18,0,0,0,.09-.33,3.73,3.73,0,0,0,0-1.56,3.18,3.18,0,0,0-.09-.33c0-.14-.08-.28-.13-.42s-.13-.25-.2-.37a3.24,3.24,0,0,0-.17-.32,4.13,4.13,0,0,0-.49-.6h0a4.28,4.28,0,0,0-.61-.5l-.31-.16a2.28,2.28,0,0,0-.38-.2,3.1,3.1,0,0,0-.4-.13c-.12,0-.23-.08-.34-.1a4.15,4.15,0,0,0-.79-.08H23.43a4,4,0,0,0,0,8H34.22L22.3,288.91h0a4,4,0,0,0-.49.6c-.07.1-.12.22-.18.32s-.14.24-.19.37a3.38,3.38,0,0,0-.13.42,3.18,3.18,0,0,0-.1.33,4.15,4.15,0,0,0,0,1.57c0,.11.07.21.1.32a2.92,2.92,0,0,0,.13.42c0,.13.13.25.19.37a3.3,3.3,0,0,0,.18.32,3.56,3.56,0,0,0,.49.6h0a4.16,4.16,0,0,0,.61.5l.32.17c.12.06.24.14.37.2l.41.12a2.19,2.19,0,0,0,.34.1,4.13,4.13,0,0,0,.78.08H47.28a4,4,0,0,0,0-8Z"/><path class="cls-2" d="M107.39,350H94.9l11.91-11.91h0a4,4,0,0,0,.49-.6,2.48,2.48,0,0,0,.17-.32c.07-.12.14-.24.2-.37s.09-.28.13-.42.07-.21.1-.33a4.15,4.15,0,0,0,0-1.57c0-.11-.07-.21-.1-.32s-.08-.29-.13-.42-.13-.25-.2-.37a2,2,0,0,0-.17-.32,3.56,3.56,0,0,0-.49-.6h0a3.69,3.69,0,0,0-.61-.5l-.3-.16c-.13-.07-.25-.15-.39-.21s-.27-.08-.4-.12-.22-.08-.34-.1a4.15,4.15,0,0,0-.79-.08H83.54a4,4,0,0,0,0,8H94.33L82.41,351.17h0a3.56,3.56,0,0,0-.49.6,3.3,3.3,0,0,0-.18.32c-.06.12-.14.24-.19.37a3.38,3.38,0,0,0-.13.42c0,.11-.07.21-.1.33a4.09,4.09,0,0,0,0,1.56c0,.12.07.22.1.33a3.38,3.38,0,0,0,.13.42c0,.13.13.25.19.37a3.3,3.3,0,0,0,.18.32,3.56,3.56,0,0,0,.49.6h0a5.79,5.79,0,0,0,.61.5l.32.17c.12.06.24.14.37.19a3.84,3.84,0,0,0,.41.13c.12,0,.22.08.34.1a4.13,4.13,0,0,0,.78.08h22.15a4,4,0,0,0,0-8Z"/><circle class="cls-2" cx="124.91" cy="354" r="5"/><circle class="cls-2" cx="137.91" cy="354" r="5"/><circle class="cls-2" cx="150.91" cy="354" r="5"/></g></g></svg>