<!-- Generated by IcoMoon.io -->
<svg version="1.1" xmlns="http://www.w3.org/2000/svg" width="47" height="32" viewBox="0 0 47 32">
<title>engage</title>
<path d="M45.952 10.848h-6.944v-4.384c0-0.010 0-0.021 0-0.032 0-0.654-0.53-1.184-1.184-1.184-0 0-0 0-0 0h-5.504v-3.904c0-0.742-0.602-1.344-1.344-1.344v0h-16.064c-0.742 0-1.344 0.602-1.344 1.344v0 3.904h-4.608c-0.010-0-0.021-0-0.032-0-0.672 0-1.216 0.544-1.216 1.216 0 0 0 0 0 0v-0 4.384h-6.496c-0.664 0.017-1.199 0.552-1.216 1.214l-0 0.002v18.72c0.017 0.664 0.552 1.199 1.214 1.216l0.002 0h17.728c0 0 0.001 0 0.001 0 0.289 0 0.526-0.226 0.543-0.51l0-0.002v-9.408s0-0.224 0.16-0.224h6.688c0.124 0 0.224 0.1 0.224 0.224v0 9.376c-0.001 0.010-0.001 0.021-0.001 0.033 0 0.272 0.212 0.494 0.48 0.511l0.001 0h18.912c0 0 0 0 0 0 0.654 0 1.184-0.53 1.184-1.184 0-0.011-0-0.022-0-0.034l0 0.002v-18.72c0-0.010 0-0.021 0-0.032 0-0.654-0.53-1.184-1.184-1.184-0 0-0 0-0 0h0zM8.32 22.784c0 0.442-0.358 0.8-0.8 0.8v0h-2.208c-0.010 0-0.021 0.001-0.032 0.001-0.442 0-0.8-0.358-0.8-0.8 0-0 0-0 0-0.001v0-1.92c-0-0.010-0.001-0.021-0.001-0.033 0-0.442 0.358-0.8 0.8-0.8 0.011 0 0.023 0 0.034 0.001l-0.002-0h2.208c0 0 0 0 0.001 0 0.442 0 0.8 0.358 0.8 0.8 0 0.011-0 0.022-0.001 0.034l0-0.002zM8.32 17.088c0 0.442-0.358 0.8-0.8 0.8v0h-2.208c-0.011 0.001-0.025 0.001-0.038 0.001-0.442 0-0.8-0.358-0.8-0.8 0-0.034 0.002-0.068 0.006-0.101l-0 0.004v-1.824c0-0.46 0.372-0.832 0.832-0.832v0h2.208c0.446 0.018 0.8 0.383 0.8 0.831 0 0 0 0 0 0.001v-0zM14.912 22.688c0 0.442-0.358 0.8-0.8 0.8v0h-2.176c-0.442 0-0.8-0.358-0.8-0.8v0-1.824c-0-0.010-0.001-0.021-0.001-0.032 0-0.442 0.358-0.8 0.8-0.8 0 0 0 0 0.001 0h2.208c0.428 0.017 0.769 0.369 0.769 0.799 0 0.011-0 0.023-0.001 0.034l0-0.002zM14.912 16.992c0.004 0.029 0.006 0.062 0.006 0.096 0 0.433-0.343 0.785-0.772 0.8l-0.001 0h-2.208c-0.442 0-0.8-0.358-0.8-0.8v0-1.92c0-0 0-0 0-0.001 0-0.448 0.354-0.814 0.798-0.831l0.002-0h2.208c0.431 0.034 0.768 0.393 0.768 0.83 0 0.001 0 0.002 0 0.003v-0zM21.536 16.992c0.004 0.032 0.007 0.068 0.007 0.105 0 0.399-0.292 0.73-0.674 0.79l-0.005 0.001h-2.304c-0.387-0.061-0.679-0.392-0.679-0.791 0-0.037 0.003-0.074 0.007-0.109l-0 0.004v-1.824c0-0 0-0 0-0.001 0-0.448 0.354-0.814 0.798-0.831l0.002-0h2.176c0.459 0 0.832 0.373 0.832 0.832v0zM21.92 10.272c-0.477 0-0.864-0.387-0.864-0.864v0-1.696c0-0.477 0.387-0.864 0.864-0.864v0h2.176c0.477 0 0.864 0.387 0.864 0.864v0 1.696c0 0.477-0.387 0.864-0.864 0.864v0zM28.224 16.992c0.004 0.029 0.006 0.062 0.006 0.096 0 0.442-0.358 0.8-0.8 0.8-0.002 0-0.004 0-0.006-0h-2.208c-0.019 0.002-0.041 0.003-0.064 0.003-0.442 0-0.8-0.358-0.8-0.8 0-0.001 0-0.002 0-0.003v0-1.92c0-0 0-0 0-0.001 0-0.46 0.372-0.832 0.832-0.832 0.011 0 0.022 0 0.034 0.001l-0.002-0h2.208c0.446 0.018 0.8 0.383 0.8 0.831 0 0 0 0 0 0.001v-0zM35.776 22.688c0 0.442-0.358 0.8-0.8 0.8v0h-2.176c-0.442 0-0.8-0.358-0.8-0.8v0-1.824c-0-0.010-0.001-0.021-0.001-0.032 0-0.442 0.358-0.8 0.8-0.8 0 0 0 0 0.001 0h2.24c0.414 0.034 0.737 0.378 0.737 0.797 0 0.012-0 0.024-0.001 0.036l0-0.002zM35.776 16.992c0 0.442-0.358 0.8-0.8 0.8v0h-2.176c-0.442 0-0.8-0.358-0.8-0.8v0-1.824c0-0 0-0 0-0.001 0-0.448 0.354-0.814 0.798-0.831l0.002-0h2.24c0.446 0.018 0.8 0.383 0.8 0.831 0 0 0 0 0 0.001v-0zM42.432 22.688c-0.018 0.446-0.383 0.8-0.831 0.8-0 0-0 0-0.001 0h-2.24c-0.442 0-0.8-0.358-0.8-0.8v0-1.824c-0-0.010-0.001-0.021-0.001-0.032 0-0.442 0.358-0.8 0.8-0.8 0 0 0 0 0.001 0h2.4c0.459 0 0.832 0.372 0.832 0.832v0zM42.432 16.992c0.002 0.024 0.004 0.051 0.004 0.079 0 0.404-0.288 0.741-0.67 0.816l-0.005 0.001h-2.4c-0.442 0-0.8-0.358-0.8-0.8v0-1.92c0-0 0-0 0-0.001 0-0.448 0.354-0.814 0.798-0.831l0.002-0h2.4c0.453 0.017 0.815 0.38 0.832 0.83l0 0.002z"></path>
</svg>
