<?xml version="1.0" encoding="UTF-8"?>
<svg width="24px" height="14px" viewBox="0 0 24 14" version="1.1" xmlns="http://www.w3.org/2000/svg" xmlns:xlink="http://www.w3.org/1999/xlink">
    <!-- Generator: Sketch 56.3 (81716) - https://sketch.com -->
    <title>Group 46</title>
    <desc>Created with Sketch.</desc>
    <g id="UI-screen-(SP)" stroke="none" stroke-width="1" fill="none" fill-rule="evenodd">
        <g id="01.-dashboard" transform="translate(-34.000000, -303.000000)" fill="#F79923" fill-rule="nonzero">
            <g id="Group-46" transform="translate(34.000000, 303.000000)">
                <path d="M23.3279989,1.91846539e-13 L0,1.91846539e-13 L0,13.8794759 L23.3279989,13.8794759 L23.3279989,1.91846539e-13 Z M22.355999,12.907476 L0.971999955,12.907476 L0.971999955,0.971999955 L22.355999,0.971999955 L22.355999,12.907476 Z" id="Shape"></path>
                <path d="M3.40199984,11.4494761 L3.40199984,11.935476 L19.9259991,11.935476 L19.9259991,11.4494761 C19.9259991,10.9134048 20.3619278,10.4774761 20.897999,10.4774761 L21.383999,10.4774761 L21.383999,3.40199984 L20.897999,3.40199984 C20.3619278,3.40199984 19.9259991,2.96607113 19.9259991,2.42999989 L19.9259991,1.94399991 L3.40199984,1.94399991 L3.40199984,2.42999989 C3.40199984,2.96607113 2.96607113,3.40199984 2.42999989,3.40199984 L1.94399991,3.40199984 L1.94399991,10.4774761 L2.42999989,10.4774761 C2.96607113,10.4774761 3.40199984,10.9134048 3.40199984,11.4494761 Z M2.91599986,4.31253791 C3.59825081,4.13622052 4.13622052,3.59825081 4.31253791,2.91599986 L19.0154611,2.91599986 C19.1917784,3.59825081 19.7297481,4.13622052 20.4119991,4.31253791 L20.4119991,9.56693804 C19.7297481,9.74325543 19.1917784,10.2812251 19.015461,10.9634761 L4.31253791,10.9634761 C4.13622052,10.2812251 3.59825081,9.74325543 2.91599986,9.56693804 L2.91599986,4.31253791 Z" id="Shape"></path>
                <path d="M11.6639995,10.4444907 C13.2793324,10.4444907 14.5932884,8.87234726 14.5932884,6.93973797 C14.5932884,5.00712869 13.2793324,3.43474788 11.6639995,3.43474788 C10.0489038,3.43474788 8.73494782,5.00712869 8.73494782,6.93973797 C8.73494782,8.87234726 10.0489038,10.4444907 11.6639995,10.4444907 Z M11.6639995,4.40674784 C12.7432611,4.40674784 13.6212885,5.54296262 13.6212885,6.93973797 C13.6212885,8.33627601 12.7432612,9.47249079 11.6639995,9.47249079 C10.5849751,9.47249079 9.70694778,8.33627601 9.70694778,6.93973797 C9.70694778,5.54296266 10.5849751,4.40674784 11.6639995,4.40674784 Z" id="Shape"></path>
            </g>
        </g>
    </g>
</svg>