<!-- Generated by IcoMoon.io -->
<svg version="1.1" xmlns="http://www.w3.org/2000/svg" width="30" height="32" viewBox="0 0 30 32">
<title>fees_payment</title>
<path d="M28.992 5.984h-1.984v-0.992c0-1.661-1.347-3.008-3.008-3.008s-3.008 1.347-3.008 3.008v0-1.984c-0.162-1.523-1.44-2.698-2.992-2.698s-2.83 1.176-2.991 2.685l-0.001 0.013v1.984c0-1.661-1.347-3.008-3.008-3.008s-3.008 1.347-3.008 3.008v0 0.992h-8c-0 0-0 0-0.001 0-0.548 0-0.992 0.444-0.992 0.992 0 0.011 0 0.022 0.001 0.034l-0-0.002v13.984c0 0.548 0.444 0.992 0.992 0.992v0h5.024v1.376c-0.014 0.126-0.022 0.271-0.022 0.419 0 0.918 0.309 1.763 0.829 2.438l-0.007-0.009c0.699 0.841 1.657 1.445 2.751 1.69l0.033 0.006 0.288 0.064c0.176 0.014 0.339 0.048 0.494 0.1l-0.014-0.004c0.154 0.062 0.277 0.174 0.35 0.316l0.002 0.004c0.187 0.636 0.294 1.367 0.294 2.123 0 0.109-0.002 0.217-0.007 0.325l0.001-0.015v0.192c0 0.548 0.444 0.992 0.992 0.992v0h14.016c0.548 0 0.992-0.444 0.992-0.992v0-9.024h1.984c0.010 0 0.021 0.001 0.032 0.001 0.548 0 0.992-0.444 0.992-0.992 0-0 0-0 0-0.001v0-13.984c0-0.010 0.001-0.021 0.001-0.033 0-0.548-0.444-0.992-0.992-0.992-0.011 0-0.023 0-0.034 0.001l0.002-0zM23.008 4.992c0-0.548 0.444-0.992 0.992-0.992s0.992 0.444 0.992 0.992v0 0.992h-1.984zM16.992 3.008c0-0.557 0.451-1.008 1.008-1.008s1.008 0.451 1.008 1.008v0 2.976h-2.016zM11.008 4.992c0-0.548 0.444-0.992 0.992-0.992s0.992 0.444 0.992 0.992v0 0.992h-1.984zM24.992 30.016h-12c0-0.005 0-0.010 0-0.015 0-0.817-0.129-1.605-0.367-2.343l0.015 0.054c-0.276-0.673-0.799-1.196-1.454-1.466l-0.018-0.006c-0.258-0.112-0.56-0.201-0.873-0.253l-0.023-0.003h-0.256c-0.658-0.153-1.218-0.505-1.628-0.988l-0.004-0.004c-0.384-0.48-0.384-0.768-0.384-1.632v-6.080c0.284-0.172 0.624-0.278 0.989-0.288l0.003-0c0.008-0 0.017-0 0.026-0 0.363 0 0.706 0.083 1.012 0.23l-0.014-0.006v5.792c0 0.548 0.444 0.992 0.992 0.992s0.992-0.444 0.992-0.992v0-1.024h12.992zM28 20h-16v-3.008c0-1.376-1.76-1.984-3.008-1.984s-2.976 0.704-2.976 2.080v2.912h-4v-12h25.984zM16 17.984c2.209 0 4-1.791 4-4s-1.791-4-4-4c-2.209 0-4 1.791-4 4v0c0 2.209 1.791 4 4 4v0zM16 12c0.009-0 0.021-0 0.032-0 1.113 0 2.016 0.903 2.016 2.016s-0.903 2.016-2.016 2.016c-1.113 0-2.016-0.903-2.016-2.016 0-0.011 0-0.022 0-0.033l-0 0.002c0.018-1.089 0.895-1.966 1.982-1.984l0.002-0z"></path>
</svg>
