<?xml version="1.0" encoding="UTF-8"?>
<svg width="18px" height="13px" viewBox="0 0 18 13" version="1.1" xmlns="http://www.w3.org/2000/svg" xmlns:xlink="http://www.w3.org/1999/xlink">
    <!-- Generator: Sketch 56.3 (81716) - https://sketch.com -->
    <title>Group</title>
    <desc>Created with Sketch.</desc>
    <g id="UI-screen" stroke="none" stroke-width="1" fill="none" fill-rule="evenodd">
        <g id="01.-SP-Forum-1" transform="translate(-311.000000, -115.000000)" fill="#A7A7A7" fill-rule="nonzero">
            <g id="Group" transform="translate(311.000000, 115.000000)">
                <path d="M5.69435121,0 C4.32756194,0.00135984034 3.14156725,1.02520614 2.83126959,2.47164306 L0.676005369,2.47164306 C0.30265791,2.47164307 0,2.80052539 0,3.20622229 C0,3.61191919 0.30265791,3.94080151 0.676005369,3.94080152 L2.83126959,3.94080152 C3.14610451,5.38229424 4.33095153,6.39999962 5.69435121,6.39999962 C7.05775089,6.39999962 8.24259791,5.38229424 8.55743283,3.94080152 L16.9239936,3.94080152 C17.297341,3.94080152 17.599999,3.6119192 17.599999,3.20622229 C17.599999,2.80052538 17.297341,2.47164306 16.9239936,2.47164306 L8.55743283,2.47164306 C8.24713517,1.02520614 7.06114048,0.00135984034 5.69435121,0 Z M5.69435121,4.94328612 C4.81588659,4.94328612 4.10375031,4.16944535 4.10375031,3.2148644 C4.10375031,2.26028344 4.81588659,1.48644268 5.69435121,1.48644268 C6.57281583,1.48644268 7.28495211,2.26028344 7.28495211,3.2148644 C7.28495211,4.16944535 6.57281583,4.94328612 5.69435121,4.94328612 L5.69435121,4.94328612 Z" id="Shape"></path>
                <path d="M11.9295067,6.39999962 C10.5627175,6.40135946 9.37672277,7.42520576 9.06642511,8.87164268 L0.676005355,8.87164268 C0.302657902,8.87164269 0,9.20052501 0,9.60622191 C0,10.0119188 0.302657902,10.3408011 0.676005355,10.3408011 L9.0425661,10.3408011 C9.35740102,11.7822939 10.542248,12.7999992 11.9056477,12.7999992 C13.2690474,12.7999992 14.4538944,11.7822939 14.7687293,10.3408011 L16.9239936,10.3408011 C17.297341,10.3408011 17.599999,10.0119188 17.599999,9.60622191 C17.599999,9.200525 17.297341,8.87164268 16.9239936,8.87164268 L14.7687293,8.87164268 C14.4605018,7.43458595 13.2873644,6.41332861 11.9295067,6.39999962 L11.9295067,6.39999962 Z M11.9295067,11.3260015 C11.0510421,11.3260015 10.3389058,10.5521608 10.3389058,9.5975798 C10.3389058,8.64299884 11.0510421,7.86915808 11.9295067,7.86915808 C12.8079714,7.86915808 13.5201076,8.64299884 13.5201076,9.5975798 C13.5201076,10.5521608 12.8079714,11.3260015 11.9295067,11.3260015 Z" id="Shape"></path>
            </g>
        </g>
    </g>
</svg>