<?xml version="1.0" encoding="UTF-8"?>
<svg width="16px" height="15px" viewBox="0 0 16 15" version="1.1" xmlns="http://www.w3.org/2000/svg" xmlns:xlink="http://www.w3.org/1999/xlink">
    <!-- Generator: Sketch 56.3 (81716) - https://sketch.com -->
    <title>home (6)</title>
    <desc>Created with Sketch.</desc>
    <g id="Student-Parent" stroke="none" stroke-width="1" fill="none" fill-rule="evenodd">
        <g id="Payment-Successfull-" transform="translate(-31.000000, -646.000000)" fill="#F7A33A" fill-rule="nonzero" stroke="#F79C2B" stroke-width="0.6">
            <g id="Group-7" transform="translate(32.000000, 645.000000)">
                <g id="home-(6)" transform="translate(0.000000, 1.571429)">
                    <path d="M11.8943325,14.0000529 L8.78971901,14.0000529 C8.6709727,14.0000529 8.57459889,13.9050223 8.57459889,13.7879309 L8.57459889,9.4691267 L5.62013923,9.4691267 L5.62013923,13.7879309 C5.62013923,13.9050223 5.52376542,14.0000529 5.40501912,14.0000529 L2.29954514,14.0000529 C2.18079883,14.0000529 2.08442502,13.9050223 2.08442502,13.7879309 L2.08442502,6.74251034 L0.312695754,6.74251034 C0.224496506,6.74251034 0.145332304,6.68947983 0.112634047,6.60887347 C0.0803660293,6.5282671 0.10101756,6.43620615 0.164693114,6.37638774 L6.94872106,0.0581214316 C7.03175743,-0.0195152255 7.16125974,-0.0190909815 7.24472634,0.0581214316 L14.0304753,6.37638774 C14.0941508,6.43620615 14.1148023,6.5282671 14.0825343,6.60887347 C14.0498361,6.68947983 13.9706719,6.74251034 13.8824726,6.74251034 L12.1094526,6.74251034 L12.1094526,13.7879309 C12.1094526,13.9050223 12.0130788,14.0000529 11.8943325,14.0000529 Z M9.00483912,13.5758089 L11.6792124,13.5758089 L11.6792124,6.53038832 C11.6792124,6.41329697 11.7755862,6.31826631 11.8943325,6.31826631 L13.3412304,6.31826631 L7.0967237,0.504001905 L0.853937963,6.31826631 L2.29954514,6.31826631 C2.41829144,6.31826631 2.51466525,6.41329697 2.51466525,6.53038832 L2.51466525,13.5758089 L5.189899,13.5758089 L5.189899,9.25700469 C5.189899,9.13991334 5.28627281,9.04488268 5.40501912,9.04488268 L8.78971901,9.04488268 C8.90846531,9.04488268 9.00483912,9.13991334 9.00483912,9.25700469 L9.00483912,13.5758089 Z" id="Shape"></path>
                </g>
            </g>
        </g>
    </g>
</svg>