<!-- Generated by IcoMoon.io -->
<svg version="1.1" xmlns="http://www.w3.org/2000/svg" width="32" height="32" viewBox="0 0 32 32">
<title>id_card</title>
<path d="M31.008 8h-30.016c-0.548 0-0.992 0.444-0.992 0.992v0 22.016c0 0.548 0.444 0.992 0.992 0.992v0h30.016c0.548 0 0.992-0.444 0.992-0.992v0-22.016c0-0.548-0.444-0.992-0.992-0.992v0zM6.016 30.016v-2.528c0-1.926 1.562-3.488 3.488-3.488v0h0.992c0.009-0 0.021-0 0.032-0 1.926 0 3.488 1.562 3.488 3.488 0 0 0 0 0 0v0 2.528zM30.016 30.016h-14.016v-2.528c0-3.040-2.464-5.504-5.504-5.504v0h-0.992c-3.040 0-5.504 2.464-5.504 5.504v0 2.528h-1.984v-20.032h28zM12.992 7.008h6.016c0 0 0 0 0.001 0 0.548 0 0.992-0.444 0.992-0.992 0-0.011-0-0.022-0.001-0.034l0 0.002v-1.984c0-2.209-1.791-4-4-4s-4 1.791-4 4v0 1.984c-0 0.010-0.001 0.021-0.001 0.032 0 0.548 0.444 0.992 0.992 0.992 0 0 0 0 0.001 0h-0zM14.016 4c0.13-0.999 0.976-1.763 2-1.763s1.87 0.764 1.999 1.752l0.001 0.010v0.992h-4zM10.016 20c2.209 0 4-1.791 4-4s-1.791-4-4-4c-2.209 0-4 1.791-4 4v0c0 2.209 1.791 4 4 4v0zM10.016 13.984c1.113 0 2.016 0.903 2.016 2.016s-0.903 2.016-2.016 2.016c-1.113 0-2.016-0.903-2.016-2.016v0c0-1.113 0.903-2.016 2.016-2.016v0zM18.016 16.992h8.992c0.548 0 0.992-0.444 0.992-0.992s-0.444-0.992-0.992-0.992v0h-8.992c-0.548 0-0.992 0.444-0.992 0.992s0.444 0.992 0.992 0.992v0zM18.016 20.992h8.992c0.548 0 0.992-0.444 0.992-0.992s-0.444-0.992-0.992-0.992v0h-8.992c-0.548 0-0.992 0.444-0.992 0.992s0.444 0.992 0.992 0.992v0zM18.016 24.992h8.992c0.548 0 0.992-0.444 0.992-0.992s-0.444-0.992-0.992-0.992v0h-8.992c-0.548 0-0.992 0.444-0.992 0.992s0.444 0.992 0.992 0.992v0z"></path>
</svg>
