<svg xmlns="http://www.w3.org/2000/svg" viewBox="0 0 32.16 29.27"><defs><style>.cls-1{fill:#f16c51;}</style></defs><title>Asset 64</title><g id="Layer_2" data-name="Layer 2"><g id="Layer_4" data-name="Layer 4"><path class="cls-1" d="M29.6,2.81A8.68,8.68,0,0,0,23.14,0a8.12,8.12,0,0,0-5.08,1.75,10.48,10.48,0,0,0-2,2.05,10.49,10.49,0,0,0-2-2.05A8.12,8.12,0,0,0,9,0,8.68,8.68,0,0,0,2.56,2.81,10.08,10.08,0,0,0,0,9.7c0,2.76,1,5.18,3.19,7.85a67.58,67.58,0,0,0,8,7.47l.23.19c1,.89,2.2,1.88,3.41,2.93l1.28,1.12,1.29-1.12C18.66,27,19.91,25.95,21,25A67.56,67.56,0,0,0,29,17.54c2.21-2.66,3.19-5.08,3.19-7.85A10.08,10.08,0,0,0,29.6,2.81ZM27.43,16.27a66.49,66.49,0,0,1-7.71,7.22c-1.1.94-2.34,2-3.64,3.13-1.2-1.05-2.36-2-3.4-2.92l-.23-.2a66.65,66.65,0,0,1-7.72-7.22A10,10,0,0,1,2,9.7,8.09,8.09,0,0,1,4,4.17,6.7,6.7,0,0,1,9,2a6.17,6.17,0,0,1,3.85,1.33A9,9,0,0,1,15,5.82a1.23,1.23,0,0,0,1.05.6h0a1.23,1.23,0,0,0,1.06-.6,9,9,0,0,1,2.15-2.49A6.16,6.16,0,0,1,23.14,2a6.71,6.71,0,0,1,5,2.17,8.09,8.09,0,0,1,2,5.53A10,10,0,0,1,27.43,16.27Z"/></g></g></svg>