<?xml version="1.0" encoding="UTF-8"?>
<svg width="431px" height="423px" viewBox="0 0 431 423" version="1.1" xmlns="http://www.w3.org/2000/svg" xmlns:xlink="http://www.w3.org/1999/xlink">
    <!-- Generator: Sketch 56.3 (81716) - https://sketch.com -->
    <title>login error </title>
    <desc>Created with Sketch.</desc>
    <g id="Page-1" stroke="none" stroke-width="1" fill="none" fill-rule="evenodd">
        <g id="Artboard" transform="translate(-600.000000, -335.000000)">
            <g id="login-error-" transform="translate(600.000000, 335.000000)">
                <path d="M70.55,163.49 C69.1254586,160.712646 66.7926984,158.506935 63.94,157.24 C50,151.19 38.72,161 25.09,149.88 C14.28,141.06 9,126.55 9,112.88 C9,88.28 25.46,68.16 45.59,68.16 L361.75,68.16 C394.34,68.16 421,100.75 421,140.58 C421,180.41 394.34,213 361.75,213 C348,213 336.7,226.8 336.7,243.64 C336.7,260.48 347.97,274.26 361.75,274.26 L391.9,274.26 C406.23,274.26 417.95,288.59 417.95,306.1 C417.95,323.61 406.23,337.94 391.9,337.94 L353.78,337.94 C348.2,337.94 343.64,343.52 343.64,350.34 C343.64,357.16 348.2,362.73 353.78,362.73 L360.5,362.73 C364.35,362.73 367.5,366.58 367.5,371.29 C367.5,376 364.35,379.84 360.5,379.84 L316.4,379.84 C307.11,379.84 306.08,366.43 282.62,366.43 L228.22,366.43 C223.22,366.43 219.09,361.43 219.09,355.27 C219.09,349.11 223.2,344.1 228.22,344.1 L237,344.1 C244.27,344.1 250.23,336.83 250.23,327.93 C250.23,319.03 244.23,311.75 237,311.75 L210.6,311.75 C174.97,311.75 169.93,300.37 163.69,277.75 C157.45,255.13 125,253.25 125,253.25 L80.7,253.25 C65.03,253.25 59.39,232.66 55.7,220.59 C51.18,205.83 54.88,188.46 65.85,177.43 C67.85,175.43 70.07,173.55 71.1,170.95 C71.9983543,168.499996 71.7979485,165.781764 70.55,163.49 Z M380.14,362.73 C376.27,362.73 373.14,366.56 373.14,371.29 C373.14,376.02 376.27,379.84 380.14,379.84 C384.01,379.84 387.14,376.01 387.14,371.29 C387.14,366.57 384,362.73 380.14,362.73 Z" id="Shape" fill="#E1E8F6"></path>
                <circle id="Oval" fill="#E1E8F6" fill-rule="nonzero" cx="112" cy="289" r="14"></circle>
                <circle id="Oval" fill="#E1E8F6" fill-rule="nonzero" cx="129" cy="323" r="10"></circle>
                <circle id="Oval" fill="#E1E8F6" fill-rule="nonzero" cx="49" cy="35" r="14"></circle>
                <circle id="Oval" fill="#E1E8F6" fill-rule="nonzero" cx="191" cy="7" r="7"></circle>
                <circle id="Oval" fill="#E1E8F6" fill-rule="nonzero" cx="238" cy="35" r="10"></circle>
                <circle id="Oval" fill="#E1E8F6" fill-rule="nonzero" cx="421" cy="202" r="10"></circle>
                <circle id="Oval" fill="#E1E8F6" fill-rule="nonzero" cx="344" cy="411" r="12"></circle>
                <circle id="Oval" fill="#E1E8F6" fill-rule="nonzero" cx="411" cy="56" r="7"></circle>
                <circle id="Oval" fill="#E1E8F6" fill-rule="nonzero" cx="14" cy="206" r="14"></circle>
                <circle id="Oval" fill="#E1E8F6" fill-rule="nonzero" cx="35" cy="247" r="7"></circle>
                <path d="M368.37,227.82 L367.71,233.5 C367.341068,236.695301 366.473891,239.813091 365.14,242.74 C364.254118,243.24203 363.231303,243.448695 362.22,243.33 L348.5,241.75 C346.819026,246.655522 344.279533,251.223224 341,255.24 L344.51,259.67 C341.044302,260.499691 337.459623,260.712944 333.92,260.3 L313.06,257.89 C305.023904,256.964478 297.684622,252.884493 292.656755,246.547618 C287.628888,240.210742 285.324305,232.136076 286.25,224.1 L289.35,197.28 C289.7,194.22 290.67,187.4 293.44,185.49 C294.7,184.62 296.88,184.84 298.33,183.94 C299.790721,183.059423 300.964787,181.774203 301.71,180.24 C302.6,178.35 302.79,176.24 303.55,174.24 C304.960882,170.748329 308.043134,168.208011 311.74,167.49 C313.73837,167.141752 315.794119,167.352865 317.68,168.1 C318.68,168.49 321.68,169.66 322.29,170.38 C323.29,171.5 322.7,173.38 322.53,174.84 L321.25,186 C326.155522,187.680974 330.723224,190.220467 334.74,193.5 L345.56,184.92 C347.649948,183.271263 350.679051,183.619744 352.34,185.7 L358.02,192.87 C358.816598,193.8703 359.182098,195.146627 359.035737,196.416961 C358.889377,197.687294 358.243205,198.847063 357.24,199.64 L346.42,208.23 C348.699919,212.886281 350.132287,217.911419 350.65,223.07 L364.37,224.65 C366.197397,224.860686 367.747401,226.089065 368.37,227.82 Z" id="Path" fill="#F16C51" fill-rule="nonzero"></path>
                <path d="M368.37,227.82 C367.747401,226.089065 366.197397,224.860686 364.37,224.65 L350.65,223.07 C350.132287,217.911419 348.699919,212.886281 346.42,208.23 L357.24,199.64 C358.243205,198.847063 358.889377,197.687294 359.035737,196.416961 C359.182098,195.146627 358.816598,193.8703 358.02,192.87 L352.34,185.7 C350.679051,183.619744 347.649948,183.271263 345.56,184.92 L334.74,193.5 C330.723224,190.220467 326.155522,187.680974 321.25,186 L322.83,172.28 C323.129353,169.63738 321.240406,167.248286 318.6,166.93 L309.5,165.88 C308.22689,165.733747 306.947843,166.099421 305.944433,166.896522 C304.941024,167.693623 304.295511,168.856805 304.15,170.13 L302.57,183.85 C299.312955,184.176328 296.102847,184.867323 293,185.91 C291.199805,186.522741 289.439701,187.247489 287.73,188.08 L279.14,177.26 C278.347063,176.256795 277.187294,175.610623 275.916961,175.464263 C274.646627,175.317902 273.3703,175.683402 272.37,176.48 L265.2,182.16 C263.119744,183.820949 262.771263,186.850052 264.42,188.94 L273,199.76 C269.720467,203.776776 267.180974,208.344478 265.5,213.25 L251.78,211.67 C250.509482,211.520762 249.231751,211.882714 248.228264,212.676125 C247.224776,213.469537 246.577854,214.62932 246.43,215.9 L245.38,225 C245.233747,226.27311 245.599421,227.552157 246.396522,228.555567 C247.193623,229.558976 248.356805,230.204489 249.63,230.35 L263.35,231.93 C263.867713,237.088581 265.300081,242.113719 267.58,246.77 L256.76,255.36 C255.756795,256.152937 255.110623,257.312706 254.964263,258.583039 C254.817902,259.853373 255.183402,261.1297 255.98,262.13 L261.66,269.3 C263.320949,271.380256 266.350052,271.728737 268.44,270.08 L279.26,261.5 C283.276776,264.779533 287.844478,267.319026 292.75,269 L291.17,282.72 C291.020762,283.990518 291.382714,285.268249 292.176125,286.271736 C292.969537,287.275224 294.12932,287.922146 295.4,288.07 L304.5,289.12 C305.77311,289.266253 307.052157,288.900579 308.055567,288.103478 C309.058976,287.306377 309.704489,286.143195 309.85,284.87 L311.43,271.15 C316.588581,270.632287 321.613719,269.199919 326.27,266.92 L334.86,277.74 C335.652937,278.743205 336.812706,279.389377 338.083039,279.535737 C339.353373,279.682098 340.6297,279.316598 341.63,278.52 L348.8,272.84 C350.880256,271.179051 351.228737,268.149948 349.58,266.06 L344.51,259.67 L341,255.24 C344.279533,251.223224 346.819026,246.655522 348.5,241.75 L362.22,243.33 C364.86262,243.629353 367.251714,241.740406 367.57,239.1 L368.62,230 C368.70502,229.263777 368.619479,228.517863 368.37,227.82 L368.37,227.82 Z M286,225.08 C286.095302,224.252325 286.23888,223.430926 286.43,222.62 C288.940261,212.213786 298.835943,205.328842 309.465763,206.592815 C320.095583,207.856787 328.10081,216.870295 328.10081,227.575 C328.10081,238.279705 320.095583,247.293213 309.465763,248.557185 C298.835943,249.821158 288.940261,242.936214 286.43,232.53 L286.43,232.53 C285.843049,230.092252 285.697416,227.56909 286,225.08 L286,225.08 Z" id="Shape" stroke="#2C357E" stroke-width="8" stroke-linecap="round" stroke-linejoin="round"></path>
                <path d="M244.14,175.4 L230.82,171.75 C231.087585,166.572671 230.434117,161.388943 228.89,156.44 L240.89,149.59 C243.201109,148.267742 244.00624,145.324542 242.69,143.01 L238.16,135.06 C236.834115,132.753579 233.895278,131.949642 231.58,133.26 L219.58,140.11 C216.107519,136.254377 211.976411,133.047688 207.38,130.64 L211,117.32 C211.702062,114.74938 210.189587,112.095836 207.62,111.39 L198.82,109 C197.585383,108.66344 196.267606,108.83165 195.15712,109.467552 C194.046635,110.103455 193.234601,111.154851 192.9,112.39 L189.25,125.71 C184.072671,125.442415 178.888943,126.095883 173.94,127.64 L167.09,115.64 C165.767742,113.328891 162.824542,112.52376 160.51,113.84 L152.56,118.37 C150.258236,119.699481 149.455481,122.633997 150.76,124.95 L157.61,136.95 C153.754377,140.422481 150.547688,144.553589 148.14,149.15 L134.82,145.5 C132.24938,144.797938 129.595836,146.310413 128.89,148.88 L126.47,157.71 C126.13344,158.944617 126.30165,160.262394 126.937552,161.37288 C127.573455,162.483365 128.624851,163.295399 129.86,163.63 L143.18,167.28 C142.912415,172.457329 143.565883,177.641057 145.11,182.59 L133.11,189.44 C130.798891,190.762258 129.99376,193.705458 131.31,196.02 L135.84,203.97 C137.169481,206.271764 140.103997,207.074519 142.42,205.77 L154.42,198.92 C157.892481,202.775623 162.023589,205.982312 166.62,208.39 L163,221.68 C162.297938,224.25062 163.810413,226.904164 166.38,227.61 L175.21,230.03 C176.444617,230.36656 177.762394,230.19835 178.87288,229.562448 C179.983365,228.926545 180.795399,227.875149 181.13,226.64 L184.78,213.32 C189.957329,213.587585 195.141057,212.934117 200.09,211.39 L206.94,223.39 C208.262258,225.701109 211.205458,226.50624 213.52,225.19 L221.47,220.66 C223.776421,219.334115 224.580358,216.395278 223.27,214.08 L216.42,202.08 C220.275623,198.607519 223.482312,194.476411 225.89,189.88 L239.21,193.53 C241.78062,194.232062 244.434164,192.719587 245.14,190.15 L247.56,181.32 C247.895533,180.081298 247.723227,178.759932 247.081262,177.648696 C246.439298,176.53746 245.380687,175.728115 244.14,175.4 Z M181.42,189.9 C170.158718,186.809018 163.533617,175.176088 166.620456,163.91367 C169.707294,152.651252 181.337786,146.021871 192.601339,149.104566 C203.864892,152.187261 210.498551,163.815314 207.42,175.08 C205.940177,180.494802 202.368489,185.09922 197.491718,187.878979 C192.614947,190.658739 186.833166,191.385799 181.42,189.9 L181.42,189.9 Z" id="Shape" stroke="#2C357E" stroke-width="8" fill="#F16C51" fill-rule="nonzero" stroke-linecap="round" stroke-linejoin="round"></path>
                <path d="M264.67,145.49 L264.62,145.49 C263.559108,145.476822 262.546911,145.042703 261.806125,144.283162 C261.065338,143.523622 260.656656,142.50089 260.67,141.44 L261.03,113.15 C261.057614,110.940861 262.870861,109.172386 265.08,109.199681 C267.289139,109.227615 269.057614,111.040861 269.03,113.25 L268.67,141.54 C268.642628,143.729588 266.859759,145.49 264.67,145.49 L264.67,145.49 Z" id="Path" fill="#2C357E" fill-rule="nonzero"></path>
                <path d="M277.18,142.700007 C275.644354,142.695207 274.247021,141.811688 273.584228,140.426431 C272.921436,139.041173 273.110209,137.398763 274.07,136.2 L301.22,102.32 C302.113164,101.203545 303.534103,100.648395 304.947564,100.86367 C306.361024,101.078946 307.552267,102.03194 308.072564,103.36367 C308.59286,104.695401 308.363164,106.203545 307.47,107.32 L280.31,141.2 C279.549241,142.150193 278.397216,142.702281 277.18,142.700007 Z" id="Path" fill="#F16C51" fill-rule="nonzero"></path>
                <path d="M284.38,152 C282.170861,152.129787 280.274787,150.444139 280.145,148.235 C280.015213,146.025861 281.700861,144.129787 283.91,144 L304.64,141.49 C306.83257,141.213858 308.833858,142.76743 309.11,144.96 C309.386142,147.15257 307.83257,149.153858 305.64,149.43 L284.87,152 C284.70682,152.010014 284.54318,152.010014 284.38,152 Z" id="Path" fill="#2C357E" fill-rule="nonzero"></path>
                <path d="M194.5,173.5 L179.5,173.5 C177.290861,173.5 175.5,171.709139 175.5,169.5 C175.5,167.290861 177.290861,165.5 179.5,165.5 L194.5,165.5 C196.709139,165.5 198.5,167.290861 198.5,169.5 C198.5,171.709139 196.709139,173.5 194.5,173.5 Z" id="Path" fill="#2C357E" fill-rule="nonzero"></path>
                <path d="M312,238 C310.758498,238 309.587316,237.423768 308.83,236.44 L298.83,223.44 C297.482425,221.689257 297.809258,219.177575 299.56,217.83 C301.310743,216.482426 303.822425,216.809258 305.17,218.56 L315.17,231.56 C316.099769,232.767788 316.26232,234.399012 315.589179,235.766529 C314.916038,237.134046 313.524212,238 312,238 Z" id="Path" fill="#2C357E" fill-rule="nonzero"></path>
                <path d="M302,238 C300.475788,238 299.083962,237.134046 298.410821,235.766529 C297.73768,234.399012 297.900231,232.767788 298.83,231.56 L308.83,218.56 C310.177575,216.809257 312.689257,216.482425 314.44,217.83 C316.190743,219.177575 316.517575,221.689257 315.17,223.44 L305.17,236.44 C304.412684,237.423768 303.241502,238 302,238 Z" id="Path" fill="#2C357E" fill-rule="nonzero"></path>
                <path d="M293.4,327.84 C249.4,283.01 178.77,266.46 119.4,287.05 L293.4,327.84 Z" id="Path" fill="#2C357E" fill-rule="nonzero"></path>
                <path d="M293.41,331.840038 C293.100551,331.841323 292.791938,331.807778 292.49,331.74 L118.49,290.94 C116.759375,290.532045 115.505786,289.030674 115.413184,287.25503 C115.320582,285.479385 116.411199,283.855761 118.09,283.27 C147.95,272.92 180.79,271.45 213.09,279.02 C245.39,286.59 274.14,302.5 296.29,325.02 C297.416567,326.169324 297.744614,327.881883 297.122523,329.366168 C296.500433,330.850453 295.049376,331.817358 293.44,331.82 L293.41,331.840038 Z M135.08,286.62 L279.54,320.48 C239.203984,287.481006 185.87848,274.982033 135.08,286.62 L135.08,286.62 Z" id="Shape" fill="#2C357E" fill-rule="nonzero"></path>
                <path d="M198,333.19 C196.45,347.08 194.14,360.87 193,375.19 C191.69,391.93 200.48,399.92 216.6,401.93 C222.396023,402.820131 228.293977,402.820131 234.09,401.93 C251.19,398.81 257.43,384.58 261.16,369.27 C266.93,345.62 265.54,310.83 244.16,294.32 C238.78,290.16 231.72,288.95 224.93,288.47 C217.02,287.92 197.93,284.58 198.93,295.94 C200.11,308.64 199.32,321 198,333.19 Z" id="Path" fill="#F16C51" fill-rule="nonzero"></path>
                <path d="M225.89,406.540739 C222.609212,406.521886 219.332786,406.298114 216.08,405.87 C202.75,404.2 187.23,397.47 188.99,374.87 C189.69,365.87 190.87,357.01 191.99,348.44 C192.68,343.3 193.39,337.98 193.99,332.76 C195.09,322.89 196.21,309.83 194.99,296.23 C194.576659,293.088029 195.639896,289.931547 197.87,287.68 C203.25,282.34 214.15,283.38 222.1,284.15 C223.26,284.26 224.32,284.36 225.22,284.42 C231.76,284.89 240.11,286.06 246.62,291.1 C257.07,299.18 264.04,312.1 266.77,328.4 C268.904373,342.295808 268.303109,356.47477 265,370.14 C261.42,384.82 254.74,402.14 234.76,405.78 C231.832519,406.301954 228.863603,406.556337 225.89,406.540739 Z M212.06,291.54 C208.38,291.54 204.92,291.95 203.5,293.36 C203.3,293.56 202.82,294.03 202.96,295.52 C204.23,309.83 203.08,323.41 201.96,333.65 L201.96,333.65 C201.37,338.95 200.65,344.31 199.96,349.49 C198.83,357.96 197.67,366.72 196.96,375.49 C195.9,389.15 202.1,396.08 217.07,397.95 C222.468057,398.782944 227.961943,398.782944 233.36,397.95 C245.74,395.69 252.67,387.1 257.26,368.28 C263.07,344.45 260.69,312.11 241.73,297.45 C236.91,293.72 230.08,292.81 224.66,292.45 C223.66,292.39 222.57,292.28 221.34,292.16 C219,291.87 215.43,291.52 212.06,291.52 L212.06,291.54 Z" id="Shape" fill="#2C357E" fill-rule="nonzero"></path>
                <path d="M240.44,383.000532 C239.091804,382.997958 237.835342,382.3169 237.097759,381.188358 C236.360176,380.059816 236.24072,378.635642 236.78,377.4 C245.044765,358.380321 245.759848,336.927832 238.78,317.4 C238.292332,316.056681 238.558361,314.555236 239.477875,313.461244 C240.39739,312.367253 241.830694,311.846918 243.237875,312.096244 C244.645057,312.345571 245.812332,313.326681 246.3,314.67 C254.003861,336.143465 253.231408,359.746198 244.14,380.67 C243.477858,382.111687 242.026262,383.0258 240.44,383.000532 Z" id="Path" fill="#FFFFFF" fill-rule="nonzero"></path>
                <path d="M229.68,395 C226.346756,395.03757 223.081388,394.057262 220.32,392.19 C218.502983,390.930791 218.050791,388.437017 219.31,386.62 C220.569209,384.802983 223.062983,384.350791 224.88,385.61 C227.514321,387.231239 230.769347,387.480767 233.62,386.28 C234.977338,385.709134 236.538562,385.930174 237.684081,386.855397 C238.829601,387.78062 239.374158,389.260396 239.101639,390.707457 C238.82912,392.154519 237.783598,393.334841 236.38,393.78 C234.23658,394.580386 231.967974,394.993476 229.68,395 Z" id="Path" fill="#FFFFFF" fill-rule="nonzero"></path>
            </g>
        </g>
    </g>
</svg>