<?xml version="1.0" encoding="utf-8"?>
<!-- Generator: Adobe Illustrator 22.0.1, SVG Export Plug-In . SVG Version: 6.00 Build 0)  -->
<svg version="1.1" id="Layer_1" xmlns="http://www.w3.org/2000/svg" xmlns:xlink="http://www.w3.org/1999/xlink" x="0px" y="0px"
	 viewBox="0 0 41.7 41.7" style="enable-background:new 0 0 41.7 41.7;" xml:space="preserve">
<style type="text/css">
	.st0{fill:#F06B51;}
	.st1{fill:url(#Path_3_);}
</style>
<title>logo</title>
<desc>Created with Sketch.</desc>
<g>
	<polygon id="Path" class="st0" points="26.7,23.4 23.1,23.4 31.7,34.3 35.3,34.3 	"/>
	<polygon id="Path_1_" class="st0" points="24.6,27.9 21,27.9 26,34.3 29.6,34.3 	"/>
	
		<linearGradient id="Path_3_" gradientUnits="userSpaceOnUse" x1="-1424.4409" y1="109.3395" x2="-1424.0493" y2="110.0183" gradientTransform="matrix(33.7982 0 0 33.7983 48156.6367 -3686.29)">
		<stop  offset="1.000000e-02" style="stop-color:#F89922"/>
		<stop  offset="0.17" style="stop-color:#F79326"/>
		<stop  offset="0.4" style="stop-color:#F58233"/>
		<stop  offset="0.67" style="stop-color:#F26548"/>
		<stop  offset="0.96" style="stop-color:#EE3E64"/>
		<stop  offset="1" style="stop-color:#ED3769"/>
	</linearGradient>
	<path id="Path_2_" class="st1" d="M21,30.4h-1.1c-3.8,0-7.3-2.3-8.8-5.9s-0.7-7.6,2.1-10.3s6.8-3.5,10.3-2.1s5.9,4.9,5.9,8.8
		c0,0.6-0.1,1.3-0.2,1.9L29,23.7l2.8,3.3c0.4-0.5,0.7-1,0.9-1.5l0,0l0,0c0.1-0.3,0.2-0.7,0.3-1l0,0c1.5-5.6-0.8-11.5-5.6-14.6
		s-11.1-3-15.7,0.6s-6.4,9.6-4.5,15s7,9.1,12.7,9.1c0.7,0,1.3,0,1.9-0.1c0.1,0,0.2,0,0.3-0.1l0,0l0.6-0.1l0.4-0.1l0.2-0.1l0,0h0.1
		L21,30.4z"/>
</g>
</svg>
