<?xml version="1.0" encoding="UTF-8"?>
<svg width="79px" height="35px" viewBox="0 0 79 35" version="1.1" xmlns="http://www.w3.org/2000/svg" xmlns:xlink="http://www.w3.org/1999/xlink">
    <!-- Generator: Sketch 56.2 (81672) - https://sketch.com -->
    <title>logo</title>
    <desc>Created with Sketch.</desc>
    <defs>
        <linearGradient x1="25.0513547%" y1="6.70219392%" x2="74.2114354%" y2="91.8663164%" id="linearGradient-1">
            <stop stop-color="#F89922" offset="1%"></stop>
            <stop stop-color="#F79326" offset="17%"></stop>
            <stop stop-color="#F58233" offset="40%"></stop>
            <stop stop-color="#F26548" offset="67%"></stop>
            <stop stop-color="#EE3E64" offset="96%"></stop>
            <stop stop-color="#ED3769" offset="100%"></stop>
        </linearGradient>
    </defs>
    <g id="Administration" stroke="none" stroke-width="1" fill="none" fill-rule="evenodd">
        <g id="01-Late-fees---one-time-Copy-2" transform="translate(-24.000000, -29.000000)" fill-rule="nonzero">
            <g id="logo" transform="translate(24.000000, 29.000000)">
                <polygon id="Path" fill="#F06B51" points="25.7068001 20.3952001 21.1540001 20.3952001 31.9760001 34.0732001 36.4896002 34.0732001"></polygon>
                <polygon id="Path" fill="#F06B51" points="23.1028001 26.0484001 18.5248001 26.0484001 24.8444001 34.0732001 29.3832001 34.0732001"></polygon>
                <path d="M18.5472001,29.0920001 L17.1780001,29.0920001 C12.3581044,29.0920001 8.01280664,26.188565 6.16831241,21.735562 C4.32381818,17.282559 5.34336901,12.1569309 8.75154995,8.74874995 C12.1597309,5.34056901 17.285359,4.32101818 21.738362,6.16551241 C26.191365,8.01000664 29.0948001,12.3553044 29.0948001,17.1752001 C29.0941347,17.9776428 29.0115736,18.7779226 28.8484001,19.5636001 L28.5320001,20.6836001 L31.9900001,24.7828001 C32.44244,24.1874484 32.8125719,23.5338313 33.0904001,22.8396001 L33.0904001,22.8396001 C33.0981892,22.8204413 33.1047361,22.8008006 33.1100001,22.7808001 C33.2821567,22.3562708 33.4179773,21.9178981 33.5160001,21.4704001 L33.5160001,21.4704001 C35.3555023,14.4760701 32.5399947,7.08652313 26.5126717,3.08954948 C20.4853487,-0.907424178 12.5826241,-0.625591887 6.85533644,3.79058261 C1.1280488,8.20675711 -1.15391367,15.7780934 1.17915471,22.6236185 C3.51222309,29.4691435 9.94302056,34.0710268 17.1752001,34.0704001 C17.9929469,34.0854789 18.8103261,34.0245504 19.6168001,33.8884001 C19.7260001,33.8716001 19.8632001,33.8464001 20.0144001,33.8156001 L20.0144001,33.8156001 L20.7788001,33.6476001 L21.2548001,33.5328001 L21.5544001,33.4600001 L21.5544001,33.4600001 L21.7140001,33.4180001 L18.5472001,29.0920001 Z" id="Path" fill="url(#linearGradient-1)"></path>
                <rect id="Rectangle" fill="#FFFFFF" x="52.5616002" y="8.30200004" width="4.79920002" height="4.79920002"></rect>
                <polygon id="Path" fill="#FFFFFF" points="71.7976003 24.2536001 78.6268003 15.4308001 73.1248003 15.4308001 69.3224003 20.8208001 65.4836003 15.4308001 49.9408002 15.4308001 49.9408002 19.0708001 52.5616002 19.0708001 52.5616002 34.0760001 57.3608002 34.0760001 57.3608002 19.0848001 62.8992003 19.0848001 66.8500003 24.2536001 59.5392003 34.0760001 64.8928003 34.0760001 69.3224003 27.7200001 73.7548003 34.0704001 79.0748003 34.0704001"></polygon>
                <path d="M47.8380002,15.4308001 L44.5200002,15.4308001 L44.5200002,12.5524001 C44.4941763,11.687862 44.686781,10.8307712 45.0800002,10.0604 C45.4533335,9.35853337 46.4566669,9.00760004 48.0900002,9.00760004 L48.7200002,9.00760004 L48.7200002,4.68720002 L48.1320002,4.68720002 C45.1042669,4.68720002 42.9445335,5.40680002 41.6528002,6.84600003 C40.3610668,8.28520004 39.7152002,10.1742667 39.7152002,12.5132001 L39.7152002,15.4308001 L36.8340002,15.4308001 L36.8340002,19.1128001 L39.7152002,19.1128001 L39.7152002,33.6308001 C39.7108025,33.6745566 39.7108025,33.7186437 39.7152002,33.7624001 L39.7152002,34.0732001 L44.5200002,34.0732001 L44.5200002,19.1128001 L49.0000002,19.1128001 L49.0000002,15.4308001 L47.8576002,15.4308001 L47.8380002,15.4308001 Z" id="Path" fill="#FFFFFF"></path>
            </g>
        </g>
    </g>
</svg>