<!-- Generated by IcoMoon.io -->
<svg version="1.1" xmlns="http://www.w3.org/2000/svg" width="32" height="32" viewBox="0 0 32 32">
<title>logout</title>
<path d="M25.664 3.232c-0.167-0.131-0.379-0.21-0.61-0.21-0.326 0-0.615 0.157-0.796 0.399l-0.002 0.003c-0.131 0.167-0.21 0.379-0.21 0.61 0 0.326 0.157 0.615 0.399 0.796l0.003 0.002c3.416 2.584 5.6 6.641 5.6 11.208 0 7.741-6.275 14.016-14.016 14.016s-14.016-6.275-14.016-14.016c0-0.014 0-0.028 0-0.042v0.002c-0-0.017-0-0.036-0-0.056 0-4.548 2.186-8.585 5.564-11.118l0.036-0.026c0.242-0.185 0.397-0.475 0.397-0.8 0-0.555-0.45-1.005-1.005-1.005-0.23 0-0.441 0.077-0.61 0.207l0.002-0.002c-3.904 2.95-6.4 7.583-6.4 12.8 0 8.837 7.163 16 16 16s16-7.163 16-16v0c0-0.019 0-0.041 0-0.064 0-5.174-2.471-9.771-6.297-12.675l-0.039-0.029zM16 12.992c0.548 0 0.992-0.444 0.992-0.992v0-11.008c0-0.548-0.444-0.992-0.992-0.992s-0.992 0.444-0.992 0.992v0 11.008c0 0.548 0.444 0.992 0.992 0.992v0z"></path>
</svg>
