<?xml version="1.0" encoding="UTF-8"?>
<svg width="13px" height="13px" viewBox="0 0 13 13" version="1.1" xmlns="http://www.w3.org/2000/svg" xmlns:xlink="http://www.w3.org/1999/xlink">
    <!-- Generator: Sketch 56.3 (81716) - https://sketch.com -->
    <title>user (9) copy</title>
    <desc>Created with Sketch.</desc>
    <g id="UI-screen" stroke="none" stroke-width="1" fill="none" fill-rule="evenodd">
        <g id="16.-SP-fee-payments-with-filter-1-Copy-4" transform="translate(-38.000000, -110.000000)" fill="#F79923" fill-rule="nonzero">
            <g id="user-(9)-copy" transform="translate(38.000000, 110.000000)">
                <path d="M10.4787491,7.93615024 C9.81017796,7.26760308 9.01440494,6.77267868 8.14617121,6.4730769 C9.07607567,5.83260766 9.68700434,4.76073104 9.68700434,3.54870456 C9.68700434,1.59195366 8.09505068,0 6.13829978,0 C4.18154888,0 2.58959522,1.59195366 2.58959522,3.54870456 C2.58959522,4.76073104 3.20052389,5.83260766 4.13045233,6.4730769 C3.2622186,6.77267868 2.46644558,7.26760308 1.79787444,7.93615024 C0.638503066,9.09554559 0,10.6370021 0,12.2765996 L0.959109341,12.2765996 C0.959109341,9.42077957 3.28247979,7.09740912 6.13829978,7.09740912 C8.99411978,7.09740912 11.3174902,9.42077957 11.3174902,12.2765996 L12.2765996,12.2765996 C12.2765996,10.6370021 11.6380965,9.09554559 10.4787491,7.93615024 Z M6.13829978,6.13829978 C4.7131852,6.13829978 3.55375251,4.97889102 3.55375251,3.55375251 C3.55375251,2.12861399 4.7131852,0.969205229 6.13829978,0.969205229 C7.56341437,0.969205229 8.72284706,2.12861399 8.72284706,3.55375251 C8.72284706,4.97889102 7.56341437,6.13829978 6.13829978,6.13829978 Z" id="Shape"></path>
            </g>
        </g>
    </g>
</svg>