<?xml version="1.0" encoding="UTF-8"?>
<svg width="77px" height="82px" viewBox="0 0 77 82" version="1.1" xmlns="http://www.w3.org/2000/svg" xmlns:xlink="http://www.w3.org/1999/xlink">
    <!-- Generator: Sketch 56.3 (81716) - https://sketch.com -->
    <title>Group 6</title>
    <desc>Created with Sketch.</desc>
    <g id="UI-screen" stroke="none" stroke-width="1" fill="none" fill-rule="evenodd">
        <g id="08.SP-Assignments-1.7" transform="translate(-141.000000, -263.000000)">
            <g id="Group-6" transform="translate(142.000000, 263.000000)">
                <polygon id="Path-7" fill="#F16C51" points="15.8327085 6.84857318 15.8327085 4.98800115e-16 70.55271 4.98800115e-16 70.55271 35.9423362 60.2165994 45.6000012"></polygon>
                <polygon id="Path-8" fill="#FFFFFF" points="12.0063833 41.517227 12.0063833 8.67016355 63.2336187 8.67016355 63.2336187 41.517227 37.6198409 61.531868"></polygon>
                <g id="grades" transform="translate(0.000000, 6.268887)" fill-rule="nonzero">
                    <path d="M52.9481504,19.8300628 L54.9492143,19.8300628 L54.9492143,21.8311267 C54.9492143,22.4943593 55.48662,23.0317651 56.1498526,23.0317651 C56.8130852,23.0317651 57.3504909,22.4943593 57.3504909,21.8311267 L57.3504909,19.8300628 L59.3515548,19.8300628 C60.0147874,19.8300628 60.5521931,19.2926571 60.5521931,18.6294245 C60.5521931,17.9661919 60.0147874,17.4287862 59.3515548,17.4287862 L57.3504909,17.4287862 L57.3504909,15.4277223 C57.3504909,14.7644897 56.8130852,14.227084 56.1498526,14.227084 C55.48662,14.227084 54.9492143,14.7644897 54.9492143,15.4277223 L54.9492143,17.4287862 L52.9481504,17.4287862 C52.2849178,17.4287862 51.747512,17.9661919 51.747512,18.6294245 C51.747512,19.2926571 52.2849178,19.8300628 52.9481504,19.8300628 Z" id="Path" fill="#F16C51"></path>
                    <path d="M42.243259,28.9044873 C42.8557447,29.1588626 43.5581981,28.8675077 43.811933,28.2547019 L45.525324,24.1181026 L50.1255297,24.1181026 L51.8389206,28.2547019 C52.0303824,28.7171878 52.4773401,28.9962161 52.9486306,28.9962161 C53.101672,28.9962161 53.2574348,28.9666004 53.4075946,28.9044873 C54.0202404,28.6507524 54.3112751,27.9484591 54.0573801,27.3358133 L52.0380665,22.4605814 C52.0356652,22.4544981 52.033264,22.448575 52.0307026,22.4426518 L48.9348166,14.968278 C48.7491179,14.5195595 48.3111251,14.227084 47.8255869,14.227084 C47.3400488,14.227084 46.9020559,14.5195595 46.7163572,14.968278 L43.6193506,22.4450531 C43.6175897,22.4490552 43.6159888,22.4530574 43.614388,22.4572196 L41.5936336,27.3358133 C41.3395786,27.9484591 41.6306133,28.6507524 42.243259,28.9044873 Z M47.8254268,18.5652304 L49.1309209,21.716986 L46.5199328,21.716986 L47.8254268,18.5652304 Z" id="Shape" fill="#F16C51"></path>
                    <path d="M18.8100005,12.0063833 L29.6157455,12.0063833 C30.2789781,12.0063833 30.8163838,11.4689776 30.8163838,10.805745 C30.8163838,10.1425124 30.2789781,9.60510664 29.6157455,9.60510664 L18.8100005,9.60510664 C18.1467679,9.60510664 17.6093622,10.1425124 17.6093622,10.805745 C17.6093622,11.4689776 18.1467679,12.0063833 18.8100005,12.0063833 Z" id="Path" fill="#F16C51"></path>
                    <path d="M18.8100005,19.2102133 L29.6157455,19.2102133 C30.2789781,19.2102133 30.8163838,18.6728076 30.8163838,18.009575 C30.8163838,17.3463423 30.2789781,16.8089366 29.6157455,16.8089366 L18.8100005,16.8089366 C18.1467679,16.8089366 17.6093622,17.3463423 17.6093622,18.009575 C17.6093622,18.6728076 18.1467679,19.2102133 18.8100005,19.2102133 Z" id="Path" fill="#F16C51"></path>
                    <path d="M18.8100005,26.4140433 L29.6157455,26.4140433 C30.2789781,26.4140433 30.8163838,25.8766376 30.8163838,25.2134049 C30.8163838,24.5501723 30.2789781,24.0127666 29.6157455,24.0127666 L18.8100005,24.0127666 C18.1467679,24.0127666 17.6093622,24.5501723 17.6093622,25.2134049 C17.6093622,25.8766376 18.1467679,26.4140433 18.8100005,26.4140433 Z" id="Path" fill="#F16C51"></path>
                    <path d="M18.8100005,33.6178733 L29.6157455,33.6178733 C30.2789781,33.6178733 30.8163838,33.0804675 30.8163838,32.4172349 C30.8163838,31.7540023 30.2789781,31.2165966 29.6157455,31.2165966 L18.8100005,31.2165966 C18.1467679,31.2165966 17.6093622,31.7540023 17.6093622,32.4172349 C17.6093622,33.0804675 18.1467679,33.6178733 18.8100005,33.6178733 Z" id="Path" fill="#F16C51"></path>
                    <path d="M75.0735135,74.6470468 C75.0842392,74.628637 75.0949649,74.6103873 75.1047301,74.5913372 C75.1135348,74.5745282 75.121379,74.5573991 75.1293832,74.54027 C75.1377077,74.5220203 75.1460321,74.5037706 75.153396,74.4852007 C75.1607599,74.466791 75.1673234,74.4482211 75.1737268,74.429331 C75.1799701,74.4112414 75.1860534,74.3931518 75.1913362,74.374742 C75.1970992,74.3547314 75.2020619,74.3347207 75.2067043,74.3147101 C75.2108666,74.2969407 75.2150288,74.2790111 75.2183906,74.2610816 C75.2223927,74.2394701 75.2254343,74.2176985 75.2283158,74.196087 C75.230557,74.1789579 75.2329583,74.1619889 75.2343991,74.1446997 C75.2364802,74.1213273 75.2372806,74.0979549 75.2379209,74.0747425 C75.2382411,74.0628962 75.2396819,74.0513701 75.2396819,74.0393637 L75.2396819,28.328341 C75.2396819,28.3164947 75.2382411,28.3049686 75.2379209,28.2929622 C75.2372806,28.2695898 75.2364802,28.2463774 75.2343991,28.223005 C75.2329583,28.2057158 75.230557,28.1887468 75.2283158,28.1716177 C75.2254343,28.1498461 75.2223927,28.1282346 75.2183906,28.1066231 C75.2150288,28.0885335 75.2108666,28.0707641 75.2067043,28.0529946 C75.2019018,28.032984 75.1970992,28.0129734 75.1913362,27.9929627 C75.1860534,27.9745529 75.1799701,27.9564633 75.1737268,27.9383737 C75.1673234,27.9196437 75.1607599,27.9010739 75.153396,27.882504 C75.145872,27.863774 75.1377077,27.8456844 75.1293832,27.8272746 C75.1215391,27.8101455 75.1135348,27.7931765 75.1047301,27.7762075 C75.0949649,27.7573174 75.0842392,27.7389076 75.0735135,27.7204979 C75.0643887,27.7051297 75.0554239,27.6897615 75.0456587,27.6745534 C75.0333322,27.6555033 75.0200451,27.6372536 75.006598,27.6190039 C74.9993941,27.6089185 74.9931508,27.5986731 74.9854667,27.5889079 C74.982265,27.5849058 74.9787431,27.581544 74.9755414,27.5775419 C74.9617741,27.5605728 74.9472064,27.5442442 74.9324785,27.5279155 C74.920152,27.5141482 74.9081456,27.5000607 74.8953388,27.4870938 C74.8822118,27.4736466 74.8682844,27.46116 74.8545171,27.4485133 C74.8391489,27.4342657 74.8241009,27.4196979 74.8080924,27.4064109 C74.7956058,27.3960053 74.7824788,27.3865603 74.7695119,27.3767951 C74.7514223,27.3628677 74.7336528,27.3486201 74.7149229,27.3359734 C74.7013156,27.3266885 74.686908,27.3185241 74.6729806,27.3098796 C74.6544107,27.2981933 74.6360009,27.286187 74.6167907,27.2757814 C74.5988612,27.2658561 74.5801312,27.2575317 74.5615613,27.248567 C74.5457129,27.2408829 74.5300246,27.2325584 74.513856,27.2255147 C74.4917642,27.2159096 74.4688721,27.2080654 74.44614,27.1999011 C74.4326928,27.1950985 74.4194058,27.1894955 74.4057985,27.1851732 C74.3829064,27.1779694 74.3593739,27.1722064 74.3358413,27.1662832 C74.3214337,27.1626012 74.3071861,27.158279 74.2926184,27.1552373 C74.2718073,27.150755 74.250516,27.1477133 74.2293847,27.1443515 C74.211135,27.1413099 74.1930454,27.1381082 74.1746356,27.1360271 C74.1567061,27.133946 74.1386165,27.1331456 74.1205269,27.132025 C74.098275,27.1305842 74.0758631,27.1289834 74.0536113,27.1286632 C74.0488087,27.1286632 74.0440062,27.1280229 74.0392036,27.1280229 L65.6348954,27.1280229 L65.6348954,1.20063833 C65.6348954,0.537405717 65.0974897,0 64.4342571,0 L10.805745,0 C10.1425124,0 9.60510664,0.537405717 9.60510664,1.20063833 L9.60510664,27.1277027 L1.20063833,27.1277027 C1.19599586,27.1277027 1.19167356,27.128343 1.1870311,27.128343 C1.16365867,27.1285031 1.14028624,27.1302641 1.11691382,27.1318649 C1.09978471,27.1329855 1.0826556,27.1337859 1.06568658,27.135707 C1.0461562,27.1379481 1.0267859,27.14147 1.0074156,27.1445116 C0.987404963,27.1478734 0.967394324,27.1505949 0.947703856,27.1547571 C0.931695344,27.1581189 0.916007004,27.1629214 0.899998493,27.1670836 C0.878066832,27.1726866 0.855975087,27.1779694 0.834523682,27.1848531 C0.819155512,27.1896556 0.804267596,27.195899 0.789219596,27.2015019 C0.768248446,27.209186 0.746957127,27.2163898 0.726466233,27.2251945 C0.708376615,27.2328786 0.690927338,27.2421635 0.673157891,27.2508081 C0.656509039,27.2589725 0.639540017,27.2664965 0.623371421,27.2753012 C0.602880527,27.2865071 0.583029973,27.299474 0.563019334,27.3119607 C0.550372611,27.3199649 0.537405717,27.3271687 0.525079163,27.3354932 C0.505388695,27.3487802 0.486818822,27.3636681 0.467928779,27.3782359 C0.455922395,27.3875208 0.443435757,27.3963255 0.431909629,27.4059306 C0.415580947,27.4195379 0.400212777,27.4344258 0.384364351,27.4491536 C0.370917202,27.4616402 0.357149882,27.4738067 0.344343073,27.4869337 C0.331536264,27.5000607 0.319369796,27.5141482 0.307043242,27.5279155 C0.292475497,27.5442442 0.277907752,27.5604127 0.264140433,27.5773818 C0.26093873,27.5813839 0.257416858,27.5847457 0.254215156,27.5887478 C0.246531071,27.598513 0.240287751,27.6089185 0.233083921,27.6188438 C0.219636772,27.6370935 0.206349708,27.6553432 0.194023154,27.6743933 C0.184097877,27.6894413 0.175293196,27.7048095 0.166168345,27.7203378 C0.155442643,27.7387476 0.14471694,27.7569973 0.134951748,27.7760474 C0.126147067,27.7930164 0.118142812,27.8099854 0.110298641,27.8272746 C0.101974216,27.8453642 0.0938098749,27.8636139 0.0862858747,27.8821838 C0.0789219596,27.9007537 0.0721983849,27.9193236 0.0657949805,27.9380535 C0.0595516612,27.9561431 0.053468427,27.9742328 0.0481856183,27.9926425 C0.0424225543,28.0126532 0.0374599159,28.0326638 0.0328174477,28.0526745 C0.0286552348,28.0704439 0.0244930219,28.0883734 0.0211312346,28.106303 C0.0171291068,28.1279145 0.0140874897,28.149686 0.0112059578,28.1712975 C0.0089647662,28.1884266 0.00656348954,28.2053957 0.00512272354,28.2226849 C0.0030416171,28.2460573 0.00224119155,28.2694297 0.00160085111,28.292642 C0.001440766,28.3049686 0,28.3164947 0,28.328341 L0,74.0393637 C0,74.05121 0.001440766,74.0627361 0.00176093622,74.0747425 C0.00240127666,74.098115 0.00320170221,74.1213273 0.00528280865,74.1446997 C0.00672357465,74.1619889 0.00912485131,74.1789579 0.0113660429,74.196087 C0.0142475749,74.2178586 0.017289192,74.2394701 0.0212913197,74.2610816 C0.0246531071,74.2791712 0.0288153199,74.2969407 0.0329775328,74.3147101 C0.0377800861,74.3347207 0.0425826395,74.3547314 0.0483457034,74.374742 C0.0536285121,74.3931518 0.0597117463,74.4112414 0.0659550656,74.429171 C0.0723584701,74.4479009 0.0790820447,74.4666309 0.0864459598,74.4852007 C0.0938098749,74.5037706 0.101974216,74.5218602 0.110298641,74.5399499 C0.118302897,74.557079 0.126147067,74.5742081 0.134951748,74.5911771 C0.144877025,74.6102272 0.155442643,74.6284769 0.166168345,74.6468867 C0.175293196,74.6622549 0.184257962,74.6776231 0.194023154,74.6928311 C0.206349708,74.7118813 0.219636772,74.730131 0.233083921,74.7483807 C0.240287751,74.758466 0.246531071,74.7687115 0.254215156,74.7784767 C0.257096688,74.7819985 0.26029839,74.7850402 0.263179922,74.788562 C0.285751923,74.8168971 0.309764689,74.8439515 0.334898052,74.8700454 C0.34018086,74.8756483 0.345143499,74.8818917 0.350586393,74.8873345 C0.380042053,74.9167902 0.411098564,74.9444849 0.443595842,74.9707389 C0.456562736,74.9813045 0.47016997,74.9907495 0.48361712,75.0006748 C0.504428184,75.0162031 0.525399333,75.0314111 0.547170908,75.0456587 C0.562058824,75.0552638 0.577106824,75.0640685 0.592154825,75.0730333 C0.61424657,75.0860002 0.636818571,75.0984868 0.659710741,75.1100129 C0.674278486,75.1173769 0.689006317,75.1244206 0.703734147,75.1313043 C0.729027594,75.1428304 0.754961382,75.1532359 0.78121534,75.1630011 C0.794342319,75.1678037 0.807469299,75.1730865 0.820756363,75.1774088 C0.850212023,75.187334 0.880308024,75.1954984 0.910724195,75.2030224 C0.921609983,75.2057438 0.932335685,75.2089455 0.943381558,75.2113468 C0.977319601,75.2187107 1.01205807,75.2243137 1.04711671,75.228636 C1.05512096,75.2295965 1.06280505,75.2315175 1.07080931,75.232318 C1.11371212,75.2372806 1.1569351,75.240002 1.20063833,75.240002 L74.0393637,75.240002 C74.083067,75.240002 74.1262899,75.2372806 74.1688726,75.2327982 C74.1767167,75.2319978 74.1842407,75.2302369 74.1920849,75.2292763 C74.2273036,75.224794 74.2622022,75.219191 74.2964604,75.2118271 C74.3071861,75.2094258 74.3175916,75.2062241 74.3281573,75.2036627 C74.3588936,75.1961387 74.3894699,75.1876542 74.4192457,75.1777289 C74.4322126,75.1734066 74.4448593,75.168444 74.4578262,75.1636414 C74.4844003,75.1537162 74.5106543,75.1431506 74.536428,75.1314643 C74.5509957,75.1249009 74.5652433,75.1178571 74.579651,75.1106533 C74.6030234,75.098807 74.6257555,75.0863203 74.6481674,75.0730333 C74.6630553,75.0642286 74.6779432,75.055584 74.692511,75.046139 C74.7146027,75.0317313 74.7357339,75.0163631 74.7568652,75.0005147 C74.7699922,74.9907495 74.7834393,74.9814646 74.7962461,74.9710591 C74.8285833,74.9448051 74.8597999,74.9171104 74.8892556,74.8874946 C74.8946985,74.8820517 74.8996611,74.8758084 74.9049439,74.8702054 C74.9300773,74.8441116 74.95409,74.8170572 74.976662,74.7887221 C74.9795436,74.7852002 74.9827453,74.7821586 74.9856268,74.7786368 C74.9933109,74.7688716 74.9995542,74.758466 75.006758,74.7485408 C75.0202052,74.7302911 75.0334923,74.7120414 75.0458188,74.6929912 C75.055584,74.6779432 75.0645488,74.6625751 75.0735135,74.6470468 Z M62.0462675,63.1439711 C61.5239098,62.7359141 60.7692685,62.8281232 60.3608914,63.350801 C59.9526744,63.8733188 60.0452036,64.6279601 60.5677214,65.0361771 L70.55271,72.8387254 L4.68729204,72.8387254 L30.4496288,52.7075425 L36.880728,57.7329343 C37.0979635,57.9026245 37.3589022,57.9874696 37.620001,57.9874696 C37.8810998,57.9874696 38.1420386,57.9026245 38.3592741,57.7329343 L44.7903732,52.7075425 L56.7834695,62.079245 C57.0029461,62.2506962 57.2634046,62.3337803 57.5219421,62.3337803 C57.8787718,62.3337803 58.2320796,62.1754562 58.4688455,61.872415 C58.8770625,61.3498972 58.7845333,60.595256 58.2620155,60.187039 L46.74037,51.1838524 L72.8387254,30.7902899 L72.8387254,71.5772547 L62.0462675,63.1439711 Z M2.40127666,30.7902899 L28.499472,51.1836923 L2.40127666,71.5774148 L2.40127666,30.7902899 Z M70.55271,29.5289794 L65.6348954,33.3718224 L65.6348954,29.5289794 L70.55271,29.5289794 Z M12.0063833,2.40127666 L63.2336187,2.40127666 L63.2336187,35.2483401 L37.620001,55.2629811 L12.0063833,35.2483401 L12.0063833,2.40127666 Z M9.60510664,33.3718224 L4.68729204,29.5289794 L9.60510664,29.5289794 L9.60510664,33.3718224 Z" id="Shape" stroke="#2C357E" stroke-width="0.600000024" fill="#2C357E"></path>
                    <path d="M37.620001,51.5257942 C38.2832336,51.5257942 38.8206394,50.9883885 38.8206394,50.3251558 L38.8206394,6.00319165 C38.8206394,5.33995904 38.2832336,4.80255332 37.620001,4.80255332 C36.9567684,4.80255332 36.4193627,5.33995904 36.4193627,6.00319165 L36.4193627,50.3251558 C36.4193627,50.9883885 36.9567684,51.5257942 37.620001,51.5257942 Z" id="Path" fill="#F16C51"></path>
                </g>
                <polygon id="Path-9" fill="#F16C51" points="70.55271 33.0124081 65.9379803 32.8007091 65.9379803 38.9651231 70.55271 35.453834"></polygon>
            </g>
        </g>
    </g>
</svg>