<?xml version="1.0" encoding="UTF-8"?>
<svg width="72px" height="72px" viewBox="0 0 72 72" version="1.1" xmlns="http://www.w3.org/2000/svg" xmlns:xlink="http://www.w3.org/1999/xlink">
    <!-- Generator: Sketch 56.3 (81716) - https://sketch.com -->
    <title>Group 5</title>
    <desc>Created with Sketch.</desc>
    <g id="UI-screen" stroke="none" stroke-width="1" fill="none" fill-rule="evenodd">
        <g id="20.-SP-Library-1.11-(My-books)-Copy" transform="translate(-144.000000, -239.000000)">
            <g id="Group-5" transform="translate(144.000000, 239.000000)">
                <g id="Group-14">
                    <rect id="Rectangle" fill="#F16C51" x="6.07514796" y="26.3414618" width="9.72972915" height="7.02438983"></rect>
                    <rect id="Rectangle-Copy-11" fill="#F16C51" x="1.75609746" y="54.4390211" width="17.5135125" height="7.02438983"></rect>
                    <rect id="Rectangle" fill="#F16C51" x="19.4594583" y="1.75609746" width="15.5675666" height="12.2926822"></rect>
                    <rect id="Rectangle-Copy-10" fill="#F16C51" x="19.5543825" y="57.9512161" width="15.5675666" height="12.2926822"></rect>
                    <polygon id="Path-6" fill="#F16C51" points="40.3902415 28.0015131 58.0515003 22.8292669 66.7317033 51.2874822 48.7316843 56.1951186"></polygon>
                    <path d="M34.8387076,0 L19.7419343,0 C19.1006163,0 18.5806441,0.537304618 18.5806441,1.19999993 L18.5806441,9.59999943 L1.16129025,9.59999943 C0.519972211,9.59999943 0,10.137304 0,10.7999994 L0,70.7999958 C0,71.4626911 0.519972211,72 1.16129025,72 L34.8387076,72 C35.4800256,72 36,71.4626911 36,70.7999958 L36,1.19999993 C36,0.537304618 35.4800256,0 34.8387076,0 Z M33.6774173,62.3999963 L20.9032246,62.3999963 L20.9032246,59.9999964 L33.6774173,59.9999964 L33.6774173,62.3999963 Z M2.32258051,17.9999989 L18.5806441,17.9999989 L18.5806441,53.9999989 L2.32258051,53.9999989 L2.32258051,17.9999989 Z M33.6774173,13.1999992 L20.9032246,13.1999992 L20.9032246,9.59999943 L33.6774173,9.59999943 L33.6774173,13.1999992 Z M2.32258051,56.3999966 L18.5806441,56.3999966 L18.5806441,59.9999964 L2.32258051,59.9999964 L2.32258051,56.3999966 Z M20.9032246,57.5999991 L20.9032246,15.5999991 L33.6774173,15.5999991 L33.6774173,57.5999991 L20.9032246,57.5999991 Z M33.6774173,2.39999986 L33.6774173,7.19999957 L20.9032246,7.19999957 L20.9032246,2.39999986 L33.6774173,2.39999986 Z M18.5806441,11.9999993 L18.5806441,15.5999991 L2.32258051,15.5999991 L2.32258051,11.9999993 L18.5806441,11.9999993 Z M2.32258051,62.3999963 L18.5806441,62.3999963 L18.5806441,69.5999959 L2.32258051,69.5999959 L2.32258051,62.3999963 Z M20.9032246,69.5999959 L20.9032246,64.7999961 L33.6774173,64.7999961 L33.6774173,69.5999959 L20.9032246,69.5999959 Z" id="Shape" fill="#2C357E" fill-rule="nonzero"></path>
                    <path d="M71.9603,65.5955502 L57.0637777,9.48369482 C56.9807363,9.16920921 56.7734361,8.90058606 56.4873376,8.73679159 C56.2018451,8.57359254 55.8618,8.52892125 55.5423637,8.61290332 L36.9217109,13.4921951 C36.2622294,13.6649238 35.8682378,14.3284407 36.0403817,14.977663 L50.9369039,71.0895184 C51.0199454,71.404004 51.2278516,71.6726271 51.5139502,71.835826 C51.7994427,71.9984294 52.1394878,72.0425051 52.458318,71.9579276 L71.0789708,67.0786358 C71.7372401,66.9059069 72.1306256,66.2435811 71.9603,65.5955502 L71.9603,65.5955502 Z M40.7325196,22.9869204 L56.9546722,18.7371954 L57.5383861,20.9326384 L41.3174457,25.1889152 L40.7325196,22.9869204 Z M58.165136,23.2996191 L65.3648792,50.4377016 L49.1487879,54.6892133 L41.9490447,27.5493441 L58.165136,23.2996191 Z M65.9970843,52.7993216 L67.2681621,57.5862928 L51.0460095,61.8360178 L49.7797807,57.0508334 L65.9970843,52.7993216 Z M54.9762278,11.2854352 L56.3279224,16.3779578 L40.1057697,20.6264915 L38.7552875,15.5363515 L54.9762278,11.2854352 Z M53.0244538,69.287778 L51.6727592,64.1952554 L67.894912,59.9443392 L69.2453942,65.0344794 L53.0244538,69.287778 Z" id="Shape" fill="#2C357E" fill-rule="nonzero"></path>
                </g>
                <g id="book-(1)"></g>
            </g>
        </g>
    </g>
</svg>