<?xml version="1.0" encoding="UTF-8"?>
<svg width="81px" height="60px" viewBox="0 0 81 60" version="1.1" xmlns="http://www.w3.org/2000/svg" xmlns:xlink="http://www.w3.org/1999/xlink">
    <!-- Generator: Sketch 56.3 (81716) - https://sketch.com -->
    <title>Group 8</title>
    <desc>Created with Sketch.</desc>
    <g id="UI-screen" stroke="none" stroke-width="1" fill="none" fill-rule="evenodd">
        <g id="20.-SP-facilty-1-Copy-2" transform="translate(-140.000000, -251.000000)">
            <g id="Group-8" transform="translate(140.000000, 251.000000)">
                <g id="Group-15" transform="translate(-0.000000, 0.000000)">
                    <polygon id="Path-11" stroke="#F16C51" stroke-width="1.64799998" fill="#F16C51" stroke-linejoin="round" points="29.3877555 7.71760445 39.1836741 7.71760445 39.1836741 24.1620491 29.3877555 24.1620491"></polygon>
                    <polygon id="Path-12" fill="#F16C51" points="56.3126746 30.2727277 65.472652 21.4641324 69.9753135 25.8684301 61.528716 35.5531992"></polygon>
                    <path d="M54.031555,54.3045312 C55.2167281,49.3676791 57.9922001,46.8992531 62.357971,46.8992531 C68.9066274,46.8992531 70.3580859,54.3045312 70.3580859,54.3045312 C70.3580859,54.3045312 64.9159089,54.3045312 54.031555,54.3045312 Z" id="Path-13" fill="#F16C51"></path>
                    <path d="M43.8775517,0 L5.10204089,0 C2.28571432,0.0032795455 0.00331632658,2.26036367 -7.10542736e-14,5.04545462 L-7.10542736e-14,32.2909096 C0.00331632658,35.0760005 2.28571432,37.3330846 5.10204089,37.3363642 L19.0551023,37.3363642 L17.5979594,42.3818188 L15.2948054,42.3818188 C14.7374999,42.3818188 14.2857145,42.8336042 14.2857145,43.3909097 C14.2857145,43.9482153 14.7374999,44.4000007 15.2948054,44.4000007 L33.6847871,44.4000007 C34.2420927,44.4000007 34.6938781,43.9482153 34.6938781,43.3909097 C34.6938781,42.8336042 34.2420927,42.3818188 33.6847871,42.3818188 L31.3816331,42.3818188 L29.9244902,37.3363642 L43.8775517,37.3363642 C46.6938782,37.3330846 48.9762762,35.0760005 48.9795926,32.2909096 L48.9795926,5.04545462 C48.9762762,2.26036367 46.6938782,0.0032795455 43.8775517,0 Z M19.7204085,42.3818188 L21.1775513,37.3363642 L27.8020412,37.3363642 L29.2591841,42.3818188 L19.7204085,42.3818188 Z M46.9387762,32.2909096 C46.9387762,33.9628471 45.5682405,35.3181823 43.8775517,35.3181823 L5.10204089,35.3181823 C3.41135209,35.3181823 2.04081636,33.9628471 2.04081636,32.2909096 L2.04081636,30.2727277 L46.9387762,30.2727277 L46.9387762,32.2909096 Z M46.9387762,28.2545459 L2.04081636,28.2545459 L2.04081636,5.04545462 C2.04081636,3.3735171 3.41135209,2.01818185 5.10204089,2.01818185 L43.8775517,2.01818185 C45.5682405,2.01818185 46.9387762,3.3735171 46.9387762,5.04545462 L46.9387762,28.2545459 Z" id="Shape" fill="#2C357E" fill-rule="nonzero"></path>
                    <path d="M78.577781,54.7144847 C78.4830605,54.4671229 78.2518754,54.3045312 77.9945373,54.3045312 L73.534961,54.3045312 C73.444767,52.8156706 73.0575025,51.4223499 72.4268147,50.1652173 C75.8117741,47.4105385 78.0102961,43.3554734 78.4612664,38.9352718 C78.497981,38.5782996 78.2478518,38.2581538 77.9031697,38.2206327 C77.5579847,38.1824166 77.2493466,38.4415906 77.2133026,38.7990839 C76.8045793,42.8004729 74.8514924,46.4902277 71.8226152,49.0256856 C71.6804505,48.8115023 71.4925183,48.6367509 71.336439,48.4343799 C71.0846333,48.1109336 70.8437247,47.7794966 70.5583896,47.4888813 C70.5241896,47.4548343 70.500719,47.4107122 70.4661837,47.3770126 C76.6453147,42.2545052 76.8622498,32.4986551 70.6366807,27.1595324 L71.2517773,26.5220201 C71.4972125,26.2680574 71.4972125,25.8561931 71.2517773,25.6025779 L70.9387805,25.2779155 L71.2821214,24.9223331 C72.6315116,25.8223199 74.5103309,27.8873736 75.673633,30.2277561 C76.5676942,32.0254716 77.1152291,34.0556097 77.2568908,36.0987761 C77.2818701,36.4607858 77.5868199,36.7272556 77.9279814,36.7005044 C78.2738371,36.6749691 78.5335222,36.3635087 78.5087104,36.0053206 C78.175093,31.2022642 75.8711211,26.8633584 72.1838943,23.9877781 L73.5455228,22.5769129 C74.2218105,22.9250259 74.8964218,22.7455844 75.3344833,22.2916826 L75.886377,21.7198322 C76.4940972,21.0904842 76.4940972,20.0661217 75.886377,19.4364262 L71.8667063,15.2722718 C71.2591538,14.6425764 70.2707074,14.6425764 69.6629873,15.2722718 L69.1110935,15.8441222 C68.5387469,16.4373387 68.5261733,17.3701566 69.0322995,18.004021 L66.4751807,20.6532584 L65.9162458,20.074286 C65.6709783,19.8201496 65.2738227,19.8201496 65.0285552,20.074286 L61.0293374,24.2179427 C60.7844053,24.4719054 60.7844053,24.8835959 61.0293374,25.137906 C61.2746049,25.3915213 61.6717605,25.3915213 61.917028,25.137906 L65.472652,21.4537099 C66.8844069,22.9163405 68.0961589,24.1720835 69.9203253,26.0622121 L61.3599372,34.9323195 L56.9117609,30.3234699 L60.1044293,27.0160487 C60.3491938,26.7619123 60.3491938,26.3505692 60.1044293,26.0964328 C59.8588265,25.8428176 59.4613356,25.8428176 59.2165711,26.0964328 L56.0244056,29.4040276 L55.8862646,29.2610651 C55.3627032,28.7185715 54.5103861,28.7185715 53.9869924,29.2610651 L52.936349,30.3493525 C52.4127876,30.891846 52.4127876,31.7751567 52.936349,32.3176502 L53.0746577,32.4606128 C52.4991258,33.1603131 51.7276146,33.5261444 51.7276146,34.5388684 C51.7276146,34.9783524 51.8927468,35.3926486 52.1933377,35.7035879 C52.6652639,36.1072878 53.0148078,36.8538895 53.962013,36.8538895 C54.9407358,36.8538895 55.2896091,36.0567385 55.9675733,35.4583106 L56.4042936,35.9108228 C55.8289293,36.6108705 55.0574181,36.9768756 55.0574181,37.9889047 C55.0574181,38.9649761 55.7761205,39.33046 56.1675762,39.8220567 C56.4681671,40.132996 56.8673345,40.3044469 57.2919842,40.3044469 C58.2708747,40.3044469 58.6195803,39.5071222 59.2978798,38.9086944 C59.3843857,38.9726193 59.6853119,39.4586573 60.3854055,39.4586573 C60.7292494,39.4586573 61.0735962,39.3233379 61.3354607,39.0518307 L62.3854335,37.9635432 C62.9091626,37.4210497 62.9091626,36.5380864 62.3854335,35.9954192 L62.2476278,35.8521092 L69.7263578,28.1031202 C72.3931177,30.3455309 73.9492166,33.6058769 73.9492166,37.1868898 C73.9492166,40.8592737 72.2640295,44.3127842 69.4406874,46.533655 C65.534346,43.5635769 60.3570732,43.8555819 56.7684228,47.2022613 C55.9087293,46.6641105 55.1502945,46.0008892 54.4621038,45.2549823 L57.3035518,45.2549823 C58.15721,45.2549823 58.851436,44.535653 58.851436,43.6513 L58.851436,42.668454 C58.851436,41.7842747 58.15721,41.0647716 57.3035518,41.0647716 L47.2626736,41.0647716 C46.4090153,41.0647716 45.7142864,41.7842747 45.7142864,42.668454 L45.7142864,43.6513 C45.7142864,44.535653 46.4090153,45.2549823 47.2626736,45.2549823 L48.7133226,45.2549823 C49.7523983,47.2951957 51.6783263,49.5244044 54.1164158,51.1202698 C53.7358572,52.1152755 53.5231133,53.1884503 53.4553839,54.304705 L48.99564,54.304705 C48.7384696,54.304705 48.5074521,54.4672967 48.4125639,54.7150058 L47.0353443,58.3097418 C46.8718886,58.7358502 47.1753295,59.2000009 47.6184204,59.2000009 L51.0831797,59.2000009 C51.4302089,59.2000009 51.7108499,58.9090381 51.7108499,58.549634 C51.7108499,58.1904036 51.4302089,57.8992672 51.0831797,57.8992672 L48.542658,57.8992672 L49.4219662,55.6052649 L77.5685464,55.6052649 L78.447687,57.8992672 L54.0191806,57.8992672 C53.6726544,57.8992672 53.3920134,58.1904036 53.3920134,58.549634 C53.3920134,58.9090381 53.6726544,59.2000009 54.0191806,59.2000009 L79.3717569,59.2000009 C79.8145125,59.2000009 80.1189593,58.7367187 79.9550006,58.3097418 L78.577781,54.7144847 Z M54.1987305,35.4517097 C54.0681335,35.5870291 53.8555572,35.5870291 53.7256308,35.4517097 L53.0808607,34.7837982 C52.9502637,34.6486526 52.9502637,34.4282157 53.080693,34.29307 L53.962013,33.3804025 L55.0802181,34.5383473 L54.1987305,35.4517097 Z M57.5287016,38.9020934 C57.3982723,39.0375865 57.1858636,39.0375865 57.0554344,38.9020934 L56.4104966,38.2341819 C56.2800672,38.0986888 56.2800672,37.8789469 56.4104966,37.7436275 L57.2919842,36.8306125 L58.4100216,37.9889047 L57.5287016,38.9020934 Z M61.497743,37.0435798 L60.4476025,38.1316936 C60.3265615,38.2576327 60.6476054,38.407891 53.8240395,31.3975132 C53.7896719,31.3620765 53.7896719,31.3040577 53.8240395,31.2687947 C54.8828976,30.1857186 54.90553,30.083925 54.998574,30.1805073 L55.5804765,30.7834515 C61.8321986,37.2610636 61.5951458,36.9433497 61.497743,37.0435798 L61.497743,37.0435798 Z M69.9986164,16.7637381 L70.5505102,16.1918878 C70.6687012,16.0692492 70.8611599,16.0692492 70.979351,16.1918878 L74.9985188,20.3563896 C75.1163746,20.4786808 75.1163746,20.6777514 74.9985188,20.8005637 L74.4466251,21.372414 C74.3286016,21.4947052 74.1363106,21.4947052 74.0181195,21.372414 L69.9986164,17.2077385 C69.8807606,17.0850999 69.8807606,16.886203 69.9986164,16.7637381 Z M69.8997047,18.9443083 L72.5879234,21.730081 L70.0510899,24.3586471 L67.3627036,21.5728743 L69.8997047,18.9443083 Z M46.9691238,43.6509526 L46.9691238,42.6682802 C46.9691238,42.5009984 47.1007266,42.3646368 47.262003,42.3646368 L57.3032165,42.3646368 C57.4646605,42.3646368 57.5960957,42.5009984 57.5960957,42.6682802 L57.5960957,43.6509526 C57.5960957,43.8182345 57.4646605,43.9542486 57.3032165,43.9542486 L47.262003,43.9542486 C47.1007266,43.9542486 46.9691238,43.8182345 46.9691238,43.6509526 Z M54.6225419,49.9440856 C52.823355,48.7347229 51.298606,47.1315617 50.1631333,45.2548086 L52.7202521,45.2548086 C53.5923515,46.4005938 54.6280743,47.3740596 55.8093146,48.1585298 C55.6849206,48.3098305 55.6000912,48.4899668 55.4842472,48.6476946 C55.2736827,48.9344883 55.0763622,49.2261459 54.8946329,49.5346532 C54.8113124,49.6763998 54.6989889,49.79817 54.6225419,49.9440856 Z M54.6688125,54.3045312 C54.984324,49.6611134 58.8207566,45.7861848 63.494921,45.7861848 C68.2654824,45.7861848 72.0137327,49.7686394 72.3215324,54.3045312 L54.6688125,54.3045312 Z" id="Shape" stroke="#2C357E" stroke-width="0.5" fill="#2C357E" fill-rule="nonzero"></path>
                    <path d="M8.16326543,8.22222234 L24.4897963,8.22222234" id="Path-10" stroke="#F16C51" stroke-width="1.64799998" stroke-linecap="round" stroke-linejoin="round"></path>
                    <path d="M8.16326543,13.1555558 L24.4897963,13.1555558" id="Path-10-Copy" stroke="#F16C51" stroke-width="1.64799998" stroke-linecap="round" stroke-linejoin="round"></path>
                    <path d="M8.16326543,18.0888892 L24.4897963,18.0888892" id="Path-10-Copy-2" stroke="#F16C51" stroke-width="1.64799998" stroke-linecap="round" stroke-linejoin="round"></path>
                    <path d="M8.16326543,23.0222226 L24.4897963,23.0222226" id="Path-10-Copy-3" stroke="#F16C51" stroke-width="1.64799998" stroke-linecap="round" stroke-linejoin="round"></path>
                </g>
                <g id="web"></g>
                <g id="microscope" transform="translate(45.714286, 14.800000)"></g>
                <g id="Group-7" transform="translate(8.163265, 7.400000)"></g>
            </g>
        </g>
    </g>
</svg>