<?xml version="1.0" encoding="UTF-8"?>
<svg width="58px" height="69px" viewBox="0 0 58 69" version="1.1" xmlns="http://www.w3.org/2000/svg" xmlns:xlink="http://www.w3.org/1999/xlink">
    <!-- Generator: Sketch 56.3 (81716) - https://sketch.com -->
    <title>diary</title>
    <desc>Created with Sketch.</desc>
    <g id="UI-screen" stroke="none" stroke-width="1" fill="none" fill-rule="evenodd">
        <g id="09.-SP-Forum-1.2-Copy" transform="translate(-151.000000, -231.000000)">
            <g id="diary" transform="translate(151.000000, 231.000000)">
                <g id="Group-16">
                    <rect id="Rectangle" fill="#F16C51" x="16.2000006" y="12.6000005" width="25.200001" height="12.6000005"></rect>
                    <rect id="Rectangle-Copy-9" fill="#F16C51" x="14.4000006" y="59.4000024" width="7.20000029" height="7.20000029"></rect>
                    <rect id="Rectangle-Copy-3" fill="#F16C51" x="52.2000021" y="3.60000014" width="3.60000014" height="7.20000029"></rect>
                    <rect id="Rectangle-Copy-4" fill="#F16C51" x="52.2000021" y="14.4000006" width="3.60000014" height="7.20000029"></rect>
                    <rect id="Rectangle-Copy-6" fill="#F16C51" x="52.2000021" y="27.0000011" width="3.60000014" height="7.20000029"></rect>
                    <rect id="Rectangle-Copy-7" fill="#F16C51" x="52.2000021" y="39.6000016" width="3.60000014" height="7.20000029"></rect>
                    <rect id="Rectangle-Copy-8" fill="#F16C51" x="52.2000021" y="52.2000021" width="3.60000014" height="7.20000029"></rect>
                    <path d="M56.2909113,11.3554692 C57.0139796,11.3554692 57.6000023,10.7574285 57.6000023,10.0195316 L57.6000023,3.33984388 C57.6000023,2.60194706 57.0139796,2.00390633 56.2909113,2.00390633 L52.3636384,2.00390633 L52.3636384,1.40273443 C52.3636384,0.665881374 51.7786384,0.0678405121 51.0565929,0.0667968777 C51.0565929,0.0667968777 6.54750026,-1.42108547e-14 6.54545481,-1.42108547e-14 C2.93625018,-1.42108547e-14 0,2.99646625 0,6.67968777 L0,54.6398459 C0,58.321502 2.9342046,61.3169245 6.54340935,61.3195337 L12.9600005,61.3289269 L12.9600005,67.0640652 C12.9600005,67.5133785 13.1814209,67.9329464 13.5496028,68.1797817 C13.9177846,68.4271389 14.3826143,68.468887 14.7871028,68.290936 L18.1963644,66.7916592 C18.1963644,66.7916592 21.5851713,68.2815426 21.6056259,68.290936 C21.9661372,68.4495786 22.4815918,68.4229641 22.8431259,68.1797817 C23.2113078,67.9329464 23.4327282,67.5133785 23.4327282,67.0635433 L23.4327282,61.3445825 C23.4327282,61.3445825 51.052502,61.3863306 51.0545475,61.3863306 C51.4012521,61.3863306 51.7341498,61.2454308 51.9796043,60.9954645 C52.2255702,60.7449762 52.3636384,60.4047296 52.3636384,60.050393 L52.3636384,59.4492211 L56.2909113,59.4492211 C57.0139796,59.4492211 57.6000023,58.8506584 57.6000023,58.1132836 L57.6000023,51.4335958 C57.6000023,50.695699 57.0139796,50.0976582 56.2909113,50.0976582 L52.3636384,50.0976582 L52.3636384,47.4257831 L56.2909113,47.4257831 C57.0139796,47.4257831 57.6000023,46.8272205 57.6000023,46.0898456 L57.6000023,39.4101578 C57.6000023,38.672261 57.0139796,38.0742203 56.2909113,38.0742203 L52.3636384,38.0742203 L52.3636384,35.4023452 L56.2909113,35.4023452 C57.0139796,35.4023452 57.6000023,34.8043044 57.6000023,34.0664076 L57.6000023,27.3867198 C57.6000023,26.648823 57.0139796,26.0507823 56.2909113,26.0507823 L52.3636384,26.0507823 L52.3636384,23.3789072 L56.2909113,23.3789072 C57.0139796,23.3789072 57.6000023,22.7808665 57.6000023,22.0429696 L57.6000023,15.3632819 C57.6000023,14.625385 57.0139796,14.0273443 56.2909113,14.0273443 L52.3636384,14.0273443 L52.3636384,11.3554692 L56.2909113,11.3554692 Z M54.9818204,4.67578144 L54.9818204,8.6835941 L52.3636384,8.6835941 L52.3636384,4.67578144 L54.9818204,4.67578144 Z M2.61818192,54.6398459 L2.61818192,6.67968777 C2.61818192,4.93827232 3.71250015,3.4520418 5.23636384,2.90096756 L5.23636384,58.4185661 C3.71250015,57.8669701 2.61818192,56.3812614 2.61818192,54.6398459 Z M20.8145463,65.0335444 C20.8145463,65.0335444 18.7194894,64.1119563 18.7143757,64.1098689 C18.4157393,63.9783626 18.0066484,63.9658381 17.678353,64.1098689 L15.5781824,65.0335444 L15.5781824,61.3331017 L20.8145463,61.3409295 L20.8145463,65.0335444 Z M49.7454565,58.7123681 L7.85454577,58.6492242 L7.85454577,2.67396251 L49.7454565,2.73658458 L49.7454565,58.7123681 Z M54.9818204,52.7695333 L54.9818204,56.777346 L52.3636384,56.777346 L52.3636384,52.7695333 L54.9818204,52.7695333 Z M54.9818204,40.7460954 L54.9818204,44.753908 L52.3636384,44.753908 L52.3636384,40.7460954 L54.9818204,40.7460954 Z M54.9818204,28.7226574 L54.9818204,32.7304701 L52.3636384,32.7304701 L52.3636384,28.7226574 L54.9818204,28.7226574 Z M54.9818204,16.6992194 L54.9818204,20.7070321 L52.3636384,20.7070321 L52.3636384,16.6992194 L54.9818204,16.6992194 Z" id="Shape" fill="#2C357E" fill-rule="nonzero"></path>
                    <path d="M41.8909108,10.6875004 C41.8909108,10.6875004 15.8318188,10.6875004 15.7096029,10.6875004 C15.0300006,10.6875004 14.4000006,11.2907597 14.4000006,12.023438 L14.4000006,28.0541668 C14.4000006,28.7685802 15.0126143,29.3906262 15.7090915,29.3906262 L23.5636373,29.3906262 C24.2851715,29.3906262 24.8727283,28.7904979 24.8727283,28.0546886 C24.8727283,27.3183574 24.2851715,26.7187511 23.5636373,26.7187511 L17.0181825,26.7187511 L17.0181825,13.3593755 L40.5818198,13.3593755 L40.5818198,26.7187511 L34.036365,26.7187511 C33.3148308,26.7187511 32.727274,27.3183574 32.727274,28.0546886 C32.727274,28.7904979 33.3148308,29.3906262 34.036365,29.3906262 L41.8909108,29.3906262 C42.5618199,29.3906262 43.2000017,28.7769299 43.2000017,28.0546886 C43.2000017,28.0546886 43.2000017,12.0886693 43.2000017,12.023438 C43.2000017,11.3335515 42.6047744,10.6875004 41.8909108,10.6875004 Z" id="Path" fill="#2C357E" fill-rule="nonzero"></path>
                    <path d="M28.8000011,26.7187511 C28.078467,26.7187511 27.4909102,27.3183574 27.4909102,28.0546886 C27.4909102,28.7904979 28.078467,29.3906262 28.8000011,29.3906262 C29.522558,29.3906262 30.1090921,28.7904979 30.1090921,28.0546886 C30.1090921,27.3183574 29.522558,26.7187511 28.8000011,26.7187511 Z" id="Path" fill="#2C357E" fill-rule="nonzero"></path>
                </g>
            </g>
        </g>
    </g>
</svg>