<?xml version="1.0" encoding="UTF-8"?>
<svg width="64px" height="60px" viewBox="0 0 64 60" version="1.1" xmlns="http://www.w3.org/2000/svg" xmlns:xlink="http://www.w3.org/1999/xlink">
    <!-- Generator: Sketch 56.3 (81716) - https://sketch.com -->
    <title>circulars</title>
    <desc>Created with Sketch.</desc>
    <g id="UI-screen" stroke="none" stroke-width="1" fill="none" fill-rule="evenodd">
        <g id="05.-SP-Events-1.1-Copy-3" transform="translate(-148.000000, -241.000000)">
            <g id="circulars" transform="translate(149.000000, 242.000000)">
                <path d="M5.4000001,4.23200008 L57.0000009,4.23200008 C59.6509677,4.23200008 61.8000009,6.38103331 61.8000009,9.03200015 L61.8000009,17.6560003 L0.600000024,17.6560003 L0.600000024,9.03200015 C0.600000024,6.38103331 2.74903326,4.23200008 5.4000001,4.23200008 Z" id="Path" fill="#F16C51" fill-rule="nonzero"></path>
                <rect id="Rectangle" stroke="#2C357E" stroke-width="2.40000004" stroke-linecap="round" stroke-linejoin="round" x="0.200000018" y="4.23200008" width="61.6000009" height="53.3280008" rx="4.80000007"></rect>
                <path d="M20.3440003,0.31200002 L20.3440003,10.8400002" id="Path" stroke="#2C357E" stroke-width="2.40000004" stroke-linecap="round" stroke-linejoin="round"></path>
                <path d="M41.6880006,0.200000018 L41.6880006,10.8400002" id="Path" stroke="#2C357E" stroke-width="2.40000004" stroke-linecap="round" stroke-linejoin="round"></path>
                <path d="M1.68800004,18.4720003 L61.8000009,18.4720003" id="Path" stroke="#2C357E" stroke-width="2.40000004" stroke-linecap="round" stroke-linejoin="round"></path>
                <path d="M30.5680005,34.9840005 C28.9482162,35.3747502 27.805145,36.8217593 27.8000004,38.4880006 L27.8000004,40.9200006 C27.8000004,41.1409145 27.6209143,41.3200006 27.4000004,41.3200006 C27.0760413,41.2548857 26.7447916,41.3915754 26.5610263,41.666202 C26.3772611,41.9408286 26.3772611,42.2991727 26.5610263,42.5737993 C26.7447916,42.8484259 27.0760413,42.9851156 27.4000004,42.9200007 L35.4000005,42.9200007 C35.6149752,42.9200437 35.8209212,42.8335654 35.9714188,42.6800578 C36.1219165,42.5265502 36.2043001,42.3189323 36.2000006,42.1040006 C36.2000006,41.6621728 35.8418283,41.3040006 35.4000005,41.3040006 C35.1790866,41.3040006 35.0000005,41.1249145 35.0000005,40.9040006 L35.0000005,38.4880006 C34.9928221,36.8330704 33.8678007,35.3922535 32.2640005,34.9840005 L32.2640005,34.5520005 C32.2035894,34.0989129 31.8170977,33.7605327 31.3600005,33.7605327 C30.9029032,33.7605327 30.5164116,34.0989129 30.4560005,34.5520005 L30.5680005,34.9840005 Z M30.0560005,43.3360007 L32.8880005,43.3360007 C32.8109299,44.060016 32.2001063,44.6092691 31.4720005,44.6092691 C30.7438947,44.6092691 30.133071,44.060016 30.0560005,43.3360007 L30.0560005,43.3360007 Z" id="Shape" fill="#F16C51"></path>
                <circle id="Oval" stroke="#2C357E" stroke-width="2.40000004" stroke-linecap="round" stroke-linejoin="round" cx="31.4800005" cy="39.1920006" r="11.2640002"></circle>
            </g>
        </g>
    </g>
</svg>