<?xml version="1.0" encoding="UTF-8"?>
<svg width="86px" height="61px" viewBox="0 0 86 61" version="1.1" xmlns="http://www.w3.org/2000/svg" xmlns:xlink="http://www.w3.org/1999/xlink">
    <!-- Generator: Sketch 56.3 (81716) - https://sketch.com -->
    <title>Group 11</title>
    <desc>Created with Sketch.</desc>
    <g id="UI-screen" stroke="none" stroke-width="1" fill="none" fill-rule="evenodd">
        <g id="04.-SP-Events-1.1-Copy-5" transform="translate(-138.000000, -244.000000)">
            <g id="Group-11" transform="translate(138.000000, 244.000000)">
                <rect id="Rectangle-Copy-26" fill="#F16C51" x="1.70000005" y="3.4000001" width="6.80000019" height="45.9000013"></rect>
                <path d="M4.79453138,1.70000005 C2.15085201,1.70000005 0,3.85085206 0,6.49453143 L0,49.1616971 C0,49.2972057 0.021827735,49.4318311 0.0646000018,49.5604002 L3.5974126,60.16767 C3.76913253,60.682956 4.25136145,61.0306857 4.79453138,61.0306857 C5.33770132,61.0306857 5.81993024,60.6830822 5.99165017,60.16767 L9.52446277,49.5604002 C9.56723503,49.4318311 9.58906277,49.2973319 9.58906277,49.1616971 L9.58906277,36.0818369 C9.58906277,35.3849897 9.02419127,34.8201182 8.32734398,34.8201182 C7.6304967,34.8201182 7.0656252,35.3849897 7.0656252,36.0818369 L7.0656252,47.8999783 L2.52343757,47.8999783 L2.52343757,10.1850589 L7.0656252,10.1850589 L7.0656252,29.3880868 C7.0656252,30.084934 7.6304967,30.6498055 8.32734398,30.6498055 C9.02419127,30.6498055 9.58906277,30.084934 9.58906277,29.3880868 L9.58906277,6.49453143 C9.58906277,3.85085206 7.43821076,1.70000005 4.79453138,1.70000005 Z M4.79453138,55.7760055 L3.01184891,50.4234159 L6.57734003,50.4234159 L4.79453138,55.7760055 Z M2.52343757,7.66162131 L2.52343757,6.49453143 C2.52343757,5.24227554 3.54227549,4.22343762 4.79453138,4.22343762 C6.04678728,4.22343762 7.0656252,5.24227554 7.0656252,6.49453143 L7.0656252,7.66162131 L2.52343757,7.66162131 Z" id="XMLID_427_-Copy" fill="#2C357E" fill-rule="nonzero"></path>
                <g id="Group-10" transform="translate(17.000000, 0.000000)">
                    <polygon id="Path-15" fill="#F16C51" points="18.7000005 49.3000014 61.0020281 49.3000014 61.0020281 21.918561 66.9800016 21.918561 66.9800016 56.1000016 18.7000005 56.1000016"></polygon>
                    <g id="Group-9">
                        <g id="paper" transform="translate(31.050002, 25.850000) rotate(-270.000000) translate(-31.050002, -25.850000) translate(6.050002, -5.150000)" fill="#2C357E" fill-rule="nonzero" stroke="#2C357E" stroke-width="0.5">
                            <path d="M-2.55795385e-13,56.1000045 C0.00339565708,58.9152586 2.30061214,61.1966322 5.13541681,61.2000044 L44.1645846,61.2000044 C46.9993892,61.1966322 49.2966057,58.9152586 49.3000014,56.1000045 L49.3000014,1.02000531 C49.3000014,0.456674871 48.8401605,2.65001383e-06 48.272918,2.65001383e-06 L15.4062504,2.65001383e-06 C15.1332337,-0.000616799432 14.8713405,0.107385412 14.6790754,0.299885318 L4.40824179,10.4998852 C4.21566533,10.6906627 4.10771221,10.9498726 4.10833345,11.2200052 L4.10833345,51.0000027 L-2.55795385e-13,51.0000027 L-2.55795385e-13,56.1000045 Z M16.4333338,11.2200052 L16.4333338,2.04000529 L47.2458347,2.04000529 L47.2458347,56.1000045 C47.2458347,57.7899958 45.866312,59.1600044 44.1645846,59.1600044 C42.4628571,59.1600044 41.0833345,57.7899958 41.0833345,56.1000045 L41.0833345,52.0200045 C41.0833345,51.4566741 40.6234936,51.0000045 40.0562511,51.0000045 L6.16250017,51.0000045 L6.16250017,12.2400051 L15.4062504,12.2400051 C15.9734929,12.2400051 16.4333338,11.7833356 16.4333338,11.2200052 L16.4333338,11.2200052 Z M7.61479605,10.2000052 L14.3791671,3.48228527 L14.3791671,10.2000052 L7.61479605,10.2000052 Z M2.05416672,53.0400045 L39.0291678,53.0400045 L39.0291678,56.1000045 C39.0329442,57.2071831 39.4032247,58.2824078 40.0829553,59.1600044 L5.13541681,59.1600044 C3.43368938,59.1600044 2.05416672,57.7899958 2.05416672,56.1000045 L2.05416672,53.0400045 Z" id="Shape"></path>
                        </g>
                        <rect id="Rectangle" stroke="#F16C51" stroke-width="0.850000024" x="14.0250004" y="19.1250005" width="4.25000012" height="4.25000012"></rect>
                        <rect id="Rectangle-Copy-16" fill="#F16C51" x="13.6000004" y="27.2000008" width="5.10000014" height="5.10000014"></rect>
                        <rect id="Rectangle-Copy-12" stroke="#F16C51" stroke-width="0.850000024" x="22.5250006" y="19.1250005" width="4.25000012" height="4.25000012"></rect>
                        <rect id="Rectangle-Copy-17" fill="#F16C51" x="22.1000006" y="27.2000008" width="5.10000014" height="5.10000014"></rect>
                        <rect id="Rectangle-Copy-13" stroke="#F16C51" stroke-width="0.850000024" x="31.0250009" y="19.1250005" width="4.25000012" height="4.25000012"></rect>
                        <rect id="Rectangle-Copy-18" fill="#F16C51" x="30.6000009" y="27.2000008" width="5.10000014" height="5.10000014"></rect>
                        <rect id="Rectangle-Copy-14" fill="#F16C51" x="39.1000011" y="18.7000005" width="5.10000014" height="5.10000014"></rect>
                        <rect id="Rectangle-Copy-19" fill="#F16C51" x="39.1000011" y="27.2000008" width="5.10000014" height="5.10000014"></rect>
                        <rect id="Rectangle-Copy-15" fill="#F16C51" x="47.6000013" y="18.7000005" width="5.10000014" height="5.10000014"></rect>
                        <rect id="Rectangle-Copy-20" fill="#F16C51" x="47.6000013" y="27.2000008" width="5.10000014" height="5.10000014"></rect>
                        <rect id="Rectangle-Copy-25" fill="#F16C51" x="13.6000004" y="35.700001" width="5.10000014" height="5.10000014"></rect>
                        <rect id="Rectangle-Copy-24" fill="#F16C51" x="22.1000006" y="35.700001" width="5.10000014" height="5.10000014"></rect>
                        <rect id="Rectangle-Copy-23" fill="#F16C51" x="30.6000009" y="35.700001" width="5.10000014" height="5.10000014"></rect>
                        <rect id="Rectangle-Copy-22" stroke="#F16C51" stroke-width="0.850000024" x="39.5250011" y="36.125001" width="4.25000012" height="4.25000012"></rect>
                        <rect id="Rectangle-Copy-21" stroke="#F16C51" stroke-width="0.850000024" x="48.0250013" y="36.125001" width="4.25000012" height="4.25000012"></rect>
                    </g>
                    <polyline id="Path-14" stroke="#2C357E" stroke-width="2.55000007" stroke-linecap="round" stroke-linejoin="round" points="18.7000005 49.3000014 18.7000005 56.1000016 66.9800016 56.1000016 66.9800016 21.918561 62.0499991 21.918561"></polyline>
                </g>
            </g>
        </g>
    </g>
</svg>