<?xml version="1.0" encoding="UTF-8"?>
<svg width="74px" height="73px" viewBox="0 0 74 73" version="1.1" xmlns="http://www.w3.org/2000/svg" xmlns:xlink="http://www.w3.org/1999/xlink">
    <!-- Generator: Sketch 56.3 (81716) - https://sketch.com -->
    <title>Group 13</title>
    <desc>Created with Sketch.</desc>
    <g id="UI-screen" stroke="none" stroke-width="1" fill="none" fill-rule="evenodd">
        <g id="05.SP-Performance-0" transform="translate(-135.000000, -228.000000)">
            <g id="Group-13" transform="translate(135.000000, 228.000000)">
                <rect id="Rectangle" fill="#F16C51" x="51.9111119" y="38.9333339" width="14.8317463" height="33.3714291"></rect>
                <path d="M70.8925606,33.3714291 L47.7324412,33.3714291 C46.9524818,33.3714291 46.3202388,34.0029672 46.3202388,34.7820571 L46.3202388,45.7849558 L24.5723218,45.7849558 C23.7923624,45.7849558 23.1601194,46.4166351 23.1601194,47.1955839 L23.1601194,54.8129753 L1.4122024,54.8129753 C0.632243015,54.8129753 0,55.4446545 0,56.2236033 L0,70.8941349 C0,71.6730837 0.632243015,72.304763 1.4122024,72.304763 L70.8925606,72.304763 C71.67252,72.304763 72.304763,71.6730837 72.304763,70.8941349 L72.304763,34.7820571 C72.304763,34.0029672 71.67252,33.3714291 70.8925606,33.3714291 Z M69.4803582,69.4835069 L2.8244048,69.4835069 L2.8244048,57.6342314 L23.1601194,57.6342314 L23.1601194,69.6833324 C23.1601194,70.4622812 23.7923624,71.0939605 24.5723218,71.0939605 C25.3522812,71.0939605 25.9845242,70.4622812 25.9845242,69.6833324 L25.9845242,56.2236033 L25.9845242,48.6062119 L46.3202388,48.6062119 L46.3202388,70.5633024 C46.3202388,71.3422512 46.9524818,71.9739304 47.7324412,71.9739304 C48.5124006,71.9739304 49.1446436,71.3422512 49.1446436,70.5633024 L49.1446436,47.1955839 L49.1446436,36.1926851 L69.4803582,36.1926851 L69.4803582,69.4835069 Z" id="XMLID_540_" fill="#2C357E" fill-rule="nonzero"></path>
                <path d="M4.55305063,40.3703415 C4.83433963,40.6482204 5.20291032,40.7873022 5.57148101,40.7873022 C5.94005169,40.7873022 6.30876641,40.6482204 6.58991138,40.3703415 L12.9642111,34.0699503 L16.7373437,30.3405081 L21.8395776,35.3836113 C22.1096323,35.6505288 22.4760426,35.800572 22.858008,35.800572 C23.2399734,35.800572 23.6063836,35.6505288 23.8764383,35.3836113 L31.3028958,28.4865398 C31.8653298,27.9306397 31.8653298,27.0292416 31.3028958,26.4731991 C30.7404619,25.917299 29.828469,25.917299 29.265891,26.4731991 L22.8578639,32.3638138 L17.75563,27.3207106 C17.4855753,27.0537931 17.119165,26.9037499 16.7371996,26.9037499 C16.3552342,26.9037499 15.988824,27.0537931 15.7187693,27.3207106 L10.9277824,32.0560401 L5.57119295,37.350544 L3.47686455,35.2805456 L4.83304337,33.9401216 L16.7371996,22.1742569 L21.8394336,27.2173601 C22.1094883,27.4842776 22.4758985,27.6343208 22.8578639,27.6343208 C23.2398293,27.6343208 23.6062396,27.4842776 23.8762943,27.2173601 L32.5042187,18.6896671 C32.7742734,18.4227496 32.9260802,18.060596 32.9260802,17.6830679 C32.9260802,17.3055398 32.7742734,16.9433862 32.5042187,16.6764687 L31.706585,15.8881013 L39.3615922,14.3654617 L37.8210561,21.93154 L36.6355518,20.7596655 C36.3654971,20.492748 35.9990869,20.3427048 35.6171215,20.3427048 C35.2351561,20.3427048 34.8687458,20.492748 34.5986911,20.7596655 L32.8111449,22.5264457 C32.2487109,23.0823458 32.2487109,23.9837439 32.8111449,24.539644 C33.3735788,25.0955441 34.2855716,25.0955441 34.8480056,24.539644 L35.6169774,23.7794631 L37.6843724,25.8228409 C38.0597124,26.1938206 38.6112002,26.330767 39.1193352,26.1788732 C39.6274701,26.0271217 40.0100116,25.6114422 40.1147209,25.0969677 L42.6129071,12.8281594 C42.7081104,12.360947 42.5603364,11.8776484 42.2194194,11.5406918 C41.8785023,11.2038776 41.3899553,11.0578203 40.9168194,11.1517753 L28.503808,13.6209398 C27.9834306,13.7244326 27.5627213,14.1025301 27.4091862,14.6047621 C27.2556511,15.106994 27.3942072,15.6520751 27.7695472,16.0230548 L29.4489275,17.6829256 L22.858152,24.1974202 L17.7559181,19.154317 C17.1934841,18.5984169 16.2814913,18.5984169 15.7189133,19.154317 L2.79618262,31.9269232 L0.421861486,34.2740887 C0.151806762,34.5410062 0,34.9031598 0,35.2806879 C0,35.658216 0.151806762,36.0203696 0.421861486,36.2872871 L4.55305063,40.3703415 Z" id="XMLID_916_" fill="#2C357E" fill-rule="nonzero"></path>
                <path d="M50.0571436,0 L68.5968264,0 L68.5968264,11.1238097 C68.5968264,16.2434017 64.4465771,20.3936511 59.326985,20.3936511 C54.207393,20.3936511 50.0571436,16.2434017 50.0571436,11.1238097 L50.0571436,0 Z" id="Rectangle" fill="#F16C51"></path>
                <path d="M66.980941,3.17891161 L72.304763,3.17891161 C72.0464627,8.98366179 70.2718554,11.8860369 66.980941,11.8860369" id="Path-4" stroke="#F16C51" stroke-width="1.60000002" stroke-linecap="round" stroke-linejoin="round"></path>
                <path d="M46.349207,3.17891161 L51.673029,3.17891161 C51.4147288,8.98366179 49.6401214,11.8860369 46.349207,11.8860369" id="Path-4-Copy" stroke="#F16C51" stroke-width="1.60000002" stroke-linecap="round" stroke-linejoin="round" transform="translate(49.011118, 7.532474) scale(-1, 1) translate(-49.011118, -7.532474) "></path>
                <path d="M50.0571436,27.8095242 C50.0571436,28.8334426 50.8871935,29.6634925 51.9111119,29.6634925 L66.7428581,29.6634925 C67.7667765,29.6634925 68.5968264,28.8334426 68.5968264,27.8095242 C68.5968264,26.7856058 67.7667765,25.9555559 66.7428581,25.9555559 L51.9111119,25.9555559 C50.8871935,25.9555559 50.0571436,26.7856058 50.0571436,27.8095242 Z" id="Path-5" fill="#F16C51"></path>
                <path d="M50.0571436,20.3936511 C50.0571436,21.4175695 50.8871935,22.2476194 51.9111119,22.2476194 L66.7428581,22.2476194 C67.7667765,22.2476194 68.5968264,21.4175695 68.5968264,20.3936511 C68.5968264,19.3697327 67.7667765,18.5396828 66.7428581,18.5396828 L51.9111119,18.5396828 C50.8871935,18.5396828 50.0571436,19.3697327 50.0571436,20.3936511 Z" id="Path-5-Copy" fill="#F16C51" transform="translate(59.326985, 20.393651) rotate(-270.000000) translate(-59.326985, -20.393651) "></path>
                <polygon id="Star" fill="#FFFFFF" points="59.326985 11.1238097 57.1475146 12.2696251 57.5637564 9.84274911 55.8005278 8.124026 58.2372498 7.76994956 59.326985 5.56190484 60.4167202 7.76994956 62.8534422 8.124026 61.0902136 9.84274911 61.5064554 12.2696251"></polygon>
            </g>
        </g>
    </g>
</svg>