<!-- Generated by IcoMoon.io -->
<svg version="1.1" xmlns="http://www.w3.org/2000/svg" width="31" height="32" viewBox="0 0 31 32">
<title>password_change</title>
<path d="M18.528 8.384c-0.903-0.852-2.124-1.376-3.467-1.376-0.018 0-0.037 0-0.055 0l0.003-0c-0.029-0.001-0.063-0.001-0.097-0.001-2.671 0-4.842 2.138-4.895 4.796l-0 0.005v2.4h-1.024c-0.548 0-0.992 0.444-0.992 0.992v0 8.8c0.018 1.1 0.914 1.984 2.016 1.984 0 0 0 0 0 0h9.984c0 0 0 0 0 0 1.102 0 1.998-0.884 2.016-1.982l0-0.002v-8.8c0-0 0-0 0-0.001 0-0.548-0.444-0.992-0.992-0.992-0.011 0-0.022 0-0.034 0.001l0.002-0h-0.992v-2.4c0-0.006 0-0.013 0-0.020 0-1.341-0.565-2.55-1.47-3.402l-0.002-0.002zM12 11.808c0.052-1.567 1.335-2.818 2.91-2.818 0.034 0 0.068 0.001 0.102 0.002l-0.005-0c0.002 0 0.005 0 0.008 0 0.83 0 1.584 0.329 2.137 0.865l-0.001-0.001c0.532 0.493 0.864 1.195 0.864 1.974 0 0.003 0 0.007-0 0.010v-0.001 2.368h-6.016zM20 24h-9.984v-7.808h9.984zM30.016 15.488c-0.010-0-0.021-0.001-0.033-0.001-0.548 0-0.992 0.444-0.992 0.992 0 0.011 0 0.023 0.001 0.034l-0-0.002c0 7.458-6.046 13.504-13.504 13.504s-13.504-6.046-13.504-13.504c0-7.458 6.046-13.504 13.504-13.504v0c2.21 0.003 4.283 0.584 6.078 1.6l-0.062-0.032-1.728 0.416c-0.51 0.058-0.902 0.487-0.902 1.008 0 0.56 0.454 1.014 1.014 1.014 0.039 0 0.078-0.002 0.117-0.007l-0.005 0c0.038 0.005 0.083 0.008 0.128 0.008s0.090-0.003 0.133-0.009l-0.005 0.001 4-1.024c0.032 0 0.064 0 0.096 0l0.192-0.064c0.060-0.048 0.112-0.1 0.158-0.158l0.002-0.002c0.035-0.030 0.066-0.061 0.095-0.095l0.001-0.001s0 0 0 0c0.036-0.046 0.068-0.099 0.094-0.155l0.002-0.005c0.044-0.093 0.078-0.201 0.095-0.314l0.001-0.006c0.003-0.029 0.004-0.062 0.004-0.096s-0.002-0.067-0.005-0.1l0 0.004c0.004-0.029 0.006-0.062 0.006-0.096s-0.002-0.067-0.007-0.1l0 0.004-0.992-4c-0.106-0.457-0.51-0.793-0.992-0.793-0.562 0-1.017 0.455-1.017 1.017 0 0.079 0.009 0.157 0.026 0.231l-0.001-0.007 0.384 1.536c-1.993-1.124-4.374-1.788-6.911-1.792h-0.001c-8.54 0.018-15.456 6.945-15.456 15.488 0 8.554 6.934 15.488 15.488 15.488 8.543 0 15.47-6.916 15.488-15.454v-0.002c0-0.010 0.001-0.021 0.001-0.032 0-0.548-0.444-0.992-0.992-0.992-0 0-0 0-0.001 0h0zM14.016 21.056v0.928c0 0.548 0.444 0.992 0.992 0.992s0.992-0.444 0.992-0.992v0-0.928c0.429-0.312 0.704-0.811 0.704-1.376 0-0.937-0.759-1.696-1.696-1.696s-1.696 0.759-1.696 1.696c0 0.564 0.275 1.064 0.699 1.372l0.005 0.003zM15.008 19.392c0.001 0 0.001 0 0.002 0 0.148 0 0.27 0.111 0.286 0.255l0 0.001c-0.084-0.041-0.183-0.065-0.288-0.065s-0.204 0.024-0.292 0.067l0.004-0.002c0.017-0.145 0.138-0.256 0.286-0.256 0.001 0 0.001 0 0.002 0h-0z"></path>
</svg>
