<!-- Generated by IcoMoon.io -->
<svg version="1.1" xmlns="http://www.w3.org/2000/svg" width="32" height="32" viewBox="0 0 32 32">
<title>payment_details</title>
<path d="M30.176 13.984h-2.176v-12.16c0-1.007-0.817-1.824-1.824-1.824v0h-24.352c-1.007 0-1.824 0.817-1.824 1.824v0 14.368c0.018 0.994 0.828 1.792 1.824 1.792 0 0 0 0 0 0h2.176v12.192c0 1.007 0.817 1.824 1.824 1.824v0h24.352c1.007 0 1.824-0.817 1.824-1.824v0-14.368c0-1.007-0.817-1.824-1.824-1.824v0zM2.016 1.984h24v2.016h-24zM2.016 5.984h24v2.016h-24zM4 15.808v0.192h-1.984v-6.016h24v4h-20.192c-1.007 0-1.824 0.817-1.824 1.824v0zM30.016 30.016h-24v-14.016h24zM22.016 24c0.555-0.004 1.074-0.158 1.518-0.424l-0.014 0.008c0.443 0.271 0.979 0.432 1.553 0.432 1.661 0 3.008-1.347 3.008-3.008s-1.347-3.008-3.008-3.008c-0.574 0-1.11 0.161-1.566 0.439l0.013-0.008c-0.449-0.281-0.994-0.447-1.578-0.447-1.661 0-3.008 1.347-3.008 3.008s1.347 3.008 3.008 3.008c0.026 0 0.052-0 0.078-0.001l-0.004 0zM24.832 20c0.024-0.002 0.052-0.003 0.080-0.003s0.056 0.001 0.084 0.003l-0.004-0c0.548 0 0.992 0.444 0.992 0.992s-0.444 0.992-0.992 0.992v0c-0.024 0.002-0.052 0.003-0.080 0.003s-0.056-0.001-0.084-0.003l0.004 0c0.107-0.286 0.169-0.616 0.169-0.96s-0.062-0.674-0.175-0.979l0.006 0.019zM22.016 20c0.534 0.018 0.96 0.455 0.96 0.991 0 0.548-0.444 0.992-0.992 0.992s-0.992-0.444-0.992-0.991v-0c0-0 0-0 0-0.001 0-0.548 0.444-0.992 0.992-0.992 0.011 0 0.022 0 0.034 0.001l-0.002-0zM8 28h12.992c0.557 0 1.008-0.451 1.008-1.008s-0.451-1.008-1.008-1.008v0h-12.992c-0.557 0-1.008 0.451-1.008 1.008s0.451 1.008 1.008 1.008v0zM27.008 25.984h-2.016c-0.557 0-1.008 0.451-1.008 1.008s0.451 1.008 1.008 1.008v0h2.016c0.557 0 1.008-0.451 1.008-1.008s-0.451-1.008-1.008-1.008v0z"></path>
</svg>
