<?xml version="1.0" encoding="UTF-8"?>
<svg width="22px" height="28px" viewBox="0 0 22 28" version="1.1" xmlns="http://www.w3.org/2000/svg" xmlns:xlink="http://www.w3.org/1999/xlink">
    <!-- Generator: Sketch 56.3 (81716) - https://sketch.com -->
    <title>Group</title>
    <desc>Created with Sketch.</desc>
    <g id="UI-screen" stroke="none" stroke-width="1" fill="none" fill-rule="evenodd">
        <g id="06.SP-Assignments-1.5" transform="translate(-52.000000, -431.000000)" fill="#2C357E" fill-rule="nonzero">
            <g id="Group" transform="translate(52.000000, 431.000000)">
                <path d="M20.9433615,27.2700019 L0.872640061,27.2700019 C0.390694263,27.2700019 0,26.8793076 0,26.3973618 L0,0.872640061 C0,0.390694263 0.390694263,0 0.872640061,0 L15.7893311,0 L15.7893311,4.97077595 C15.7893311,5.55393037 16.2620712,6.02667042 16.8452256,6.02667042 L21.8160015,6.02667042 L21.8160015,26.3973618 C21.8160015,26.8793076 21.4253073,27.2700019 20.9433615,27.2700019 Z M3.93189796,17.6709612 L5.04058715,17.6709612 L5.04058715,16.1591123 L5.88290297,16.1591123 C7.01319001,16.1591123 7.92029935,15.5543728 7.92029935,14.3880893 L7.92029935,14.3736908 C7.92029935,13.3441937 7.19317202,12.6314649 5.99089218,12.6314649 L3.93189796,12.6314649 L3.93189796,17.6709612 Z M5.04058715,15.1728109 L5.04058715,13.6321649 L5.89730153,13.6321649 C6.45164613,13.6321649 6.7972116,13.8985383 6.7972116,14.3952886 L6.7972116,14.4096872 C6.7972116,14.841644 6.47324397,15.1728109 5.91889937,15.1728109 L5.04058715,15.1728109 Z M8.74101733,17.6709612 L10.7064209,17.6709612 C12.2902626,17.6709612 13.3845533,16.5694713 13.3845533,15.1512131 L13.3845533,15.1368145 C13.3845533,13.7185562 12.2902626,12.6314649 10.7064209,12.6314649 L8.74101733,12.6314649 L8.74101733,17.6709612 Z M10.7064209,13.6321649 C11.6135303,13.6321649 12.2254691,14.2585023 12.2254691,15.1512131 L12.2254691,15.1656116 C12.2254691,16.0583224 11.6135303,16.6702612 10.7064209,16.6702612 L9.84970653,16.6702612 L9.84970653,13.6321649 L10.7064209,13.6321649 Z M14.3708547,17.6709612 L15.4795439,17.6709612 L15.4795439,15.7199562 L17.8841036,15.7199562 L17.8841036,14.712057 L15.4795439,14.712057 L15.4795439,13.6393642 L18.2080712,13.6393642 L18.2080712,12.6314649 L14.3708547,12.6314649 L14.3708547,17.6709612 Z M16.3620011,4.58136032 L16.3620011,0 L21.8160015,5.45400038 L17.2346412,5.45400038 C16.7526954,5.45400038 16.3620011,5.06330612 16.3620011,4.58136032 Z" id="Shape"></path>
            </g>
        </g>
    </g>
</svg>