<?xml version="1.0" encoding="UTF-8"?>
<svg width="40px" height="39px" viewBox="0 0 40 39" version="1.1" xmlns="http://www.w3.org/2000/svg" xmlns:xlink="http://www.w3.org/1999/xlink">
    <!-- Generator: Sketch 58 (84663) - https://sketch.com -->
    <title>Performance</title>
    <desc>Created with Sketch.</desc>
    <g id="UI-screen-(SP)" stroke="none" stroke-width="1" fill="none" fill-rule="evenodd">
        <g id="2.-Q-engage-menu" transform="translate(-273.000000, -152.000000)">
            <g id="Performance" transform="translate(273.000000, 152.000000)">
                <rect id="Rectangle" fill="#F16C51" x="28" y="21" width="8" height="18"></rect>
                <path d="M38.2382812,18 L25.7460938,18 C25.3253965,18 24.984375,18.3406413 24.984375,18.7608696 L24.984375,24.6956522 L13.2539062,24.6956522 C12.833209,24.6956522 12.4921875,25.0363696 12.4921875,25.4565217 L12.4921875,29.5652174 L0.76171875,29.5652174 C0.341021484,29.5652174 0,29.9059348 0,30.326087 L0,38.2391304 C0,38.6592826 0.341021484,39 0.76171875,39 L38.2382812,39 C38.6589785,39 39,38.6592826 39,38.2391304 L39,18.7608696 C39,18.3406413 38.6589785,18 38.2382812,18 Z M37.4765625,37.4782609 L1.5234375,37.4782609 L1.5234375,31.0869565 L12.4921875,31.0869565 L12.4921875,37.5860435 C12.4921875,38.0061957 12.833209,38.346913 13.2539063,38.346913 C13.6746035,38.346913 14.015625,38.0061957 14.015625,37.5860435 L14.015625,30.326087 L14.015625,26.2173913 L24.984375,26.2173913 L24.984375,38.0606848 C24.984375,38.480837 25.3253965,38.8215543 25.7460937,38.8215543 C26.166791,38.8215543 26.5078125,38.480837 26.5078125,38.0606848 L26.5078125,25.4565217 L26.5078125,19.5217391 L37.4765625,19.5217391 L37.4765625,37.4782609 Z" id="XMLID_540_" fill="#2C357E" fill-rule="nonzero"></path>
                <path d="M2.45584063,21.7750983 C2.60756329,21.9249816 2.80636426,22 3.00516522,22 C3.20396619,22 3.40284485,21.9249816 3.55448982,21.7750983 L6.99268224,18.3767708 L9.0278479,16.3651711 L11.779909,19.085338 C11.925572,19.2293089 12.1232077,19.3102397 12.3292336,19.3102397 C12.5352594,19.3102397 12.7328951,19.2293089 12.8785582,19.085338 L16.8842672,15.3651711 C17.1876348,15.0653277 17.1876348,14.5791284 16.8842672,14.2792082 C16.5808996,13.9793648 16.0889856,13.9793648 15.7855403,14.2792082 L12.3291559,17.4565089 L9.57709481,14.736342 C9.43143173,14.5923711 9.23379607,14.5114402 9.02777022,14.5114402 C8.82174436,14.5114402 8.6241087,14.5923711 8.47844562,14.736342 L5.89426611,17.2905008 L3.00500985,20.1462691 L1.87536356,19.029746 L2.60686411,18.3067434 L9.02777022,11.9604295 L11.7798313,14.6805964 C11.9254944,14.8245673 12.12313,14.9054982 12.3291559,14.9054982 C12.5351817,14.9054982 12.7328174,14.8245673 12.8784805,14.6805964 L17.532241,10.0808991 C17.677904,9.93692816 17.7597861,9.74158845 17.7597861,9.53795602 C17.7597861,9.33432358 17.677904,9.13898387 17.532241,8.99501297 L17.1020105,8.56978053 L21.2309955,7.74849376 L20.4000556,11.829512 L19.7606141,11.1974222 C19.6149511,11.0534513 19.4173154,10.9725204 19.2112895,10.9725204 C19.0052637,10.9725204 18.807628,11.0534513 18.661965,11.1974222 L17.6977919,12.1503943 C17.3944243,12.4502377 17.3944243,12.936437 17.6977919,13.2362804 C18.0011595,13.5361238 18.4930735,13.5361238 18.7964411,13.2362804 L19.2112119,12.8262513 L20.3263307,13.9284157 C20.5287829,14.128516 20.8262464,14.2023827 21.100326,14.1204537 C21.3744057,14.0386014 21.5807423,13.8143907 21.6372207,13.5368916 L22.9847013,6.91929818 C23.0360523,6.66729152 22.9563455,6.40660822 22.7724604,6.22485936 C22.5885754,6.04318729 22.3250612,5.96440641 22.0698595,6.01508417 L15.3744853,7.34691094 C15.0938022,7.40273325 14.8668786,7.60667283 14.7840643,7.87756847 C14.7012499,8.1484641 14.7759848,8.44247187 14.9784371,8.64257222 L15.8842672,9.53787923 L12.3293112,13.0516905 L9.57725018,10.3315236 C9.27388255,10.0316802 8.78196863,10.0316802 8.47852331,10.3315236 L1.50821492,17.2208573 L0.227545148,18.4868798 C0.0818820708,18.6308507 0,18.8261904 0,19.0298228 C0,19.2334553 0.0818820708,19.428795 0.227545148,19.5727659 L2.45584063,21.7750983 Z" id="XMLID_916_" fill="#2C357E" fill-rule="nonzero"></path>
                <path d="M27,0 L37,0 L37,6 C37,8.76142375 34.7614237,11 32,11 C29.2385763,11 27,8.76142375 27,6 L27,0 L27,0 Z" id="Rectangle" fill="#F16C51"></path>
                <path d="M36.128418,1.71465264 L39,1.71465264 C38.8606771,4.84563942 37.9034831,6.41113281 36.128418,6.41113281" id="Path-4" stroke="#F16C51" stroke-linecap="round" stroke-linejoin="round"></path>
                <path d="M25,1.71465264 L27.871582,1.71465264 C27.7322591,4.84563942 26.7750651,6.41113281 25,6.41113281" id="Path-4-Copy" stroke="#F16C51" stroke-linecap="round" stroke-linejoin="round" transform="translate(26.435791, 4.062893) scale(-1, 1) translate(-26.435791, -4.062893) "></path>
                <path d="M27,15 C27,15.5522847 27.4477153,16 28,16 L36,16 C36.5522847,16 37,15.5522847 37,15 C37,14.4477153 36.5522847,14 36,14 L28,14 C27.4477153,14 27,14.4477153 27,15 Z" id="Path-5" fill="#F16C51"></path>
                <path d="M27,11 C27,11.5522847 27.4477153,12 28,12 L36,12 C36.5522847,12 37,11.5522847 37,11 C37,10.4477153 36.5522847,10 36,10 L28,10 C27.4477153,10 27,10.4477153 27,11 Z" id="Path-5-Copy" fill="#F16C51" transform="translate(32.000000, 11.000000) rotate(-270.000000) translate(-32.000000, -11.000000) "></path>
                <polygon id="Star" fill="#FFFFFF" points="32 6 30.8244295 6.61803399 31.0489435 5.30901699 30.097887 4.38196601 31.4122147 4.19098301 32 3 32.5877853 4.19098301 33.902113 4.38196601 32.9510565 5.30901699 33.1755705 6.61803399"></polygon>
            </g>
        </g>
    </g>
</svg>