<!-- Generated by IcoMoon.io -->
<svg version="1.1" xmlns="http://www.w3.org/2000/svg" width="24" height="32" viewBox="0 0 24 32">
<title>profile_no_circle</title>
<path d="M12 13.984c3.87-0 7.008-3.138 7.008-7.008s-3.138-7.008-7.008-7.008c-3.87 0-7.008 3.138-7.008 7.008 0 0.011 0 0.022 0 0.034v-0.002c0.018 3.857 3.149 6.976 7.008 6.976 0 0 0 0 0 0v0zM12 1.984c2.757 0 4.992 2.235 4.992 4.992s-2.235 4.992-4.992 4.992c-2.746 0-4.974-2.217-4.992-4.958v-0.002c-0-0.010-0-0.021-0-0.032 0-2.757 2.235-4.992 4.992-4.992 0 0 0 0 0 0v0zM20.416 18.752c-2.249-1.719-5.101-2.754-8.194-2.754-0.078 0-0.156 0.001-0.234 0.002l0.012-0c-6.624 0-12 4.352-12 9.696v5.312c0 0.557 0.451 1.008 1.008 1.008s1.008-0.451 1.008-1.008v0-5.312c0-4.256 4.48-7.712 9.984-7.712 0.057-0.001 0.123-0.002 0.19-0.002 2.633 0 5.061 0.878 7.007 2.358l-0.029-0.021c1.683 1.226 2.781 3.166 2.848 5.366l0 0.010v5.312c0 0.548 0.444 0.992 0.992 0.992s0.992-0.444 0.992-0.992v0-5.312c-0.053-2.842-1.441-5.349-3.561-6.927l-0.023-0.017z"></path>
</svg>
