<?xml version="1.0" encoding="UTF-8"?>
<svg width="52px" height="33px" viewBox="0 0 52 33" version="1.1" xmlns="http://www.w3.org/2000/svg" xmlns:xlink="http://www.w3.org/1999/xlink">
    <!-- Generator: Sketch 56.3 (81716) - https://sketch.com -->
    <title>raise a request</title>
    <desc>Created with Sketch.</desc>
    <g id="UI-screen" stroke="none" stroke-width="1" fill="none" fill-rule="evenodd">
        <g id="3.-Q-engage-menu-Copy" transform="translate(-267.000000, -289.000000)">
            <g id="raise-a-request" transform="translate(267.000000, 289.000000)">
                <path d="M20.0469231,0.989977287 L46.5015385,0.989977287 C47.5130531,0.986491269 48.4843304,1.38963847 49.2008092,2.11038385 C49.9172881,2.83112924 50.32,3.81015924 50.32,4.8312 L50.32,20.1168 C50.3127953,22.2403696 48.6053202,23.9580125 46.5015385,23.958 L28.7692308,23.958 L21.1323077,31.9572 L21.1323077,23.958 L20.2038462,23.958 C18.1072865,23.9580125 16.4056662,22.2462794 16.3984615,20.13 L16.2414485,4.8576 C16.2345708,3.83428395 16.632416,2.85046382 17.3468207,2.12437915 C18.0612253,1.39829448 19.0331245,0.989977287 20.0469231,0.989977287 Z" id="Path" stroke="#2C357E" stroke-width="1.95000011" stroke-linecap="round" stroke-linejoin="round"></path>
                <ellipse id="Oval" fill="#F16C51" fill-rule="nonzero" cx="28.7823077" cy="12.9492" rx="1.76538462" ry="1.782"></ellipse>
                <ellipse id="Oval" fill="#F16C51" fill-rule="nonzero" cx="33.4246154" cy="12.9492" rx="1.76538462" ry="1.782"></ellipse>
                <ellipse id="Oval" fill="#F16C51" fill-rule="nonzero" cx="37.8969231" cy="12.9492" rx="1.76538462" ry="1.782"></ellipse>
                <path d="M11.8738462,7.4448 L0.980769231,7.4448" id="Path" stroke="#2C357E" stroke-width="1.95000011" stroke-linecap="round" stroke-linejoin="round"></path>
                <path d="M11.8738462,12.9624 L3.16461538,12.9624" id="Path" stroke="#2C357E" stroke-width="1.95000011" stroke-linecap="round" stroke-linejoin="round"></path>
                <path d="M11.8738462,18.4404 L6.43384615,18.4404" id="Path" stroke="#2C357E" stroke-width="1.95000011" stroke-linecap="round" stroke-linejoin="round"></path>
            </g>
        </g>
    </g>
</svg>