<?xml version="1.0" encoding="UTF-8"?>
<svg width="36px" height="36px" viewBox="0 0 36 36" version="1.1" xmlns="http://www.w3.org/2000/svg" xmlns:xlink="http://www.w3.org/1999/xlink">
    <!-- Generator: Sketch 56.3 (81716) - https://sketch.com -->
    <title>Group 5</title>
    <desc>Created with Sketch.</desc>
    <g id="UI-screen" stroke="none" stroke-width="1" fill="none" fill-rule="evenodd">
        <g id="2.-Q-engage-menu" transform="translate(-275.000000, -417.000000)">
            <g id="Group-5" transform="translate(275.000000, 417.000000)">
                <g id="Group-14">
                    <rect id="Rectangle" fill="#F16C51" x="3.03757416" y="13.1707317" width="4.86486486" height="3.51219512"></rect>
                    <rect id="Rectangle-Copy-11" fill="#F16C51" x="0.87804878" y="27.2195122" width="8.75675676" height="3.51219512"></rect>
                    <rect id="Rectangle" fill="#F16C51" x="9.72972973" y="0.87804878" width="7.78378378" height="6.14634146"></rect>
                    <rect id="Rectangle-Copy-10" fill="#F16C51" x="9.77719183" y="28.9756098" width="7.78378378" height="6.14634146"></rect>
                    <polygon id="Path-6" fill="#F16C51" points="20.195122 14.0007574 29.0257519 11.4146341 33.3658537 25.6437426 24.3658436 28.097561"></polygon>
                    <path d="M17.4193548,0 L9.87096774,0 C9.5503087,0 9.29032258,0.268652325 9.29032258,0.6 L9.29032258,4.8 L0.580645161,4.8 C0.259986121,4.8 0,5.06865232 0,5.4 L0,35.4 C0,35.7313477 0.259986121,36 0.580645161,36 L17.4193548,36 C17.7400139,36 18,35.7313477 18,35.4 L18,0.6 C18,0.268652325 17.7400139,0 17.4193548,0 Z M16.8387097,31.2 L10.4516129,31.2 L10.4516129,30 L16.8387097,30 L16.8387097,31.2 Z M1.16129032,9 L9.29032258,9 L9.29032258,27 L1.16129032,27 L1.16129032,9 Z M16.8387097,6.6 L10.4516129,6.6 L10.4516129,4.8 L16.8387097,4.8 L16.8387097,6.6 Z M1.16129032,28.2 L9.29032258,28.2 L9.29032258,30 L1.16129032,30 L1.16129032,28.2 Z M10.4516129,28.8 L10.4516129,7.8 L16.8387097,7.8 L16.8387097,28.8 L10.4516129,28.8 Z M16.8387097,1.2 L16.8387097,3.6 L10.4516129,3.6 L10.4516129,1.2 L16.8387097,1.2 Z M9.29032258,6 L9.29032258,7.8 L1.16129032,7.8 L1.16129032,6 L9.29032258,6 Z M1.16129032,31.2 L9.29032258,31.2 L9.29032258,34.8 L1.16129032,34.8 L1.16129032,31.2 Z M10.4516129,34.8 L10.4516129,32.4 L16.8387097,32.4 L16.8387097,34.8 L10.4516129,34.8 Z" id="Shape" fill="#2C357E" fill-rule="nonzero"></path>
                    <path d="M35.9801521,32.7977771 L28.5318906,4.74184769 C28.4903699,4.58460488 28.3867198,4.45029329 28.2436705,4.36839605 C28.1009242,4.28679653 27.9309017,4.26446088 27.7711835,4.30645192 L18.4608565,6.74609795 C18.1311158,6.83246233 17.93412,7.1642208 18.0201919,7.48883194 L25.4684535,35.5447613 C25.5099742,35.7020041 25.6139273,35.8363157 25.7569766,35.9179152 C25.8997229,35.9992168 26.0697454,36.0212547 26.2291606,35.9789659 L35.5394875,33.5393199 C35.8686222,33.4529554 36.0653149,33.1217925 35.9801521,32.7977771 L35.9801521,32.7977771 Z M20.366261,11.4934609 L28.4773378,9.36859827 L28.7691947,10.4663198 L20.6587241,12.5944584 L20.366261,11.4934609 Z M29.0825697,11.6498103 L32.6824415,25.2188523 L24.5743954,27.3446083 L20.9745236,13.7746729 L29.0825697,11.6498103 Z M32.9985441,26.3996624 L33.634083,28.7931481 L25.5230063,30.9180107 L24.8898918,28.5254184 L32.9985441,26.3996624 Z M27.4881156,5.64271794 L28.1639629,8.1889794 L20.052886,10.3132464 L19.3776449,7.76817622 L27.4881156,5.64271794 Z M26.5122285,34.6438911 L25.8363812,32.0976296 L33.947458,29.9721714 L34.6226992,32.5172416 L26.5122285,34.6438911 Z" id="Shape" fill="#2C357E" fill-rule="nonzero"></path>
                </g>
                <g id="book-(1)"></g>
            </g>
        </g>
    </g>
</svg>