<?xml version="1.0" encoding="UTF-8"?>
<svg width="42px" height="52px" viewBox="0 0 42 52" version="1.1" xmlns="http://www.w3.org/2000/svg" xmlns:xlink="http://www.w3.org/1999/xlink">
    <!-- Generator: Sketch 56.3 (81716) - https://sketch.com -->
    <title>Group 24</title>
    <desc>Created with Sketch.</desc>
    <g id="UI-screen" stroke="none" stroke-width="1" fill="none" fill-rule="evenodd">
        <g id="2.-Q-engage-menu" transform="translate(-272.000000, -270.000000)">
            <g id="Group-24" transform="translate(272.000000, 270.000000)">
                <g id="Group-12">
                    <polygon id="Path-3" fill="#F16C51" points="41.359375 34.3245676 35.359375 34.3245676 35.359375 39.027027 41.359375 39.027027"></polygon>
                    <polygon id="Path-3" fill="#F16C51" points="19 31.9285676 15 31.9285676 15 36.631027 19 36.631027"></polygon>
                    <polygon id="Path-3" fill="#F16C51" points="11 31.9285676 8 31.9285676 8 36.631027 11 36.631027"></polygon>
                    <polygon id="Path-3" fill="#F16C51" points="4 31.9285676 1 31.9285676 1 36.631027 4 36.631027"></polygon>
                    <path d="M21.5,23.9285676 C21.5,23.9285676 13,14.2805062 13,9.53004266 C13,4.77957914 16.8055796,0.928567568 21.5,0.928567568 C26.1944204,0.928567568 30,4.77957914 30,9.53004266 C30,14.2805062 21.5,23.9285676 21.5,23.9285676 Z M21.5,13.0320158 C23.5118944,13.0320158 25.1428571,11.4341356 25.1428571,9.46305033 C25.1428571,7.4919651 23.5118944,5.89408481 21.5,5.89408481 C19.4881056,5.89408481 17.8571429,7.4919651 17.8571429,9.46305033 C17.8571429,11.4341356 19.4881056,13.0320158 21.5,13.0320158 Z" id="Combined-Shape" fill="#F16C51"></path>
                    <path d="M12.891375,44.722 C10.9011328,44.722 9.282,46.3223784 9.282,48.2895676 C9.282,50.2567568 10.9011328,51.8571351 12.891375,51.8571351 C14.8816172,51.8571351 16.50075,50.2567568 16.50075,48.2895676 C16.50075,46.3223784 14.8816172,44.722 12.891375,44.722 Z M12.891375,50.2355135 C11.8058555,50.2355135 10.922625,49.3625135 10.922625,48.2895676 C10.922625,47.2166216 11.8058555,46.3436216 12.891375,46.3436216 C13.9768945,46.3436216 14.860125,47.2166216 14.860125,48.2895676 C14.860125,49.3625135 13.9768945,50.2355135 12.891375,50.2355135 Z" id="Shape" fill="#2C357E" fill-rule="nonzero"></path>
                    <path d="M37.5088711,28.0002432 L33.3046875,28.0002432 C32.8516289,28.0002432 32.484375,28.3632432 32.484375,28.8110541 C32.484375,29.2588649 32.8516289,29.6218649 33.3046875,29.6218649 L37.5088711,29.6218649 C38.8206328,29.6218649 39.9274805,30.5024054 40.2581484,31.6967297 L33.3046875,31.6967297 C32.8516289,31.6967297 32.484375,32.0597297 32.484375,32.5075405 L32.484375,39.7979459 C32.484375,40.2457568 32.8516289,40.6087568 33.3046875,40.6087568 L40.359375,40.6087568 L40.359375,47.4936757 L37.9524141,47.4936757 C37.5854063,45.9086216 36.1480547,44.7220811 34.43475,44.7220811 C32.7214453,44.7220811 31.2840938,45.9085405 30.9170859,47.4936757 L30.84375,47.4936757 L30.84375,32.5146757 C30.84375,32.0668649 30.4764961,31.7038649 30.0234375,31.7038649 L23.4609375,31.7038649 C23.0078789,31.7038649 22.640625,32.0668649 22.640625,32.5146757 L22.640625,39.0272703 L7.41012891,39.0272703 C6.95707031,39.0272703 6.58981641,39.3902703 6.58981641,39.8380811 C6.58981641,40.2858919 6.95707031,40.6488919 7.41012891,40.6488919 L22.640625,40.6488919 L22.640625,47.4935135 L18.4570313,47.4935135 C18.0039727,47.4935135 17.6367188,47.8565135 17.6367188,48.3043243 C17.6367188,48.7521351 18.0039727,49.1151351 18.4570313,49.1151351 L30.9239766,49.1151351 C31.3019766,50.6853514 32.7320273,51.8570541 34.43475,51.8570541 C36.1374727,51.8570541 37.5675234,50.6853514 37.9455234,49.1151351 L41.1796875,49.1151351 C41.6327461,49.1151351 42,48.7521351 42,48.3043243 L42,32.4393514 C42,29.9915946 39.9853125,28.0002432 37.5088711,28.0002432 Z M29.203125,39.6020541 L28.6846055,39.6020541 C28.2315469,39.6020541 27.864293,39.9650541 27.864293,40.4128649 C27.864293,40.8606757 28.2315469,41.2236757 28.6846055,41.2236757 L29.203125,41.2236757 L29.203125,47.4935135 L24.28125,47.4935135 L24.28125,33.3254865 L29.203125,33.3254865 L29.203125,39.6020541 Z M34.434668,50.2355135 C33.3491484,50.2355135 32.465918,49.3625135 32.465918,48.2895676 C32.465918,47.2166216 33.3491484,46.3436216 34.434668,46.3436216 C35.5201875,46.3436216 36.403418,47.2166216 36.403418,48.2895676 C36.403418,49.3625135 35.5202695,50.2355135 34.434668,50.2355135 Z M40.359375,38.9870541 L34.125,38.9870541 L34.125,33.3182703 L40.359375,33.3182703 L40.359375,38.9870541 Z" id="Shape" fill="#2C357E" fill-rule="nonzero"></path>
                    <path d="M30.6033984,28.2375676 C30.4508203,28.0867568 30.2391797,28 30.0234375,28 C29.8076953,28 29.5960547,28.0867568 29.4434766,28.2375676 C29.2908984,28.3883784 29.203125,28.5975676 29.203125,28.8108108 C29.203125,29.0240541 29.2908984,29.2332432 29.4434766,29.3840541 C29.5960547,29.5348649 29.8076953,29.6216216 30.0234375,29.6216216 C30.2391797,29.6216216 30.4508203,29.5348649 30.6033984,29.3840541 C30.7559766,29.2332432 30.84375,29.0240541 30.84375,28.8108108 C30.84375,28.5975676 30.7559766,28.3883784 30.6033984,28.2375676 Z" id="Path" fill="#383838" fill-rule="nonzero"></path>
                    <path d="M26.7421875,28.0002432 L4.49112891,28.0002432 C2.24232422,28.0002432 0.374554688,29.6425405 0.050203125,31.7774054 C0.0182929687,31.8639189 0,31.9569189 0,32.0542973 L0,48.3043243 C0,48.7521351 0.367253906,49.1151351 0.8203125,49.1151351 L6.99546094,49.1151351 C7.44851953,49.1151351 7.81577344,48.7521351 7.81577344,48.3043243 C7.81577344,47.8565135 7.44851953,47.4935946 6.99546094,47.4935946 L1.640625,47.4935946 L1.640625,37.4056486 L4.4296875,37.4056486 C4.88274609,37.4056486 5.25,37.0426486 5.25,36.5948378 L5.25,32.0542973 C5.25,31.6064865 4.88274609,31.2434865 4.4296875,31.2434865 L1.91083594,31.2434865 C2.36676562,30.2862432 3.35163281,29.6218649 4.49104687,29.6218649 L26.7421875,29.6218649 C27.1952461,29.6218649 27.5625,29.2588649 27.5625,28.8110541 C27.5625,28.3632432 27.1952461,28.0002432 26.7421875,28.0002432 Z M3.609375,32.8651081 L3.609375,35.784027 L1.640625,35.784027 L1.640625,32.8651081 L3.609375,32.8651081 Z" id="Shape" fill="#2C357E" fill-rule="nonzero"></path>
                    <path d="M5.00964844,39.2645946 C4.85707031,39.1137838 4.64542969,39.027027 4.4296875,39.027027 C4.21394531,39.027027 4.00230469,39.1137838 3.84972656,39.2645946 C3.69714844,39.4154054 3.609375,39.6245946 3.609375,39.8378378 C3.609375,40.0518919 3.69714844,40.2602703 3.84972656,40.4110811 C4.00230469,40.5627027 4.21394531,40.6486486 4.4296875,40.6486486 C4.64542969,40.6486486 4.85707031,40.5627027 5.00964844,40.4110811 C5.16222656,40.2602703 5.25,40.0510811 5.25,39.8378378 C5.25,39.6245946 5.16222656,39.4154054 5.00964844,39.2645946 Z" id="Path" fill="#2C357E" fill-rule="nonzero"></path>
                    <path d="M20.1796875,31.2434865 L15.5859375,31.2434865 C15.1328789,31.2434865 14.765625,31.6064865 14.765625,32.0542973 L14.765625,36.5948378 C14.765625,37.0426486 15.1328789,37.4056486 15.5859375,37.4056486 L20.1796875,37.4056486 C20.6327461,37.4056486 21,37.0426486 21,36.5948378 L21,32.0542973 C21,31.6064865 20.6327461,31.2434865 20.1796875,31.2434865 Z M19.359375,35.784027 L16.40625,35.784027 L16.40625,32.8651081 L19.359375,32.8651081 L19.359375,35.784027 Z" id="Shape" fill="#2C357E" fill-rule="nonzero"></path>
                    <path d="M12.3046875,31.2434865 L7.7109375,31.2434865 C7.25787891,31.2434865 6.890625,31.6064865 6.890625,32.0542973 L6.890625,36.5948378 C6.890625,37.0426486 7.25787891,37.4056486 7.7109375,37.4056486 L12.3046875,37.4056486 C12.7577461,37.4056486 13.125,37.0426486 13.125,36.5948378 L13.125,32.0542973 C13.125,31.6064865 12.7577461,31.2434865 12.3046875,31.2434865 Z M11.484375,35.784027 L8.53125,35.784027 L8.53125,32.8651081 L11.484375,32.8651081 L11.484375,35.784027 Z" id="Shape" fill="#2C357E" fill-rule="nonzero"></path>
                </g>
                <g id="bus" transform="translate(0.000000, 28.000000)"></g>
            </g>
        </g>
    </g>
</svg>