<?xml version="1.0" encoding="UTF-8"?>
<svg width="42px" height="42px" viewBox="0 0 42 42" version="1.1" xmlns="http://www.w3.org/2000/svg" xmlns:xlink="http://www.w3.org/1999/xlink">
    <!-- Generator: Sketch 56.3 (81716) - https://sketch.com -->
    <title>Group 29</title>
    <desc>Created with Sketch.</desc>
    <g id="UI-screen" stroke="none" stroke-width="1" fill="none" fill-rule="evenodd">
        <g id="2.-Q-engage-menu" transform="translate(-46.000000, -550.000000)">
            <g id="Group-29" transform="translate(46.000000, 550.000000)">
                <path d="M41.1796875,9.84375 L31.6640625,9.84375 L31.6640625,8.203125 L32.484375,8.203125 C32.9373516,8.203125 33.3046875,7.83587109 33.3046875,7.3828125 L33.3046875,4.1015625 C33.3046875,3.64850391 32.9373516,3.28125 32.484375,3.28125 L26.1887227,3.28125 C25.2467578,1.29707812 23.2305938,0 21,0 C18.7694883,0 16.7534063,1.29699609 15.8113594,3.28125 L9.515625,3.28125 C9.06264844,3.28125 8.6953125,3.64850391 8.6953125,4.1015625 L8.6953125,7.3828125 C8.6953125,7.83587109 9.06264844,8.203125 9.515625,8.203125 L10.3359375,8.203125 L10.3359375,9.84375 L0.8203125,9.84375 C0.367335937,9.84375 0,10.2110039 0,10.6640625 C0,10.9074492 0,40.7602617 0,41.1796875 C0,41.6326641 0.367335937,42 0.8203125,42 C1.63028906,42 40.2440391,42 41.1796875,42 C41.6326641,42 42,41.6326641 42,41.1796875 C42,40.9862578 42,11.3920898 42,10.6640625 C42,10.2110039 41.6326641,9.84375 41.1796875,9.84375 Z M26.6828789,4.921875 L31.6640625,4.921875 L31.6640625,6.5625 C31.1196211,6.5625 27.231668,6.5625 26.6828789,6.5625 C26.7215977,6.29204297 26.7421875,6.01830469 26.7421875,5.7421875 C26.7421875,5.46607031 26.7215977,5.19233203 26.6828789,4.921875 Z M21,1.640625 C23.231168,1.640625 25.1015625,3.44449219 25.1015625,5.7421875 C25.1015625,8.04004688 23.2310039,9.84375 21,9.84375 C18.7689141,9.84375 16.8984375,8.04004688 16.8984375,5.7421875 C16.8984375,3.44432813 18.7689961,1.640625 21,1.640625 Z M21,11.484375 C23.2305117,11.484375 25.2465938,10.1873789 26.1886406,8.203125 L30.0234375,8.203125 L30.0234375,23.2148438 L11.9765625,23.2148438 L11.9765625,8.203125 C12.4849102,8.203125 15.4092422,8.203125 15.8112773,8.203125 C16.7532422,10.1872969 18.7694062,11.484375 21,11.484375 Z M10.3359375,4.921875 L15.3171211,4.921875 C15.2784023,5.19233203 15.2578125,5.46607031 15.2578125,5.7421875 C15.2578125,6.01830469 15.2784023,6.29204297 15.3171211,6.5625 C14.752582,6.5625 11.2331953,6.5625 10.3359375,6.5625 L10.3359375,4.921875 L10.3359375,4.921875 Z M31.9101562,24.8554688 L31.9101562,26.7421875 L10.0898438,26.7421875 L10.0898438,24.8554688 C10.8341133,24.8554688 30.9588398,24.8554688 31.9101562,24.8554688 Z M1.640625,11.484375 L10.3359375,11.484375 L10.3359375,13.3710938 L1.640625,13.3710938 L1.640625,11.484375 Z M1.640625,15.0117188 L10.3359375,15.0117188 L10.3359375,23.2148438 L9.26953125,23.2148438 C8.81655469,23.2148438 8.44921875,23.5820977 8.44921875,24.0351562 L8.44921875,25.1015625 L1.640625,25.1015625 L1.640625,15.0117188 Z M10.3359375,40.359375 L1.640625,40.359375 L1.640625,26.7421875 L8.44921875,26.7421875 L8.44921875,27.5625 C8.44921875,28.0155586 8.81655469,28.3828125 9.26953125,28.3828125 L10.3359375,28.3828125 L10.3359375,40.359375 Z M20.1796875,40.359375 L16.8984375,40.359375 L16.8984375,31.9101562 L20.1796875,31.9101562 L20.1796875,40.359375 Z M25.1015625,40.359375 L21.8203125,40.359375 L21.8203125,31.9101562 L25.1015625,31.9101562 L25.1015625,40.359375 Z M30.0234375,40.359375 L26.7421875,40.359375 L26.7421875,31.0898438 C26.7421875,30.6367852 26.3748516,30.2695312 25.921875,30.2695312 L16.078125,30.2695312 C15.6251484,30.2695312 15.2578125,30.6367852 15.2578125,31.0898438 L15.2578125,40.359375 L11.9765625,40.359375 L11.9765625,28.3828125 L30.0234375,28.3828125 L30.0234375,40.359375 Z M40.359375,40.359375 L31.6640625,40.359375 L31.6640625,28.3828125 L32.7304688,28.3828125 C33.1834453,28.3828125 33.5507812,28.0155586 33.5507812,27.5625 L33.5507812,26.7421875 L40.359375,26.7421875 L40.359375,40.359375 Z M40.359375,25.1015625 L33.5507812,25.1015625 L33.5507812,24.0351562 C33.5507812,23.5820977 33.1834453,23.2148438 32.7304688,23.2148438 L31.6640625,23.2148438 L31.6640625,15.0117188 L40.359375,15.0117188 L40.359375,25.1015625 Z M40.359375,13.3710938 L31.6640625,13.3710938 L31.6640625,11.484375 L40.359375,11.484375 L40.359375,13.3710938 Z" id="Shape" fill="#2C357E" fill-rule="nonzero"></path>
                <rect id="Rectangle" fill="#F16C51" x="34" y="17" width="5" height="5" rx="1"></rect>
                <rect id="Rectangle-Copy" fill="#F16C51" x="3" y="17" width="5" height="5" rx="1"></rect>
                <rect id="Rectangle-Copy-2" fill="#F16C51" x="3" y="30" width="5" height="8" rx="1"></rect>
                <rect id="Rectangle-Copy-37" fill="#F16C51" transform="translate(21.000000, 16.500000) rotate(-270.000000) translate(-21.000000, -16.500000) " x="18.5" y="9" width="5" height="15" rx="1"></rect>
                <rect id="Rectangle-Copy-38" fill="#F16C51" transform="translate(21.000000, 20.500000) rotate(-270.000000) translate(-21.000000, -20.500000) " x="20.5" y="13" width="1" height="15" rx="0.5"></rect>
                <rect id="Rectangle-Copy-36" fill="#F16C51" x="34" y="30" width="5" height="8" rx="1"></rect>
            </g>
        </g>
    </g>
</svg>