<?xml version="1.0" encoding="UTF-8"?>
<svg width="51px" height="36px" viewBox="0 0 51 36" version="1.1" xmlns="http://www.w3.org/2000/svg" xmlns:xlink="http://www.w3.org/1999/xlink">
    <!-- Generator: Sketch 56.3 (81716) - https://sketch.com -->
    <title>Group 11</title>
    <desc>Created with Sketch.</desc>
    <g id="UI-screen" stroke="none" stroke-width="1" fill="none" fill-rule="evenodd">
        <g id="2.-Q-engage-menu" transform="translate(-43.000000, -285.000000)">
            <g id="Group-11" transform="translate(43.000000, 285.000000)">
                <rect id="Rectangle-Copy-26" fill="#F16C51" x="1" y="2" width="4" height="27"></rect>
                <path d="M2.8203125,1 C1.26520703,1 0,2.26520703 0,3.8203125 L0,28.9186445 C0,28.9983555 0.0128398438,29.0775469 0.038,29.1531758 L2.116125,35.3927461 C2.21713672,35.6958555 2.50080078,35.9004023 2.8203125,35.9004023 C3.13982422,35.9004023 3.42348828,35.6959297 3.5245,35.3927461 L5.602625,29.1531758 C5.62778516,29.0775469 5.640625,28.9984297 5.640625,28.9186445 L5.640625,21.2246094 C5.640625,20.8146992 5.30834766,20.4824219 4.8984375,20.4824219 C4.48852734,20.4824219 4.15625,20.8146992 4.15625,21.2246094 L4.15625,28.176457 L1.484375,28.176457 L1.484375,5.99121094 L4.15625,5.99121094 L4.15625,17.2871094 C4.15625,17.6970195 4.48852734,18.0292969 4.8984375,18.0292969 C5.30834766,18.0292969 5.640625,17.6970195 5.640625,17.2871094 L5.640625,3.8203125 C5.640625,2.26520703 4.37541797,1 2.8203125,1 Z M2.8203125,32.8094141 L1.77167578,29.660832 L3.86902344,29.660832 L2.8203125,32.8094141 Z M1.484375,4.50683594 L1.484375,3.8203125 C1.484375,3.08369141 2.08369141,2.484375 2.8203125,2.484375 C3.55693359,2.484375 4.15625,3.08369141 4.15625,3.8203125 L4.15625,4.50683594 L1.484375,4.50683594 Z" id="XMLID_427_-Copy" fill="#2C357E" fill-rule="nonzero"></path>
                <g id="Group-10" transform="translate(10.000000, 0.000000)">
                    <polygon id="Path-15" fill="#F16C51" points="11 29 35.8835449 29 35.8835449 12.8932708 39.3999999 12.8932708 39.3999999 33 11 33"></polygon>
                    <g id="Group-9">
                        <g id="paper" transform="translate(18.500000, 15.000000) rotate(-270.000000) translate(-18.500000, -15.000000) translate(4.000000, -3.000000)" fill="#2C357E" fill-rule="nonzero" stroke="#2C357E" stroke-width="0.25">
                            <path d="M-2.55795385e-13,33.0000016 C0.00199744529,34.6560335 1.35330122,35.9980179 3.02083333,36.0000016 L25.9791667,36.0000016 C27.6466988,35.9980179 28.9980026,34.6560335 29,33.0000016 L29,0.600003105 C29,0.26863227 28.7295054,1.55883162e-06 28.3958333,1.55883162e-06 L9.0625,1.55883162e-06 C8.9019019,-0.000362823185 8.74784713,0.0631678874 8.63475,0.176403123 L2.59308333,6.17640286 C2.47980307,6.28862494 2.41630123,6.44110133 2.41666667,6.60000285 L2.41666667,30.0000016 L-2.55795385e-13,30.0000016 L-2.55795385e-13,33.0000016 Z M9.66666667,6.60000285 L9.66666667,1.20000308 L27.7916667,1.20000308 L27.7916667,33.0000017 C27.7916667,33.9941142 26.9801828,34.8000016 25.9791667,34.8000016 C24.9781506,34.8000016 24.1666667,33.9941142 24.1666667,33.0000017 L24.1666667,30.6000018 C24.1666667,30.268631 23.896172,30.0000018 23.5625,30.0000018 L3.625,30.0000018 L3.625,7.20000308 L9.0625,7.20000308 C9.39617204,7.20000308 9.66666667,6.93137368 9.66666667,6.60000285 L9.66666667,6.60000285 Z M4.47929167,6.00000287 L8.45833333,2.04840304 L8.45833333,6.00000287 L4.47929167,6.00000287 Z M1.20833333,31.2000018 L22.9583333,31.2000018 L22.9583333,33.0000017 C22.9605547,33.6512832 23.1783668,34.2837683 23.5782083,34.8000016 L3.02083333,34.8000016 C2.01981722,34.8000016 1.20833333,33.9941142 1.20833333,33.0000017 L1.20833333,31.2000018 Z" id="Shape"></path>
                        </g>
                        <rect id="Rectangle" stroke="#F16C51" stroke-width="0.5" x="8.25" y="11.25" width="2.5" height="2.5"></rect>
                        <rect id="Rectangle-Copy-16" fill="#F16C51" x="8" y="16" width="3" height="3"></rect>
                        <rect id="Rectangle-Copy-12" stroke="#F16C51" stroke-width="0.5" x="13.25" y="11.25" width="2.5" height="2.5"></rect>
                        <rect id="Rectangle-Copy-17" fill="#F16C51" x="13" y="16" width="3" height="3"></rect>
                        <rect id="Rectangle-Copy-13" stroke="#F16C51" stroke-width="0.5" x="18.25" y="11.25" width="2.5" height="2.5"></rect>
                        <rect id="Rectangle-Copy-18" fill="#F16C51" x="18" y="16" width="3" height="3"></rect>
                        <rect id="Rectangle-Copy-14" fill="#F16C51" x="23" y="11" width="3" height="3"></rect>
                        <rect id="Rectangle-Copy-19" fill="#F16C51" x="23" y="16" width="3" height="3"></rect>
                        <rect id="Rectangle-Copy-15" fill="#F16C51" x="28" y="11" width="3" height="3"></rect>
                        <rect id="Rectangle-Copy-20" fill="#F16C51" x="28" y="16" width="3" height="3"></rect>
                        <rect id="Rectangle-Copy-25" fill="#F16C51" x="8" y="21" width="3" height="3"></rect>
                        <rect id="Rectangle-Copy-24" fill="#F16C51" x="13" y="21" width="3" height="3"></rect>
                        <rect id="Rectangle-Copy-23" fill="#F16C51" x="18" y="21" width="3" height="3"></rect>
                        <rect id="Rectangle-Copy-22" stroke="#F16C51" stroke-width="0.5" x="23.25" y="21.25" width="2.5" height="2.5"></rect>
                        <rect id="Rectangle-Copy-21" stroke="#F16C51" stroke-width="0.5" x="28.25" y="21.25" width="2.5" height="2.5"></rect>
                    </g>
                    <polyline id="Path-14" stroke="#2C357E" stroke-width="1.5" stroke-linecap="round" stroke-linejoin="round" points="11 29 11 33 39.3999999 33 39.3999999 12.8932708 36.4999984 12.8932708"></polyline>
                </g>
            </g>
        </g>
    </g>
</svg>