<?xml version="1.0" encoding="UTF-8"?>
<svg width="38px" height="38px" viewBox="0 0 38 38" version="1.1" xmlns="http://www.w3.org/2000/svg" xmlns:xlink="http://www.w3.org/1999/xlink">
    <!-- Generator: Sketch 56.3 (81716) - https://sketch.com -->
    <title>Group 17</title>
    <desc>Created with Sketch.</desc>
    <g id="UI-screen" stroke="none" stroke-width="1" fill="none" fill-rule="evenodd">
        <g id="2.-Q-engage-menu" transform="translate(-161.000000, -150.000000)">
            <g id="Group-17" transform="translate(161.000000, 150.000000)">
                <rect id="Rectangle" fill="#F16C51" x="10" y="1" width="10" height="5"></rect>
                <rect id="Rectangle" fill="#F16C51" x="33" y="3" width="4" height="26"></rect>
                <path d="M35.1796875,1.54983594 C33.624582,1.54983594 32.359375,2.81504297 32.359375,4.37014844 L32.359375,29.4684805 C32.359375,29.5481914 32.3722148,29.6273828 32.397375,29.7030117 L34.4755,35.942582 C34.5765117,36.2456914 34.8601758,36.4502383 35.1796875,36.4502383 C35.4991992,36.4502383 35.7828633,36.2457656 35.883875,35.942582 L37.962,29.7030117 C37.9871602,29.6273828 38,29.5482656 38,29.4684805 L38,21.7744453 C38,21.3645352 37.6677227,21.0322578 37.2578125,21.0322578 C36.8479023,21.0322578 36.515625,21.3645352 36.515625,21.7744453 L36.515625,28.726293 L33.84375,28.726293 L33.84375,6.54104687 L36.515625,6.54104687 L36.515625,17.8369453 C36.515625,18.2468555 36.8479023,18.5791328 37.2578125,18.5791328 C37.6677227,18.5791328 38,18.2468555 38,17.8369453 L38,4.37014844 C38,2.81504297 36.734793,1.54983594 35.1796875,1.54983594 Z M35.1796875,33.35925 L34.1310508,30.210668 L36.2283984,30.210668 L35.1796875,33.35925 Z M33.84375,5.05667187 L33.84375,4.37014844 C33.84375,3.63352734 34.4430664,3.03421094 35.1796875,3.03421094 C35.9163086,3.03421094 36.515625,3.63352734 36.515625,4.37014844 L36.515625,5.05667187 L33.84375,5.05667187 Z" id="XMLID_427_" fill="#2C357E" fill-rule="nonzero"></path>
                <path d="M27.4609375,-3.55271368e-15 L20.5709883,-3.55271368e-15 L9.41338672,-3.55271368e-15 L2.5234375,-3.55271368e-15 C1.13198438,-3.55271368e-15 0,1.13198437 0,2.5234375 L0,35.4765625 C0,36.8680156 1.13198438,38 2.5234375,38 L27.4609375,38 C28.8523906,38 29.984375,36.8680156 29.984375,35.4765625 L29.984375,2.5234375 C29.984375,1.13198437 28.8523906,-3.55271368e-15 27.4609375,-3.55271368e-15 Z M19.8288008,1.484375 L19.8288008,4.50878906 C19.8288008,4.96916797 19.4542188,5.34375 18.9938398,5.34375 L10.9905352,5.34375 C10.5301563,5.34375 10.1555742,4.96916797 10.1555742,4.50878906 L10.1555742,1.484375 L19.8288008,1.484375 Z M28.5,35.4765625 C28.5,36.0495313 28.0339063,36.515625 27.4609375,36.515625 L2.5234375,36.515625 C1.95046875,36.515625 1.484375,36.0495313 1.484375,35.4765625 L1.484375,2.5234375 C1.484375,1.95046875 1.95046875,1.484375 2.5234375,1.484375 L8.67119922,1.484375 L8.67119922,2.96875 L5.1953125,2.96875 C3.96758594,2.96875 2.96875,3.96758594 2.96875,5.1953125 L2.96875,32.8046875 C2.96875,34.0324141 3.96758594,35.03125 5.1953125,35.03125 L8.77302734,35.03125 C9.1829375,35.03125 9.51521484,34.6989727 9.51521484,34.2890625 C9.51521484,33.8791523 9.1829375,33.546875 8.77302734,33.546875 L5.1953125,33.546875 C4.78607031,33.546875 4.453125,33.2139297 4.453125,32.8046875 L4.453125,5.1953125 C4.453125,4.78607031 4.78607031,4.453125 5.1953125,4.453125 L8.67119922,4.453125 L8.67119922,4.50878906 C8.67119922,5.78765234 9.71167188,6.828125 10.9905352,6.828125 L18.9937656,6.828125 C20.2726289,6.828125 21.3131016,5.78765234 21.3131016,4.50878906 L21.3131016,4.453125 L24.7890625,4.453125 C25.1983047,4.453125 25.53125,4.78607031 25.53125,5.1953125 L25.53125,28.8710938 L23.0820312,28.8710938 C21.8543047,28.8710938 20.8554688,29.8699297 20.8554688,31.0976562 L20.8554688,33.546875 L14.7106016,33.546875 C14.3006914,33.546875 13.9684141,33.8791523 13.9684141,34.2890625 C13.9684141,34.6989727 14.3006914,35.03125 14.7106016,35.03125 L21.5976562,35.03125 C21.7944844,35.03125 21.9832969,34.9530234 22.122457,34.8138633 L26.7982383,30.138082 C26.9373984,29.9989219 27.015625,29.8101094 27.015625,29.6132812 L27.015625,5.1953125 C27.015625,3.96758594 26.0167891,2.96875 24.7890625,2.96875 L21.3131758,2.96875 L21.3131758,1.484375 L27.4609375,1.484375 C28.0339063,1.484375 28.5,1.95046875 28.5,2.5234375 L28.5,35.4765625 Z M24.4816484,30.3554687 L22.3398438,32.4972734 L22.3398438,31.0976562 C22.3398438,30.6884141 22.6727891,30.3554687 23.0820312,30.3554687 L24.4816484,30.3554687 Z" id="XMLID_909_" fill="#2C357E" fill-rule="nonzero"></path>
                <path d="M10.2673477,16.989043 L7.968125,19.2882656 L7.27863281,18.5987734 C6.98880859,18.3089492 6.51885547,18.3089492 6.22895703,18.5987734 C5.93913281,18.8885977 5.93913281,19.3585508 6.22895703,19.6484492 L7.44325,20.8627422 C7.58819922,21.0076914 7.778125,21.0801289 7.96805078,21.0801289 C8.15797656,21.0801289 8.34797656,21.0076914 8.49285156,20.8627422 L11.316875,18.0387187 C11.6066992,17.7488945 11.6066992,17.2789414 11.316875,16.989043 C11.0271992,16.6992187 10.5572461,16.6992187 10.2673477,16.989043 Z" id="XMLID_912_" fill="#F16C51" fill-rule="nonzero"></path>
                <path d="M14.2319648,21.0706289 L18.0009414,21.0706289 C18.4108516,21.0706289 18.7431289,20.7383516 18.7431289,20.3284414 C18.7431289,19.9185313 18.4108516,19.5862539 18.0009414,19.5862539 L14.2319648,19.5862539 C13.8220547,19.5862539 13.4897773,19.9185313 13.4897773,20.3284414 C13.4897773,20.7383516 13.8220547,21.0706289 14.2319648,21.0706289 Z" id="XMLID_913_" fill="#F16C51" fill-rule="nonzero"></path>
                <path d="M14.2319648,18.1018789 L21.7698437,18.1018789 C22.1797539,18.1018789 22.5120312,17.7696016 22.5120312,17.3596914 C22.5120312,16.9497813 22.1797539,16.6175039 21.7698437,16.6175039 L14.2319648,16.6175039 C13.8220547,16.6175039 13.4897773,16.9497813 13.4897773,17.3596914 C13.4897773,17.7696016 13.8220547,18.1018789 14.2319648,18.1018789 Z" id="XMLID_914_" fill="#F16C51" fill-rule="nonzero"></path>
                <path d="M11.3170234,23.8913867 C11.0271992,23.6015625 10.5572461,23.6015625 10.2673477,23.8913867 L7.968125,26.1906094 L7.27863281,25.5011172 C6.98880859,25.211293 6.51885547,25.211293 6.22895703,25.5011172 C5.93913281,25.7909414 5.93913281,26.2608945 6.22895703,26.550793 L7.44325,27.7650859 C7.58819922,27.9100352 7.778125,27.9824727 7.96805078,27.9824727 C8.15797656,27.9824727 8.34797656,27.9100352 8.49285156,27.7650859 L11.316875,24.9410625 C11.6068477,24.6511641 11.6068477,24.1812109 11.3170234,23.8913867 Z" id="XMLID_915_" fill="#F16C51" fill-rule="nonzero"></path>
                <path d="M18.0009414,27.9729727 C18.4108516,27.9729727 18.7431289,27.6406953 18.7431289,27.2307852 C18.7431289,26.820875 18.4108516,26.4885977 18.0009414,26.4885977 L14.2319648,26.4885977 C13.8220547,26.4885977 13.4897773,26.820875 13.4897773,27.2307852 C13.4897773,27.6406953 13.8220547,27.9729727 14.2319648,27.9729727 L18.0009414,27.9729727 Z" id="XMLID_916_" fill="#F16C51" fill-rule="nonzero"></path>
                <path d="M14.2319648,25.0042227 L21.7698437,25.0042227 C22.1797539,25.0042227 22.5120312,24.6719453 22.5120312,24.2620352 C22.5120312,23.852125 22.1797539,23.5198477 21.7698437,23.5198477 L14.2319648,23.5198477 C13.8220547,23.5198477 13.4897773,23.852125 13.4897773,24.2620352 C13.4897773,24.6719453 13.8220547,25.0042227 14.2319648,25.0042227 Z" id="XMLID_917_" fill="#F16C51" fill-rule="nonzero"></path>
                <path d="M7.44339844,13.8741563 C7.58255859,14.0133164 7.77137109,14.091543 7.96819922,14.091543 C8.16502734,14.091543 8.35383984,14.0133164 8.493,13.8741563 L11.3170234,11.0501328 C11.6068477,10.7603086 11.6068477,10.2903555 11.3170234,10.000457 C11.0271992,9.71063281 10.5572461,9.71063281 10.2673477,10.000457 L7.968125,12.2996797 L7.27863281,11.6101875 C6.98880859,11.3202891 6.51885547,11.3204375 6.22903125,11.6101875 C5.93920703,11.9000117 5.93913281,12.3699648 6.22903125,12.6597891 L7.44339844,13.8741563 Z" id="XMLID_918_" fill="#F16C51" fill-rule="nonzero"></path>
                <path d="M14.2319648,14.0821172 L18.0009414,14.0821172 C18.4108516,14.0821172 18.7431289,13.7498398 18.7431289,13.3399297 C18.7431289,12.9300195 18.4108516,12.5977422 18.0009414,12.5977422 L14.2319648,12.5977422 C13.8220547,12.5977422 13.4897773,12.9300195 13.4897773,13.3399297 C13.4897773,13.7498398 13.8220547,14.0821172 14.2319648,14.0821172 Z" id="XMLID_926_" fill="#F16C51" fill-rule="nonzero"></path>
                <path d="M14.2319648,11.1133672 L21.7698437,11.1133672 C22.1797539,11.1133672 22.5120312,10.7810898 22.5120312,10.3711797 C22.5120312,9.96126953 22.1797539,9.62899219 21.7698437,9.62899219 L14.2319648,9.62899219 C13.8220547,9.62899219 13.4897773,9.96126953 13.4897773,10.3711797 C13.4897773,10.7810898 13.8220547,11.1133672 14.2319648,11.1133672 Z" id="XMLID_927_" fill="#F16C51" fill-rule="nonzero"></path>
            </g>
        </g>
    </g>
</svg>