<?xml version="1.0" encoding="UTF-8"?>
<svg width="41px" height="40px" viewBox="0 0 41 40" version="1.1" xmlns="http://www.w3.org/2000/svg" xmlns:xlink="http://www.w3.org/1999/xlink">
    <!-- Generator: Sketch 56.3 (81716) - https://sketch.com -->
    <title>Group</title>
    <desc>Created with Sketch.</desc>
    <g id="UI-screen" stroke="none" stroke-width="1" fill="none" fill-rule="evenodd">
        <g id="2.-Q-engage-menu" transform="translate(-51.000000, -150.000000)">
            <g id="Group" transform="translate(51.000000, 150.000000)">
                <path d="M20.4000008,27.8000003 C20.4000008,32.5496395 24.2055895,36.3999999 28.9000008,36.3999999 C33.5944111,36.3999999 37.4000008,32.5496395 37.4000008,27.8000003 C37.4000008,23.0503611 33.5944111,19.2000008 28.9000008,19.2000008 C24.2078244,19.205492 20.4054282,23.0526223 20.4000008,27.8000003 Z" id="Shape-Copy" fill="#F16C51" fill-rule="nonzero"></path>
                <g id="calendar" fill-rule="nonzero">
                    <path d="M33.9314515,4.28598948 C33.9314515,3.10252903 32.9818927,2.14299474 31.8107358,2.14299474 L29.6900201,2.14299474 C29.6900201,0.959534289 28.7404613,0 27.5693043,0 C26.3981474,0 25.4485886,0.959534289 25.4485886,2.14299474 L22.6209677,2.14299474 C22.6209677,0.959534289 21.6714089,0 20.5002519,0 C19.329095,0 18.3795362,0.959534289 18.3795362,2.14299474 L15.5519153,2.14299474 C15.5519153,0.959534289 14.6023565,0 13.4311996,0 C12.2600426,0 11.3104838,0.959534289 11.3104838,2.14299474 L8.48286287,2.14299474 C8.48286287,0.959534289 7.53330411,0 6.36214716,0 C5.19099021,0 4.24143144,0.959534289 4.24143144,2.14299474 L2.12071572,2.14299474 C0.949558769,2.14299474 0,3.10252903 0,4.28598948 L0,34.2879159 C0,34.6824026 0.31651956,35.0022474 0.70690524,35.0022474 L2.82762096,35.0022474 L2.82762096,37.1452422 C2.82762096,37.5397289 3.14414052,37.8595738 3.5345262,37.8595738 L22.1494674,37.8595738 C22.1587869,37.8595738 22.1656903,37.8546906 22.1743195,37.8546906 C25.918363,40.4640238 30.8000822,40.7120169 34.7843631,38.4947289 C38.7686439,36.2777897 41.1710172,31.9761045 40.990494,27.3838732 C40.8099708,22.7912932 38.0772713,18.6960944 33.9314515,16.8052782 L33.9314515,4.28598948 Z M26.8623991,2.14299474 C26.8623991,1.74850789 27.1789187,1.42866316 27.5693043,1.42866316 C27.95969,1.42866316 28.2762096,1.74850789 28.2762096,2.14299474 L28.2762096,4.28598948 L26.8623991,4.28598948 L26.8623991,2.14299474 Z M19.7933467,2.14299474 C19.7933467,1.74850789 20.1098663,1.42866316 20.5002519,1.42866316 C20.8906376,1.42866316 21.2071572,1.74850789 21.2071572,2.14299474 L21.2071572,4.28598948 L19.7933467,4.28598948 L19.7933467,2.14299474 Z M12.7242943,2.14299474 C12.7242943,1.74850789 13.0408139,1.42866316 13.4311996,1.42866316 C13.8215852,1.42866316 14.1381048,1.74850789 14.1381048,2.14299474 L14.1381048,4.28598948 L12.7242943,4.28598948 L12.7242943,2.14299474 Z M5.65524192,2.14299474 C5.65524192,1.74850789 5.97176148,1.42866316 6.36214716,1.42866316 C6.75253284,1.42866316 7.0690524,1.74850789 7.0690524,2.14299474 L7.0690524,4.28598948 L5.65524192,4.28598948 L5.65524192,2.14299474 Z M1.41381048,4.28598948 C1.41381048,3.89150263 1.73033004,3.5716579 2.12071572,3.5716579 L4.24143144,3.5716579 L4.24143144,5.00032106 C4.24143144,5.39480782 4.557951,5.71465264 4.94833668,5.71465264 L7.77595764,5.71465264 C8.16634331,5.71465264 8.48286287,5.39480782 8.48286287,5.00032106 L8.48286287,3.5716579 L11.3104838,3.5716579 L11.3104838,5.00032106 C11.3104838,5.39480782 11.6270034,5.71465264 12.0173891,5.71465264 L14.84501,5.71465264 C15.2353957,5.71465264 15.5519153,5.39480782 15.5519153,5.00032106 L15.5519153,3.5716579 L18.3795362,3.5716579 L18.3795362,5.00032106 C18.3795362,5.39480782 18.6960558,5.71465264 19.0864415,5.71465264 L21.9140624,5.71465264 C22.3044481,5.71465264 22.6209677,5.39480782 22.6209677,5.00032106 L22.6209677,3.5716579 L25.4485886,3.5716579 L25.4485886,5.00032106 C25.4485886,5.39480782 25.7651082,5.71465264 26.1554939,5.71465264 L28.9831148,5.71465264 C29.3735005,5.71465264 29.6900201,5.39480782 29.6900201,5.00032106 L29.6900201,3.5716579 L31.8107358,3.5716579 C32.2011215,3.5716579 32.517641,3.89150263 32.517641,4.28598948 L32.517641,7.85764738 L1.41381048,7.85764738 L1.41381048,4.28598948 Z M4.24143144,35.0022474 L19.2866392,35.0022474 C19.6473404,35.5086974 20.0463553,35.9861973 20.479887,36.4309106 L4.24143144,36.4309106 L4.24143144,35.0022474 Z M39.5866934,27.8589316 C39.5866934,33.7765828 34.8392449,38.5739053 28.9831148,38.5739053 C23.1269848,38.5739053 18.3795362,33.7765828 18.3795362,27.8589316 C18.3795362,21.9412804 23.1269848,17.1439579 28.9831148,17.1439579 C34.8364835,17.150585 39.5801352,21.9440708 39.5866934,27.8589316 Z M28.9831148,15.7152948 C24.7606677,15.7125044 20.8471463,17.9503713 18.6756908,21.6095766 C16.5042354,25.2684332 16.3937814,29.8114844 18.3850589,33.5735843 L1.41381048,33.5735843 L1.41381048,9.28631054 L32.517641,9.28631054 L32.517641,16.2531362 C31.3727169,15.8963192 30.181195,15.714946 28.9831148,15.7152948 Z" id="Shape" fill="#2C357E"></path>
                    <path d="M6.17502941,13.0046484 C5.03831747,13.0046484 4.11668627,13.933053 4.11668627,15.0781191 C4.11668627,16.2231851 5.03831747,17.1515898 6.17502941,17.1515898 C7.31174134,17.1515898 8.23337254,16.2231851 8.23337254,15.0781191 C8.23337254,13.933053 7.31174134,13.0046484 6.17502941,13.0046484 Z" id="Shape" fill="#F16C51"></path>
                    <path d="M13.0361732,13.0046484 C11.8994613,13.0046484 10.9778301,13.933053 10.9778301,15.0781191 C10.9778301,16.2231851 11.8994613,17.1515898 13.0361732,17.1515898 C14.1728851,17.1515898 15.0945163,16.2231851 15.0945163,15.0781191 C15.0945163,13.933053 14.1728851,13.0046484 13.0361732,13.0046484 Z" id="Shape" fill="#F16C51"></path>
                    <path d="M19.897317,13.0046484 C18.760605,13.0046484 17.8389738,13.933053 17.8389738,15.0781191 C17.8389738,16.2231851 18.760605,17.1515898 19.897317,17.1515898 C21.0340289,17.1515898 21.9556601,16.2231851 21.9556601,15.0781191 C21.9556601,13.933053 21.0340289,13.0046484 19.897317,13.0046484 Z" id="Shape" fill="#F16C51"></path>
                    <path d="M6.17502941,18.5339036 C5.03831747,18.5339036 4.11668627,19.4623082 4.11668627,20.6073743 C4.11668627,21.7524403 5.03831747,22.680845 6.17502941,22.680845 C7.31174134,22.680845 8.23337254,21.7524403 8.23337254,20.6073743 C8.23337254,19.4623082 7.31174134,18.5339036 6.17502941,18.5339036 Z" id="Shape" fill="#F16C51"></path>
                    <path d="M13.0361732,18.5339036 C11.8994613,18.5339036 10.9778301,19.4623082 10.9778301,20.6073743 C10.9778301,21.7524403 11.8994613,22.680845 13.0361732,22.680845 C14.1728851,22.680845 15.0945163,21.7524403 15.0945163,20.6073743 C15.0945163,19.4623082 14.1728851,18.5339036 13.0361732,18.5339036 Z" id="Shape" fill="#F16C51"></path>
                    <path d="M6.17502941,24.0631588 C5.03831747,24.0631588 4.11668627,24.9915634 4.11668627,26.1366294 C4.11668627,27.2816955 5.03831747,28.2101001 6.17502941,28.2101001 C7.31174134,28.2101001 8.23337254,27.2816955 8.23337254,26.1366294 C8.23337254,24.9915634 7.31174134,24.0631588 6.17502941,24.0631588 Z" id="Shape" fill="#F16C51"></path>
                    <path d="M13.0361732,24.0631588 C11.8994613,24.0631588 10.9778301,24.9915634 10.9778301,26.1366294 C10.9778301,27.2816955 11.8994613,28.2101001 13.0361732,28.2101001 C14.1728851,28.2101001 15.0945163,27.2816955 15.0945163,26.1366294 C15.0945163,24.9915634 14.1728851,24.0631588 13.0361732,24.0631588 Z" id="Shape" fill="#F16C51"></path>
                </g>
                <polyline id="Path-2" stroke="#FFFFFF" stroke-width="1.20000005" stroke-linecap="round" stroke-linejoin="round" points="28.9694573 24.431029 28.9411765 28.8732561 32.517641 28.8732561"></polyline>
            </g>
        </g>
    </g>
</svg>