<?xml version="1.0" encoding="UTF-8"?>
<svg width="51px" height="38px" viewBox="0 0 51 38" version="1.1" xmlns="http://www.w3.org/2000/svg" xmlns:xlink="http://www.w3.org/1999/xlink">
    <!-- Generator: Sketch 56.3 (81716) - https://sketch.com -->
    <title>Group 8</title>
    <desc>Created with Sketch.</desc>
    <g id="UI-screen" stroke="none" stroke-width="1" fill="none" fill-rule="evenodd">
        <g id="2.-Q-engage-menu" transform="translate(-155.000000, -416.000000)">
            <g id="Group-8" transform="translate(155.000000, 416.000000)">
                <g id="Group-15" transform="translate(-0.000000, 0.000000)">
                    <polygon id="Path-11" stroke="#F16C51" stroke-width="1.02999997" fill="#F16C51" stroke-linejoin="round" points="18.3673469 4.82350271 24.4897959 4.82350271 24.4897959 15.1012805 18.3673469 15.1012805"></polygon>
                    <polygon id="Path-12" fill="#F16C51" points="35.1954211 18.9204545 40.9204069 13.4150826 43.7345703 16.1677686 38.4554469 22.2207492"></polygon>
                    <path d="M33.7697214,33.9403315 C34.5104545,30.854799 36.2451245,29.3120327 38.9737313,29.3120327 C43.0666415,29.3120327 43.973803,33.9403315 43.973803,33.9403315 C43.973803,33.9403315 40.5724425,33.9403315 33.7697214,33.9403315 Z" id="Path-13" fill="#F16C51"></path>
                    <path d="M27.4234694,0 L3.18877551,0 C1.42857143,0.00204971591 0.00207270408,1.41272727 -7.10542736e-14,3.15340909 L-7.10542736e-14,20.1818182 C0.00207270408,21.9225 1.42857143,23.3331776 3.18877551,23.3352273 L11.9094388,23.3352273 L10.9987245,26.4886364 L9.55925325,26.4886364 C9.2109373,26.4886364 8.92857143,26.7710022 8.92857143,27.1193182 C8.92857143,27.4676341 9.2109373,27.75 9.55925325,27.75 L21.0529917,27.75 C21.4013076,27.75 21.6836735,27.4676341 21.6836735,27.1193182 C21.6836735,26.7710022 21.4013076,26.4886364 21.0529917,26.4886364 L19.6135204,26.4886364 L18.7028061,23.3352273 L27.4234694,23.3352273 C29.1836735,23.3331776 30.6101722,21.9225 30.6122449,20.1818182 L30.6122449,3.15340909 C30.6101722,1.41272727 29.1836735,0.00204971591 27.4234694,0 Z M12.3252551,26.4886364 L13.2359694,23.3352273 L17.3762755,23.3352273 L18.2869898,26.4886364 L12.3252551,26.4886364 Z M29.3367347,20.1818182 C29.3367347,21.2267791 28.4801499,22.0738636 27.4234694,22.0738636 L3.18877551,22.0738636 C2.13209503,22.0738636 1.2755102,21.2267791 1.2755102,20.1818182 L1.2755102,18.9204545 L29.3367347,18.9204545 L29.3367347,20.1818182 Z M29.3367347,17.6590909 L1.2755102,17.6590909 L1.2755102,3.15340909 C1.2755102,2.10844815 2.13209503,1.26136364 3.18877551,1.26136364 L27.4234694,1.26136364 C28.4801499,1.26136364 29.3367347,2.10844815 29.3367347,3.15340909 L29.3367347,17.6590909 Z" id="Shape" fill="#2C357E" fill-rule="nonzero"></path>
                    <path d="M49.1111124,34.1965524 C49.0519121,34.0419513 48.9074214,33.9403315 48.7465851,33.9403315 L45.95935,33.9403315 C45.9029787,33.0097936 45.6609384,32.1389682 45.2667585,31.3532603 C47.3823581,29.6315861 48.7564343,27.0971705 49.0382908,24.3345445 C49.0612374,24.1114369 48.9049067,23.9113458 48.6894804,23.8878951 C48.4737397,23.86401 48.2808409,24.0259938 48.2583134,24.2494271 C48.0028613,26.7502951 46.7821821,29.0563919 44.8891338,30.641053 C44.8002809,30.5071885 44.6828233,30.3979689 44.5852737,30.271487 C44.4278952,30.069333 44.2773272,29.8621849 44.0989928,29.6805503 C44.0776178,29.659271 44.0629487,29.6316947 44.0413642,29.6106324 C47.903321,26.4090653 48.0389054,20.3116591 44.1479248,16.9747075 L44.5323602,16.5762623 C44.6857571,16.4175356 44.6857571,16.1601205 44.5323602,16.0016109 L44.3367371,15.798697 L44.5513252,15.5764579 C45.3946941,16.1389497 46.5689561,17.4296082 47.29602,18.8923473 C47.8548081,20.0159194 48.1970174,21.2847558 48.285556,22.5617347 C48.3011681,22.7879908 48.4917617,22.9545344 48.7049877,22.9378149 C48.9211474,22.9218554 49.0834507,22.7271926 49.0679433,22.503325 C48.8594324,19.5014148 47.41945,16.7895988 45.1149333,14.9923611 L45.965951,14.1105703 C46.3886309,14.328141 46.8102629,14.21599 47.0840513,13.9323014 L47.4289849,13.5748949 C47.80881,13.1815524 47.80881,12.5413259 47.4289849,12.1477662 L44.9166908,9.54516974 C44.5369705,9.15161009 43.9191915,9.15161009 43.5393664,9.54516974 L43.1944328,9.90257622 C42.8367162,10.2733365 42.8288577,10.8563477 43.1451865,11.252513 L41.5469873,12.9082863 L41.197653,12.5464286 C41.0443608,12.3875933 40.7961386,12.3875933 40.6428464,12.5464286 L38.1433353,15.1362139 C37.9902527,15.2949406 37.9902527,15.5522472 38.1433353,15.711191 C38.2966275,15.8697006 38.5448498,15.8697006 38.6981419,15.711191 L40.9204069,13.4085685 C41.8027537,14.3227126 42.5600987,15.1075519 43.7002027,16.2888823 L38.3499602,21.8326994 L35.56985,18.9521684 L37.5652677,16.8850302 C37.7182455,16.726195 37.7182455,16.4691055 37.5652677,16.3102702 C37.411766,16.1517607 37.1633342,16.1517607 37.0103564,16.3102702 L35.015253,18.377517 L34.9289148,18.2881654 C34.601689,17.949107 34.0689908,17.949107 33.7418697,18.2881654 L33.0852176,18.968345 C32.7579918,19.3074035 32.7579918,19.8594727 33.0852176,20.1985311 L33.1716606,20.2878827 C32.8119531,20.7251954 32.3297586,20.9538399 32.3297586,21.5867924 C32.3297586,21.8614699 32.4329663,22.1204051 32.6208356,22.3147421 C32.9157894,22.5670545 33.1342544,23.0336806 33.7262576,23.0336806 C34.3379594,23.0336806 34.5560052,22.5354612 34.9797328,22.1614438 L35.252683,22.4442639 C34.8930803,22.8817937 34.4108858,23.1105469 34.4108858,23.7430651 C34.4108858,24.3531097 34.8600748,24.5815372 35.1047346,24.8887851 C35.2926039,25.0831222 35.5420835,25.1902789 35.8074896,25.1902789 C36.4192961,25.1902789 36.6372371,24.691951 37.0611743,24.3179336 C37.1152405,24.3578867 37.3033194,24.6616605 37.7408779,24.6616605 C37.9557803,24.6616605 38.1709971,24.5770858 38.3346624,24.4073938 L38.9908954,23.7272141 C39.318226,23.3881557 39.318226,22.8363036 38.9908954,22.4971366 L38.9047668,22.4075679 L43.578973,17.5644499 C45.2456979,18.9659565 46.2182597,21.0036727 46.2182597,23.2418058 C46.2182597,25.5370457 45.1650178,27.6954897 43.400429,29.0835339 C40.9589657,27.2272352 37.7231702,27.4097383 35.4802637,29.5014129 C34.9429553,29.1650686 34.4689336,28.7505553 34.0388144,28.2843635 L35.8147194,28.2843635 C36.3482557,28.2843635 36.782147,27.8347827 36.782147,27.2820621 L36.782147,26.6677833 C36.782147,26.1151713 36.3482557,25.6654819 35.8147194,25.6654819 L29.5391706,25.6654819 C29.0056341,25.6654819 28.5714286,26.1151713 28.5714286,26.6677833 L28.5714286,27.2820621 C28.5714286,27.8347827 29.0056341,28.2843635 29.5391706,28.2843635 L30.4458261,28.2843635 C31.0952485,29.5594968 32.2989535,30.9527523 33.8227594,31.9501682 C33.5849103,32.5720467 33.4519453,33.2427809 33.4096144,33.9404401 L30.6222745,33.9404401 C30.461543,33.9404401 30.3171571,34.0420599 30.257852,34.1968781 L29.3970897,36.4435881 C29.2949299,36.7099058 29.4845805,37 29.7615123,37 L31.9269868,37 C32.1438801,37 32.3192807,36.8181483 32.3192807,36.5935207 C32.3192807,36.3690017 32.1438801,36.1870415 31.9269868,36.1870415 L30.3391608,36.1870415 L30.8887284,34.75329 L48.4803408,34.75329 L49.0298036,36.1870415 L33.7619874,36.1870415 C33.5454085,36.1870415 33.3700079,36.3690017 33.3700079,36.5935207 C33.3700079,36.8181483 33.5454085,37 33.7619874,37 L49.6073473,37 C49.8840696,37 50.0743488,36.7104487 49.9718746,36.4435881 L49.1111124,34.1965524 Z M33.874206,22.1573182 C33.7925829,22.2418928 33.6597227,22.2418928 33.5785187,22.1573182 L33.1755374,21.7398736 C33.0939143,21.6554075 33.0939143,21.5176345 33.1754327,21.4331685 L33.7262576,20.8627513 L34.4251358,21.5864667 L33.874206,22.1573182 Z M35.955438,24.313808 C35.8739197,24.3984912 35.7411642,24.3984912 35.6596459,24.313808 L35.2565598,23.8963634 C35.1750415,23.8116802 35.1750415,23.6743414 35.2565598,23.5897668 L35.8074896,23.0191325 L36.506263,23.7430651 L35.955438,24.313808 Z M38.4360888,23.1522371 L37.779751,23.8323081 C37.7041004,23.9110201 37.9047528,24.0049315 33.6400242,19.6234455 C33.6185445,19.6012975 33.6185445,19.5650358 33.6400242,19.5429964 C34.3018105,18.8660738 34.3159557,18.8024529 34.3741083,18.8628168 L34.7377973,19.2396569 C38.6451236,23.2881644 38.4969656,23.0895932 38.4360888,23.1522371 L38.4360888,23.1522371 Z M43.7491346,10.4773362 L44.0940682,10.1199297 C44.1679376,10.0432806 44.2882243,10.0432806 44.3620937,10.1199297 L46.8740736,12.7227433 C46.9477334,12.7991753 46.9477334,12.9235944 46.8740736,13.0003521 L46.52914,13.3577586 C46.4553753,13.4341906 46.3351934,13.4341906 46.261324,13.3577586 L43.7491346,10.7548364 C43.6754747,10.6781873 43.6754747,10.5538767 43.7491346,10.4773362 Z M43.6873148,11.8401925 L45.3674515,13.5813004 L43.7819305,15.2241542 L42.1016891,13.4830462 L43.6873148,11.8401925 Z M29.3557019,27.281845 L29.3557019,26.6676747 C29.3557019,26.5631236 29.4379537,26.4778976 29.5387514,26.4778976 L35.8145098,26.4778976 C35.9154123,26.4778976 35.9975593,26.5631236 35.9975593,26.6676747 L35.9975593,27.281845 C35.9975593,27.3863961 35.9154123,27.471405 35.8145098,27.471405 L29.5387514,27.471405 C29.4379537,27.471405 29.3557019,27.3863961 29.3557019,27.281845 Z M34.1390882,31.215053 C33.0145964,30.4592013 32.0616283,29.4572256 31.3519578,28.284255 L32.9501571,28.284255 C33.4952192,29.0003707 34.1425459,29.6087868 34.8808211,30.0990807 C34.8030749,30.1936436 34.7500565,30.3062288 34.677654,30.4048087 C34.5460511,30.5840548 34.4227259,30.7663407 34.309145,30.9591578 C34.2570697,31.0477494 34.1868676,31.1238558 34.1390882,31.215053 Z M34.1680073,33.9403315 C34.365202,31.0381954 36.7629723,28.616365 39.684325,28.616365 C42.6659258,28.616365 45.0085822,31.1053992 45.2009571,33.9403315 L34.1680073,33.9403315 Z" id="Shape" stroke="#2C357E" stroke-width="0.25" fill="#2C357E" fill-rule="nonzero"></path>
                    <path d="M5.10204082,5.13888889 L15.3061224,5.13888889" id="Path-10" stroke="#F16C51" stroke-width="1.02999997" stroke-linecap="round" stroke-linejoin="round"></path>
                    <path d="M5.10204082,8.22222222 L15.3061224,8.22222222" id="Path-10-Copy" stroke="#F16C51" stroke-width="1.02999997" stroke-linecap="round" stroke-linejoin="round"></path>
                    <path d="M5.10204082,11.3055556 L15.3061224,11.3055556" id="Path-10-Copy-2" stroke="#F16C51" stroke-width="1.02999997" stroke-linecap="round" stroke-linejoin="round"></path>
                    <path d="M5.10204082,14.3888889 L15.3061224,14.3888889" id="Path-10-Copy-3" stroke="#F16C51" stroke-width="1.02999997" stroke-linecap="round" stroke-linejoin="round"></path>
                </g>
                <g id="web"></g>
                <g id="microscope" transform="translate(28.571429, 9.250000)"></g>
                <g id="Group-7" transform="translate(5.102041, 4.625000)"></g>
            </g>
        </g>
    </g>
</svg>