<svg xmlns="http://www.w3.org/2000/svg" xmlns:xlink="http://www.w3.org/1999/xlink" width="106" height="46" viewBox="0 0 106 46">
  <defs>
    <polygon id="qfix-logo-a" points="0 .318 45.113 .318 45.113 45.729 0 45.729"/>
    <polygon id="qfix-logo-c" points=".674 .353 39.558 .353 39.558 25.405 .674 25.405"/>
    <polygon id="qfix-logo-e" points="0 45.73 105.177 45.73 105.177 .318 0 .318"/>
  </defs>
  <g fill="none" fill-rule="evenodd" transform="translate(0 -1)">
    <polygon fill="#FEFEFE" points="27.864 28.302 42.311 46.68 48.337 46.68 33.943 28.302"/>
    <polygon fill="#FEFEFE" points="24.354 35.894 32.789 46.681 38.85 46.681 30.466 35.894"/>
    <g transform="translate(0 .953)">
      <mask id="qfix-logo-b" fill="#fff">
        <use xlink:href="#qfix-logo-a"/>
      </mask>
      <path fill="#FEFEFE" d="M24.3863095,39.0338811 L22.5565476,39.0351514 C13.4102619,39.0351514 6.042,31.2255297 6.69061905,21.8814216 C7.24207143,13.9130162 13.5074286,7.60612432 21.4233571,7.05101622 C30.7046667,6.40063784 38.4628571,13.8164757 38.4628571,23.0233946 C38.4628571,24.1234486 38.3480238,25.1955568 38.1360238,26.2333676 L37.7158095,27.7437189 L42.3305952,33.2490703 C42.3305952,33.2490703 43.1483095,32.2404757 43.7994524,30.6373946 L43.8045,30.6399351 C43.8133333,30.6132595 43.8209048,30.5878541 43.8297381,30.5599081 C44.0404762,30.0314757 44.2335476,29.4395297 44.3710952,28.7980432 L44.3710952,28.7955027 C45.0058333,26.3730973 45.2544286,23.7944486 45.0348571,21.1268811 C44.1250238,10.0031243 35.4014762,1.24969189 24.3459286,0.387178378 C11.1047619,-0.645551351 0,9.90785405 0,23.0233946 C0,35.5444486 10.1192143,45.7294757 22.5565476,45.7294757 C23.6947857,45.7294757 24.5894762,45.6951784 25.8185714,45.4868541 C25.9636905,45.4639892 26.1454048,45.4309622 26.3473095,45.3903135 C26.3523571,45.3890432 26.3561429,45.3890432 26.3599286,45.387773 C26.6829762,45.3217189 27.0476667,45.2391514 27.3833333,45.1603946 C27.6193095,45.1070432 27.8325714,45.0549622 28.0168095,45.0092324 C28.2578333,44.9495297 28.4180952,44.9101514 28.4180952,44.9101514 L28.4155714,44.9063405 C28.5493333,44.870773 28.6263095,44.8491784 28.6263095,44.8491784 L24.3863095,39.0338811 Z" mask="url(#qfix-logo-b)"/>
      <path fill="#FEFEFE" d="M37.68565,27.7080243 L37.6793405,27.701673 C37.6793405,27.701673 37.6793405,27.7156459 37.68565,27.7080243"/>
      <g transform="translate(65.619 20.324)">
        <mask id="qfix-logo-d" fill="#fff">
          <use xlink:href="#qfix-logo-c"/>
        </mask>
        <path fill="#FEFEFE" d="M29.8492214,12.2093297 L38.9677452,0.352627027 L31.6234595,0.352627027 L26.5480786,7.59570811 L21.4209595,0.352627027 L10.1357452,0.352627027 L9.98684048,0.352627027 L2.19962619,0.352627027 L1.1673881,0.352627027 L0.673983333,0.352627027 L0.673983333,0.799762162 L0.673983333,5.26349189 L2.19962619,5.26349189 L4.17198333,5.26349189 L4.17198333,25.4061676 L10.0373167,25.4061676 C10.0511976,25.4061676 10.0612929,25.403627 10.0739119,25.403627 L10.5786738,25.403627 L10.5786738,24.8104108 L10.5786738,21.3324108 L10.5786738,5.26349189 L17.9721738,5.26349189 L23.2456738,12.2093297 L13.4873643,25.4061676 L20.633531,25.4061676 L26.5480786,16.8724919 L32.4613643,25.4061676 L39.5583167,25.4061676 L29.8492214,12.2093297 Z" mask="url(#qfix-logo-d)"/>
      </g>
      <mask id="qfix-logo-f" fill="#fff">
        <use xlink:href="#qfix-logo-e"/>
      </mask>
      <polygon fill="#FEFEFE" points="69.792 17.548 76.199 17.548 76.199 11.098 69.792 11.098" mask="url(#qfix-logo-f)"/>
      <path fill="#FEFEFE" d="M63.4856714,20.6769514 L59.0475524,20.6769514 L59.0475524,16.8064378 C59.0475524,15.5171135 59.303719,14.4018162 59.8122667,13.4580054 C60.3208143,12.5154649 61.6609571,12.0441946 63.8289095,12.0441946 L64.6680762,12.0441946 L64.6680762,6.24032973 L63.8793857,6.24032973 C59.8362429,6.24032973 56.9540524,7.20700541 55.2290286,9.14162703 C53.5040048,11.0762486 52.6408619,13.6142486 52.6408619,16.7568973 L52.6408619,20.6769514 L49.2905048,20.6769514 L48.7971,20.6769514 L48.7971,21.1240865 L48.7971,24.7468973 L48.7971,25.6259243 L52.6408619,25.6259243 L52.6408619,45.1347351 C52.6408619,45.1982486 52.6484333,45.2541405 52.6572667,45.3074919 L52.6572667,45.7279514 L53.1481476,45.7279514 C53.1595048,45.7279514 53.1708619,45.7304919 53.183481,45.7304919 L59.0475524,45.7304919 L59.0475524,25.6259243 L63.4856714,25.6259243 L65.0113143,25.6259243 L65.0113143,21.1240865 L65.0113143,20.6769514 L64.5191714,20.6769514 L63.4856714,20.6769514 Z" mask="url(#qfix-logo-f)"/>
    </g>
  </g>
</svg>
