<?xml version="1.0" encoding="UTF-8"?>
<svg width="112px" height="113px" viewBox="0 0 112 113" version="1.1" xmlns="http://www.w3.org/2000/svg" xmlns:xlink="http://www.w3.org/1999/xlink">
    <!-- Generator: Sketch 56.3 (81716) - https://sketch.com -->
    <title>rate appp</title>
    <desc>Created with Sketch.</desc>
    <g id="Student-Parent" stroke="none" stroke-width="1" fill="none" fill-rule="evenodd">
        <g id="account-Rate-App" transform="translate(-124.000000, -249.000000)" fill-rule="nonzero">
            <g id="rate-appp" transform="translate(124.000000, 249.000000)">
                <path d="M56,36 C65.9252473,36 74,27.9253018 74,17.9998784 C74,8.07469816 65.9252473,0 56,0 C46.0747527,0 38,8.07469816 38,17.9998784 C38,27.9253018 46.0747527,36 56,36 Z M56,3.64842678 C63.9134912,3.64842678 70.3515486,10.0864407 70.3515486,17.9998784 C70.3515486,25.9133161 63.9134912,32.3515732 56,32.3515732 C48.0865088,32.3515732 41.6484514,25.9133161 41.6484514,17.9998784 C41.6484514,10.0864407 48.0865088,3.64842678 56,3.64842678 Z" id="Shape" fill="#2C357E"></path>
                <path d="M56,43.5414161 C70.4811934,43.5414161 82.3713058,54.564664 83.3085208,68.4585839 L41.3425492,68.4585839 C40.339722,68.4585839 39.5267104,69.2511528 39.5267104,70.2292919 C39.5267104,71.2074311 40.339722,72 41.3425492,72 L85.1841612,72 C86.1869884,72 87,71.2074311 87,70.2292919 C87,53.5607906 73.0935801,40 56,40 C38.9064199,40 25,53.5607906 25,70.2292919 C25,71.2074311 25.8130116,72 26.8158388,72 L34.079194,72 C35.0820212,72 35.8950328,71.2074311 35.8950328,70.2292919 C35.8950328,69.2511528 35.0820212,68.4585839 34.079194,68.4585839 L28.6912371,68.4585839 C29.6286942,54.564664 41.5190487,43.5414161 56,43.5414161 L56,43.5414161 Z" id="Path" fill="#2C357E"></path>
                <path d="M33.5067875,90.6226317 L23.6885625,88.9483656 L19.0874106,79.9781303 C18.7790921,79.3770433 18.1674665,79 17.5002386,79 C16.8330107,79 16.2213852,79.3770433 15.9130667,79.9781303 L11.3119147,88.9483656 L1.49368973,90.6226317 C0.83576867,90.734896 0.293824987,91.2094128 0.087642978,91.8541447 C-0.118539031,92.4986341 0.0454043025,93.2064086 0.512654735,93.6898969 L7.48728619,100.908275 L6.0203871,110.913379 C5.92206883,111.584055 6.19888727,112.254247 6.73868322,112.652628 C7.2780019,113.051251 7.99128666,113.111384 8.58835539,112.809264 L17.5,108.300021 L26.4116446,112.809264 C26.6641221,112.936804 26.937361,113 27.2091681,113 C27.5807252,113 27.949896,112.882491 28.2613168,112.652385 C28.8011127,112.254004 29.0779312,111.583813 28.9796129,110.913137 L27.5127138,100.908033 L34.4873453,93.6896544 C34.9545957,93.2061661 35.118539,92.4983917 34.912357,91.8539022 C34.7066523,91.2094128 34.1647086,90.734896 33.5067875,90.6226317 L33.5067875,90.6226317 Z M24.3343131,99.0065707 C23.9412787,99.413438 23.7584831,99.9842161 23.84129,100.548447 L24.9335296,107.997901 L18.2982394,104.640397 C17.7959094,104.386045 17.2050452,104.386045 16.7024765,104.640397 L10.0669477,107.997901 L11.1591873,100.548447 C11.2419942,99.9842161 11.0594372,99.4131956 10.6661641,99.0065707 L5.47295478,93.6319462 L12.7833479,92.3851574 C13.3369848,92.2905935 13.8149739,91.9377974 14.0743718,91.4320017 L17.5002386,84.7528802 L20.9261054,91.4320017 C21.1855034,91.9377974 21.6634925,92.2905935 22.2171294,92.3851574 L29.5275225,93.6319462 L24.3343131,99.0065707 L24.3343131,99.0065707 Z" id="Shape" fill="#2C357E"></path>
                <path d="M72.5063306,90.6226317 L62.6882395,88.9483656 L58.0871503,79.9781303 C57.778836,79.3770433 57.1672188,79 56.5,79 C55.8327812,79 55.221164,79.3770433 54.9128497,79.9781303 L50.3117605,88.9483656 L40.4936694,90.6226317 C39.8357573,90.734896 39.293821,91.2094128 39.0876418,91.8541447 C38.8814626,92.4986341 39.0454037,93.2064086 39.5126477,93.6898969 L46.4871841,100.908275 L45.0205436,110.913379 C44.9222267,111.584055 45.1990414,112.254247 45.73883,112.652628 C46.2781413,113.051251 46.9914163,113.111384 47.5884769,112.809264 L56.5,108.300021 L65.4115231,112.809264 C65.6639972,112.936804 65.9372323,113 66.2090357,113 C66.5805878,113 66.9497535,112.882491 67.26117,112.652385 C67.8009586,112.254004 68.0777733,111.583813 67.9794564,110.913137 L66.5128159,100.908033 L73.4873523,93.6896544 C73.9545963,93.2061661 74.1185374,92.4983917 73.9123582,91.8539022 C73.706179,91.2094128 73.1642427,90.734896 72.5063306,90.6226317 L72.5063306,90.6226317 Z M63.3339813,99.0065707 C62.9409522,99.413438 62.7581591,99.9842161 62.8409649,100.548447 L63.932951,107.997901 L57.2977512,104.640397 C57.0464703,104.513342 56.7732352,104.449815 56.5,104.449815 C56.2267648,104.449815 55.953291,104.513342 55.7022488,104.640397 L49.067049,107.997901 L50.1590351,100.548447 C50.2418409,99.9842161 50.0592864,99.4131956 49.6660187,99.0065707 L44.4728801,93.6319462 L51.7831736,92.3851574 C52.3368029,92.2905935 52.8147855,91.9377974 53.0741799,91.4320017 L56.5,84.7531227 L59.9258201,91.4322442 C60.1852145,91.9380399 60.6631971,92.290836 61.2168264,92.3853999 L68.5271199,93.6321887 L63.3339813,99.0065707 L63.3339813,99.0065707 Z" id="Shape" fill="#2C357E"></path>
                <path d="M111.912369,91.8541447 C111.70619,91.2094128 111.164492,90.734896 110.506341,90.6226317 L100.688247,88.9483656 L96.0871564,79.9781303 C95.778842,79.3770433 95.1672246,79 94.5,79 C93.8327866,79 93.2211692,79.3770433 92.9128548,79.9781303 L88.3117641,88.9483656 L78.4936698,90.6226317 C77.8357575,90.734896 77.2938211,91.2094128 77.0876418,91.8541447 C76.8814625,92.4986341 77.0454037,93.2064086 77.5126479,93.6898969 L84.4871865,100.908275 L83.0203069,110.913379 C82.92199,111.584055 83.1988047,112.254247 83.7385935,112.652628 C84.277905,113.051251 84.9911802,113.111384 85.588241,112.809264 L94.4997669,108.300021 L103.411293,112.809264 C103.663767,112.936804 103.937002,113 104.208806,113 C104.580358,113 104.949524,112.882491 105.26094,112.652385 C105.800729,112.254004 106.077544,111.583813 105.979227,110.913137 L104.512347,100.908033 L111.486886,93.6896544 C111.954607,93.2064086 112.118549,92.4986341 111.912369,91.8541447 L111.912369,91.8541447 Z M101.334228,99.0065707 C100.941198,99.413438 100.758405,99.9842161 100.841211,100.548447 L101.933436,107.997901 L95.2979957,104.640397 C95.0467147,104.513342 94.7734795,104.449815 94.5002442,104.449815 C94.2267703,104.449815 93.9535351,104.513342 93.7024927,104.640397 L87.0672909,107.997901 L88.159516,100.548447 C88.2423218,99.9842161 88.0597672,99.4131956 87.6664993,99.0065707 L82.4733592,93.6319462 L89.7836549,92.3851574 C90.3372844,92.2905935 90.8152671,91.9377974 91.0746617,91.4320017 L94.5004828,84.7528802 L97.926304,91.4320017 C98.1856985,91.9377974 98.6636813,92.2905935 99.2173108,92.3851574 L106.527607,93.6319462 L101.334228,99.0065707 L101.334228,99.0065707 Z" id="Shape" fill="#2C357E"></path>
                <path d="M55.500048,26 C57.8237271,26 60.034425,24.9382969 61.5651081,23.0870266 C62.2073049,22.3101343 62.1293053,21.1328666 61.3904363,20.4573729 C60.6513309,19.7818792 59.5316821,19.8641413 58.8894853,20.6410337 C58.0326715,21.6776356 56.7969687,22.2721099 55.500048,22.2721099 C54.2031273,22.2721099 52.9676608,21.6776356 52.1106106,20.6410337 C51.4681775,19.8641413 50.3485286,19.7821278 49.6096596,20.4573729 C48.8707907,21.1328666 48.7925547,22.3101343 49.4349878,23.0870266 C50.9656709,24.9380484 53.1763688,26 55.500048,26 L55.500048,26 Z" id="Path" fill="#F16C51"></path>
            </g>
        </g>
    </g>
</svg>