<!-- Generated by IcoMoon.io -->
<svg version="1.1" xmlns="http://www.w3.org/2000/svg" width="23" height="32" viewBox="0 0 23 32">
<title>rupee</title>
<path d="M21.088 7.392h-4.48v-3.52h4.48c0 0 0 0 0 0 1.067 0 1.934-0.856 1.952-1.918l0-0.002c0-1.078-0.874-1.952-1.952-1.952v0h-19.136c-1.078 0-1.952 0.874-1.952 1.952v0c0.018 1.064 0.885 1.92 1.952 1.92 0 0 0 0 0 0h10.72v3.52h-10.72c-0.106-0.020-0.228-0.032-0.352-0.032-1.078 0-1.952 0.874-1.952 1.952s0.874 1.952 1.952 1.952c0.124 0 0.246-0.012 0.364-0.034l-0.012 0.002h10.144c-0.232 0.453-0.477 0.841-0.751 1.205l0.015-0.021c-0.351 0.432-0.74 0.81-1.168 1.14l-0.016 0.012c-0.409 0.32-0.871 0.608-1.363 0.844l-0.045 0.020c-0.475 0.187-1.034 0.343-1.613 0.441l-0.051 0.007c-0.368 0.020-0.799 0.032-1.232 0.032s-0.864-0.011-1.292-0.034l0.060 0.003h-2.688c-0 0-0 0-0 0-1.078 0-1.952 0.874-1.952 1.952 0 0.011 0 0.022 0 0.034l-0-0.002v0.288c0.006 0.537 0.225 1.023 0.576 1.376l-0-0 0.384 0.448 1.344 1.344 4.352 4.448 4.48 4.544 2.112 2.112c0.339 0.291 0.782 0.467 1.267 0.467 1.078 0 1.952-0.874 1.952-1.952 0-0.485-0.177-0.929-0.47-1.27l0.002 0.003-2.112-2.112-4.352-4.448-3.2-3.296h0.608c1.948-0.119 3.725-0.76 5.219-1.783l-0.035 0.023c1.466-1.059 2.63-2.449 3.397-4.064l0.027-0.064c0.241-0.479 0.46-1.042 0.624-1.628l0.016-0.068h4.896c0.106 0.020 0.228 0.032 0.352 0.032 1.078 0 1.952-0.874 1.952-1.952s-0.874-1.952-1.952-1.952c-0.124 0-0.246 0.012-0.364 0.034l0.012-0.002z"></path>
</svg>
