<?xml version="1.0" encoding="UTF-8"?>
<svg width="21px" height="29px" viewBox="0 0 21 29" version="1.1" xmlns="http://www.w3.org/2000/svg" xmlns:xlink="http://www.w3.org/1999/xlink">
    <!-- Generator: Sketch 56.3 (81716) - https://sketch.com -->
    <title>Group 6</title>
    <desc>Created with Sketch.</desc>
    <g id="UI-screen-(SP)" stroke="none" stroke-width="1" fill="none" fill-rule="evenodd">
        <g id="01.-Bus-tracking-1.2" transform="translate(-64.000000, -179.000000)">
            <g id="Group-6" transform="translate(64.000000, 179.000000)">
                <g id="Group-45-Copy" fill="#2C357E" fill-rule="nonzero">
                    <g id="Group">
                        <path d="M10.394938,0.112525172 C4.82674156,0.112525172 0.312931691,4.56506684 0.312931691,10.0574822 C0.312931691,15.5498819 10.7018998,28.0768248 10.7018998,28.0768248 C10.7018998,28.0768248 20.4770828,15.5498819 20.4770828,10.0574822 C20.4770828,4.56506684 15.9630877,0.112525172 10.394938,0.112525172 Z M10.394938,2.13118916 C14.8328777,2.13118916 18.4305459,5.67992255 18.4305459,10.0574822 C18.4305459,14.4350393 14.8328752,17.9837689 10.394938,17.9837689 C5.95700056,17.9837689 2.3593297,14.4350394 2.3593297,10.0574822 C2.3593297,5.67992243 5.9569981,2.13118916 10.394938,2.13118916 L10.394938,2.13118916 Z" id="Shape"></path>
                    </g>
                </g>
                <circle id="Oval" fill="#F79923" cx="10.5" cy="10" r="7.5"></circle>
                <g id="Group" transform="translate(6.000000, 5.000000)" fill="#FFFFFF" fill-rule="nonzero">
                    <path d="M0.01728,4.76928 L0.01728,8.55648 L1.1808,8.55648 L1.1808,4.55328 L0.23328,4.55328 C0.1152,4.55328 0.01728,4.64832 0.01728,4.76928 Z" id="Path"></path>
                    <path d="M7.83072,4.55328 L6.912,4.55328 L6.912,8.55648 L8.04384,8.55648 L8.04384,4.76928 C8.04672,4.64832 7.9488,4.55328 7.83072,4.55328 Z" id="Path"></path>
                    <path d="M4.2624,1.74528 L4.2624,1.37088 L5.40864,1.37088 C5.52672,1.37088 5.62464,1.27296 5.62464,1.15488 L5.62464,0.24192 C5.62464,0.12384 5.52672,0.02592 5.40864,0.02592 L4.0464,0.02592 C3.92832,0.02592 3.8304,0.12384 3.8304,0.24192 L3.8304,1.74528 C3.89376,1.70208 3.96864,1.67904 4.0464,1.67904 C4.12416,1.67904 4.19904,1.70208 4.2624,1.74528 Z" id="Path"></path>
                    <path d="M6.64704,3.61152 L4.17024,1.88928 C4.09536,1.83744 3.99744,1.83744 3.92256,1.88928 L1.44576,3.61152 C1.38816,3.65184 1.3536,3.71808 1.3536,3.79008 L1.3536,8.55648 L2.9808,8.55648 L2.9808,6.64704 C2.9808,6.06528 3.43872,5.57568 4.02048,5.56128 C4.61952,5.54688 5.112,6.03072 5.112,6.62688 L5.112,8.55648 L6.7392,8.55648 L6.7392,3.79008 C6.7392,3.71808 6.70464,3.65184 6.64704,3.61152 Z M4.0464,4.76064 C3.55968,4.76064 3.16512,4.36608 3.16512,3.87936 C3.16512,3.39264 3.55968,2.99808 4.0464,2.99808 C4.53312,2.99808 4.92768,3.39264 4.92768,3.87936 C4.92768,4.36608 4.53312,4.76064 4.0464,4.76064 Z" id="Shape"></path>
                </g>
            </g>
        </g>
    </g>
</svg>