<?xml version="1.0" encoding="UTF-8"?>
<svg width="20px" height="20px" viewBox="0 0 20 20" version="1.1" xmlns="http://www.w3.org/2000/svg" xmlns:xlink="http://www.w3.org/1999/xlink">
    <!-- Generator: Sketch 56.3 (81716) - https://sketch.com -->
    <title>Shape</title>
    <desc>Created with Sketch.</desc>
    <defs>
        <linearGradient x1="0%" y1="21.9530639%" x2="96%" y2="100%" id="linearGradient-1">
            <stop stop-color="#F89922" offset="0%"></stop>
            <stop stop-color="#F79326" offset="17%"></stop>
            <stop stop-color="#F58233" offset="40%"></stop>
            <stop stop-color="#F26548" offset="67%"></stop>
            <stop stop-color="#EE3E64" offset="96%"></stop>
            <stop stop-color="#ED3769" offset="100%"></stop>
        </linearGradient>
    </defs>
    <g id="UI-screen" stroke="none" stroke-width="1" fill="none" fill-rule="evenodd">
        <g id="10.-SP-Gallery-(flipbook)" transform="translate(-285.000000, -634.000000)" fill="url(#linearGradient-1)" fill-rule="nonzero">
            <g id="Group-3" transform="translate(0.000000, 622.000000)">
                <g id="Group-21" transform="translate(41.000000, 12.000000)">
                    <g id="Group-19" transform="translate(229.000000, 0.000000)">
                        <g id="web-link" transform="translate(15.000000, 0.000000)">
                            <path d="M7.3245,15.8678057 L6.3125,16.8728057 C5.43525,17.7423057 4.0085,17.7430557 3.13175,16.8728057 C2.71025,16.4545557 2.47875,15.8990557 2.47875,15.3085557 C2.47875,14.7180557 2.7105,14.1623057 3.1315,13.7440557 L6.8565,10.0483057 C7.6285,9.28280571 9.08075,8.15555571 10.13925,9.20530571 C10.625,9.68780571 11.4095,9.68455571 11.89175,9.19905571 C12.37425,8.71355571 12.37125,7.92880571 11.8855,7.44680571 C10.08625,5.66130571 7.427,5.99130571 5.111,8.28930571 L1.38575,11.9853057 C0.492,12.8725557 0,14.0525557 0,15.3085557 C0,16.5645557 0.492,17.7443057 1.386,18.6315557 C2.30575,19.5440557 3.5135,20.0000557 4.72175,20.0000557 C5.93025,20.0000557 7.1385,19.5440557 8.05875,18.6310557 L9.0715,17.6258057 C9.557,17.1438057 9.55975,16.3593057 9.07725,15.8735557 C8.5955,15.3883057 7.81025,15.3855557 7.3245,15.8678057 Z M18.6135,1.51105571 C16.681,-0.406444293 13.979,-0.510444293 12.19,1.26455571 L10.9285,2.51680571 C10.44275,2.99905571 10.43975,3.78330571 10.92225,4.26905571 C11.40475,4.75480571 12.18925,4.75755571 12.675,4.27530571 L13.936,3.02380571 C14.86275,2.10355571 16.07625,2.48505571 16.86775,3.27030571 C17.28975,3.68855571 17.5215,4.24430571 17.5215,4.83480571 C17.5215,5.42555571 17.2895,5.98130571 16.86825,6.39955571 L12.894,10.3420557 C11.07675,12.1450557 10.22425,11.2988057 9.8605,10.9378057 C9.37475,10.4555557 8.5905,10.4585557 8.108,10.9440557 C7.6255,11.4295557 7.6285,12.2143057 8.11425,12.6963057 C8.9485,13.5243057 9.90075,13.9348057 10.899,13.9348057 C12.12125,13.9348057 13.41225,13.3193057 14.63975,12.1005557 L18.614,8.15805571 C19.5075,7.27080571 20,6.09055571 20,4.83455571 C20,3.57905571 19.5075,2.39880571 18.6135,1.51105571 Z" id="Shape"></path>
                        </g>
                    </g>
                </g>
            </g>
        </g>
    </g>
</svg>