<?xml version="1.0" encoding="UTF-8"?>
<svg width="94px" height="100px" viewBox="0 0 94 100" version="1.1" xmlns="http://www.w3.org/2000/svg" xmlns:xlink="http://www.w3.org/1999/xlink">
    <!-- Generator: Sketch 56.3 (81716) - https://sketch.com -->
    <title>Stream end</title>
    <desc>Created with Sketch.</desc>
    <g id="Student-Parent" stroke="none" stroke-width="1" fill="none" fill-rule="evenodd">
        <g id="SP-Gallery-1.9" transform="translate(-133.000000, -241.000000)" fill-rule="nonzero">
            <g id="Stream-end" transform="translate(133.000000, 241.000000)">
                <path d="M5.03273484,75.6275826 C1.98086691,76.942138 0.00273496331,79.9453375 0,83.26828 L0,98.2565704 C0,99.1763263 0.745609576,99.921936 1.6653656,99.921936 L91.595108,99.921936 C92.5148639,99.921936 93.2604736,99.1763263 93.2604736,98.2565704 L93.2604736,83.26828 C93.2577386,79.9453375 91.2796066,76.942138 88.2277387,75.6275826 C87.9047164,69.5833384 84.6142724,64.0897056 79.4379391,60.952381 C83.1961317,57.1690885 84.3026447,51.4931961 82.2407494,46.5752797 C84.7275636,46.2551871 86.5919464,44.1414602 86.5990112,41.63414 L86.5990112,4.9960968 C86.5990112,2.23682873 84.3621824,0 81.6029144,0 L11.6575592,0 C8.89829113,0 6.6614624,2.23682873 6.6614624,4.9960968 L6.6614624,41.63414 C6.67302278,44.1399588 8.53905505,46.2495725 11.0247203,46.5669529 C8.9582685,51.4862375 10.0629607,57.1661969 13.8225345,60.952381 C8.64598849,64.0894941 5.35547019,69.5832506 5.03273484,75.6275826 Z M3.3307312,83.26828 C3.3307312,80.509012 5.56755993,78.2721832 8.326828,78.2721832 L39.9687744,78.2721832 C42.7280424,78.2721832 44.9648712,80.509012 44.9648712,83.26828 L44.9648712,96.5912048 L3.3307312,96.5912048 L3.3307312,83.26828 Z M56.7489982,49.960968 L36.5131408,49.960968 C36.3677039,48.8167211 36.0714725,47.6967541 35.6321624,46.6302368 L57.6216498,46.6302368 C57.1838639,47.6967073 56.8903887,48.8168418 56.7489982,49.960968 Z M36.5331252,53.2916992 L56.7273484,53.2916992 C56.8745956,54.4354118 57.1701863,55.5550739 57.6066615,56.6224304 L35.6538121,56.6224304 C36.0902873,55.5550739 36.385878,54.4354118 36.5331252,53.2916992 L36.5331252,53.2916992 Z M33.68535,59.9531616 L59.5751236,59.9531616 C59.8515743,60.2978923 60.1446786,60.6276347 60.456102,60.952381 C55.4344117,63.9929925 52.1754596,69.2573584 51.6929482,75.1079886 C49.6637813,75.5120329 47.8584328,76.6587855 46.6302368,78.3238095 C45.4020408,76.6587855 43.5966923,75.5120329 41.5675254,75.1079886 C41.0854855,69.2580815 37.8279209,63.9939562 32.8077023,60.952381 C33.1170486,60.634445 33.4099785,60.3009387 33.68535,59.9531616 Z M89.9297424,83.26828 L89.9297424,96.5912048 L48.2956024,96.5912048 L48.2956024,83.26828 C48.2956024,80.509012 50.5324312,78.2721832 53.2916992,78.2721832 L84.9336456,78.2721832 C87.6929136,78.2721832 89.9297424,80.509012 89.9297424,83.26828 Z M84.8104085,74.941452 L55.0803018,74.941452 C55.9081599,67.3558922 62.3147546,61.6104473 69.9453552,61.6104473 C77.5759558,61.6104473 83.9825505,67.3558922 84.8104085,74.941452 Z M76.1888108,59.4069217 C72.1518865,57.9555377 67.7354931,57.9555377 63.6985688,59.4069217 C60.3930766,56.7560583 59.1212672,52.3072283 60.5261733,48.3097797 C61.9310795,44.3123312 65.7065498,41.637371 69.9436898,41.637371 C74.1808299,41.637371 77.9563001,44.3123312 79.3612064,48.3097797 C80.7661125,52.3072283 79.4943031,56.7560583 76.1888108,59.4069217 Z M9.9921936,41.63414 L9.9921936,4.9960968 C9.9921936,4.07634078 10.7378032,3.3307312 11.6575592,3.3307312 L81.6029144,3.3307312 C82.5226703,3.3307312 83.26828,4.07634078 83.26828,4.9960968 L83.26828,41.63414 C83.26828,42.5538959 82.5226703,43.2995056 81.6029144,43.2995056 L80.3105907,43.2995056 C77.7956831,40.1440809 73.9803848,38.3060654 69.9453552,38.3060654 C65.9103256,38.3060654 62.0950273,40.1440809 59.5801197,43.2995056 L33.6803539,43.2995056 C31.1654463,40.1440809 27.350148,38.3060654 23.3151184,38.3060654 C19.2800888,38.3060654 15.4647904,40.1440809 12.9498829,43.2995056 L11.6575592,43.2995056 C10.7378032,43.2995056 9.9921936,42.5538959 9.9921936,41.63414 Z M23.3151184,41.63414 C27.5474632,41.6451454 31.3137831,44.3213814 32.7165439,48.3145163 C34.1193046,52.3076513 32.8541853,56.7513971 29.558574,59.4069217 C25.5216497,57.9555377 21.1052564,57.9555377 17.068332,59.4069217 C13.7722515,56.7510121 12.5072967,52.3064254 13.9109248,48.3129518 C15.3145529,44.3194784 19.0821632,41.6437402 23.3151184,41.63414 L23.3151184,41.63414 Z M17.4497008,62.8125943 C21.8043472,60.9586149 26.779465,61.274632 30.8645318,63.664698 C34.9495985,66.0547637 37.6627278,70.2369397 38.1801717,74.941452 L8.45006505,74.941452 C9.04492319,69.5720642 12.483231,64.938238 17.4497008,62.8125943 L17.4497008,62.8125943 Z" id="Shape" fill="#FFFFFF"></path>
                <path d="M14.9882904,13.3229248 C15.8925839,13.3229248 15.929222,13.0714546 19.4964351,9.50424148 C19.9293579,9.08611069 20.1029822,8.46692207 19.9505756,7.88466124 C19.7981688,7.3024004 19.3434493,6.84768072 18.7611883,6.69527405 C18.1789275,6.54286738 17.559739,6.71649177 17.1416081,7.14941452 L13.8108769,10.4801457 C13.3347357,10.9564307 13.1923236,11.6726085 13.4500289,12.2948189 C13.7077341,12.9170294 14.3148234,13.322781 14.9882904,13.3229248 L14.9882904,13.3229248 Z" id="Shape" fill="#FFFFFF"></path>
                <path d="M14.9882904,21.6497528 C15.4299367,21.6497528 15.8534599,21.474139 16.1657039,21.1618007 L27.8232631,9.50424148 C28.2561859,9.08611069 28.4298102,8.46692207 28.2774036,7.88466124 C28.1249968,7.3024004 27.6702773,6.84768072 27.0880163,6.69527405 C26.5057555,6.54286738 25.886567,6.71649177 25.4684361,7.14941452 L13.8108769,18.8069737 C13.3347357,19.2832588 13.1923236,19.9994364 13.4500289,20.621647 C13.7077341,21.2438574 14.3148234,21.6497528 14.9882904,21.6497528 Z" id="Shape" fill="#FFFFFF"></path>
                <path d="M46.6302368,38.3034088 C54.9080409,38.3034088 61.6185272,31.5929225 61.6185272,23.3151184 C61.6185272,15.0373142 54.9080409,8.326828 46.6302368,8.326828 C38.3524327,8.326828 31.6419464,15.0373142 31.6419464,23.3151184 C31.6511244,31.589118 38.3562372,38.2942308 46.6302368,38.3034088 Z M46.6302368,11.6575592 C53.0685289,11.6575592 58.287796,16.8768263 58.287796,23.3151184 C58.287796,29.7534105 53.0685289,34.9726776 46.6302368,34.9726776 C40.1919447,34.9726776 34.9726776,29.7534105 34.9726776,23.3151184 C34.9800195,16.8798698 40.1949882,11.6649012 46.6302368,11.6575592 Z" id="Shape" fill="#F16C50"></path>
                <path d="M47.3513401,29.2821233 L51.8894614,25.9996877 C52.768029,25.3882105 53.2917971,24.3855321 53.2917971,23.3151184 C53.2917971,22.2447047 52.768029,21.2420263 51.8894614,20.6305491 L47.3496747,17.3481135 C46.2915397,16.5550702 44.8821075,16.4107713 43.6852243,16.9729437 C42.488341,17.5351162 41.6994466,18.7119624 41.63414,20.0326828 L41.63414,26.597554 C41.6990296,27.9188724 42.4881781,29.0963843 43.6856464,29.6586678 C44.8831147,30.2209512 46.2931891,30.0761067 47.3513401,29.2821233 Z M44.9648712,20.0593286 C45.0926317,19.963678 45.2668278,19.9590062 45.3995316,20.0476711 L49.9393182,23.3001301 C45.0997658,26.7973979 45.3112672,26.770752 44.9648712,26.597554 L44.9648712,20.0593286 Z" id="Shape" fill="#F16C50"></path>
                <path d="M11.6575592,81.6029144 L8.326828,81.6029144 C7.40707198,81.6029144 6.6614624,82.348524 6.6614624,83.26828 C6.6614624,84.1880359 7.40707198,84.9336456 8.326828,84.9336456 L11.6575592,84.9336456 C12.5773152,84.9336456 13.3229248,84.1880359 13.3229248,83.26828 C13.3229248,82.348524 12.5773152,81.6029144 11.6575592,81.6029144 Z" id="Shape" fill="#FFFFFF"></path>
                <path d="M38.3034088,81.6029144 L18.3190216,81.6029144 C17.3992657,81.6029144 16.653656,82.348524 16.653656,83.26828 C16.653656,84.1880359 17.3992657,84.9336456 18.3190216,84.9336456 L38.3034088,84.9336456 C39.2231647,84.9336456 39.9687744,84.1880359 39.9687744,83.26828 C39.9687744,82.348524 39.2231647,81.6029144 38.3034088,81.6029144 Z" id="Shape" fill="#FFFFFF"></path>
            </g>
        </g>
    </g>
</svg>