<?xml version="1.0" encoding="UTF-8"?>
<svg width="15px" height="20px" viewBox="0 0 15 20" version="1.1" xmlns="http://www.w3.org/2000/svg" xmlns:xlink="http://www.w3.org/1999/xlink">
    <!-- Generator: Sketch 56.3 (81716) - https://sketch.com -->
    <title>tax</title>
    <desc>Created with Sketch.</desc>
    <g id="Student-Parent" stroke="none" stroke-width="1" fill="none" fill-rule="evenodd">
        <g id="Payment-Summary" transform="translate(-33.000000, -428.000000)" fill="#F79923" fill-rule="nonzero" stroke="#F79923" stroke-width="0.4">
            <g id="tax" transform="translate(34.000000, 429.000000)">
                <path d="M9.23739413,4.83101819 C9.3607662,4.8517306 9.47843073,4.89855227 9.58204569,4.96842014 C9.79059285,5.10888515 10.0351418,5.18677544 10.2867155,5.19319336 C10.3661829,5.19290162 10.4453577,5.18560854 10.523508,5.1716058 C10.8526466,5.11559482 11.146076,4.93151705 11.3389639,4.65992216 C11.4422861,4.4975778 11.6094166,4.38613933 11.799231,4.35273692 C11.9891918,4.3194804 12.1844213,4.36717726 12.3370631,4.4845961 C12.6117599,4.67407075 12.9505576,4.74700172 13.2791108,4.6873442 L13.174764,4.09893716 C12.9849496,4.13233954 12.7897202,4.08449682 12.6370783,3.96722387 C12.0645615,3.57675146 11.2839367,3.71400757 10.8798675,4.27601356 C10.7765452,4.43835788 10.6094148,4.54979639 10.4194539,4.58319876 C10.3329617,4.60055634 10.2435426,4.5983684 10.1577821,4.57692669 C10.335157,4.53025087 10.499214,4.44346306 10.6373674,4.32327283 C10.894356,4.11075201 11.0560715,3.80502541 11.0869511,3.47362711 C11.0950003,3.28152692 11.1838341,3.10182503 11.3317928,2.97842586 C11.4788734,2.85356805 11.6723466,2.79755707 11.8634782,2.82424977 C12.1967146,2.8544432 12.5279021,2.74825572 12.7809392,2.53033801 L12.3947246,2.07291501 C12.2453024,2.19325109 12.0537317,2.24867862 11.8628928,2.22679932 C11.171248,2.17414317 10.5639003,2.68188853 10.495848,3.37006512 C10.4879452,3.56187357 10.3992578,3.74157546 10.2517381,3.86512048 C10.1040721,3.98851969 9.91118431,4.04453067 9.72019902,4.01915068 C9.53316518,4.00471038 9.3451069,4.02965274 9.16846381,4.09266509 C9.08592305,3.95001215 8.96547792,3.83273916 8.82044622,3.75382786 L10.1605628,1.08572149 C10.2071017,0.992807447 10.2019795,0.882535792 10.1469523,0.794289335 C10.0919252,0.706188731 9.99489587,0.652803285 9.89084181,0.653386732 C9.67966039,0.655282928 9.47696722,0.571120605 9.32974028,0.420445206 C8.80054277,-0.0654208462 7.9861113,-0.0654208462 7.45706014,0.420445206 C7.30836969,0.56980782 7.10596924,0.653678437 6.89493415,0.653678437 C6.68375277,0.653678437 6.48149861,0.56980782 6.33280816,0.420445206 C5.80317161,-0.0651291411 4.98859383,-0.0651291411 4.45895727,0.420445206 C4.3111449,0.571266458 4.10786633,0.655428781 3.89639223,0.653386732 C3.79248452,0.653386732 3.6958943,0.706918069 3.64130615,0.795018636 C3.58657169,0.882973387 3.58159581,0.993099152 3.62813477,1.08572149 L4.96664148,3.75382786 C4.73980076,3.87445565 4.57632908,4.0869765 4.51852127,4.33669212 C4.46071346,4.58640774 4.51413079,4.84881332 4.66516282,5.05637486 C1.91702382,5.79210242 0.00497584274,8.27263037 0,11.1087697 L0,16.4858238 C0.000878111933,17.3103813 0.671302261,17.9784289 1.4986124,17.9794499 L12.2886216,17.9794499 C13.1157854,17.9784289 13.7862096,17.3103813 13.787234,16.4858238 L13.787234,11.1087697 C13.7821118,8.27263037 11.8700639,5.79210242 9.12192485,5.05637486 C9.17095173,4.98709047 9.20988055,4.91124227 9.23739413,4.83101819 Z M4.83331766,0.886765816 C4.98215448,0.737403202 5.18455494,0.653386732 5.39588274,0.653386732 C5.60706412,0.653386732 5.80961096,0.737403202 5.95844774,0.886765816 C6.48779162,1.37219431 7.30222306,1.37219431 7.83171324,0.886765816 C7.98025735,0.737403202 8.18236516,0.653386732 8.39340021,0.653386732 C8.60428892,0.653386732 8.80654307,0.737403202 8.95508718,0.886765816 C9.09821635,1.01264467 9.26300519,1.11197663 9.44155077,1.17980242 L8.20695177,3.64063901 L5.58013593,3.64063901 L4.34597595,1.18009412 C4.52466791,1.11212248 4.68974943,1.01279052 4.83331766,0.886765816 Z M5.39500463,4.83553992 C5.22933771,4.83553992 5.09528215,4.7017845 5.09528215,4.53681469 C5.09528215,4.37184484 5.22933771,4.23808946 5.39500463,4.23808946 L8.39222942,4.23808946 C8.55774999,4.23808946 8.6919519,4.37184484 8.6919519,4.53681469 C8.6919519,4.7017845 8.55774999,4.83553992 8.39222942,4.83553992 L5.39500463,4.83553992 Z M13.1877891,16.4858238 C13.1877891,16.9807333 12.7851833,17.3819995 12.2886216,17.3819995 L1.4986124,17.3819995 C1.00190436,17.3819995 0.599444958,16.9807333 0.599444958,16.4858238 L0.599444958,11.1087697 C0.602810992,7.97550964 3.15045206,5.43649106 6.29417206,5.43299037 L7.49306198,5.43299037 C10.6366356,5.43649106 13.1842767,7.97550964 13.1877891,11.1087697 L13.1877891,16.4858238 Z" id="Shape"></path>
            </g>
        </g>
    </g>
</svg>