<?xml version="1.0" encoding="UTF-8"?>
<svg width="20px" height="22px" viewBox="0 0 20 22" version="1.1" xmlns="http://www.w3.org/2000/svg" xmlns:xlink="http://www.w3.org/1999/xlink">
    <!-- Generator: Sketch 56.3 (81716) - https://sketch.com -->
    <title>Group 49</title>
    <desc>Created with Sketch.</desc>
    <g id="UI-screen-(SP)" stroke="none" stroke-width="1" fill="none" fill-rule="evenodd">
        <g id="01.-dashboard" transform="translate(-206.000000, -710.000000)" fill="#F79923" fill-rule="nonzero">
            <g id="Group-49" transform="translate(206.000000, 710.000000)">
                <g id="Group">
                    <path d="M17.5269347,1.7261375 L16.7302558,1.7261375 L16.7302558,1.57122773 C16.7302558,0.77454888 16.0884867,0.11064984 15.2696779,0.11064984 C14.4729991,0.11064984 13.8091,0.752418912 13.8091,1.57122773 L13.8091,1.7261375 L11.3969335,1.7261375 L11.3969335,1.57122773 C11.3969335,0.77454888 10.7551644,0.11064984 9.93635563,0.11064984 C9.13967678,0.11064984 8.47577774,0.752418912 8.47577774,1.57122773 L8.47577774,1.7261375 L6.0857412,1.7261375 L6.0857412,1.57122773 C6.0857412,0.77454888 5.44397213,0.11064984 4.62516331,0.11064984 C3.8063545,0.11064984 3.16458542,0.752418912 3.16458542,1.57122773 L3.16458542,1.7261375 L2.36790658,1.7261375 C1.06223846,1.7261375 -1.77635684e-15,2.78837597 -1.77635684e-15,4.09404408 L-1.77635684e-15,18.7883428 C-1.77635684e-15,20.0940109 1.06223846,21.1562494 2.36790658,21.1562494 L17.5048047,21.1562494 C18.8104728,21.1562494 19.8727113,20.0940109 19.8727113,18.7883428 L19.8727113,4.07191411 C19.8948412,2.766246 18.8326028,1.7261375 17.5269347,1.7261375 Z M14.7606887,1.57122773 C14.7606887,1.28353814 14.9819883,1.06223846 15.2696779,1.06223846 C15.5573675,1.06223846 15.7786672,1.28353814 15.7786672,1.57122773 L15.7786672,2.81050594 C15.7786672,3.09819552 15.5573675,3.3194952 15.2696779,3.3194952 C14.9819883,3.3194952 14.7606887,3.09819552 14.7606887,2.81050594 L14.7606887,1.57122773 Z M9.44949634,1.57122773 C9.44949634,1.28353814 9.67079602,1.06223846 9.9584856,1.06223846 C10.2461752,1.06223846 10.4674749,1.28353814 10.4674749,1.57122773 L10.4674749,2.81050594 C10.4674749,3.09819552 10.2461752,3.3194952 9.9584856,3.3194952 C9.67079602,3.3194952 9.44949634,3.09819552 9.44949634,2.81050594 L9.44949634,1.57122773 Z M4.13830402,1.57122773 C4.13830402,1.28353814 4.3596037,1.06223846 4.64729328,1.06223846 C4.93498286,1.06223846 5.15628254,1.28353814 5.15628254,1.57122773 L5.15628254,2.81050594 C5.15628254,3.09819552 4.93498286,3.3194952 4.64729328,3.3194952 C4.3596037,3.3194952 4.13830402,3.09819552 4.13830402,2.81050594 L4.13830402,1.57122773 Z M18.9432526,18.7662129 C18.9432526,19.5407617 18.3014835,20.1825308 17.5269347,20.1825308 L2.39003654,20.1825308 C1.61548766,20.1825308 0.973718592,19.5407617 0.973718592,18.7662129 L0.973718592,4.07191411 C0.973718592,3.29736523 1.61548766,2.65559616 2.39003654,2.65559616 L3.18671539,2.65559616 L3.18671539,2.81050594 C3.18671539,3.60718478 3.82848446,4.27108382 4.64729328,4.27108382 C5.4661021,4.27108382 6.10787117,3.62931475 6.10787117,2.81050594 L6.10787117,2.65559616 L8.52003768,2.65559616 L8.52003768,2.81050594 C8.52003768,3.60718478 9.16180675,4.27108382 9.98061557,4.27108382 C10.7772944,4.27108382 11.4411935,3.62931475 11.4411935,2.81050594 L11.4411935,2.65559616 L13.85336,2.65559616 L13.85336,2.81050594 C13.85336,3.60718478 14.495129,4.27108382 15.3139379,4.27108382 C16.1106167,4.27108382 16.7745157,3.62931475 16.7745157,2.81050594 L16.7745157,2.65559616 L17.5711946,2.65559616 C18.3457435,2.65559616 18.9875125,3.29736523 18.9875125,4.07191411 L18.9875125,18.7662129 L18.9432526,18.7662129 Z" id="Shape"></path>
                    <path d="M5.66527181,10.5781247 L3.78422453,10.5781247 C3.3194952,10.5781247 2.94328574,10.9543342 2.94328574,11.4190635 L2.94328574,12.9460313 C2.94328574,13.4107606 3.3194952,13.7869701 3.78422453,13.7869701 L5.66527181,13.7869701 C6.13000114,13.7869701 6.50621059,13.4107606 6.50621059,12.9460313 L6.50621059,11.4190635 C6.50621059,10.9543342 6.13000114,10.5781247 5.66527181,10.5781247 Z M5.55462197,12.8353814 L3.8727444,12.8353814 L3.8727444,11.5075834 L5.55462197,11.5075834 L5.55462197,12.8353814 Z" id="Shape"></path>
                    <path d="M10.8879443,10.5781247 L9.00689698,10.5781247 C8.54216765,10.5781247 8.16595819,10.9543342 8.16595819,11.4190635 L8.16595819,12.9460313 C8.16595819,13.4107606 8.54216765,13.7869701 9.00689698,13.7869701 L10.8879443,13.7869701 C11.3526736,13.7869701 11.728883,13.4107606 11.728883,12.9460313 L11.728883,11.4190635 C11.751013,10.9543342 11.3526736,10.5781247 10.8879443,10.5781247 Z M10.7994244,12.8353814 L9.11754682,12.8353814 L9.11754682,11.5075834 L10.7994244,11.5075834 L10.7994244,12.8353814 Z" id="Shape"></path>
                    <path d="M16.1327467,10.5781247 L14.2516994,10.5781247 C13.7869701,10.5781247 13.4107606,10.9543342 13.4107606,11.4190635 L13.4107606,12.9460313 C13.4107606,13.4107606 13.7869701,13.7869701 14.2516994,13.7869701 L16.1327467,13.7869701 C16.597476,13.7869701 16.9736855,13.4107606 16.9736855,12.9460313 L16.9736855,11.4190635 C16.9736855,10.9543342 16.597476,10.5781247 16.1327467,10.5781247 Z M16.0442268,12.8353814 L14.3623492,12.8353814 L14.3623492,11.5075834 L16.0442268,11.5075834 L16.0442268,12.8353814 Z" id="Shape"></path>
                    <path d="M5.66527181,15.0926382 L3.78422453,15.0926382 C3.3194952,15.0926382 2.94328574,15.4688476 2.94328574,15.933577 L2.94328574,17.4605448 C2.94328574,17.9252741 3.3194952,18.3014835 3.78422453,18.3014835 L5.66527181,18.3014835 C6.13000114,18.3014835 6.50621059,17.9252741 6.50621059,17.4605448 L6.50621059,15.933577 C6.50621059,15.4688476 6.13000114,15.0926382 5.66527181,15.0926382 Z M5.55462197,17.3498949 L3.8727444,17.3498949 L3.8727444,16.0220968 L5.55462197,16.0220968 L5.55462197,17.3498949 Z" id="Shape"></path>
                    <path d="M10.8879443,15.0926382 L9.00689698,15.0926382 C8.54216765,15.0926382 8.16595819,15.4688476 8.16595819,15.933577 L8.16595819,17.4605448 C8.16595819,17.9252741 8.54216765,18.3014835 9.00689698,18.3014835 L10.8879443,18.3014835 C11.3526736,18.3014835 11.728883,17.9252741 11.728883,17.4605448 L11.728883,15.933577 C11.751013,15.4688476 11.3526736,15.0926382 10.8879443,15.0926382 Z M10.7994244,17.3498949 L9.11754682,17.3498949 L9.11754682,16.0220968 L10.7994244,16.0220968 L10.7994244,17.3498949 Z" id="Shape"></path>
                    <path d="M16.1327467,15.0926382 L14.2516994,15.0926382 C13.7869701,15.0926382 13.4107606,15.4688476 13.4107606,15.933577 L13.4107606,17.4605448 C13.4107606,17.9252741 13.7869701,18.3014835 14.2516994,18.3014835 L16.1327467,18.3014835 C16.597476,18.3014835 16.9736855,17.9252741 16.9736855,17.4605448 L16.9736855,15.933577 C16.9736855,15.4688476 16.597476,15.0926382 16.1327467,15.0926382 Z M16.0442268,17.3498949 L14.3623492,17.3498949 L14.3623492,16.0220968 L16.0442268,16.0220968 L16.0442268,17.3498949 Z" id="Shape"></path>
                    <path d="M5.66527181,6.06361123 L3.78422453,6.06361123 C3.3194952,6.06361123 2.94328574,6.43982069 2.94328574,6.90455002 L2.94328574,8.43151781 C2.94328574,8.89624714 3.3194952,9.27245659 3.78422453,9.27245659 L5.66527181,9.27245659 C6.13000114,9.27245659 6.50621059,8.89624714 6.50621059,8.43151781 L6.50621059,6.90455002 C6.50621059,6.43982069 6.13000114,6.06361123 5.66527181,6.06361123 Z M5.55462197,8.34299794 L3.8727444,8.34299794 L3.8727444,7.01519986 L5.55462197,7.01519986 L5.55462197,8.34299794 Z" id="Shape"></path>
                    <path d="M10.8879443,6.06361123 L9.00689698,6.06361123 C8.54216765,6.06361123 8.16595819,6.43982069 8.16595819,6.90455002 L8.16595819,8.43151781 C8.16595819,8.89624714 8.54216765,9.27245659 9.00689698,9.27245659 L10.8879443,9.27245659 C11.3526736,9.27245659 11.728883,8.89624714 11.728883,8.43151781 L11.728883,6.90455002 C11.751013,6.43982069 11.3526736,6.06361123 10.8879443,6.06361123 Z M10.7994244,8.34299794 L9.11754682,8.34299794 L9.11754682,7.01519986 L10.7994244,7.01519986 L10.7994244,8.34299794 Z" id="Shape"></path>
                    <path d="M16.1327467,6.06361123 L14.2516994,6.06361123 C13.7869701,6.06361123 13.4107606,6.43982069 13.4107606,6.90455002 L13.4107606,8.43151781 C13.4107606,8.89624714 13.7869701,9.27245659 14.2516994,9.27245659 L16.1327467,9.27245659 C16.597476,9.27245659 16.9736855,8.89624714 16.9736855,8.43151781 L16.9736855,6.90455002 C16.9736855,6.43982069 16.597476,6.06361123 16.1327467,6.06361123 Z M16.0442268,8.34299794 L14.3623492,8.34299794 L14.3623492,7.01519986 L16.0442268,7.01519986 L16.0442268,8.34299794 Z" id="Shape"></path>
                </g>
            </g>
        </g>
    </g>
</svg>