<?xml version="1.0" encoding="UTF-8"?>
<svg width="16px" height="14px" viewBox="0 0 16 14" version="1.1" xmlns="http://www.w3.org/2000/svg" xmlns:xlink="http://www.w3.org/1999/xlink">
    <!-- Generator: Sketch 56.3 (81716) - https://sketch.com -->
    <title>funds copy</title>
    <desc>Created with Sketch.</desc>
    <g id="UI-screen" stroke="none" stroke-width="1" fill="none" fill-rule="evenodd">
        <g id="16.-SP-fee-payments-with-filter-1-Copy-4" transform="translate(-38.000000, -286.000000)" fill="#F79923" fill-rule="nonzero">
            <g id="funds-copy" transform="translate(38.000000, 286.000000)">
                <path d="M11.6963989,5.95528992 C11.6960528,5.95235484 11.6958451,5.94938397 11.6954297,5.94648468 C11.693422,5.93202405 11.6907566,5.91759921 11.6869835,5.90335334 C11.6869489,5.90321017 11.6868796,5.90306699 11.686845,5.90288803 C11.6833142,5.88957279 11.6788142,5.87643652 11.6737257,5.86344343 C11.6722719,5.85972089 11.6706796,5.85614153 11.6691219,5.85249058 C11.6651065,5.84311264 11.6606411,5.83387788 11.6557949,5.8247863 C11.6536834,5.8208132 11.651641,5.81684011 11.6493564,5.8129386 C11.6481449,5.81082678 11.6471756,5.80864336 11.6458949,5.80653154 C11.6407718,5.79812003 11.6351641,5.79020964 11.6294871,5.78237083 C11.628414,5.78090329 11.6275486,5.77936417 11.6264756,5.77793242 C11.6178217,5.76633528 11.6084755,5.75556139 11.5986793,5.74536021 C11.5968447,5.74342735 11.594837,5.74163767 11.5929331,5.7397764 C11.5844177,5.7312933 11.5755907,5.72334712 11.566383,5.71586624 C11.5640291,5.71396918 11.5617445,5.71207212 11.5593214,5.71024664 C11.5469983,5.70079712 11.5342944,5.69199188 11.5210367,5.68436784 L6.42130442,2.68690084 L9.35756634,0.775019224 L14.2801363,3.66829093 L12.2069779,5.01817657 C12.0451849,5.12348146 11.9966194,5.3445072 12.0984929,5.51177089 C12.2003317,5.67907038 12.414048,5.72928886 12.5758409,5.62394817 L15.1382898,3.95549912 C15.2413056,3.88845762 15.3026789,3.7703744 15.2999996,3.64452395 C15.2971751,3.5186735 15.2307479,3.40363274 15.1248936,3.34142339 L9.51949777,0.0467617749 C9.40862424,-0.0184542416 9.27199677,-0.0152328138 9.16399633,0.0550301063 L5.5655048,2.39811773 C5.56477787,2.39858305 5.56401633,2.39908416 5.5632894,2.39954948 L3.76511672,3.57039532 C3.76428595,3.57093222 3.76345517,3.57146913 3.76265902,3.57200603 L0.161709782,5.91670437 C0.0586939795,5.98374586 -0.00267934654,6.10182909 2.31009656e-13,6.22767954 C0.00282452196,6.35352998 0.0692517147,6.46857075 0.175105991,6.5307801 L5.78053644,9.82544171 C5.83363665,9.85668956 5.89262151,9.872224 5.95157175,9.872224 C6.01571432,9.872224 6.07975304,9.85379028 6.13600327,9.81717338 L8.69845213,8.14868853 C8.8602451,8.04338364 8.90881068,7.82235789 8.80693719,7.6550942 C8.70513293,7.48779472 8.49134744,7.43754044 8.32958909,7.54291693 L5.94246787,9.09722006 L1.01989788,6.20387676 L3.95619442,4.29195935 L9.20633112,7.37780086 L9.20633112,11.4647905 C9.20633112,11.595151 9.27483524,11.7151671 9.38518953,11.7781639 C9.43735513,11.8079442 9.49495536,11.822727 9.55248637,11.822727 C9.61666355,11.822727 9.68070227,11.8042932 9.73691788,11.7676763 L11.5374098,10.5953272 C11.6380718,10.529789 11.6991335,10.4154283 11.6991335,10.2924414 L11.6991335,5.99720427 C11.6991335,5.99509245 11.6987874,5.993088 11.6987182,5.99097618 C11.6985105,5.97909269 11.6977489,5.9672092 11.6963989,5.95528992 Z M9.89864162,10.8164603 L9.89864162,7.16958924 C9.89864162,7.04083951 9.83176442,6.92204041 9.72352168,6.8584351 L4.6208125,3.85925001 L5.75665173,3.11964598 L10.6791871,6.01295348 L10.2481892,6.29357563 C10.0863962,6.39888053 10.0378306,6.61990627 10.1397041,6.78716996 C10.2054736,6.89526676 10.3179395,6.95443365 10.4329669,6.95443365 C10.4959671,6.95443365 10.5597981,6.93664421 10.6170522,6.89934724 L11.0067884,6.64560611 L11.0067884,10.0948963 L9.89864162,10.8164603 Z" id="Shape"></path>
                <path d="M14.733107,4.91640503 L11.9955498,6.37629548 C11.822727,6.46843711 11.7708161,6.66183431 11.8796513,6.80818979 C11.9499152,6.90277433 12.0700666,6.95454527 12.1929545,6.95454527 C12.26026,6.95454527 12.328453,6.93897954 12.3896196,6.90634474 L15.1271767,5.44645429 C15.2999996,5.35431266 15.3519104,5.16091546 15.2430753,5.01455998 C15.1342771,4.86818169 14.9059193,4.82420076 14.733107,4.91640503 Z" id="Path"></path>
                <path d="M8.4994595,8.70377216 L6.06367148,10.3209038 L0.527808878,7.00325902 C0.35833757,6.90166693 0.142595437,6.96408201 0.0462037733,7.14298539 C-0.0501878902,7.32177705 0.00911647143,7.54913033 0.178729065,7.65075966 L5.89843872,11.0785991 C5.9526215,11.1111101 6.01280889,11.1272724 6.07296096,11.1272724 C6.13841122,11.1272724 6.20375551,11.1080936 6.26115253,11.0699965 L8.87584263,9.33406769 C9.04090885,9.22450612 9.0904898,8.99454601 8.98653939,8.82052114 C8.88265963,8.64642178 8.66451565,8.59413611 8.4994595,8.70377216 Z" id="Path"></path>
                <path d="M14.733107,6.30732152 L11.9955498,7.76720664 C11.822727,7.85934794 11.7708161,8.05274443 11.8796513,8.19909938 C11.9499152,8.29368357 12.0700666,8.34545432 12.1929545,8.34545432 C12.26026,8.34545432 12.328453,8.32988865 12.3896196,8.29725397 L15.1271767,6.83736884 C15.2999996,6.74522755 15.3519104,6.55183106 15.2430753,6.40547611 C15.1342771,6.25905852 14.9059193,6.21511759 14.733107,6.30732152 Z" id="Path"></path>
                <path d="M8.4994595,10.0946812 L6.06367148,11.7118129 L0.527808878,8.39416808 C0.35833757,8.29257598 0.142595437,8.35499107 0.0462037733,8.53389445 C-0.0501878902,8.71268611 0.00911647143,8.94003938 0.178729065,9.04166872 L5.89843872,12.4695081 C5.9526215,12.5020191 6.01280889,12.5181815 6.07296096,12.5181815 C6.13841122,12.5181815 6.20375551,12.4990026 6.26115253,12.4609056 L8.87584263,10.7249767 C9.04090885,10.6154152 9.0904898,10.3854551 8.98653939,10.2114302 C8.88265963,10.0372936 8.66451565,9.98504517 8.4994595,10.0946812 Z" id="Path"></path>
                <path d="M14.733107,7.69820958 L11.9955498,9.15810974 C11.822727,9.25025198 11.7708161,9.44365047 11.8796513,9.59000692 C11.9499152,9.68459209 12.0700666,9.73636338 12.1929545,9.73636338 C12.26026,9.73636338 12.328453,9.72079754 12.3896196,9.68816253 L15.1271767,8.22826236 C15.2999996,8.13612012 15.3519104,7.94272164 15.2430753,7.79636518 C15.1342771,7.64997741 14.9059193,7.60603602 14.733107,7.69820958 Z" id="Path"></path>
                <path d="M8.4994595,11.4855903 L6.06367148,13.1027219 L0.527808878,9.78507713 C0.35833757,9.68348504 0.142595437,9.74590012 0.0462037733,9.9248035 C-0.0501878902,10.1035952 0.00911647143,10.3309484 0.178729065,10.4325778 L5.89843872,13.8604172 C5.9526215,13.8929282 6.01280889,13.9090905 6.07296096,13.9090905 C6.13841122,13.9090905 6.20375551,13.8899117 6.26115253,13.8518146 L8.87584263,12.1158858 C9.04090885,12.0063242 9.0904898,11.7763641 8.98653939,11.6023392 C8.88265963,11.4282399 8.66451565,11.3759542 8.4994595,11.4855903 Z" id="Path"></path>
            </g>
        </g>
    </g>
</svg>