<?xml version="1.0" encoding="UTF-8"?>
<svg width="114px" height="90px" viewBox="0 0 114 90" version="1.1" xmlns="http://www.w3.org/2000/svg" xmlns:xlink="http://www.w3.org/1999/xlink">
    <!-- Generator: Sketch 56.3 (81716) - https://sketch.com -->
    <title>wifi-cross</title>
    <desc>Created with Sketch.</desc>
    <g id="Student-Parent" stroke="none" stroke-width="1" fill="none" fill-rule="evenodd">
        <g id="SP-Gallery-1.10" transform="translate(-130.000000, -210.000000)" fill-rule="nonzero">
            <g id="wifi-cross" transform="translate(130.000000, 210.000000)">
                <g id="Group" fill="#64B5F6">
                    <path d="M98.3722167,22.2308867 C86.0000985,8.19332512 68.2226601,0.106403941 49.5115271,0.00443349754 C30.8032759,0.10862069 13.0296059,8.1953202 0.660147783,22.2308867 C-0.244950739,23.1721182 -0.215689655,24.6690887 0.725541872,25.5741872 C1.6667734,26.4792857 3.16374384,26.4500246 4.06884236,25.5087931 C4.10009852,25.4764286 4.13024631,25.4429557 4.15972906,25.4088177 C15.6380542,12.3665764 32.1379803,4.84448276 49.5115271,4.73342365 C66.8897291,4.84802956 83.3918719,12.3774384 94.8679803,25.4278818 C95.7730788,26.3691133 97.2700493,26.3983744 98.2112808,25.4932759 C99.1148276,24.624532 99.1833251,23.201601 98.3675616,22.2499507 L98.3722167,22.2308867 Z" id="Path"></path>
                    <path d="M49.5161823,18.9206158 C35.4615517,19.0006404 22.1096305,25.0776355 12.8185714,35.6235961 C11.9134729,36.5648276 11.942734,38.061798 12.8839655,38.9668966 C13.825197,39.8719951 15.3221675,39.842734 16.227266,38.9015025 C16.2585222,38.8691379 16.28867,38.835665 16.3181527,38.8015271 C24.7176355,29.24867 36.7960345,23.7360591 49.5161823,23.6496059 C62.23367,23.7300739 74.3118473,29.2358128 82.7142118,38.7826847 C83.5641133,39.7742365 85.0568719,39.8888424 86.0484236,39.0389409 C87.0399754,38.1890394 87.1545813,36.6962808 86.3046798,35.7047291 C86.2754187,35.6705911 86.2450493,35.6371182 86.2137931,35.6047537 C76.9207389,25.0638916 63.5683744,18.9933251 49.5161823,18.9206158 Z" id="Path"></path>
                    <path d="M24.9769951,48.9974631 C24.0718966,49.9386946 24.1011576,51.435665 25.0423892,52.3407635 C25.9836207,53.2458621 27.4805911,53.216601 28.3856897,52.2753695 C28.4169458,52.2430049 28.4470936,52.209532 28.4765764,52.1753941 C38.3391133,40.8043596 55.43867,39.2943103 67.14133,48.760936 C68.1264532,49.6181527 69.6198768,49.5146305 70.4773153,48.5295074 C71.3159113,47.5658867 71.2376601,46.1103695 70.3004187,45.2425123 C56.6481281,34.0796305 36.6060591,35.7399754 24.9769951,48.9974631 Z" id="Path"></path>
                </g>
                <circle id="Oval" cx="87.3487685" cy="63.846798" r="26.0097783"></circle>
                <g id="Group" transform="translate(75.369458, 51.871921)" fill="#FAFAFA">
                    <path d="M21.4372906,23.7974631 C20.8097291,23.7985714 20.2074384,23.5502956 19.763202,23.1069458 L0.847019704,4.19076355 C-0.0602955665,3.25152709 -0.034137931,1.75455665 0.905098522,0.847241379 C1.82150246,-0.0379064039 3.27413793,-0.0379064039 4.19054187,0.847241379 L23.1067241,19.7634236 C24.03133,20.6855911 24.0331034,22.1827833 23.110936,23.1073892 C22.6662562,23.5531773 22.0621921,23.8032266 21.4326355,23.8021219 L21.4372906,23.7974631 Z" id="Path"></path>
                    <path d="M2.52110837,23.7974673 C1.21522167,23.7999015 0.154729064,22.7429557 0.152286971,21.437069 C0.151182266,20.8075123 0.401231527,20.2034483 0.847019704,19.7587685 L19.763202,0.842586207 C20.7024384,-0.064729064 22.1994089,-0.0385714286 23.1067241,0.900665025 C23.9918719,1.81706897 23.9918719,3.26970443 23.1067241,4.18610837 L4.19054187,23.1022906 C3.74807882,23.5460837 3.14756158,23.796133 2.52110837,23.7974673 Z" id="Path"></path>
                </g>
                <path d="M96.6176601,26.2033005 C95.9510837,26.2028571 95.3157635,25.92133 94.8679803,25.4276601 C83.3934236,12.3781034 66.8928325,4.84869458 49.5161823,4.73320197 C32.139532,4.84869458 15.6389409,12.3778818 4.16438424,25.4276601 C3.28167488,26.3939409 1.78248768,26.4617734 0.816206897,25.579064 C-0.150073892,24.6963547 -0.217906404,23.1971675 0.664802956,22.2308867 C13.0340394,8.19487685 30.807931,0.107955665 49.5161823,0.00443349754 C68.2244335,0.107955665 85.9983251,8.19487685 98.3673399,22.2311084 C99.2449507,23.1982759 99.1722414,24.6934729 98.2052956,25.5710837 C97.7705911,25.965665 97.2046552,26.1842365 96.6176601,26.1844581 L96.6176601,26.2033005 Z" id="Path" fill="#FFFFFF"></path>
                <path d="M14.5684729,39.5771675 C13.2625862,39.5765025 12.2051967,38.5173399 12.2051967,37.2112315 C12.2051967,36.6242365 12.4242118,36.0583005 12.8185714,35.6235961 C22.1085222,25.0760837 35.4611084,18.9986453 49.5161823,18.9206158 C63.5710345,18.9999754 76.9229557,25.0771921 86.2137931,35.6235961 C87.1188916,36.5648276 87.0896305,38.061798 86.148399,38.9668966 C85.2071675,39.8719951 83.710197,39.842734 82.8050985,38.9015025 C82.7738424,38.8691379 82.7436946,38.835665 82.7142118,38.8015271 C74.3111823,29.2557635 62.2334483,23.7500246 49.5161823,23.6684483 C36.7989163,23.7493596 24.7207389,29.2550985 16.3181527,38.8015271 C15.8701478,39.295197 15.2348276,39.5767241 14.5684729,39.5771675 Z" id="Path" fill="#FFFFFF"></path>
                <path d="M26.7268966,52.9698768 C25.4210099,52.9692118 24.3629557,51.9100493 24.3636204,50.6039409 C24.3636204,50.0169458 24.5826355,49.4510099 24.9769951,49.0163054 C36.6078325,35.7581527 56.6512315,34.0978079 70.3050739,45.2613547 C71.2766749,46.1349754 71.3560345,47.6308374 70.4824138,48.6024384 C69.6087931,49.5740394 68.112931,49.653399 67.14133,48.7797783 C55.439335,39.3104926 38.3377833,40.8207635 28.4765764,52.1942365 C28.0285714,52.6879064 27.3932512,52.9694335 26.7268966,52.9698768 Z" id="Path" fill="#FFFFFF"></path>
                <path d="M49.5161823,80.3983744 C42.9867488,80.3983744 37.6935961,75.1052217 37.6935961,68.5757882 C37.6935961,62.0463547 42.9867488,56.753202 49.5161823,56.753202 C56.0456158,56.753202 61.3387685,62.0463547 61.3387685,68.5757882 C61.3387685,75.1052217 56.0456158,80.3983744 49.5161823,80.3983744 Z M49.5161823,61.4821921 C45.5985222,61.4821921 42.4225862,64.6581281 42.4225862,68.5757882 C42.4225862,72.4934483 45.5985222,75.6693842 49.5161823,75.6693842 C53.4338424,75.6693842 56.6097783,72.4934483 56.6097783,68.5757882 C56.6097783,64.6581281 53.4338424,61.4821921 49.5161823,61.4821921 Z" id="Shape" fill="#FFFFFF"></path>
                <path d="M87.3487685,89.8565764 C72.9840148,89.8565764 61.3389901,78.2115517 61.3389901,63.846798 C61.3389901,49.4820443 72.9840148,37.8370197 87.3487685,37.8370197 C101.713522,37.8370197 113.358547,49.4820443 113.358547,63.846798 C113.340369,78.2040148 101.705985,89.838399 87.3487685,89.8565764 Z M87.3487685,42.5660099 C75.5957882,42.5660099 66.0679803,52.0938177 66.0679803,63.846798 C66.0679803,75.5997783 75.5957882,85.1275862 87.3487685,85.1275862 C99.1017488,85.1275862 108.629557,75.5997783 108.629557,63.846798 C108.629557,52.0938177 99.1017488,42.5660099 87.3487685,42.5660099 Z" id="Shape" fill="#F16C50"></path>
                <path d="M96.8067488,75.6693842 C96.1791872,75.6704926 95.5768966,75.4222167 95.1326601,74.978867 L76.2164778,56.0626847 C75.3091626,55.1234483 75.3353202,53.6264778 76.2745567,52.7191626 C77.1909606,51.8340148 78.6435961,51.8340148 79.56,52.7191626 L98.4761823,71.6353448 C99.4007882,72.5575123 99.4025616,74.0547044 98.4803941,74.9793103 C98.0357143,75.4250985 97.4316502,75.6751478 96.8020936,75.6740431 L96.8067488,75.6693842 Z" id="Path" fill="#F16C50"></path>
                <path d="M77.8905665,75.6693884 C76.5846798,75.6718227 75.5241872,74.6148768 75.5217451,73.3089901 C75.5206404,72.6794335 75.7706897,72.0753695 76.2164778,71.6306897 L95.1326601,52.7145074 C96.0718966,51.8071921 97.568867,51.8333498 98.4761823,52.7725862 C99.36133,53.6889901 99.36133,55.1416256 98.4761823,56.0580296 L79.56,74.9742118 C79.1175369,75.4180049 78.5170197,75.6680542 77.8905665,75.6693884 Z" id="Path" fill="#F16C50"></path>
            </g>
        </g>
    </g>
</svg>